<svg width="224" height="142" viewBox="0 0 224 142" fill="none" xmlns="http://www.w3.org/2000/svg">
    <g clip-path="url(#clip0_515_2977)">
        <path
            d="M123.277 49.109C123.593 49.1919 123.917 49.2541 124.228 49.3619C124.382 49.4116 124.585 49.6561 124.633 49.6188C125.722 48.8562 126.956 49.2914 128.11 49.2209C129.587 49.1339 131.073 48.421 132.554 49.0966C132.975 49.2873 133.157 49.0635 133.421 48.8687C133.951 48.4708 134.489 48.4335 135.007 48.8935C135.432 49.2665 135.566 49.7473 135.367 50.2737C135.117 50.9409 134.615 51.2518 133.914 51.2435C132.295 51.2228 130.709 51.6497 129.118 51.716C127.985 51.7657 126.847 52.031 125.73 51.9274C124.374 51.803 123.091 52.491 121.524 51.8901C122.581 53.2495 122.585 53.2619 123.735 52.5449C124.095 52.3211 124.443 52.3377 124.807 52.4496C125.001 52.5076 125.2 52.719 125.37 52.69C126.693 52.4827 128.017 52.3708 129.357 52.5283C129.413 52.5366 129.482 52.3874 129.551 52.3833C130.976 52.2216 132.409 52.5035 133.846 52.2755C134.246 52.2133 134.615 52.8972 134.554 53.465C134.489 54.066 134.097 54.6918 133.558 54.5799C132.02 54.2608 130.583 54.9115 129.069 54.9115C127.734 54.9115 126.313 54.9405 124.949 55.2264C125.815 55.8357 126.418 56.3082 127.717 55.7652C128.778 55.3218 130.373 55.8233 131.753 55.7114C132.299 55.6658 132.785 56.2833 132.599 57.0128C132.417 57.7132 131.931 58.0116 131.215 58.053C130.543 58.0945 129.745 57.22 129.292 57.995C129.049 58.4136 129.502 59.2591 129.64 59.9098C129.713 60.2621 129.628 60.5812 129.454 60.8838C129.292 61.1698 128.992 61.4682 129.26 61.7997C129.555 62.1686 129.952 61.9282 130.3 61.8412C130.462 61.7998 130.611 61.7169 130.769 61.6796C131.421 61.5262 132.089 61.5304 132.352 62.2681C132.639 63.0763 132.02 63.3996 131.405 63.6317C129.223 64.444 127.037 65.248 124.852 66.0521C124.228 66.2842 123.585 66.4665 122.982 66.7484C122.2 67.109 121.609 67.138 121.12 66.2469C120.618 65.3392 119.865 65.5382 119.221 66.0811C118.655 66.5619 118.258 66.6158 117.805 65.9443C117.262 65.1403 116.615 65.5589 116.08 65.9568C115.583 66.3298 115.153 66.566 114.696 65.9775C114.101 65.2066 113.49 65.3931 112.879 65.9153C112.397 66.3298 111.948 66.4748 111.502 65.8822C110.968 65.1693 110.333 65.2853 109.774 65.7827C109.24 66.2552 108.815 66.3712 108.297 65.7951C107.742 65.1776 107.111 65.2688 106.524 65.7495C106.087 66.1101 105.629 66.3422 105.245 65.7827C104.666 64.9455 104.014 65.1776 103.431 65.6418C102.812 66.135 102.367 66.2179 101.909 65.476C101.387 64.6305 100.809 65.1569 100.339 65.5133C99.6954 66.0024 99.1814 66.1018 98.6552 65.3641C98.1654 64.6719 97.5947 65.0284 97.1413 65.389C96.5139 65.8863 96.0161 66.0397 95.498 65.2522C94.9556 64.4233 94.3646 64.9662 93.9275 65.3475C93.2718 65.9195 92.8103 65.9526 92.3246 65.1651C91.7944 64.3031 91.2317 64.8584 90.7744 65.248C90.1591 65.7703 89.6815 65.9443 89.1553 65.132C88.6534 64.3528 88.0827 64.7258 87.5888 65.1776C87.0222 65.6957 86.5486 65.7785 86.0386 65.0823C85.5367 64.3943 84.9376 64.6139 84.4236 65.0823C83.8205 65.6335 83.3388 65.7247 82.76 65.0035C82.2378 64.3528 81.6266 64.6637 81.1288 65.1154C80.6309 65.5713 80.2221 65.5879 79.7445 65.0781C79.1576 64.4481 78.514 64.4647 77.8825 65.0574C77.4413 65.4718 77.0325 65.476 76.5832 65.0242C76.0044 64.4398 75.3649 64.3279 74.7294 64.9621C74.3004 65.3931 73.8996 65.4553 73.4625 64.9455C72.8513 64.2368 72.1632 64.2865 71.5358 64.8999C71.0622 65.3641 70.6817 65.3392 70.2851 64.846C69.8601 64.3072 70.1515 64.0627 70.6291 63.785C71.3941 63.3415 71.5479 62.3883 72.1794 61.7459C73.1144 60.7926 74.2032 60.3036 75.2961 59.7109C76.0287 59.3089 75.8547 58.7991 75.288 58.3183C74.5675 57.709 73.7296 57.3195 72.8513 57.0832C71.3941 56.6895 70.1313 55.844 68.7146 55.3674C68.4474 55.2762 68.1722 55.1436 68.1277 54.7747C68.3746 54.4058 68.6417 54.6918 68.8805 54.7747C71.8596 55.8233 74.8427 56.8677 77.8137 57.9494C78.514 58.2064 79.0402 58.2727 79.5016 57.5143C80.0521 56.6149 80.8454 56.6563 81.6631 57.1578C81.9828 57.3526 82.2864 57.6179 82.675 57.307C82.8409 57.1744 83.019 57.0128 82.9543 56.789C82.9178 56.6646 82.7357 56.532 82.594 56.4947C81.8695 56.3123 81.145 56.1092 80.4083 56.0098C76.4092 55.4834 72.5437 54.2898 68.581 53.581C67.7634 53.436 66.9053 53.2122 66.2172 52.5781C66.6098 52.0931 66.9903 52.3418 67.3141 52.4081C72.5599 53.4816 77.8056 54.5592 83.0433 55.6741C83.7881 55.8316 84.2617 55.8233 84.6381 55.0026C85.0348 54.1364 85.8079 54.0121 86.6538 54.381C86.9695 54.5177 87.2124 54.9861 87.6334 54.6545C87.7427 54.5675 87.8479 54.3188 87.8034 54.2193C87.5888 53.751 87.1112 53.8256 86.7186 53.7717C82.2824 53.1583 77.8421 52.5573 73.4018 51.9522C71.2241 51.6538 69.0465 51.3595 66.8688 51.0611C66.7879 51.0487 66.7029 51.0487 66.6219 51.0238C66.1241 50.8705 65.3429 50.8083 65.4643 50.1701C65.5614 49.6603 66.2657 50.0457 66.6745 50.0996C73.7863 51.0528 80.8981 52.0268 88.0058 53.0174C89.0096 53.1583 89.9163 53.4028 90.4667 52.0848C90.7865 51.314 91.6001 51.3347 92.3125 51.7201C92.5715 51.861 92.8184 52.0683 93.0896 51.774C93.1625 51.6911 93.2394 51.5295 93.207 51.4424C93.0775 51.0819 92.7375 51.1648 92.4663 51.1357C84.7879 50.398 77.1135 49.6644 69.4351 48.9308C68.4029 48.8314 67.3748 48.7194 66.3426 48.6075C65.9541 48.5661 65.525 48.4749 65.61 47.9651C65.6869 47.4885 66.1241 47.6543 66.4357 47.6833C70.7303 48.0853 75.0249 48.4832 79.3195 48.8935C84.5612 49.395 89.807 49.8924 95.0446 50.4353C95.7327 50.5058 96.0282 50.2571 96.2589 49.6768C96.6192 48.7816 97.1251 48.1765 98.133 48.9184C98.3597 49.0883 98.6268 49.1339 98.809 48.9142C99.3392 48.276 99.8857 48.218 100.533 48.7319C100.764 48.9142 100.999 48.7319 101.205 48.5744C101.367 48.4459 101.586 48.1972 101.707 48.2345C102.662 48.5537 103.533 48.1019 104.415 48.0522C105.127 48.0149 105.803 48.2594 106.471 47.7496C106.601 47.6501 106.985 47.7538 107.155 47.8905C107.621 48.2677 107.981 48.1682 108.333 47.7538C108.386 47.6916 108.471 47.6046 108.531 47.6128C109.527 47.733 110.478 47.5051 111.454 47.3725C111.996 47.2979 112.607 47.6875 113.17 47.1321C113.385 46.9207 113.721 47.0243 113.992 47.1735C114.17 47.273 114.461 47.4968 114.518 47.4471C115.319 46.7549 116.198 47.1238 117.06 47.0492C117.752 46.9912 118.383 46.3819 119.153 46.9829C119.318 47.1114 119.529 46.9041 119.679 46.7466C119.792 46.6264 119.99 46.4068 120.043 46.4358C121.18 47.0409 122.289 45.8763 123.411 46.3943C123.447 46.4109 123.5 46.4731 123.508 46.4648C124.467 45.7602 125.596 46.2617 126.612 46.0048C126.685 45.9882 126.75 45.8473 126.803 45.8555C127.94 46.0296 129.049 45.4287 130.126 45.6276C130.668 45.7271 130.996 45.8307 131.405 45.4328C131.704 45.1427 132.093 45.1344 132.445 45.3582C132.83 45.6027 133.133 45.6483 133.566 45.3623C134.275 44.9023 134.91 45.1924 135.129 45.9799C135.359 46.7964 135.117 47.6253 134.182 47.7248C131.583 47.9983 129.005 48.4501 126.39 48.62C125.366 48.6863 124.273 48.6075 123.301 49.1381C122.634 49.1049 121.97 49.0759 121.197 49.0386C122.03 50.4643 122.65 49.7349 123.277 49.1132V49.109ZM126.714 58.0365C126.26 57.9702 125.823 57.9992 125.839 58.5048C125.855 59.027 126.191 59.5451 126.71 59.5865C127.24 59.6238 127.92 59.2384 127.928 58.7493C127.944 58.0613 127.086 58.3017 126.714 58.0365ZM123.346 58.0945C122.917 58.1152 122.544 58.2313 122.646 58.6582C122.755 59.1306 122.978 59.6984 123.593 59.6197C124.034 59.5658 124.58 59.2218 124.552 58.7866C124.508 58.0613 123.726 58.3059 123.346 58.0945ZM120.415 58.2313C119.958 58.1857 119.484 58.1815 119.488 58.7742C119.488 59.2094 119.772 59.628 120.241 59.628C120.707 59.628 121.193 59.3296 121.269 58.8737C121.367 58.281 120.735 58.3888 120.415 58.2313ZM124.257 55.6658C124.062 55.1684 123.56 55.2099 123.164 55.1228C122.787 55.0399 122.188 54.8742 122.18 55.4337C122.172 55.9269 122.828 56.13 123.249 56.304C123.686 56.4864 123.985 56.1009 124.257 55.6658ZM116.178 58.8322C116.271 59.2716 116.518 59.6487 116.955 59.6736C117.424 59.7026 117.922 59.3586 117.975 58.9358C118.052 58.3224 117.4 58.3473 116.999 58.2603C116.598 58.1732 116.287 58.3763 116.178 58.8322ZM76.5711 58.6043C76.7047 59.1969 77.069 59.5409 77.4292 59.8601C77.8259 60.2124 78.2266 60.03 78.4775 59.6487C78.8297 59.1141 78.3237 59.0104 78.004 58.9027C77.5911 58.7618 77.2106 58.4509 76.5711 58.6084V58.6043ZM119.926 55.2016C119.578 55.2264 119.108 55.1684 119.173 55.6243C119.242 56.101 119.756 56.333 120.173 56.4201C120.61 56.5113 121.059 56.1424 121.01 55.7321C120.942 55.1518 120.278 55.3839 119.93 55.2016H119.926ZM113.818 58.3349C113.413 58.3846 113.032 58.4965 113.049 58.9773C113.065 59.3835 113.316 59.7275 113.749 59.686C114.206 59.6404 114.716 59.3544 114.745 58.9068C114.773 58.3888 114.17 58.4551 113.818 58.3349ZM111.527 58.9773C111.462 58.5007 111.081 58.5089 110.778 58.4634C110.325 58.397 109.92 58.5421 109.855 59.0685C109.806 59.4539 110.057 59.7523 110.442 59.7275C110.92 59.7026 111.235 59.3379 111.531 58.9773H111.527ZM104.164 58.5753C103.784 58.6582 103.411 58.8074 103.395 59.2633C103.383 59.6694 103.682 59.9222 104.055 59.8021C104.431 59.6819 104.889 59.4746 104.86 58.969C104.84 58.6209 104.46 58.6043 104.164 58.5753ZM114.749 55.8854C114.514 55.4295 114.081 55.4793 113.692 55.4834C113.397 55.4834 113.065 55.6326 113.17 55.9973C113.275 56.3621 113.587 56.6522 113.992 56.6149C114.376 56.5776 114.623 56.2875 114.749 55.8854ZM101.594 59.0975C101.48 58.7245 101.197 58.6582 100.906 58.7286C100.545 58.8156 100.169 58.9731 100.185 59.4415C100.193 59.7813 100.44 59.9927 100.768 59.9098C101.181 59.8103 101.472 59.5202 101.594 59.0933V59.0975ZM108.155 59.0353C108.131 58.6333 107.847 58.5504 107.564 58.5214C107.115 58.4799 106.746 58.654 106.649 59.1348C106.58 59.4705 106.795 59.715 107.115 59.7316C107.613 59.7606 107.908 59.4166 108.151 59.0312L108.155 59.0353ZM117.023 55.3549C116.688 55.3549 116.258 55.2886 116.198 55.6906C116.121 56.2087 116.635 56.3538 116.987 56.474C117.404 56.6149 117.744 56.2916 117.788 55.9186C117.853 55.3839 117.323 55.471 117.019 55.3549H117.023ZM119.703 52.2175C119.403 52.1885 118.995 52.089 119.007 52.491C119.015 52.893 119.468 53.0713 119.8 53.1915C120.16 53.3241 120.525 53.0878 120.533 52.7314C120.549 52.1843 119.974 52.3957 119.703 52.2175ZM94.223 59.9513C94.5792 59.8394 94.907 59.6404 94.992 59.2508C95.0649 58.9193 94.7977 58.8032 94.5346 58.8861C94.2027 58.9939 93.7777 59.056 93.7292 59.5202C93.6968 59.8394 93.9396 59.9305 94.2189 59.9471L94.223 59.9513ZM97.3882 59.9057C97.7566 59.8518 98.0966 59.6736 98.2261 59.2881C98.3273 58.9814 98.1128 58.8074 97.8254 58.8157C97.4328 58.8322 97.0766 59.0022 96.9551 59.4042C96.8742 59.6777 97.0604 59.8808 97.3882 59.9057ZM111.454 56.0139C111.349 55.6575 111.061 55.6285 110.778 55.6492C110.434 55.6782 110.106 55.7984 110.187 56.2377C110.244 56.5486 110.515 56.7102 110.831 56.6646C111.179 56.6107 111.397 56.3869 111.454 56.0139ZM108.37 56.1465C108.329 55.8357 108.106 55.7362 107.851 55.7735C107.503 55.8233 107.054 55.8274 107.034 56.333C107.022 56.59 107.273 56.7931 107.532 56.7972C107.941 56.8055 108.191 56.532 108.37 56.1507V56.1465Z"
            fill="#E5EBF0" />
        <path
            d="M110.13 95.1264C109.782 94.4757 109.305 94.6953 108.94 94.6829C102.683 94.4881 96.4249 94.3182 90.1672 94.1441C84.5733 93.9907 78.9754 93.8415 73.3815 93.684C73.0941 93.6758 72.8027 93.6467 72.5234 93.5846C72.321 93.539 72.1429 93.3981 72.1267 93.1494C72.1065 92.8551 72.2725 92.6479 72.5234 92.5774C72.7582 92.5153 73.0132 92.5277 73.2601 92.5319C83.1647 92.7474 93.0734 92.9587 102.978 93.1826C105.629 93.2406 108.281 93.34 110.932 93.4188C112.616 93.4685 114.413 93.8457 115.449 91.4625C113.194 91.4625 110.98 91.4791 108.766 91.4625C98.4406 91.3797 88.115 91.2885 77.7935 91.1973C77.4616 91.1973 77.1297 91.1807 76.8018 91.1434C76.4942 91.1061 76.2392 90.9569 76.2068 90.6005C76.1704 90.1902 76.4132 89.9498 76.7816 89.9083C77.2754 89.8503 77.7732 89.842 78.2711 89.8462C91.5798 89.9291 104.893 90.0202 118.201 90.099C118.837 90.099 119.541 90.3062 119.966 89.5187C120.371 88.7686 120.363 88.3375 119.359 88.35C116.623 88.3873 113.887 88.3873 111.146 88.4121C101.484 88.4909 91.8227 88.5779 82.1609 88.6525C81.5902 88.6567 80.809 88.7478 80.7766 87.9604C80.7402 87.0196 81.574 87.0361 82.2419 87.032C91.6122 86.9408 100.983 86.8579 110.353 86.7626C114.623 86.7211 118.893 86.6631 123.164 86.601C123.88 86.5885 124.544 86.6548 124.653 87.5542C124.75 88.3541 125.175 88.2795 125.71 88.0723C126.058 87.9397 126.414 87.8153 126.77 87.7034C127.203 87.5666 127.758 87.0278 128.041 87.7283C128.272 88.2919 128.227 88.9965 127.673 89.4814C127.058 90.0161 126.309 90.2731 125.568 90.5507C124.398 90.9859 123.233 91.4335 122.071 91.8812C121.881 91.9558 121.642 92.0469 121.727 92.3122C121.824 92.6147 122.063 92.5899 122.334 92.5153C124.985 91.79 127.649 91.1186 130.385 90.7787C130.939 90.7082 131.393 90.4969 131.433 91.276C131.466 91.9848 131.526 92.6728 130.575 92.9878C128.325 93.7379 125.969 94.0115 123.694 94.6414C123.654 94.6539 123.609 94.6414 123.569 94.6497C123.123 94.7243 122.512 94.6912 122.342 95.0891C122.2 95.4206 122.577 95.7895 123.054 95.545C123.237 95.4538 123.459 95.1388 123.528 95.1761C124.483 95.6983 125.354 94.4881 126.305 95.0435C126.422 95.1098 126.637 95.0973 126.766 95.031C127.839 94.4881 128.968 94.513 130.13 94.4591C130.866 94.4218 131.672 94.2933 132.392 94.1275C133.137 93.9576 133.619 93.825 133.809 94.658C133.995 95.4704 133.809 96.2247 132.858 96.4195C130.15 96.9666 127.414 97.3561 124.674 97.696C124.038 97.7747 123.427 98.0151 122.658 97.9281C123.35 98.5788 123.929 98.9808 124.601 98.1851C124.625 98.156 124.69 98.1187 124.71 98.1312C125.835 98.8814 126.944 97.4805 128.061 98.1022C128.438 98.3094 128.681 98.127 128.948 97.9074C129.377 97.5592 129.838 97.4266 130.304 97.8203C130.62 98.0856 130.891 98.0814 131.17 97.7789C131.603 97.3064 132.081 97.2194 132.603 97.6297C132.927 97.8825 133.194 97.7955 133.485 97.5385C133.922 97.1572 134.412 97.1696 134.837 97.5551C135.214 97.8949 135.287 98.3674 135.153 98.8441C134.995 99.416 134.639 99.8263 134.028 99.8802C131.453 100.096 128.879 100.261 126.309 100.506C124.431 100.684 122.565 100.991 120.687 101.182C118.772 101.376 116.849 101.48 114.931 101.662C113.012 101.849 111.102 102.093 109.183 102.296C107.354 102.491 105.52 102.661 103.69 102.839C101.695 103.034 99.6873 103.167 97.7039 103.44C96.5666 103.598 95.4696 103.378 94.3687 103.275C85.909 102.491 77.4494 101.646 68.9938 100.821C68.1276 100.738 67.2574 100.697 66.3952 100.597C66.0836 100.56 65.614 100.494 65.6667 100.075C65.7233 99.6108 66.1969 99.7849 66.4964 99.8139C69.4269 100.079 72.3615 100.353 75.292 100.639C81.6064 101.256 87.9207 101.865 94.2351 102.512C95.2511 102.616 96.1254 102.649 96.4815 101.397C96.5544 101.14 96.8297 100.945 97.0482 100.672C96.6637 100.278 96.178 100.386 95.7611 100.357C86.7833 99.7393 77.8097 99.1425 68.8319 98.5166C68.1155 98.4669 66.8972 98.757 66.9133 97.7872C66.9255 97.0909 68.1317 97.4722 68.7793 97.5136C79.453 98.2058 90.1267 98.9394 100.8 99.6647C102.055 99.7517 102.662 99.3207 102.857 98.098C102.978 97.3313 102.359 97.5634 102.023 97.5468C99.744 97.4183 97.4651 97.3271 95.1903 97.2235C86.8643 96.8464 78.5423 96.4651 70.2162 96.0838C70.0908 96.0796 69.9653 96.0838 69.8439 96.0713C69.4634 96.0299 69.0303 95.9843 69.0465 95.4745C69.0586 94.9357 69.516 94.9523 69.8843 94.9689C72.0782 95.0559 74.2761 95.1512 76.4699 95.2507C83.4683 95.5657 90.4708 95.8848 97.4692 96.2039C100.659 96.349 103.848 96.4982 107.034 96.664C107.799 96.7054 108.483 96.6516 108.657 95.7149C108.827 94.7907 109.592 95.3377 110.142 95.1098L110.13 95.1264ZM124.289 88.495C123.39 88.2629 122.662 88.0889 122.039 88.781C121.941 88.8888 121.881 89.0919 121.905 89.2328C121.933 89.4276 122.132 89.4524 122.289 89.382C122.905 89.1167 123.633 89.1126 124.285 88.4909L124.289 88.495Z"
            fill="#E5EBF0" />
        <path
            d="M116.57 76.6373C119.747 76.4135 122.92 76.1855 126.098 75.9659C128.288 75.8167 130.469 75.5514 132.671 75.5929C133.493 75.6094 133.979 75.912 134.015 76.716C134.052 77.5035 133.533 77.7563 132.809 77.8475C125.236 78.7925 117.618 79.1075 110.017 79.6587C107.418 79.8452 104.819 80.0566 102.083 80.2679C102.419 80.7487 102.808 80.6078 103.115 80.5912C112.178 80.1436 121.241 79.6836 130.307 79.2152C131.048 79.1779 131.68 79.2608 131.732 80.1851C131.785 81.0844 131.214 81.2958 130.453 81.358C121.82 82.1081 113.158 82.3278 104.504 82.7298C100.816 82.8998 97.1328 83.0821 93.4454 83.2396C92.9556 83.2603 92.2189 83.4966 92.2351 82.6138C92.2513 81.8263 92.2877 80.9311 93.4535 80.9269C94.5706 80.9186 95.6918 80.8482 96.809 80.8275C97.8492 80.8067 98.4847 80.413 98.3552 79.2235C98.2419 78.1708 98.6142 77.6817 99.7395 77.748C100.808 77.8061 101.889 77.6237 102.965 77.6196C104.406 77.6113 104.71 77.2797 104.5 75.7877C104.269 74.1713 104.471 74.1008 106.086 74.3868C107.329 74.6064 108.628 74.5028 109.903 74.5028C110.292 74.5028 110.668 74.2998 110.668 73.8273C110.668 73.1393 110.51 72.4596 110.012 71.9622C109.685 71.6306 109.179 71.6099 108.871 71.9208C108.248 72.5425 107.843 72.5217 107.313 71.7798C106.969 71.2991 106.394 71.4524 106.001 71.871C105.572 72.3228 105.2 72.4803 104.827 71.8337C104.787 71.7633 104.726 71.697 104.666 71.6431C103.783 70.8805 103.067 72.3642 102.484 71.9622C101.792 71.4814 101.338 70.8142 100.521 71.6141C100.144 71.9829 99.8366 72.0492 99.5007 71.5809C98.9623 70.8266 98.3754 70.8017 97.7399 71.4649C97.5416 71.6721 97.319 71.9581 97.0114 71.6679C96.8778 71.5395 96.7726 71.2949 96.7847 71.1126C96.813 70.7147 97.1854 70.7561 97.4526 70.6898C98.1407 70.5199 98.8247 70.3334 99.5088 70.7271C99.6464 70.8059 99.8326 70.8598 99.9864 70.839C102.399 70.4992 104.803 70.9095 107.199 71.0338C108.863 71.1209 110.551 71.1747 112.218 71.3198C114.105 71.4897 116.06 71.1955 117.982 70.8266C122.014 70.0557 126.057 69.3345 130.057 68.3896C131.53 68.0414 132.943 68.8538 134.432 68.5802C134.893 68.4932 135.371 68.9491 135.375 69.5625C135.375 70.1344 135.084 70.5489 134.525 70.665C133.837 70.81 133.129 70.8639 132.445 71.0214C132.113 71.096 131.591 71.1374 131.651 71.6431C131.7 72.0368 132.157 72.0244 132.477 72.0451C132.971 72.0741 133.473 72.0617 133.971 72.0451C134.736 72.0244 135.144 72.4388 135.209 73.1724C135.274 73.9392 134.723 74.1796 134.112 74.2915C128.98 75.2281 123.779 75.5556 118.598 76.0778C117.901 76.1482 117.201 76.1441 116.558 76.6373H116.57ZM123.066 72.7331C121.779 72.5507 120.516 72.758 119.278 73.1227C120.569 73.3341 121.811 73.0481 123.066 72.7331Z"
            fill="#E5EBF0" />
        <path
            d="M108.296 85.4613C99.7797 85.6934 93.8985 85.8716 88.0131 85.9959C87.41 86.0084 86.3819 86.4518 86.3212 85.3328C86.2605 84.1599 87.1753 83.9982 88.1467 83.9858C92.1215 83.9236 96.0963 83.8366 100.071 83.7288C108.891 83.4885 117.707 83.2315 126.527 82.9828C126.859 82.9745 127.191 82.9745 127.522 82.9787C128.206 82.9911 128.486 83.4056 128.474 84.048C128.461 84.6945 128.004 84.7153 127.514 84.7567C120.241 85.3701 112.943 85.2499 108.296 85.4654V85.4613Z"
            fill="#E5EBF0" />
        <path
            d="M99.9138 67.3286C101.14 68.2694 102.735 66.91 104.115 67.8011C104.204 67.8591 104.362 67.8425 104.48 67.8176C107.147 67.2333 109.831 67.8591 112.51 67.8052C114.951 67.7555 117.444 67.8425 119.905 68.0456C120.5 68.0953 121.051 67.8798 121.605 67.7099C124.143 66.9307 126.697 66.2095 129.106 65.0532C129.725 64.7548 130.324 64.618 130.963 65.1278C131.469 65.5298 132.081 65.2065 132.647 65.1195C133.38 65.0076 134.169 64.9745 134.351 65.8987C134.542 66.8685 133.777 67.055 133.044 67.2125C127.972 68.2818 122.896 69.347 117.833 70.4577C116.954 70.6525 116.432 70.4867 116.072 69.604C115.647 68.5554 114.898 68.4725 114.097 69.1771C113.672 69.5501 113.344 69.6827 112.963 69.1688C112.409 68.4186 111.761 68.5098 111.13 69.0154C110.713 69.3511 110.373 69.5293 109.992 68.9864C109.442 68.1989 108.794 68.3523 108.179 68.8745C107.799 69.1978 107.463 69.5252 107.054 68.9533C106.467 68.1326 105.795 68.2445 105.131 68.7916C104.694 69.1522 104.338 69.2309 103.99 68.7212C103.48 67.971 102.832 68.0663 102.286 68.5719C101.731 69.0859 101.375 69.1936 100.922 68.4766C100.468 67.7513 99.8693 67.9668 99.3147 68.3854C98.999 68.6258 98.7643 69.0942 98.2704 68.7419C98.06 68.5927 97.89 68.3606 97.9385 68.0953C98.0519 67.4778 98.6145 67.5814 99.0274 67.4612C99.2662 67.3907 99.5171 67.3825 99.9138 67.3203V67.3286Z"
            fill="#E5EBF0" />
        <path
            d="M96.4371 67.2456C96.761 67.2456 97.1819 67.3202 97.0443 67.5523C96.7164 68.1077 96.2105 68.6092 95.5669 68.7169C95.1621 68.7832 94.8788 68.3066 94.9719 67.9336C95.1824 67.1005 96.0243 67.5482 96.4412 67.2456H96.4371Z"
            fill="#E5EBF0" />
        <path
            d="M93.2715 67.1794C93.5832 67.196 93.9799 67.2333 93.8422 67.5234C93.5994 68.0332 93.1906 68.5181 92.5713 68.5471C92.2029 68.5637 91.956 68.199 92.0289 67.8426C92.1786 67.1048 92.887 67.3825 93.2715 67.1753V67.1794Z"
            fill="#E5EBF0" />
        <path
            d="M90.0856 67.0676C90.4337 67.0261 90.7777 67.1049 90.6644 67.482C90.5227 67.9586 90.1746 68.3607 89.6363 68.398C89.2599 68.4228 89.0049 68.1161 89.017 67.768C89.0373 67.0303 89.7173 67.2541 90.0856 67.0676Z"
            fill="#E5EBF0" />
        <path
            d="M87.6127 67.4321C87.3982 67.8259 87.1675 68.2652 86.6656 68.2942C86.2122 68.3232 85.9653 67.9502 86.0422 67.5482C86.1596 66.9638 86.7263 67.0467 87.1513 66.9887C87.4022 66.9555 87.6491 67.0508 87.6127 67.4321Z"
            fill="#E5EBF0" />
        <path
            d="M83.7718 66.9017C84.128 66.939 84.4761 66.9473 84.4397 67.3576C84.3992 67.8218 84.1158 68.141 83.6342 68.1327C83.2456 68.1244 83.0432 67.8218 83.0392 67.4571C83.0311 66.8976 83.5006 66.9846 83.7718 66.9017Z"
            fill="#E5EBF0" />
        <path
            d="M96.0967 70.462C95.6474 70.8392 95.2872 71.1542 94.9148 71.4484C94.5667 71.722 94.2996 71.5894 94.1296 71.2164C93.9717 70.8682 94.1174 70.6154 94.4574 70.5615C94.9593 70.4786 95.4612 70.2548 96.0967 70.462Z"
            fill="#E5EBF0" />
        <path
            d="M78.3197 67.3617C78.2388 67.7306 78.0526 68.0124 77.6519 67.971C77.2592 67.9295 77.1054 67.5897 77.0811 67.2415C77.0528 66.8602 77.324 66.7318 77.6559 66.7608C78.0121 66.7939 78.3076 66.9183 78.3157 67.3617H78.3197Z"
            fill="#E5EBF0" />
        <path
            d="M100.12 75.1245C99.6506 74.996 99.5899 74.6064 99.5454 74.2459C99.509 73.9682 99.7033 73.7236 99.9745 73.7775C100.298 73.8438 100.776 73.9019 100.703 74.4034C100.659 74.7059 100.448 75.0043 100.12 75.1245Z"
            fill="#E5EBF0" />
        <path
            d="M81.3232 67.4612C81.2261 67.8135 81.052 68.1077 80.6473 68.0539C80.2668 68.0041 80.0766 67.7016 80.0928 67.3327C80.113 66.8602 80.4894 66.8561 80.8213 66.8851C81.1492 66.91 81.3597 67.084 81.3232 67.4612Z"
            fill="#E5EBF0" />
        <path
            d="M74.7211 67.8136C74.3083 67.7183 74.1221 67.4613 74.1018 67.0883C74.0856 66.7526 74.3325 66.6656 74.5956 66.678C74.9559 66.6946 75.2514 66.8438 75.2433 67.2748C75.2352 67.623 75.0126 67.7888 74.7211 67.8178V67.8136Z"
            fill="#E5EBF0" />
        <path
            d="M90.2319 70.1469C89.8311 70.6484 89.6814 71.208 89.0702 71.1499C88.8071 71.1251 88.629 70.8225 88.7545 70.5697C89.0176 70.035 89.5033 69.9936 90.2319 70.1469Z"
            fill="#E5EBF0" />
        <path
            d="M92.9644 70.3624C92.584 70.752 92.3856 71.4151 91.7016 71.3198C91.487 71.2908 91.3535 70.9965 91.4425 70.8224C91.7582 70.1966 92.3492 70.2629 92.9644 70.3624Z"
            fill="#E5EBF0" />
        <path
            d="M71.7907 67.6477C71.3818 67.656 71.1957 67.3824 71.1066 67.0384C71.0257 66.7276 71.1754 66.5369 71.4952 66.5825C71.8271 66.6281 72.1711 66.7234 72.2278 67.1379C72.2683 67.4404 72.0618 67.5896 71.7907 67.6518V67.6477Z"
            fill="#E5EBF0" />
        <path
            d="M103.472 74.2293C102.942 74.6686 102.97 75.4229 102.233 75.2116C102.072 75.166 101.849 74.7349 101.91 74.6106C102.201 74.0096 102.735 74.2044 103.472 74.2293Z"
            fill="#E5EBF0" />
        <path
            d="M83.9095 70.8514C83.5331 70.8473 83.3752 70.6691 83.3226 70.3955C83.2498 70.0225 83.4481 69.8319 83.7881 69.8153C84.0512 69.7987 84.2941 69.8857 84.3103 70.2132C84.3264 70.553 84.1241 70.7437 83.9095 70.8514Z"
            fill="#E5EBF0" />
        <path
            d="M86.6863 69.9686C86.9372 69.9976 87.2368 70.0184 87.1437 70.3831C87.0587 70.7188 86.8239 70.9965 86.4677 71.0379C86.1722 71.0711 86.0306 70.8266 86.0265 70.5489C86.0184 70.1054 86.3422 70.0142 86.6863 69.9686Z"
            fill="#E5EBF0" />
        <path
            d="M97.0278 73.6532C97.6593 73.6946 98.1126 73.7692 98.1531 74.4199C98.1652 74.6272 98.0033 74.8841 97.8009 74.8427C97.2262 74.7225 97.2383 74.1796 97.0278 73.6532Z"
            fill="#E5EBF0" />
        <path
            d="M94.6523 73.5248C95.0531 73.7859 95.7533 73.5455 95.8302 74.2335C95.8424 74.3413 95.64 74.5692 95.5226 74.5775C94.8385 74.6272 94.9478 73.8854 94.6523 73.5248Z"
            fill="#E5EBF0" />
        <path
            d="M193.941 115.634L121.783 138.102C121.783 138.102 98.2662 147.874 67.3258 133.758L30.7552 117.205C17.0862 111.278 7.12489 98.8648 4.09319 83.9899C-2.05117 57.7754 -2.0876 46.5436 20.1503 33.6581C42.3841 20.7767 69.4468 4.97344 69.4468 4.97344C69.4468 4.97344 84.4798 -6.26252 113.919 5.76091C143.357 17.7802 191.197 38.8264 191.197 38.8264C191.197 38.8264 205.056 44.1439 217.931 71.295C230.293 97.3603 221.554 107.506 193.941 115.634Z"
            stroke="#E5EBF0" stroke-width="0.413966" stroke-miterlimit="10" />
    </g>
    <defs>
        <clipPath id="clip0_515_2977">
            <rect width="223.245" height="141.604" fill="white" transform="translate(0.377441)" />
        </clipPath>
    </defs>
</svg>