<svg width="224" height="139" viewBox="0 0 224 139" fill="#E5EBF0" stroke="#E5EBF0" xmlns="http://www.w3.org/2000/svg">
    <g stroke="none">
        <path
            d="M123.277 48.0709C123.593 48.152 123.917 48.2129 124.228 48.3184C124.382 48.3671 124.585 48.6064 124.633 48.5699C125.722 47.8234 126.956 48.2494 128.11 48.1804C129.587 48.0952 131.073 47.3974 132.554 48.0587C132.975 48.2454 133.157 48.0263 133.421 47.8356C133.951 47.4462 134.489 47.4096 135.007 47.8599C135.432 48.225 135.566 48.6957 135.367 49.211C135.117 49.8641 134.615 50.1684 133.914 50.1603C132.295 50.14 130.709 50.5579 129.118 50.6228C127.985 50.6714 126.847 50.9311 125.73 50.8297C124.374 50.708 123.091 51.3814 121.524 50.7932C122.581 52.1239 122.585 52.136 123.735 51.4342C124.095 51.2151 124.443 51.2314 124.807 51.3409C125.001 51.3977 125.2 51.6046 125.37 51.5762C126.693 51.3733 128.017 51.2638 129.357 51.4179C129.413 51.4261 129.482 51.28 129.551 51.276C130.976 51.1177 132.409 51.3937 133.846 51.1705C134.246 51.1096 134.615 51.779 134.554 52.3348C134.489 52.9231 134.097 53.5357 133.558 53.4262C132.02 53.1138 130.583 53.7508 129.069 53.7508C127.734 53.7508 126.313 53.7792 124.949 54.059C125.815 54.6555 126.418 55.118 127.717 54.5864C128.778 54.1524 130.373 54.6433 131.753 54.5338C132.299 54.4891 132.785 55.0936 132.599 55.8077C132.417 56.4933 131.931 56.7854 131.215 56.8259C130.543 56.8665 129.745 56.0105 129.292 56.7691C129.049 57.1789 129.502 58.0065 129.64 58.6435C129.713 58.9883 129.628 59.3007 129.454 59.5969C129.292 59.8769 128.992 60.169 129.26 60.4935C129.555 60.8546 129.952 60.6192 130.3 60.5341C130.462 60.4936 130.611 60.4124 130.769 60.3759C131.421 60.2257 132.089 60.2298 132.352 60.952C132.639 61.7431 132.02 62.0596 131.405 62.2868C129.223 63.0819 127.037 63.8689 124.852 64.656C124.228 64.8832 123.585 65.0617 122.982 65.3376C122.2 65.6906 121.609 65.719 121.12 64.8467C120.618 63.9582 119.865 64.153 119.221 64.6844C118.655 65.155 118.258 65.2078 117.805 64.5505C117.262 63.7635 116.615 64.1732 116.08 64.5627C115.583 64.9279 115.153 65.1591 114.696 64.583C114.101 63.8284 113.49 64.0109 112.879 64.5221C112.397 64.9279 111.948 65.0698 111.502 64.4897C110.968 63.7919 110.333 63.9054 109.774 64.3923C109.24 64.8548 108.815 64.9684 108.297 64.4044C107.742 63.8 107.111 63.8893 106.524 64.3598C106.087 64.7128 105.629 64.94 105.245 64.3923C104.666 63.5728 104.014 63.8 103.431 64.2544C102.812 64.7372 102.367 64.8183 101.909 64.0921C101.387 63.2644 100.809 63.7797 100.339 64.1286C99.6959 64.6074 99.1819 64.7047 98.6557 63.9826C98.1659 63.305 97.5952 63.6539 97.1418 64.0069C96.5144 64.4937 96.0166 64.6439 95.4985 63.873C94.9561 63.0616 94.3651 63.5931 93.928 63.9663C93.2723 64.5262 92.8108 64.5586 92.3251 63.7878C91.7949 62.944 91.2322 63.4875 90.7749 63.8689C90.1596 64.3802 89.682 64.5505 89.1558 63.7554C88.6539 62.9926 88.0832 63.3577 87.5893 63.8C87.0227 64.3071 86.5491 64.3882 86.0391 63.7067C85.5372 63.0332 84.9381 63.2482 84.4241 63.7067C83.821 64.2463 83.3393 64.3355 82.7605 63.6296C82.2383 62.9926 81.6271 63.297 81.1293 63.7391C80.6314 64.1854 80.2226 64.2016 79.745 63.7026C79.1581 63.0859 78.5145 63.1022 77.883 63.6823C77.4418 64.088 77.033 64.0921 76.5837 63.6498C76.0049 63.0778 75.3654 62.9682 74.7299 63.589C74.3009 64.0109 73.9001 64.0718 73.463 63.5728C72.8518 62.8791 72.1637 62.9277 71.5363 63.5282C71.0627 63.9826 70.6822 63.9582 70.2856 63.4754C69.8606 62.948 70.152 62.7086 70.6296 62.4368C71.3946 62.0027 71.5484 61.0696 72.1799 60.4408C73.1149 59.5076 74.2037 59.029 75.2966 58.4488C76.0292 58.0553 75.8552 57.5562 75.2885 57.0856C74.568 56.4892 73.7301 56.1079 72.8518 55.8766C71.3946 55.4912 70.1318 54.6636 68.7151 54.1971C68.4479 54.1078 68.1727 53.978 68.1282 53.6169C68.3751 53.2558 68.6422 53.5357 68.881 53.6169C71.8601 54.6433 74.8432 55.6657 77.8142 56.7245C78.5145 56.9761 79.0407 57.041 79.5021 56.2986C80.0526 55.4182 80.8459 55.4587 81.6636 55.9496C81.9833 56.1403 82.2869 56.4 82.6755 56.0957C82.8414 55.9659 83.0195 55.8077 82.9548 55.5886C82.9183 55.4668 82.7362 55.337 82.5945 55.3005C81.87 55.122 81.1455 54.9232 80.4088 54.8259C76.4097 54.3106 72.5442 53.1422 68.5815 52.4484C67.7639 52.3065 66.9058 52.0874 66.2177 51.4667C66.6103 50.9919 66.9908 51.2354 67.3146 51.3003C72.5604 52.3511 77.8061 53.4059 83.0438 54.4973C83.7886 54.6514 84.2622 54.6433 84.6386 53.84C85.0353 52.9921 85.8084 52.8704 86.6543 53.2315C86.97 53.3653 87.2129 53.8238 87.6339 53.4992C87.7432 53.4141 87.8484 53.1706 87.8039 53.0732C87.5893 52.6148 87.1117 52.6878 86.7191 52.6351C82.2829 52.0346 77.8426 51.4463 73.4023 50.854C71.2246 50.5619 69.047 50.2738 66.8693 49.9817C66.7884 49.9696 66.7034 49.9696 66.6224 49.9452C66.1246 49.7952 65.3434 49.7343 65.4648 49.1096C65.5619 48.6105 66.2662 48.9878 66.675 49.0405C73.7868 49.9736 80.8986 50.927 88.0063 51.8967C89.0101 52.0346 89.9168 52.274 90.4672 50.9838C90.787 50.2293 91.6006 50.2495 92.313 50.6268C92.572 50.7647 92.8189 50.9676 93.0901 50.6796C93.163 50.5984 93.2399 50.4402 93.2075 50.355C93.078 50.0021 92.738 50.0832 92.4668 50.0548C84.7884 49.3326 77.114 48.6145 69.4356 47.8964C68.4034 47.7991 67.3753 47.6895 66.3431 47.58C65.9546 47.5394 65.5255 47.4502 65.6105 46.9511C65.6874 46.4846 66.1246 46.6469 66.4362 46.6753C70.7308 47.0688 75.0254 47.4583 79.32 47.8599C84.5617 48.3508 89.8075 48.8377 95.0451 49.3691C95.7332 49.4382 96.0287 49.1947 96.2594 48.6267C96.6197 47.7504 97.1256 47.1581 98.1335 47.8843C98.3602 48.0506 98.6273 48.0952 98.8095 47.8802C99.3397 47.2555 99.8862 47.1987 100.533 47.7017C100.764 47.8802 100.999 47.7017 101.205 47.5476C101.367 47.4218 101.586 47.1783 101.707 47.2148C102.662 47.5273 103.533 47.085 104.415 47.0364C105.127 46.9999 105.803 47.2392 106.471 46.7402C106.601 46.6428 106.985 46.7443 107.155 46.8781C107.621 47.2473 107.981 47.1499 108.333 46.7443C108.386 46.6834 108.471 46.5983 108.531 46.6063C109.527 46.7239 110.478 46.5009 111.454 46.3711C111.996 46.298 112.607 46.6794 113.17 46.1357C113.385 45.9288 113.721 46.0302 113.992 46.1763C114.17 46.2737 114.461 46.4927 114.518 46.4441C115.319 45.7665 116.198 46.1276 117.06 46.0546C117.752 45.9978 118.383 45.4014 119.153 45.9897C119.318 46.1155 119.529 45.9126 119.679 45.7584C119.792 45.6407 119.99 45.4258 120.043 45.4541C121.18 46.0465 122.289 44.9065 123.411 45.4135C123.447 45.4298 123.5 45.4907 123.508 45.4825C124.467 44.7928 125.596 45.2837 126.612 45.0323C126.685 45.016 126.75 44.8781 126.803 44.8861C127.94 45.0565 129.049 44.4683 130.126 44.663C130.668 44.7604 130.996 44.8618 131.405 44.4723C131.704 44.1884 132.093 44.1802 132.445 44.3993C132.83 44.6386 133.133 44.6833 133.566 44.4033C134.275 43.953 134.91 44.237 135.129 45.0079C135.359 45.8071 135.117 46.6185 134.182 46.7159C131.583 46.9836 129.005 47.4259 126.39 47.5922C125.366 47.6571 124.273 47.58 123.301 48.0994C122.634 48.0669 121.97 48.0385 121.197 48.002C122.03 49.3975 122.65 48.6835 123.277 48.075V48.0709ZM126.714 56.8098C126.26 56.7449 125.823 56.7732 125.839 57.2682C125.855 57.7793 126.191 58.2865 126.71 58.327C127.24 58.3635 127.92 57.9863 127.928 57.5075C127.944 56.834 127.086 57.0694 126.714 56.8098ZM123.346 56.8665C122.917 56.8868 122.544 57.0004 122.646 57.4183C122.755 57.8807 122.978 58.4366 123.593 58.3595C124.034 58.3068 124.58 57.97 124.552 57.544C124.508 56.834 123.726 57.0735 123.346 56.8665ZM120.415 57.0004C119.958 56.9558 119.484 56.9517 119.488 57.5319C119.488 57.9579 119.772 58.3676 120.241 58.3676C120.707 58.3676 121.193 58.0755 121.269 57.6293C121.367 57.0491 120.735 57.1546 120.415 57.0004ZM124.257 54.4891C124.062 54.0023 123.56 54.0429 123.164 53.9576C122.787 53.8765 122.188 53.7143 122.18 54.262C122.172 54.7447 122.828 54.9435 123.249 55.1139C123.686 55.2924 123.985 54.9151 124.257 54.4891ZM116.178 57.5887C116.271 58.0188 116.518 58.3879 116.955 58.4123C117.424 58.4407 117.922 58.1039 117.975 57.6901C118.052 57.0896 117.4 57.114 116.999 57.0288C116.598 56.9436 116.287 57.1424 116.178 57.5887ZM76.5716 57.3656C76.7052 57.9456 77.0695 58.2824 77.4297 58.5948C77.8264 58.9397 78.2271 58.7611 78.478 58.3879C78.8302 57.8646 78.3242 57.7631 78.0045 57.6577C77.5916 57.5197 77.2111 57.2154 76.5716 57.3696V57.3656ZM119.926 54.0348C119.578 54.059 119.108 54.0023 119.173 54.4485C119.242 54.9152 119.756 55.1423 120.173 55.2275C120.61 55.3168 121.059 54.9557 121.01 54.554C120.942 53.986 120.278 54.2132 119.93 54.0348H119.926ZM113.818 57.1019C113.413 57.1505 113.032 57.26 113.049 57.7307C113.065 58.1283 113.316 58.465 113.749 58.4244C114.206 58.3798 114.716 58.0998 114.745 57.6617C114.773 57.1546 114.17 57.2195 113.818 57.1019ZM111.527 57.7307C111.462 57.2642 111.081 57.2722 110.778 57.2276C110.325 57.1626 109.92 57.3047 109.855 57.82C109.806 58.1972 110.057 58.4893 110.442 58.465C110.92 58.4407 111.235 58.0837 111.531 57.7307H111.527ZM104.164 57.3372C103.784 57.4183 103.411 57.5644 103.395 58.0106C103.383 58.4082 103.682 58.6556 104.055 58.5381C104.431 58.4204 104.889 58.2175 104.86 57.7226C104.84 57.3818 104.46 57.3656 104.164 57.3372ZM114.749 54.7041C114.514 54.2578 114.081 54.3066 113.692 54.3106C113.397 54.3106 113.065 54.4566 113.17 54.8136C113.275 55.1707 113.587 55.4547 113.992 55.4182C114.376 55.3817 114.623 55.0977 114.749 54.7041ZM101.594 57.8483C101.48 57.4832 101.197 57.4183 100.906 57.4872C100.545 57.5724 100.169 57.7266 100.185 58.1851C100.193 58.5177 100.44 58.7246 100.768 58.6435C101.181 58.5461 101.472 58.2621 101.594 57.8442V57.8483ZM108.155 57.7875C108.131 57.394 107.847 57.3128 107.564 57.2844C107.115 57.2438 106.746 57.4142 106.649 57.8849C106.58 58.2135 106.795 58.4528 107.115 58.4691C107.613 58.4974 107.908 58.1607 108.151 57.7834L108.155 57.7875ZM117.023 54.1848C116.688 54.1848 116.258 54.1199 116.198 54.5134C116.121 55.0206 116.635 55.1626 116.987 55.2803C117.404 55.4182 117.744 55.1017 117.788 54.7366C117.853 54.2132 117.323 54.2985 117.019 54.1848H117.023ZM119.703 51.1137C119.403 51.0853 118.995 50.9879 119.007 51.3814C119.015 51.7749 119.468 51.9495 119.8 52.0671C120.16 52.1969 120.525 51.9656 120.533 51.6167C120.549 51.0812 119.974 51.2881 119.703 51.1137ZM94.2235 58.6841C94.5797 58.5746 94.9075 58.3798 94.9925 57.9984C95.0654 57.6739 94.7982 57.5603 94.5351 57.6414C94.2032 57.7469 93.7782 57.8077 93.7297 58.2621C93.6973 58.5746 93.9401 58.6638 94.2194 58.68L94.2235 58.6841ZM97.3887 58.6395C97.7571 58.5867 98.0971 58.4123 98.2266 58.0349C98.3278 57.7347 98.1133 57.5644 97.8259 57.5725C97.4333 57.5887 97.0771 57.7551 96.9556 58.1486C96.8747 58.4163 97.0609 58.6151 97.3887 58.6395ZM111.454 54.8299C111.349 54.481 111.061 54.4526 110.778 54.4729C110.434 54.5013 110.106 54.6189 110.187 55.049C110.244 55.3533 110.515 55.5115 110.831 55.4668C111.179 55.4141 111.397 55.195 111.454 54.8299ZM108.37 54.9597C108.329 54.6555 108.106 54.5581 107.851 54.5946C107.503 54.6433 107.054 54.6473 107.034 55.1423C107.022 55.3938 107.273 55.5926 107.532 55.5966C107.941 55.6048 108.191 55.337 108.37 54.9638V54.9597Z"
            fill="inherit" />
        <path
            d="M110.13 93.1161C109.782 92.4791 109.305 92.6941 108.94 92.6819C102.683 92.4913 96.4254 92.3249 90.1677 92.1545C84.5738 92.0044 78.9759 91.8583 73.382 91.7041C73.0946 91.6961 72.8032 91.6676 72.5239 91.6068C72.3215 91.5622 72.1434 91.4243 72.1272 91.1808C72.107 90.8928 72.273 90.6899 72.5239 90.6209C72.7587 90.5601 73.0137 90.5723 73.2606 90.5764C83.1652 90.7873 93.0739 90.9942 102.978 91.2133C105.629 91.2701 108.281 91.3674 110.932 91.4445C112.616 91.4932 114.413 91.8624 115.449 89.5296C113.194 89.5296 110.98 89.5458 108.766 89.5296C98.4411 89.4485 88.1155 89.3593 77.794 89.27C77.4621 89.27 77.1302 89.2537 76.8023 89.2172C76.4947 89.1807 76.2397 89.0347 76.2073 88.6858C76.1709 88.2842 76.4137 88.0488 76.7821 88.0082C77.2759 87.9514 77.7737 87.9433 78.2716 87.9474C91.5803 88.0286 104.893 88.1177 118.201 88.1949C118.837 88.1949 119.541 88.3977 119.966 87.6268C120.371 86.8926 120.363 86.4706 119.359 86.4828C116.623 86.5193 113.887 86.5193 111.146 86.5436C101.484 86.6208 91.8232 86.7059 82.1614 86.7789C81.5907 86.783 80.8095 86.8722 80.7771 86.1015C80.7407 85.1805 81.5745 85.1967 82.2424 85.1927C91.6127 85.1034 100.983 85.0223 110.353 84.929C114.623 84.8883 118.893 84.8316 123.164 84.7708C123.88 84.7585 124.544 84.8234 124.653 85.7038C124.75 86.4868 125.175 86.4138 125.71 86.211C126.058 86.0812 126.414 85.9594 126.77 85.8499C127.203 85.716 127.758 85.1886 128.041 85.8743C128.272 86.426 128.227 87.1157 127.673 87.5903C127.058 88.1137 126.309 88.3653 125.568 88.637C124.398 89.063 123.233 89.5012 122.071 89.9394C121.881 90.0125 121.642 90.1016 121.727 90.3613C121.824 90.6574 122.063 90.6332 122.334 90.5601C124.985 89.8502 127.649 89.1929 130.385 88.8602C130.939 88.7912 131.393 88.5844 131.433 89.347C131.466 90.0408 131.526 90.7143 130.575 91.0227C128.325 91.7569 125.969 92.0247 123.694 92.6413C123.654 92.6536 123.609 92.6413 123.569 92.6494C123.123 92.7225 122.512 92.6901 122.342 93.0796C122.2 93.4041 122.577 93.7652 123.054 93.5258C123.237 93.4365 123.459 93.1282 123.528 93.1647C124.483 93.6759 125.354 92.4913 126.305 93.0349C126.422 93.0998 126.637 93.0876 126.766 93.0227C127.839 92.4913 128.968 92.5156 130.13 92.4629C130.866 92.4264 131.672 92.3006 132.392 92.1383C133.137 91.972 133.619 91.8422 133.809 92.6576C133.995 93.4528 133.809 94.1912 132.858 94.3819C130.15 94.9174 127.414 95.2987 124.674 95.6314C124.038 95.7084 123.427 95.9437 122.658 95.8586C123.35 96.4955 123.929 96.889 124.601 96.1101C124.625 96.0817 124.69 96.0452 124.71 96.0574C125.835 96.7917 126.944 95.4204 128.061 96.029C128.438 96.2318 128.681 96.0533 128.948 95.8383C129.377 95.4975 129.838 95.3677 130.304 95.7531C130.62 96.0127 130.891 96.0086 131.17 95.7125C131.603 95.25 132.081 95.1649 132.603 95.5665C132.927 95.8139 133.194 95.7288 133.485 95.4772C133.922 95.104 134.412 95.1161 134.837 95.4935C135.214 95.8261 135.287 96.2886 135.153 96.7552C134.995 97.315 134.639 97.7167 134.028 97.7694C131.453 97.9807 128.879 98.1422 126.309 98.382C124.431 98.5563 122.565 98.8568 120.687 99.0437C118.772 99.2336 116.849 99.3354 114.931 99.5136C113.012 99.6966 111.102 99.9355 109.183 100.134C107.354 100.325 105.52 100.491 103.69 100.666C101.695 100.857 99.6878 100.987 97.7044 101.254C96.5671 101.409 95.4701 101.193 94.3692 101.093C85.9095 100.325 77.4499 99.4979 68.9943 98.6904C68.1281 98.6091 67.2579 98.569 66.3957 98.4711C66.0841 98.4349 65.6145 98.3703 65.6672 97.9601C65.7238 97.5057 66.1974 97.6762 66.4969 97.7045C69.4274 97.964 72.362 98.2322 75.2925 98.5122C81.6069 99.1162 87.9212 99.7123 94.2356 100.346C95.2516 100.447 96.1259 100.48 96.482 99.2542C96.5549 99.0026 96.8302 98.8117 97.0487 98.5445C96.6642 98.1588 96.1785 98.2646 95.7616 98.2362C86.7838 97.6315 77.8102 97.0473 68.8324 96.4346C68.116 96.386 66.8977 96.67 66.9138 95.7207C66.926 95.0391 68.1322 95.4123 68.7798 95.4528C79.4535 96.1304 90.1272 96.8485 100.8 97.5585C102.055 97.6437 102.662 97.2218 102.857 96.0249C102.978 95.2744 102.359 95.5016 102.023 95.4853C99.7445 95.3595 97.4656 95.2703 95.1908 95.1689C86.8648 94.7997 78.5428 94.4265 70.2167 94.0532C70.0913 94.0491 69.9658 94.0532 69.8444 94.041C69.4639 94.0005 69.0308 93.9558 69.047 93.4568C69.0591 92.9294 69.5165 92.9456 69.8848 92.9619C72.0787 93.0471 74.2766 93.1403 76.4704 93.2377C83.4688 93.5461 90.4713 93.8584 97.4697 94.1708C100.659 94.3128 103.848 94.4589 107.034 94.6212C107.799 94.6617 108.483 94.609 108.657 93.6921C108.827 92.7875 109.592 93.3229 110.142 93.0998L110.13 93.1161ZM124.289 86.6248C123.39 86.3976 122.662 86.2272 122.039 86.9047C121.941 87.0102 121.881 87.2091 121.905 87.347C121.933 87.5377 122.132 87.5619 122.289 87.493C122.905 87.2333 123.633 87.2293 124.285 86.6208L124.289 86.6248Z"
            fill="inherit" />
        <path
            d="M116.57 75.0176C119.747 74.7985 122.92 74.5753 126.098 74.3604C128.288 74.2143 130.469 73.9546 132.671 73.9952C133.493 74.0114 133.979 74.3076 134.015 75.0946C134.052 75.8655 133.533 76.1129 132.809 76.2022C125.236 77.1273 117.618 77.4356 110.017 77.9751C107.418 78.1577 104.819 78.3646 102.083 78.5715C102.419 79.0421 102.808 78.9042 103.115 78.888C112.178 78.4498 121.241 77.9995 130.307 77.541C131.048 77.5045 131.68 77.5857 131.732 78.4904C131.785 79.3707 131.214 79.5777 130.453 79.6385C121.82 80.3728 113.158 80.5879 104.504 80.9814C100.816 81.1478 97.1333 81.3262 93.4459 81.4804C92.9561 81.5007 92.2194 81.732 92.2356 80.8678C92.2518 80.097 92.2882 79.2207 93.454 79.2166C94.5711 79.2084 95.6923 79.1395 96.8095 79.1193C97.8497 79.0989 98.4852 78.7135 98.3557 77.5491C98.2424 76.5187 98.6147 76.0399 99.74 76.1048C100.808 76.1617 101.889 75.9831 102.965 75.9791C104.406 75.971 104.71 75.6464 104.5 74.1859C104.269 72.6037 104.471 72.5347 106.086 72.8146C107.329 73.0296 108.628 72.9282 109.903 72.9282C110.292 72.9282 110.668 72.7295 110.668 72.2669C110.668 71.5935 110.51 70.9281 110.012 70.4412C109.685 70.1167 109.179 70.0964 108.871 70.4007C108.248 71.0093 107.843 70.9889 107.313 70.2627C106.969 69.7922 106.394 69.9422 106.001 70.352C105.572 70.7942 105.2 70.9484 104.827 70.3155C104.787 70.2466 104.726 70.1817 104.666 70.1289C103.783 69.3824 103.067 70.8348 102.484 70.4412C101.792 69.9706 101.338 69.3175 100.521 70.1005C100.144 70.4615 99.8371 70.5264 99.5012 70.068C98.9628 69.3296 98.3759 69.3053 97.7404 69.9545C97.5421 70.1573 97.3195 70.4372 97.0119 70.1532C96.8783 70.0275 96.7731 69.7881 96.7852 69.6096C96.8135 69.2201 97.1859 69.2606 97.4531 69.1957C98.1412 69.0294 98.8252 68.8469 99.5093 69.2322C99.6469 69.3094 99.8331 69.3621 99.9869 69.3418C102.399 69.0092 104.803 69.4108 107.199 69.5325C108.863 69.6177 110.551 69.6704 112.218 69.8124C114.105 69.9787 116.06 69.6907 117.982 69.3296C122.014 68.575 126.057 67.8691 130.057 66.9441C131.53 66.6033 132.943 67.3985 134.432 67.1307C134.893 67.0455 135.371 67.4918 135.375 68.0922C135.375 68.6521 135.084 69.0578 134.525 69.1715C133.837 69.3134 133.129 69.3662 132.445 69.5203C132.113 69.5934 131.591 69.6339 131.651 70.1289C131.7 70.5143 132.157 70.5021 132.477 70.5224C132.971 70.5508 133.473 70.5386 133.971 70.5224C134.736 70.5021 135.144 70.9078 135.209 71.6259C135.274 72.3765 134.723 72.6118 134.112 72.7213C128.98 73.6381 123.779 73.9587 118.598 74.4699C117.901 74.5388 117.201 74.5348 116.558 75.0176H116.57ZM123.066 71.1959C121.779 71.0173 120.516 71.2202 119.278 71.5772C120.569 71.7842 121.811 71.5042 123.066 71.1959Z"
            fill="inherit" />
        <path
            d="M108.296 83.6552C99.7802 83.8824 93.899 84.0568 88.0136 84.1785C87.4105 84.1907 86.3824 84.6247 86.3217 83.5294C86.261 82.3813 87.1758 82.223 88.1472 82.2108C92.122 82.15 96.0968 82.0648 100.071 81.9593C108.891 81.724 117.707 81.4725 126.527 81.229C126.859 81.2209 127.191 81.2209 127.522 81.225C128.206 81.2371 128.486 81.6429 128.474 82.2717C128.461 82.9046 128.004 82.9249 127.514 82.9654C120.241 83.5659 112.943 83.4482 108.296 83.6592V83.6552Z"
            fill="inherit" />
        <path
            d="M99.9143 65.9055C101.14 66.8265 102.735 65.4958 104.115 66.3681C104.204 66.4248 104.362 66.4086 104.48 66.3842C107.147 65.8123 109.831 66.4248 112.51 66.3721C114.951 66.3234 117.444 66.4086 119.905 66.6074C120.5 66.656 121.051 66.4451 121.605 66.2788C124.143 65.5161 126.697 64.8101 129.106 63.6782C129.725 63.3861 130.324 63.2522 130.963 63.7512C131.469 64.1447 132.081 63.8283 132.647 63.7431C133.38 63.6336 134.169 63.6012 134.351 64.5059C134.542 65.4552 133.777 65.6377 133.044 65.7919C127.972 66.8386 122.896 67.8813 117.833 68.9685C116.954 69.1592 116.432 68.9969 116.072 68.1329C115.647 67.1064 114.898 67.0253 114.097 67.715C113.672 68.0801 113.344 68.2099 112.963 67.7069C112.409 66.9725 111.761 67.0618 111.13 67.5567C110.713 67.8853 110.373 68.0597 109.992 67.5283C109.442 66.7575 108.794 66.9076 108.179 67.4188C107.799 67.7353 107.463 68.0557 107.054 67.4959C106.467 66.6926 105.795 66.8021 105.131 67.3376C104.694 67.6906 104.338 67.7677 103.99 67.2687C103.48 66.5344 102.832 66.6277 102.286 67.1226C101.731 67.6257 101.375 67.7311 100.922 67.0293C100.468 66.3193 99.8698 66.5303 99.3152 66.94C98.9995 67.1753 98.7648 67.6338 98.2709 67.289C98.0605 67.1429 97.8905 66.9157 97.939 66.656C98.0524 66.0516 98.615 66.153 99.0279 66.0353C99.2667 65.9663 99.5176 65.9583 99.9143 65.8974V65.9055Z"
            fill="inherit" />
        <path
            d="M96.4376 65.8243C96.7615 65.8243 97.1824 65.8973 97.0448 66.1245C96.7169 66.6682 96.211 67.1591 95.5674 67.2645C95.1626 67.3294 94.8793 66.8629 94.9724 66.4978C95.1829 65.6823 96.0248 66.1205 96.4417 65.8243H96.4376Z"
            fill="inherit" />
        <path
            d="M93.272 65.7595C93.5837 65.7757 93.9804 65.8123 93.8427 66.0962C93.5999 66.5953 93.1911 67.0699 92.5718 67.0983C92.2034 67.1145 91.9565 66.7576 92.0294 66.4087C92.1791 65.6865 92.8875 65.9583 93.272 65.7555V65.7595Z"
            fill="inherit" />
        <path
            d="M90.0861 65.6501C90.4342 65.6094 90.7782 65.6866 90.6649 66.0557C90.5232 66.5222 90.1751 66.9158 89.6368 66.9524C89.2604 66.9766 89.0054 66.6764 89.0175 66.3357C89.0378 65.6135 89.7178 65.8326 90.0861 65.6501Z"
            fill="inherit" />
        <path
            d="M87.6132 66.0069C87.3987 66.3923 87.168 66.8224 86.6661 66.8507C86.2127 66.8791 85.9658 66.514 86.0427 66.1205C86.1601 65.5485 86.7268 65.6296 87.1518 65.5728C87.4027 65.5403 87.6496 65.6336 87.6132 66.0069Z"
            fill="inherit" />
        <path
            d="M83.7723 65.4877C84.1285 65.5242 84.4766 65.5323 84.4402 65.9339C84.3997 66.3883 84.1163 66.7008 83.6347 66.6927C83.2461 66.6845 83.0437 66.3883 83.0397 66.0313C83.0316 65.4836 83.5011 65.5688 83.7723 65.4877Z"
            fill="inherit" />
        <path
            d="M96.0972 68.9728C95.6479 69.342 95.2877 69.6503 94.9153 69.9383C94.5672 70.2061 94.3001 70.0763 94.1301 69.7112C93.9722 69.3704 94.1179 69.1229 94.4579 69.0702C94.9598 68.989 95.4617 68.7699 96.0972 68.9728Z"
            fill="inherit" />
        <path
            d="M78.3202 65.938C78.2393 66.2991 78.0531 66.5749 77.6524 66.5344C77.2597 66.4938 77.1059 66.1611 77.0816 65.8203C77.0533 65.447 77.3245 65.3214 77.6564 65.3497C78.0126 65.3821 78.3081 65.5039 78.3162 65.938H78.3202Z"
            fill="inherit" />
        <path
            d="M100.12 73.5367C99.6511 73.411 99.5904 73.0296 99.5459 72.6767C99.5095 72.4049 99.7038 72.1654 99.975 72.2182C100.298 72.2831 100.776 72.34 100.703 72.8309C100.659 73.127 100.448 73.4191 100.12 73.5367Z"
            fill="inherit" />
        <path
            d="M81.3237 66.0353C81.2266 66.3802 81.0525 66.6682 80.6478 66.6155C80.2673 66.5668 80.0771 66.2707 80.0933 65.9096C80.1135 65.447 80.4899 65.443 80.8218 65.4714C81.1497 65.4958 81.3602 65.6661 81.3237 66.0353Z"
            fill="inherit" />
        <path
            d="M74.7216 66.3803C74.3088 66.287 74.1226 66.0354 74.1023 65.6703C74.0861 65.3417 74.333 65.2566 74.5961 65.2687C74.9564 65.2849 75.2519 65.431 75.2438 65.8529C75.2357 66.1937 75.0131 66.356 74.7216 66.3844V66.3803Z"
            fill="inherit" />
        <path
            d="M90.2324 68.6643C89.8316 69.1552 89.6819 69.703 89.0707 69.6461C88.8076 69.6218 88.6295 69.3256 88.755 69.0782C89.0181 68.5548 89.5038 68.5142 90.2324 68.6643Z"
            fill="inherit" />
        <path
            d="M92.9649 68.8752C92.5845 69.2566 92.3861 69.9057 91.7021 69.8124C91.4875 69.784 91.354 69.496 91.443 69.3255C91.7587 68.713 92.3497 68.7779 92.9649 68.8752Z"
            fill="inherit" />
        <path
            d="M71.7912 66.2179C71.3823 66.226 71.1962 65.9582 71.1071 65.6215C71.0262 65.3172 71.1759 65.1306 71.4957 65.1752C71.8276 65.2198 72.1716 65.3131 72.2283 65.7189C72.2688 66.015 72.0623 66.161 71.7912 66.2219V66.2179Z"
            fill="inherit" />
        <path
            d="M103.472 72.6605C102.942 73.0905 102.97 73.8288 102.233 73.622C102.072 73.5774 101.849 73.1554 101.91 73.0337C102.201 72.4454 102.735 72.6361 103.472 72.6605Z"
            fill="inherit" />
        <path
            d="M83.91 69.3539C83.5336 69.3499 83.3757 69.1755 83.3231 68.9077C83.2503 68.5425 83.4486 68.356 83.7886 68.3397C84.0517 68.3235 84.2946 68.4086 84.3108 68.7292C84.3269 69.0618 84.1246 69.2485 83.91 69.3539Z"
            fill="inherit" />
        <path
            d="M86.6868 68.4898C86.9377 68.5182 87.2373 68.5385 87.1442 68.8955C87.0592 69.2241 86.8244 69.496 86.4682 69.5365C86.1727 69.569 86.0311 69.3296 86.027 69.0578C86.0189 68.6237 86.3427 68.5344 86.6868 68.4898Z"
            fill="inherit" />
        <path
            d="M97.0283 72.0965C97.6598 72.1371 98.1131 72.2101 98.1536 72.847C98.1657 73.05 98.0038 73.3014 97.8014 73.2609C97.2267 73.1432 97.2388 72.6118 97.0283 72.0965Z"
            fill="inherit" />
        <path
            d="M94.6528 71.9708C95.0536 72.2264 95.7538 71.9911 95.8307 72.6646C95.8429 72.7701 95.6405 72.9932 95.5231 73.0013C94.839 73.05 94.9483 72.3238 94.6528 71.9708Z"
            fill="inherit" />
    </g>
    <g fill="none">
        <path
            d="M193.564 113.151L121.406 134.96C121.406 134.96 97.8908 144.447 66.9505 130.742L30.3793 114.676C16.7104 108.921 6.75163 96.8763 3.71898 82.4348C-2.43003 56.9897 -2.46589 46.0813 19.7709 33.5766C42.0078 21.0719 69.0706 5.73113 69.0706 5.73113C69.0706 5.73113 84.1023 -5.17332 113.544 6.49559C142.986 18.1646 190.823 38.5951 190.823 38.5951C190.823 38.5951 204.683 43.7562 217.559 70.1123C229.92 95.4147 221.181 105.265 193.568 113.151H193.564Z"
            stroke="inherit" stroke-width="0.396039" stroke-miterlimit="10" />
    </g>
</svg>