<svg width="224" height="139" viewBox="0 0 224 139" fill="#E5EBF0" stroke="#E5EBF0" xmlns="http://www.w3.org/2000/svg">
    <g stroke="none">
        <path
            d="M118.865 48.7072C118.968 41.7935 110.916 34.4296 105.759 40.5306C99.0056 48.5122 76.8049 56.9718 73.8122 58.4437C69.4 60.6214 72.8348 66.1699 74.6081 69.3597C76.5815 72.4892 80.3002 74.5135 81.501 78.1583C82.5715 83.4236 92.0056 88.7679 95.1379 88.5403C95.1658 88.545 95.2636 88.5218 95.4311 88.4661C96.8134 87.9925 102.789 85.397 108.947 82.2675C109.222 82.1328 109.492 81.9935 109.766 81.8543V81.8496C114.932 79.1938 120.085 76.213 122.654 73.8403C122.868 73.636 123.068 73.441 123.245 73.2506C130.31 65.6638 121.048 56.5122 118.861 48.7072H118.865ZM93.7975 84.4265C91.9125 87.2496 87.6027 84.0319 89.0455 81.2786C89.106 81.1625 89.2084 81.065 89.3201 81C91.3726 79.8345 94.0209 81.8264 93.9185 84.0783C93.9092 84.1991 93.8673 84.3244 93.7975 84.4265ZM121.737 69.7822C121.607 69.7915 121.467 69.7637 121.351 69.7033C119.261 68.6029 119.517 65.3063 121.476 64.1826C121.583 64.1223 121.709 64.0897 121.835 64.0897C125.232 64.1594 124.841 69.513 121.737 69.7822Z"
            fill="inherit" />
        <path
            d="M122.123 73.8543C123.631 73.2738 121.411 75.1311 122.002 76.1062C126.447 81.8404 127.643 92.6124 120.862 96.4151C121.746 93.0396 117.785 91.4888 118.753 89.1162C119.833 86.8225 116.249 86.9385 115.719 84.956C114.174 82.5322 108.924 79.542 107.876 84.2223C110.292 87.231 107.518 88.4429 108.537 90.8248C111.581 92.0042 107.425 95.3519 110.711 96.8005C111.87 97.4644 112.628 98.8202 113.564 99.8649C106.494 103.547 100.769 94.6553 97.1855 89.3297C96.4502 89.144 94.8026 88.9629 95.6822 88.0343C104.092 79.1753 120.62 74.4253 122.128 73.8449L122.123 73.8543Z"
            fill="inherit" />
    </g>
    <g fill="none">
        <path
            d="M193.564 113.151L121.406 134.96C121.406 134.96 97.8908 144.447 66.9505 130.742L30.3793 114.676C16.7104 108.921 6.75163 96.8763 3.71898 82.4348C-2.43003 56.9897 -2.46589 46.0813 19.7709 33.5766C42.0078 21.0719 69.0706 5.73113 69.0706 5.73113C69.0706 5.73113 84.1023 -5.17332 113.544 6.49559C142.986 18.1646 190.823 38.5951 190.823 38.5951C190.823 38.5951 204.683 43.7562 217.559 70.1123C229.92 95.4147 221.181 105.265 193.568 113.151H193.564Z"
            stroke="inherit" stroke-width="0.396039" stroke-miterlimit="10" />
    </g>
</svg>