<?xml version="1.0" encoding="utf-8"?>
<!-- Generator: Adobe Illustrator 22.0.1, SVG Export Plug-In . SVG Version: 6.00 Build 0)  -->
<svg version="1.1" xmlns="http://www.w3.org/2000/svg" xmlns:xlink="http://www.w3.org/1999/xlink" x="0px" y="0px"
	 viewBox="0 0 267.8 184.3" style="enable-background:new 0 0 267.8 184.3;" xml:space="preserve">
<style type="text/css">
	.st0{fill:#241C28;}
	.st1{display:none;}
	.st2{display:inline;fill:#82AEDD;}
	.st3{display:inline;fill:#B9B5C6;}
	.st4{display:inline;fill:#FBFBFD;}
	.st5{display:inline;fill:#4F4E5C;}
	.st6{display:inline;fill:#D2D5E2;}
	.st7{display:inline;fill:#443C4F;}
	.st8{fill:none;stroke:#F0F2F5;stroke-miterlimit:10;}
	.st9{fill:#43455D;}
	.st10{fill:#82AEDD;}
	.st11{font-family:'NotoSans-Regular';}
	.st12{font-size:16px;}
	.st13{fill:none;stroke:#43455D;stroke-miterlimit:10;}
	.st14{display:inline;fill:#B7B5C8;}
	.st15{fill:none;}
</style>
<g id="Calque_2">
	<rect y="-1.2" class="st0" width="267.8" height="185.4"/>
</g>
<g id="Calque_1">
	<g>
		<g>
			<path class="st10" d="M129.6,84.6c7.5-8.1-2.3-17.9-4.7-26.3c0.1-7.4-8.5-15.3-14-8.8c-7.2,8.5-30.9,17.6-34.1,19.2
				c-4.7,2.3-1,8.3,0.8,11.7c2.1,3.4,6.1,5.5,7.4,9.4c1.1,5.6,11.2,11.4,14.6,11.1C100.1,101.1,124,90.6,129.6,84.6z"/>
			<path class="st9" d="M128.4,85.2c1.6-0.6-0.8,1.4-0.1,2.4c4.7,6.1,6,17.7-1.2,21.7c0.9-3.6-3.3-5.3-2.3-7.8
				c1.2-2.5-2.7-2.3-3.2-4.5c-1.7-2.6-7.3-5.8-8.4-0.8c2.6,3.2-0.4,4.5,0.7,7.1c3.3,1.3-1.2,4.8,2.3,6.4c1.2,0.7,2,2.2,3,3.3
				c-7.6,3.9-13.7-5.6-17.5-11.3c-0.8-0.2-2.5-0.4-1.6-1.4C109.2,90.9,126.8,85.8,128.4,85.2z"/>
		</g>
		<path class="st8" d="M221,135.8L144,159.2c0,0-25.1,10.2-58.2-4.5l-39.1-17.3c-14.6-6.2-25.2-19.1-28.5-34.6
			c-6.6-27.3-6.6-39.1,17.1-52.5s52.6-29.9,52.6-29.9s16.1-11.7,47.5,0.8c31.4,12.5,82.5,34.5,82.5,34.5s14.8,5.5,28.6,33.9
			C259.8,116.7,250.5,127.3,221,135.8z"/>
		<g>
			<path class="st0" d="M98.2,96.5c-2,3-6.6-0.4-5.1-3.4c0.1-0.1,0.2-0.2,0.3-0.3c2.2-1.2,5,0.9,4.9,3.3
				C98.3,96.3,98.2,96.4,98.2,96.5z"/>
		</g>
		<g>
			<path class="st0" d="M128.1,74.8c3.6,0.1,3.2,5.8-0.1,6.1c-0.1,0-0.3,0-0.4-0.1c-2.2-1.2-2-4.7,0.1-5.9
				C127.8,74.8,128,74.8,128.1,74.8z"/>
		</g>
		<text transform="matrix(1 0 0 1 87.6542 131.3389)" class="st10 st11 st12">Couper</text>
	</g>
</g>
</svg>
