<svg width="224" height="138" viewBox="0 0 224 138" fill="none" xmlns="http://www.w3.org/2000/svg">
<g clip-path="url(#clip0_515_2995)">
<path d="M118.865 48.3571C118.968 41.4932 110.916 34.1822 105.759 40.2394C99.0056 48.1635 76.8049 56.5623 73.8122 58.0236C69.4 60.1856 72.8348 65.6942 74.6081 68.861C76.5815 71.968 80.3002 73.9778 81.501 77.5964C82.5715 82.8238 92.0056 88.1296 95.1379 87.9037C95.1658 87.9083 95.2636 87.8853 95.4311 87.83C96.8134 87.3598 102.789 84.783 108.947 81.676C109.222 81.5423 109.492 81.404 109.766 81.2658V81.2611C114.932 78.6244 120.085 75.665 122.654 73.3094C122.868 73.1066 123.068 72.913 123.245 72.724C130.31 65.1917 121.048 56.106 118.861 48.3571H118.865ZM93.7975 83.8195C91.9125 86.6222 87.6027 83.4277 89.0455 80.6942C89.106 80.5789 89.2084 80.4821 89.3201 80.4176C91.3726 79.2605 94.0209 81.2381 93.9185 83.4738C93.9092 83.5937 93.8673 83.7181 93.7975 83.8195ZM121.737 69.2805C121.607 69.2897 121.467 69.2621 121.351 69.2022C119.261 68.1097 119.517 64.8368 121.476 63.7212C121.583 63.6613 121.709 63.629 121.835 63.629C125.232 63.6982 124.841 69.0132 121.737 69.2805Z" fill="#E5EBF0"/>
<path d="M122.123 73.3233C123.631 72.747 121.411 74.5909 122.002 75.559C126.447 81.252 127.643 91.9465 120.862 95.7218C121.746 92.3706 117.785 90.8309 118.753 88.4754C119.833 86.1982 116.249 86.3134 115.719 84.3451C114.174 81.9388 108.924 78.9701 107.876 83.6167C110.292 86.6038 107.518 87.807 108.537 90.1717C111.581 91.3426 107.425 94.6662 110.711 96.1044C111.87 96.7636 112.628 98.1096 113.564 99.1468C106.494 102.802 100.769 93.9747 97.1855 88.6874C96.4502 88.503 94.8026 88.3232 95.6822 87.4013C104.092 78.606 120.62 73.8902 122.128 73.314L122.123 73.3233Z" fill="#E5EBF0"/>
<path d="M193.914 112.354L121.779 134.079C121.779 134.079 98.27 143.529 67.3379 129.88L30.7743 113.875C17.1094 108.14 7.15404 96.1413 4.11948 81.7544C-2.01945 56.4056 -2.05669 45.5405 20.1766 33.0851C42.4052 20.625 69.4603 5.34388 69.4603 5.34388C69.4603 5.34388 84.4888 -5.5212 113.918 6.10448C143.351 17.7302 191.173 38.082 191.173 38.082C191.173 38.082 205.029 43.2264 217.898 69.4787C230.255 94.6846 221.519 104.494 193.914 112.354Z" stroke="#E5EBF0" stroke-width="0.46125" stroke-miterlimit="10"/>
</g>
<defs>
<clipPath id="clip0_515_2995">
<rect width="223.245" height="136.991" fill="white" transform="translate(0.377441 0.503662)"/>
</clipPath>
</defs>
</svg>
