<svg width="224" height="138" viewBox="0 0 224 138" fill="none" xmlns="http://www.w3.org/2000/svg">
<g clip-path="url(#clip0_515_2992)">
<path d="M193.563 112.371L121.404 134.107C121.404 134.107 97.8865 143.562 66.9467 129.903L30.3729 113.888C16.7054 108.152 6.7431 96.1452 3.71302 81.7542C-2.4275 56.3997 -2.46367 45.5278 19.7716 33.0676C42.0069 20.6033 69.0686 5.31663 69.0686 5.31663C69.0686 5.31663 84.0984 -5.55127 113.539 6.07699C142.98 17.7052 190.818 38.0676 190.818 38.0676C190.818 38.0676 204.679 43.211 217.554 69.477C229.916 94.6921 221.175 104.509 193.563 112.371Z" stroke="#E5EBF0" stroke-width="0.398091" stroke-miterlimit="10"/>
<path d="M133.331 86.6269C132.793 87.3673 134.734 90.9263 133.508 91.5592C131.467 92.6182 126.267 92.1365 122.923 92.3554C118.599 92.6381 113.704 93.275 109.035 92.6221C103.027 91.7861 94.4589 92.7296 91.7302 91.1412C89.3793 89.7718 90.187 86.0059 92.3853 83.8084C93.2533 82.9406 96.0784 83.896 97.3604 84.0751C98.361 84.2144 100.527 84.4971 102.42 84.5369C102.42 84.5369 115.73 86.3482 120.343 85.3092C124.957 84.2702 134.935 72.5106 137.181 72.4349C139.428 72.3553 144.676 73.8442 143.426 76.2526C142.177 78.6611 133.331 86.6229 133.331 86.6229V86.6269Z" fill="#E5EBF0"/>
<path d="M133.44 75.0462C131.724 73.9634 129.622 74.1426 127.657 73.7803C124.414 70.914 112.659 77.0327 109.987 74.6083C113.009 64.2301 112.061 59.7237 105.205 51.304C104.469 50.7109 103.923 50.3805 103.063 49.9903C101.616 50.0461 99.5705 49.5445 95.8492 50.2849C86.8555 52.0763 75.9448 61.2086 71.6528 69.1664C68.7875 74.4809 67.0917 76.3559 65.4279 78.9236C63.7079 81.5789 53.3679 91.5591 56.9767 102.399C60.5252 113.056 81.7196 116.404 88.0329 105.536C93.7917 95.6236 82.1576 85.2214 71.8618 91.1212C67.5217 93.6092 65.018 100.6 70.0735 103.454C71.034 103.995 74.3534 105.007 73.8832 104.37C72.971 103.896 73.1438 103.832 73.1036 103.804C67.1961 99.6443 73.626 89.7477 81.3619 93.4858C88.6679 97.0129 85.8829 107.574 79.863 108.406C79.863 108.406 74.8557 109.708 68.7433 107.061C59.7415 103.163 64.3107 85.1458 75.3339 83.3225C75.5389 84.0073 77.9139 87.61 79.3245 84.8433C81.4423 80.6912 81.169 80.6354 82.7966 76.2763C86.0437 78.7365 85.8227 80.2095 88.9773 83.028C89.2787 83.2987 91.9793 85.1737 92.136 85.1976L92.4695 85.3647C91.1876 88.2031 93.1608 94.071 95.1821 92.0965C94.0408 90.7151 94.3262 85.0503 96.014 84.2262C96.7816 83.852 97.2276 83.8042 97.9108 83.9038C99.4741 84.1386 98.9195 84.2222 100.431 84.1585C97.8425 81.6068 94.3181 83.9276 93.9725 83.9953C93.6952 84.051 93.5586 84.1068 93.3335 83.8878C88.6237 75.0542 86.2285 67.2994 78.6855 76.4953C76.9414 78.6251 76.1296 80.6394 75.8805 80.6275C74.5302 80.5558 78.802 75.2811 79.1276 74.9188C81.4865 72.2954 83.3914 70.1696 87.0162 72.3273C90.0945 71.0613 103.87 63.7364 104.831 63.406C111.719 61.0414 104.083 72.4745 107.238 77.3512C108.339 79.051 124.289 73.5414 126.182 76.0176C125.957 76.9451 127.44 82.6896 129.244 82.1482C130.735 81.6983 127.818 77.6298 128.71 76.1251C128.774 76.0176 129.919 75.8543 130.044 75.8583C131.535 75.8942 131.873 75.9459 132.379 75.9977L133.44 75.0383V75.0462Z" fill="#E5EBF0"/>
<path d="M91.6254 79.4849C91.537 79.5168 88.2376 73.5374 87.5625 73.0398L102.673 64.8949C103.601 64.4689 106.784 62.4745 107.274 64.25C107.395 64.6879 106.044 72.2874 105.667 73.637C105.634 73.7524 105.558 73.844 105.45 73.8878C104.244 74.3854 96.3393 77.8567 91.6294 79.4809L91.6254 79.4849Z" fill="#E5EBF0"/>
<path d="M118.393 38.0039C118.951 37.8447 119.98 37.7611 120.575 37.8049C122.018 37.9124 133.354 42.6019 133.266 43.3065C133.25 43.4379 132.627 43.6728 132.285 43.6648C131.916 43.6568 126.47 41.6982 125.036 41.531C124.939 41.5191 124.851 41.4872 124.771 41.4315C119.667 37.8009 119.04 39.3455 118.039 39.2898C117.919 39.2818 116.275 38.6011 118.389 38.0039H118.393Z" fill="#E5EBF0"/>
<path d="M134.355 49.8073C133.981 50.3885 126.185 60.1219 125.687 60.5996C121.548 64.5526 115.411 65.8982 111.613 70.4484C110.866 70.2254 114.326 64.6402 108.788 55.6115C107.989 54.3057 106.389 52.2635 105.204 51.3041C104.468 50.711 103.922 50.3806 103.062 49.9904C106.208 49.875 107.101 48.9235 104.963 46.2723C102.387 43.617 97.1182 39.8909 100.273 37.1361C103.886 33.9792 114.567 37.7412 118.361 40.0222C115.315 42.5819 115.299 43.9633 110.874 43.8519C107.08 43.7563 104.734 41.4474 101.639 39.6639C103.906 41.8455 107.824 44.3415 111.027 44.3773C115.19 44.7715 118.055 49.4212 119.149 49.8312C122.58 51.129 125.438 46.734 124.373 43.0636C124.276 42.7253 123.408 41.8694 123.726 41.5867C124.811 42.0883 125.514 42.5501 126.768 42.8964C128.938 43.3609 131.108 43.824 133.278 44.2858C130.489 45.8065 118.871 51.965 117.493 53.3742C116.36 54.5327 117.011 56.0534 119.024 55.1935C119.45 55.0104 125.205 51.2086 126.824 50.289C127.809 49.7317 134.411 46.0573 134.866 46.0294C135.693 45.9817 135.231 47.8766 135.042 48.4697L134.355 49.8073Z" fill="#E5EBF0"/>
<path d="M123.633 44.2977C124.244 48.199 117.967 48.828 117.031 45.3328C116.991 45.1855 116.995 45.0222 117.043 44.8749C117.891 42.2635 121.757 41.8932 123.457 43.9036C123.549 44.0151 123.613 44.1544 123.633 44.2937V44.2977Z" fill="#E5EBF0"/>
</g>
<defs>
<clipPath id="clip0_515_2992">
<rect width="223.245" height="136.991" fill="white" transform="translate(0 0.503662)"/>
</clipPath>
</defs>
</svg>
