<svg width="224" height="139" viewBox="0 0 224 139" fill="#E5EBF0" stroke="#E5EBF0" xmlns="http://www.w3.org/2000/svg">
    <g stroke="none">
        <path
            d="M133.331 87.2542C132.793 87.9999 134.734 91.5847 133.508 92.2222C131.467 93.2889 126.267 92.8037 122.923 93.0242C118.599 93.3089 113.704 93.9504 109.035 93.2928C103.027 92.4507 94.4589 93.4011 91.7302 91.8012C89.3793 90.4218 90.187 86.6287 92.3853 84.4152C93.2533 83.5411 96.0784 84.5035 97.3604 84.6839C98.361 84.8242 100.527 85.1089 102.42 85.149C102.42 85.149 115.73 86.9734 120.343 85.9269C124.957 84.8804 134.935 73.0356 137.181 72.9593C139.428 72.8791 144.676 74.3788 143.426 76.8047C142.177 79.2306 133.331 87.2501 133.331 87.2501V87.2542Z"
            fill="inherit" />
        <path
            d="M133.44 75.5895C131.724 74.4989 129.622 74.6794 127.657 74.3145C124.414 71.4274 112.659 77.5904 109.987 75.1485C113.009 64.6951 112.061 60.156 105.205 51.6753C104.469 51.0779 103.923 50.7451 103.063 50.3521C101.616 50.4083 99.5705 49.903 95.8492 50.6488C86.8555 52.4532 75.9448 61.6517 71.6528 69.6671C68.7875 75.0201 67.0917 76.9087 65.4279 79.495C63.7079 82.1696 53.3679 92.2221 56.9767 103.141C60.5252 113.875 81.7196 117.247 88.0329 106.3C93.7917 96.316 82.1576 85.8385 71.8618 91.781C67.5217 94.2871 65.018 101.329 70.0735 104.203C71.034 104.748 74.3534 105.767 73.8832 105.126C72.971 104.648 73.1438 104.584 73.1036 104.556C67.1961 100.366 73.626 90.3976 81.3619 94.1628C88.6679 97.7154 85.8829 108.353 79.863 109.191C79.863 109.191 74.8557 110.503 68.7433 107.836C59.7415 103.91 64.3107 85.7623 75.3339 83.9258C75.5389 84.6156 77.9139 88.2444 79.3245 85.4576C81.4423 81.2754 81.169 81.2192 82.7966 76.8285C86.0437 79.3066 85.8227 80.7902 88.9773 83.6292C89.2787 83.9018 91.9793 85.7904 92.136 85.8145L92.4695 85.9828C91.1876 88.8418 93.1608 94.7522 95.1821 92.7634C94.0408 91.372 94.3262 85.6661 96.014 84.8361C96.7816 84.4591 97.2276 84.411 97.9108 84.5113C99.4741 84.7478 98.9195 84.832 100.431 84.7679C97.8425 82.1977 94.3181 84.5353 93.9725 84.6035C93.6952 84.6596 93.5586 84.7158 93.3335 84.4952C88.6237 75.5976 86.2285 67.7866 78.6855 77.0491C76.9414 79.1944 76.1296 81.2233 75.8805 81.2113C74.5302 81.1391 78.802 75.8261 79.1276 75.4612C81.4865 72.8188 83.3914 70.6776 87.0162 72.8509C90.0945 71.5758 103.87 64.1978 104.831 63.865C111.719 61.4832 104.083 72.9992 107.238 77.9112C108.339 79.6234 124.289 74.0738 126.182 76.568C125.957 77.5022 127.44 83.2883 129.244 82.743C130.735 82.2898 127.818 78.1919 128.71 76.6763C128.774 76.568 129.919 76.4035 130.044 76.4075C131.535 76.4437 131.873 76.4958 132.379 76.5479L133.44 75.5816V75.5895Z"
            fill="inherit" />
        <path
            d="M91.6254 80.0604C91.537 80.0925 88.2376 74.0698 87.5625 73.5686L102.673 65.3647C103.601 64.9356 106.784 62.9267 107.274 64.7151C107.395 65.1562 106.044 72.8107 105.667 74.1701C105.634 74.2864 105.558 74.3786 105.45 74.4227C104.244 74.924 96.3393 78.4204 91.6294 80.0564L91.6254 80.0604Z"
            fill="inherit" />
        <path
            d="M118.393 38.2788C118.951 38.1185 119.98 38.0342 120.575 38.0784C122.018 38.1866 133.354 42.9101 133.266 43.6198C133.25 43.7522 132.627 43.9888 132.285 43.9807C131.916 43.9727 126.47 41.9999 125.036 41.8315C124.939 41.8195 124.851 41.7873 124.771 41.7312C119.667 38.0743 119.04 39.6301 118.039 39.574C117.919 39.566 116.275 38.8803 118.389 38.2788H118.393Z"
            fill="inherit" />
        <path
            d="M134.355 50.1677C133.981 50.7532 126.185 60.5571 125.687 61.0382C121.548 65.0199 115.411 66.3752 111.613 70.9584C110.866 70.7338 114.326 65.1081 108.788 56.014C107.989 54.6987 106.389 52.6417 105.204 51.6754C104.468 51.078 103.922 50.7452 103.062 50.3522C106.208 50.2359 107.101 49.2775 104.963 46.6071C102.387 43.9326 97.1182 40.1795 100.273 37.4047C103.886 34.2249 114.567 38.0142 118.361 40.3117C115.315 42.89 115.299 44.2814 110.874 44.1692C107.08 44.0729 104.734 41.7473 101.639 39.9508C103.906 42.1482 107.824 44.6623 111.027 44.6984C115.19 45.0955 118.055 49.7788 119.149 50.1918C122.58 51.499 125.438 47.0722 124.373 43.3752C124.276 43.0344 123.408 42.1723 123.726 41.8876C124.811 42.3928 125.514 42.858 126.768 43.2068C128.938 43.6746 131.108 44.1411 133.278 44.6062C130.489 46.138 118.871 52.3411 117.493 53.7605C116.36 54.9274 117.011 56.4591 119.024 55.593C119.45 55.4085 125.205 51.5792 126.824 50.6529C127.809 50.0916 134.411 46.3906 134.866 46.3625C135.693 46.3144 135.231 48.2231 135.042 48.8205L134.355 50.1677Z"
            fill="inherit" />
        <path
            d="M123.633 44.6182C124.244 48.5478 117.967 49.1813 117.031 45.6608C116.991 45.5125 116.995 45.348 117.043 45.1996C117.891 42.5693 121.757 42.1963 123.457 44.2213C123.549 44.3336 123.613 44.4739 123.633 44.6142V44.6182Z"
            fill="inherit" />

    </g>
    <g fill="none">
        <path
            d="M193.564 113.151L121.406 134.96C121.406 134.96 97.8908 144.447 66.9505 130.742L30.3793 114.676C16.7104 108.921 6.75163 96.8763 3.71898 82.4348C-2.43003 56.9897 -2.46589 46.0813 19.7709 33.5766C42.0078 21.0719 69.0706 5.73113 69.0706 5.73113C69.0706 5.73113 84.1023 -5.17332 113.544 6.49559C142.986 18.1646 190.823 38.5951 190.823 38.5951C190.823 38.5951 204.683 43.7562 217.559 70.1123C229.92 95.4147 221.181 105.265 193.568 113.151H193.564Z"
            stroke="inherit" stroke-width="0.396039" stroke-miterlimit="10" />
    </g>
</svg>