<?xml version="1.0" encoding="utf-8"?>
<!-- Generator: Adobe Illustrator 22.0.1, SVG Export Plug-In . SVG Version: 6.00 Build 0)  -->
<svg version="1.1" xmlns="http://www.w3.org/2000/svg" xmlns:xlink="http://www.w3.org/1999/xlink" x="0px" y="0px"
	 viewBox="0 0 267.8 184.3" style="enable-background:new 0 0 267.8 184.3;" xml:space="preserve">
<style type="text/css">
	.st0{fill:#241C28;}
	.st1{display:none;}
	.st2{display:inline;fill:#82AEDD;}
	.st3{display:inline;fill:#B9B5C6;}
	.st4{display:inline;fill:#FBFBFD;}
	.st5{display:inline;fill:#4F4E5C;}
	.st6{display:inline;fill:#D2D5E2;}
	.st7{display:inline;fill:#443C4F;}
	.st8{fill:none;stroke:#F0F2F5;stroke-miterlimit:10;}
	.st9{fill:#43455D;}
	.st10{fill:#82AEDD;}
	.st11{font-family:'NotoSans-Regular';}
	.st12{font-size:16px;}
	.st13{fill:none;stroke:#43455D;stroke-miterlimit:10;}
	.st14{display:inline;fill:#B7B5C8;}
	.st15{fill:none;}
</style>
<g id="Calque_2">
	<rect y="-1.2" class="st0" width="267.8" height="185.4"/>
</g>
<g id="Calque_1">
	<g>
		<path class="st8" d="M220.6,135.3l-77.1,23.4c0,0-25.1,10.2-58.2-4.5L46.3,137c-14.6-6.2-25.2-19.1-28.5-34.6
			C11.2,75,11.2,63.3,35,49.8c23.7-13.4,52.6-29.9,52.6-29.9s16.1-11.7,47.5,0.8c31.4,12.5,82.5,34.5,82.5,34.5s14.8,5.5,28.6,33.9
			C259.4,116.3,250,126.9,220.6,135.3z"/>
		<g>
			<g id="Background_00000016047998235153042860000002449130320498302633_" class="st1">
				<path class="st2" d="M154.5,48.6c4.7,4.9,6.9,9.2,8.6,15.7c4,14.8,4.5,36.5,1,51.4c-2.1,8.9-4.2,12-10.8,18.3
					c-6.9,0-13.7,0-20.6,0c4.1-3.2,7.2-7,8.8-12c1-3.1,1.1-6.4-2.3-8.2c4.8-13.4,2.6-25.8-0.6-39.3c2.2-2.2,3-2.8,2.8-7.1
					c-0.2-5.5-3.4-14-6.3-18.8C141.6,48.6,148.1,48.6,154.5,48.6z"/>
				<path class="st2" d="M66.8,48.6c-7.1,15-9.4,33.3-9.6,49.8c-7.1,6-13.1,14.7-7,23.7c3,4.4,10.6,8.3,15.8,8.8
					c1.2,1.5,1.2,1.5,2.5,3.1c-7.8,0-15.6,0-23.3,0c-11.7-7.5-13.5-24.5-13.7-37.3c-0.3-14.1,1.4-37.8,12.1-48.1
					C51.3,48.6,59.1,48.6,66.8,48.6z"/>
				<path class="st2" d="M135.1,48.6c2.9,4.8,6,13.3,6.3,18.8c-1.3-2.7-12.4-9.1-14.5-9.3c-2-0.2-3.7,0.8-3.9,0.7
					c-3.4-3.1-16.2-9.2-19.3-4.2c-2.6,4.2,5.6,10.1,5.1,12.4c-0.3,1.6-5.2-0.8-11.2-0.4c-8.8,0.6-20.4,7.5-26.3,13.9
					c-6.1,6.6-5.7,10.6-7.9,13.1c-1.5,1.8-4.3,3.1-6.1,4.6c0.2-16.4,2.6-34.8,9.6-49.8C89.6,48.6,112.4,48.6,135.1,48.6z"/>
				<path class="st2" d="M141.5,122c-1.6,5-4.7,8.8-8.8,12c-21.4,0-42.9,0-64.3,0c-1.2-1.5-1.2-1.5-2.5-3.1c12.1,1.3,23-8.5,16-20.4
					c1.3,0.3,5.3,0.8,6.1,1.2c0.7,0.3,0.8,2,3.5,0.7c3.5,0.9,9,1.7,12.3,3.1c4.1,1.7,4.9,4.4,10.8,1.2c4.2,1.1,8.5,1.9,12.7,2.9
					C131.3,120.5,140.3,124,141.5,122z"/>
				<path class="st2" d="M161.2,48.6c4.2,0,8.5,0,12.7,0c0,42.7,0,42.7,0,85.4c-4.4,0-8.9,0-13.3,0c5.4-3.8,6-8.3,8.3-14.1
					c2-7.1,2.7-19.2,2.9-26.7c0,0,0.3-0.6,0.3-0.6c0-2.1-0.4-2.5-0.4-2.6c-0.3-10.5-1.7-25.3-6.3-34.7
					C164.3,52.9,162.5,50.9,161.2,48.6z"/>
				<path class="st2" d="M36.6,48.6c-1.6,2.6-1.6,2.6-3.2,5.2c-0.4,1.6-2.1,4.7-2.2,5c-0.7,2-0.9,4.1-1.5,6.1
					c-0.1,0.3-0.5,0.8-0.6,1.2c-1,4.3-1.5,8.7-2.3,13c-1.2,10.5-1.2,21-0.1,31.5c0.9,4.7,0.9,4.7,1.9,9.3c2.1,3.9,1.9,7.1,5.1,10.9
					c0.8,1,2.4,1.9,3.1,3.1c-4.1,0-8.2,0-12.3,0c0-42.7,0-42.7,0-85.4C28.6,48.6,32.6,48.6,36.6,48.6z"/>
				<path class="st2" d="M43.5,48.6c-10.7,10.3-12.4,34-12.1,48.1c0.2,12.8,2,29.8,13.7,37.3c-1.3,0-2.6,0-3.9,0
					c-0.5-0.6-2.5-1.2-3.1-1.6c-1-0.6-3-2.8-3.6-3.7c-0.3-0.5-1.8-3.7-2-4.4c-4-10.3-5-26.8-4.1-37.8c0.2-2.4,1.5-12.3,1.9-14.7
					c1-5.7,3.3-15,6.6-19.7c0.8-1.2,2.1-2.1,2.6-3.4C40.8,48.6,42.1,48.6,43.5,48.6z"/>
				<path class="st2" d="M161.2,48.6c1.3,2.3,3.1,4.3,4.2,6.6c4.6,9.5,6,24.3,6.3,34.7c0,0.1,0.5,0.5,0.4,2.6c0,0-0.3,0.6-0.3,0.6
					c-0.2,7.5-0.9,19.6-2.9,26.7c-2.3,5.8-2.9,10.3-8.3,14.1c-1.5,0-2.9,0-4.4,0c0.2-0.8,1.7-1.2,2.4-1.8c4.2-3.4,7.9-12.3,8.2-17.7
					c0.4-0.4,0.4-0.4,0.7-0.9c-0.1-2.5,0.5-4.2,0.6-5.4c1-8.7,0.6-17.6,0.9-26.3c-0.9-6.2-0.9-6.2-1.9-12.4
					c-1.4-4.4-2.6-11.7-5-15.5c-0.6-0.9-3.7-3.8-4.1-5.5C159.2,48.6,160.2,48.6,161.2,48.6z"/>
				<path class="st2" d="M158.2,48.6c0.4,1.7,3.5,4.5,4.1,5.5c2.4,3.7,3.5,11.1,5,15.5c0.9,6.2,0.9,6.2,1.9,12.4
					c-0.3,8.7,0.1,17.5-0.9,26.3c-0.1,1.2-0.6,2.9-0.6,5.4c-0.4,0.4-0.4,0.4-0.7,0.9c-0.3,5.4-4,14.4-8.2,17.7
					c-0.7,0.5-2.2,0.9-2.4,1.8c-1,0-1.9,0-2.9,0c6.6-6.3,8.7-9.4,10.8-18.3c3.5-14.9,2.9-36.6-1-51.4c-1.7-6.5-3.9-10.8-8.6-15.7
					C155.7,48.6,157,48.6,158.2,48.6z"/>
				<path class="st2" d="M39.4,48.6c-0.6,1.3-1.8,2.3-2.6,3.4c-3.2,4.7-5.6,14-6.6,19.7c-0.4,2.4-1.7,12.3-1.9,14.7
					c-0.9,11,0,27.5,4.1,37.8c0.3,0.7,1.8,3.9,2,4.4c0.6,0.9,2.6,3.1,3.6,3.7c0.7,0.4,2.6,1,3.1,1.6c-1.5,0-2.9,0-4.4,0
					c-0.7-1.2-2.2-2.1-3.1-3.1c-3.2-3.9-3-7-5.1-10.9c-0.9-4.7-0.9-4.7-1.9-9.3c-1.1-10.5-1.1-21,0.1-31.5c0.8-4.3,1.3-8.7,2.3-13
					c0.1-0.4,0.5-0.9,0.6-1.2c0.5-2,0.8-4.1,1.5-6.1c0.1-0.3,1.8-3.4,2.2-5c1.6-2.6,1.6-2.6,3.2-5.2C37.6,48.6,38.5,48.6,39.4,48.6z
					"/>
				<path class="st2" d="M139.2,113.9c-2-1-11.7-2.9-14.8-3.6c-2.1-3.6-4.5-3.7-8.2-5c-1.4-3.7-3.9-6.8-6.3-9.8
					c0.6-0.8,1.2-2.8,1.7-3.3c0.3-0.3,5-3,5.8-3.4c2.5-1.1,6.8-2.1,10.1-4.2c1.2-0.8,9.6-8.4,11.2-9.9
					C141.9,88,144.1,100.5,139.2,113.9z"/>
			</g>
			<g>
				<g>
					<g>
						<path class="st9" d="M134.5,106.6c-0.6,0.8,1.5,4.6,0.2,5.3c-2.2,1.1-7.7,0.6-11.3,0.9c-4.6,0.3-9.8,1-14.8,0.3
							c-6.4-0.9-15.6,0.1-18.5-1.6c-2.5-1.5-1.6-5.5,0.7-7.9c0.9-0.9,3.9,0.1,5.3,0.3c1.1,0.1,3.4,0.5,5.4,0.5c0,0,14.2,2,19.1,0.8
							c4.9-1.1,15.6-13.8,18-13.9s8,1.5,6.7,4.1C144,98.1,134.5,106.6,134.5,106.6z"/>
						<path class="st10" d="M134.6,94.1c-1.8-1.2-4.1-1-6.2-1.4c-3.5-3.1-16,3.5-18.9,0.9c3.2-11.2,2.2-16-5.1-25.1
							c-0.8-0.6-1.4-1-2.3-1.4c-1.5,0.1-3.7-0.5-7.7,0.3c-9.6,1.9-21.3,11.8-25.8,20.4c-3.1,5.7-4.9,7.8-6.6,10.5
							c-1.8,2.9-12.9,13.6-9,25.3c3.8,11.5,26.4,15.1,33.2,3.4c6.2-10.7-6.3-21.9-17.3-15.5c-4.6,2.7-7.3,10.2-1.9,13.3
							c1,0.6,4.6,1.7,4.1,1c-1-0.5-0.8-0.6-0.8-0.6c-6.3-4.5,0.6-15.2,8.8-11.1c7.8,3.8,4.8,15.2-1.6,16.1c0,0-5.3,1.4-11.9-1.5
							c-9.6-4.2-4.7-23.6,7-25.6c0.2,0.7,2.8,4.6,4.3,1.6c2.3-4.5,2-4.5,3.7-9.2c3.5,2.7,3.2,4.2,6.6,7.3c0.3,0.3,3.2,2.3,3.4,2.3
							l0.4,0.2c-1.4,3.1,0.7,9.4,2.9,7.3c-1.2-1.5-0.9-7.6,0.9-8.5c0.8-0.4,1.3-0.5,2-0.3c1.7,0.3,1.1,0.3,2.7,0.3
							c-2.8-2.7-6.5-0.3-6.9-0.2c-0.3,0.1-0.4,0.1-0.7-0.1c-5-9.5-7.6-17.9-15.6-8c-1.9,2.3-2.7,4.5-3,4.5c-1.4-0.1,3.1-5.8,3.5-6.2
							c2.5-2.8,4.6-5.1,8.4-2.8c3.3-1.4,18-9.3,19-9.6c7.4-2.5-0.8,9.8,2.6,15c1.2,1.8,18.2-4.1,20.2-1.4c-0.2,1,1.3,7.2,3.3,6.6
							c1.6-0.5-1.5-4.9-0.6-6.5c0.1-0.1,1.3-0.3,1.4-0.3c1.6,0,2,0.1,2.5,0.1L134.6,94.1z"/>
						<path class="st10" d="M90,98.9c-0.1,0-3.6-6.4-4.3-6.9l16.1-8.8c1-0.5,4.4-2.6,4.9-0.7c0.1,0.5-1.3,8.7-1.7,10.1
							c0,0.1-0.1,0.2-0.2,0.3C103.5,93.4,95,97.2,90,98.9z"/>
						<g>
							<path class="st10" d="M118.6,54.2c0.6-0.2,1.7-0.3,2.3-0.2c1.5,0.1,13.6,5.2,13.6,5.9c0,0.1-0.7,0.4-1,0.4
								c-0.4,0-6.2-2.1-7.7-2.3c-0.1,0-0.2,0-0.3-0.1c-5.5-3.9-6.1-2.2-7.2-2.3C118.1,55.6,116.3,54.9,118.6,54.2z"/>
							<g>
								<path class="st10" d="M135.6,66.9c-0.4,0.6-8.7,11.1-9.3,11.6c-4.4,4.3-11,5.7-15,10.6c-0.8-0.2,2.9-6.3-3-16
									c-0.9-1.4-2.6-3.6-3.8-4.6c-0.8-0.6-1.4-1-2.3-1.4c3.4-0.1,4.3-1.2,2-4c-2.8-2.9-8.4-6.9-5-9.9c3.9-3.4,15.3,0.7,19.3,3.1
									c-3.3,2.8-3.3,4.2-8,4.1c-4.1-0.1-6.6-2.6-9.9-4.5c2.4,2.4,6.6,5,10,5.1c4.4,0.4,7.5,5.4,8.7,5.9c3.7,1.4,6.7-3.3,5.6-7.3
									c-0.1-0.4-1-1.3-0.7-1.6c1.2,0.5,1.9,1,3.2,1.4c3.5,0.7,3.5,0.7,7,1.5c-3,1.6-15.4,8.3-16.9,9.8c-1.2,1.2-0.5,2.9,1.6,2
									c0.5-0.2,6.6-4.3,8.3-5.3c1-0.6,8.1-4.6,8.6-4.6c0.9-0.1,0.4,2,0.2,2.6L135.6,66.9"/>
							</g>
							<g>
								<path class="st10" d="M124.2,61c0.7,4.2-6,4.9-7.1,1.1c0-0.2,0-0.3,0-0.5c0.9-2.8,5-3.2,6.8-1
									C124.1,60.7,124.1,60.8,124.2,61z"/>
							</g>
						</g>
					</g>
				</g>
			</g>
		</g>
		<text transform="matrix(1 0 0 1 90.9496 130.8364)" class="st10 st11 st12">Agripper</text>
	</g>
</g>
</svg>
