<svg width="224" height="139" viewBox="0 0 224 139" fill="#E5EBF0" stroke="#E5EBF0" xmlns="http://www.w3.org/2000/svg">
    <path
        d="M146.358 58.9795C143.897 58.4646 138.117 57.9378 135.128 59.0508C131.917 60.1875 130.484 55.993 127.431 56.8525C121.882 59.2448 122.35 55.8821 118.94 53.668C115.519 53.6522 113.824 57.3318 111.196 59.0508C108.973 60.3103 106.678 58.2072 104.424 58.8568C94.6024 63.2256 98.7466 60.0529 92.3159 58.5241C82.5547 64.9089 86.5759 60.2985 80.4032 59.4231C77.4101 60.2866 75.4452 65.3129 71.9361 62.3106C71.3327 61.8908 70.3721 61.6254 69.6496 61.7799C67.3433 62.675 66.6367 66.8656 63.6794 65.4951C62.9252 64.8535 62.3138 65.7367 61.516 65.9744C59.7019 66.9131 59.9758 69.5708 57.8123 69.8639C56.7604 70.0699 56.3912 70.7551 56.1173 71.6146C55.7958 73.7456 53.9817 73.1593 53.2791 75.7537C52.3621 83.1962 59.7654 80.3007 63.4968 81.7583C65.2513 83.1327 66.5811 80.0908 67.9943 81.7979C69.6933 84.0873 71.6662 80.0988 73.2619 82.6772C73.7383 83.1802 74.2345 83.2476 74.8815 83.0535C76.1955 82.907 77.8627 82.5821 79.1091 83.0337C81.3678 84.0517 84.0076 82.5704 86.4925 82.9902C90.4542 84.4438 94.6976 82.7723 98.9292 83.7546C112.732 85.5171 135.462 93.2804 139.388 93.221C146.652 93.118 152.487 60.2549 146.358 58.9795ZM108.901 68.7786C107.532 68.9133 82.0784 67.7805 69.9076 71.7651C64.4138 73.5634 61.8335 74.6487 62.7862 72.5652C63.5007 71.0086 64.116 68.8262 66.4581 68.4539C68.8001 68.0855 71.8091 67.9983 74.8736 67.3487C77.9341 66.6952 77.819 64.2831 79.907 65.3762C81.995 66.4734 85.3374 66.5288 88.1201 65.1663C90.9067 63.8078 91.6927 61.5858 93.3956 63.1067C95.0986 64.6237 98.4648 66.8537 103.459 64.081C108.453 61.3085 111.406 64.4415 111.751 65.4793C112.097 66.517 110.763 68.5964 108.901 68.7786Z"
        fill="inherit" stroke="none" />


    <path
        d="M193.564 113.151L121.406 134.96C121.406 134.96 97.8908 144.447 66.9505 130.742L30.3793 114.676C16.7104 108.921 6.75163 96.8763 3.71898 82.4348C-2.43003 56.9897 -2.46589 46.0813 19.7709 33.5766C42.0078 21.0719 69.0706 5.73113 69.0706 5.73113C69.0706 5.73113 84.1023 -5.17332 113.544 6.49559C142.986 18.1646 190.823 38.5951 190.823 38.5951C190.823 38.5951 204.683 43.7562 217.559 70.1123C229.92 95.4147 221.181 105.265 193.568 113.151H193.564Z"
        fill="none" stroke="inherit" stroke-width="0.396039" stroke-miterlimit="10" />
</svg>