<?xml version="1.0" encoding="utf-8"?>
<!-- Generator: Adobe Illustrator 22.0.1, SVG Export Plug-In . SVG Version: 6.00 Build 0)  -->
<svg version="1.1" xmlns="http://www.w3.org/2000/svg" xmlns:xlink="http://www.w3.org/1999/xlink" x="0px" y="0px"
	 viewBox="0 0 267.8 184.3" style="enable-background:new 0 0 267.8 184.3;" xml:space="preserve">
<style type="text/css">
	.st0{fill:#241C28;}
	.st1{display:none;}
	.st2{display:inline;fill:#82AEDD;}
	.st3{display:inline;fill:#B9B5C6;}
	.st4{display:inline;fill:#FBFBFD;}
	.st5{display:inline;fill:#4F4E5C;}
	.st6{display:inline;fill:#D2D5E2;}
	.st7{display:inline;fill:#443C4F;}
	.st8{fill:none;stroke:#F0F2F5;stroke-miterlimit:10;}
	.st9{fill:#43455D;}
	.st10{fill:#82AEDD;}
	.st11{fill:none;stroke:#43455D;stroke-miterlimit:10;}
	.st12{display:inline;fill:#B7B5C8;}
	.st13{fill:none;}
	.st14{font-family:'NotoSans-Regular';}
	.st15{font-size:16px;}
</style>
<g id="Calque_2">
	<rect y="-1.2" class="st0" width="267.8" height="185.4"/>
</g>
<g id="Calque_1">
	<g>
		<path class="st8" d="M222.3,136l-77.1,23.4c0,0-25.1,10.2-58.2-4.5l-39.1-17.3c-14.6-6.2-25.2-19.1-28.5-34.6
			C13,75.6,13,63.9,36.7,50.5C60.5,37,89.4,20.6,89.4,20.6s16.1-11.7,47.5,0.8c31.4,12.5,82.5,34.5,82.5,34.5s14.8,5.5,28.6,33.9
			C261.2,116.9,251.8,127.5,222.3,136z"/>
		<g>
			<path class="st10" d="M171.5,77.5c-2.6-0.5-8.8-1.1-12,0.1c-3.4,1.2-5-3.3-8.2-2.4c-5.9,2.6-5.4-1-9.1-3.4
				c-3.7,0-5.5,3.9-8.3,5.8c-2.4,1.4-4.8-0.9-7.2-0.2c-10.5,4.7-6.1,1.3-12.9-0.4c-10.4,6.8-6.1,1.9-12.7,1c-3.2,0.9-5.3,6.3-9,3.1
				c-0.6-0.5-1.7-0.7-2.4-0.6c-2.5,1-3.2,5.4-6.4,4c-0.8-0.7-1.5,0.3-2.3,0.5c-1.9,1-1.6,3.8-4,4.2c-1.1,0.2-1.5,1-1.8,1.9
				c-0.3,2.3-2.3,1.7-3,4.4c-1,8,6.9,4.9,10.9,6.4c1.9,1.5,3.3-1.8,4.8,0c1.8,2.4,3.9-1.8,5.6,0.9c0.5,0.5,1,0.6,1.7,0.4
				c1.4-0.2,3.2-0.5,4.5,0c2.4,1.1,5.2-0.5,7.9,0c4.2,1.6,8.8-0.2,13.3,0.8c14.7,1.9,39,10.2,43.2,10.1
				C171.8,114.1,178.1,78.9,171.5,77.5z"/>
		</g>
		<path class="st9" d="M134.6,84.5c-0.4-1.1-3.5-4.5-8.9-1.5s-8.9,0.6-10.7-1c-1.8-1.6-2.7,0.8-5.6,2.2c-3,1.5-6.5,1.4-8.8,0.2
			c-2.2-1.2-2.1,1.4-5.4,2.1s-6.5,0.8-9,1.2s-3.2,2.7-3.9,4.4c-1,2.2,1.7,1.1,7.6-0.9c13-4.3,40.2-3.1,41.6-3.2
			C133.5,87.8,134.9,85.6,134.6,84.5z"/>
		<text transform="matrix(1 0 0 1 96.3107 131.4754)" class="st10 st14 st15">Naviguer</text>
	</g>
</g>
</svg>
