<svg width="224" height="138" viewBox="0 0 224 138" fill="none" xmlns="http://www.w3.org/2000/svg">
<g clip-path="url(#clip0_515_2986)">
<path d="M217.934 69.8796C205.061 43.6115 191.199 38.468 191.199 38.468C191.199 38.468 143.362 18.1063 113.919 6.47441C84.4771 -5.15355 69.4483 5.71547 69.4483 5.71547C69.4483 5.71547 42.3837 21.0044 20.1461 33.4661C-2.09144 45.9316 -2.05174 56.8006 4.0892 82.1603C7.12195 96.5527 17.0856 108.562 30.7528 114.295L67.3245 130.312C98.2674 143.969 121.783 134.512 121.783 134.512L193.942 112.774C221.554 104.913 230.295 95.0938 217.934 69.8796ZM62.7873 72.0424C63.5018 70.497 64.1171 68.3303 66.4592 67.9606C68.8012 67.5949 71.8102 67.5084 74.8747 66.8635C77.9352 66.2147 77.8201 63.8199 79.9081 64.9052C81.9961 65.9944 85.3385 66.0495 88.1211 64.6968C90.9078 63.348 91.6938 61.1419 93.3967 62.652C95.0997 64.158 98.4659 66.372 103.46 63.6193C108.453 60.8667 111.407 63.9772 111.752 65.0074C112.097 66.0377 110.764 68.1022 108.902 68.2831C107.532 68.4168 82.0794 67.2921 69.9087 71.2481C64.4148 73.0334 61.8346 74.1108 62.7873 72.0424Z" stroke="#E5EBF0" stroke-width="0.393235" stroke-miterlimit="10"/>
<path d="M146.358 58.5546C143.897 58.0434 138.117 57.5204 135.128 58.6254C131.917 59.7539 130.484 55.5896 127.431 56.4429C121.882 58.818 122.35 55.4795 118.94 53.2813C115.519 53.2656 113.824 56.9187 111.196 58.6254C108.973 59.8758 106.678 57.7878 104.424 58.4327C94.6029 62.7701 98.7471 59.6202 92.3164 58.1024C82.5552 64.4413 86.5764 59.8641 80.4037 58.995C77.4106 59.8523 75.4457 64.8424 71.9366 61.8617C71.3332 61.4449 70.3726 61.1814 69.6501 61.3348C67.3438 62.2235 66.6372 66.3839 63.6799 65.0233C62.9257 64.3863 62.3143 65.2632 61.5165 65.4991C59.7024 66.4311 59.9763 69.0697 57.8128 69.3607C56.7609 69.5652 56.3917 70.2455 56.1178 71.0988C55.7963 73.2144 53.9822 72.6324 53.2796 75.2081C52.3626 82.597 59.7659 79.7224 63.4973 81.1695C65.2518 82.534 66.5816 79.514 67.9948 81.2088C69.6938 83.4817 71.6667 79.5219 73.2624 82.0818C73.7388 82.5812 74.235 82.6481 74.882 82.4554C76.196 82.3099 77.8632 81.9874 79.1096 82.4357C81.3683 83.4464 84.0081 81.9757 86.493 82.3925C90.4547 83.8357 94.6981 82.1762 98.9297 83.1514C112.732 84.9013 135.462 92.6087 139.388 92.5497C146.652 92.4475 152.487 59.8208 146.358 58.5546ZM108.901 68.2832C107.532 68.4169 82.0789 67.2923 69.9081 71.2482C64.4143 73.0335 61.834 74.111 62.7867 72.0425C63.5012 70.4971 64.1165 68.3304 66.4586 67.9608C68.8006 67.5951 71.8096 67.5085 74.8741 66.8636C77.9346 66.2148 77.8195 63.82 79.9075 64.9053C81.9955 65.9946 85.3379 66.0496 88.1206 64.6969C90.9072 63.3481 91.6932 61.1421 93.3961 62.6521C95.0991 64.1582 98.4653 66.3721 103.459 63.6194C108.453 60.8668 111.406 63.9773 111.751 65.0076C112.097 66.0378 110.763 68.1023 108.901 68.2832Z" fill="#E5EBF0"/>
</g>
<defs>
<clipPath id="clip0_515_2986">
<rect width="223.245" height="136.991" fill="white" transform="translate(0.377441 0.90625)"/>
</clipPath>
</defs>
</svg>
