<svg width="224" height="139" viewBox="0 0 224 139" fill="#E5EBF0" stroke="#E5EBF0" xmlns="http://www.w3.org/2000/svg">
    <g stroke="none">
        <path
            d="M118.223 57.5256C117.763 57.745 117.303 57.9479 116.844 58.1508C116.384 58.3537 115.925 58.5732 115.457 58.7595C114.393 59.2108 113.192 59.2108 112.132 58.7595C111.105 58.3082 110.169 57.9107 109.196 57.4593C107.263 56.5857 105.3 55.683 103.453 54.71C103.064 54.5485 102.695 54.3332 102.364 54.0723C102.021 53.8197 101.739 53.4926 101.54 53.1158C101.379 52.7432 101.259 52.3498 101.188 51.9482C101.097 51.559 101.056 51.1573 101.064 50.7557C101.134 51.1449 101.238 51.5217 101.375 51.8944C101.491 52.2587 101.648 52.6107 101.851 52.9378C102.298 53.5258 102.923 53.9605 103.635 54.1676C105.615 54.946 107.532 55.8486 109.494 56.7472C110.447 57.1902 111.449 57.6664 112.347 58.1177C113.242 58.5607 114.277 58.6394 115.229 58.3289C115.705 58.1632 116.194 58.039 116.678 57.9024C117.163 57.7616 117.738 57.6457 118.227 57.538L118.223 57.5256Z"
            fill="inherit" />
        <path
            d="M120.926 57.8691C120.209 58.2293 119.468 58.5481 118.727 58.8835L117.613 59.3514C117.253 59.4715 116.913 59.6413 116.599 59.8483C116.309 60.047 116.073 60.3162 115.911 60.6267C115.77 60.9373 115.704 61.2809 115.725 61.6246C115.725 62.4072 115.77 63.1856 115.849 63.9599V64.0303C115.895 64.2622 115.982 64.4816 116.106 64.6845C116.255 64.9247 116.421 65.1524 116.611 65.3636C117.013 65.8066 117.456 66.2083 117.936 66.5644C118.909 67.3428 119.87 68.1212 120.801 68.8997C119.716 68.2993 118.652 67.6616 117.609 66.9908C117.062 66.6596 116.557 66.2662 116.098 65.8232C115.862 65.5872 115.65 65.3263 115.468 65.0448C115.249 64.7301 115.116 64.3616 115.087 63.9765V64.0469C114.98 63.2312 114.938 62.4072 114.963 61.5832C114.942 61.1195 115.05 60.6599 115.274 60.2499C115.505 59.8524 115.837 59.5212 116.23 59.2852C116.607 59.0781 117.004 58.9208 117.423 58.8173L118.574 58.4736C119.36 58.3039 120.131 58.0471 120.917 57.8649L120.926 57.8691Z"
            fill="inherit" />
        <path
            d="M120.007 70.1543C118.848 69.525 117.672 68.8749 116.562 68.1917C116.289 68.0344 115.97 67.8273 115.738 67.7155C115.465 67.5955 115.171 67.5251 114.873 67.4961C114.256 67.4381 113.635 67.4837 113.034 67.6369C111.804 67.9723 110.496 68.3242 109.225 68.6347C107.954 68.9453 106.662 69.2641 105.378 69.554C104.914 69.6161 104.455 69.7403 104.024 69.9183C103.606 70.0508 103.271 70.3614 103.105 70.7672C103.088 70.999 103.088 71.2351 103.105 71.4669V72.2454C103.105 72.7422 103.105 73.2432 103.068 73.7484L102.881 72.2619L102.794 71.4835C102.753 71.2268 102.732 70.9659 102.741 70.705C102.89 70.1502 103.283 69.6865 103.809 69.4504C104.277 69.202 104.778 69.0198 105.295 68.9122C106.566 68.5519 107.834 68.2041 109.113 67.877C110.392 67.5499 111.639 67.2311 112.96 66.9123C113.647 66.7632 114.355 66.7425 115.046 66.8501C115.403 66.9123 115.75 67.0282 116.073 67.1938C116.417 67.405 116.628 67.583 116.914 67.7776C117.92 68.5478 118.972 69.3428 120.007 70.1543Z"
            fill="inherit" />
        <path
            d="M101.498 74.2205C101.084 73.3965 100.72 72.5518 100.401 71.6947C100.194 71.1026 99.8625 70.5561 99.436 70.0965C98.993 69.6286 98.463 69.2476 97.8792 68.9744C96.6577 68.3905 95.4486 67.7736 94.2644 67.0987C93.9953 66.9537 93.7096 66.8502 93.4073 66.7964C93.0885 66.7426 92.7655 66.726 92.4425 66.7591C91.7759 66.8337 91.13 67.0448 90.5503 67.3844C90.8112 67.1566 91.0969 66.962 91.3991 66.8005C91.7138 66.6349 92.0451 66.5066 92.3887 66.4196C92.7407 66.3368 93.105 66.3078 93.4653 66.3327C93.8421 66.3534 94.2147 66.4486 94.5543 66.6142C95.8171 67.1359 97.0552 67.7198 98.2767 68.3284C98.9309 68.6473 99.5147 69.1027 99.9826 69.6617C100.463 70.2248 100.807 70.8915 100.98 71.6078C101.175 72.4193 101.361 73.3137 101.502 74.2246L101.498 74.2205Z"
            fill="inherit" />
        <path
            d="M86.9397 57.1736C88.2109 57.6539 89.5607 57.8982 90.9188 57.8982C91.5772 57.8817 92.2314 57.7864 92.8649 57.6167C93.4984 57.4179 94.1112 57.1571 94.695 56.8382C95.9165 56.2296 97.1256 55.6002 98.2725 54.8839C98.5499 54.7141 98.8108 54.5195 99.051 54.3C99.2911 54.0765 99.5064 53.828 99.6969 53.5589C100.115 53.0247 100.326 52.3581 100.289 51.6832C100.475 52.3829 100.38 53.1241 100.032 53.7535C99.8625 54.0765 99.6555 54.3787 99.4236 54.6561C99.1917 54.9253 98.9309 55.1696 98.6452 55.3807C97.5272 56.2047 96.3306 56.9211 95.076 57.5214C94.4425 57.8568 93.7758 58.1218 93.0802 58.2999C92.3763 58.4614 91.6558 58.5193 90.9395 58.4696C89.5151 58.3827 88.1363 57.9355 86.9355 57.1695L86.9397 57.1736Z"
            fill="inherit" />
        <path
            d="M87.9216 67.6535C88.5219 67.2477 89.143 66.875 89.76 66.5231C90.3769 66.2208 90.9525 65.8399 91.4742 65.3927C91.7019 65.1732 91.8758 64.9082 91.9876 64.6142C92.029 64.49 92.0539 64.3575 92.058 64.225V64.0221L91.9628 63.7571C91.8303 63.0698 91.6647 62.3783 91.4783 61.7324V61.662C91.3955 61.4632 91.2837 61.2769 91.1429 61.1154C90.9773 60.9125 90.791 60.7304 90.5881 60.5606C90.1658 60.2128 89.7144 59.9022 89.2424 59.6248C88.2776 59.0368 87.2715 58.5151 86.2363 58.0679C86.8077 58.159 87.3667 58.2998 87.9133 58.4903C88.4557 58.6808 88.9898 58.9002 89.5115 59.1445C90.0622 59.3847 90.584 59.6786 91.0684 60.0306C91.3127 60.2128 91.5404 60.4198 91.7475 60.6475C91.9959 60.9043 92.174 61.2231 92.2692 61.5668V61.4964C92.4969 62.1961 92.6667 62.9125 92.7826 63.6371L92.8199 63.9021V64.2375C92.8075 64.461 92.7578 64.6805 92.6708 64.8834C92.4928 65.2643 92.2236 65.5997 91.8924 65.8564C91.5984 66.1007 91.2713 66.3036 90.9194 66.4568L89.938 66.8709C89.2673 67.1442 88.6048 67.4092 87.9216 67.6493V67.6535Z"
            fill="inherit" />
        <path
            d="M83.0188 56.747C82.5674 56.9748 82.1078 57.1901 81.6565 57.4013C81.2052 57.6124 80.7456 57.836 80.286 58.0306C79.2384 58.5192 78.0335 58.5565 76.961 58.13C75.9259 57.7035 74.9818 57.3102 74.0005 56.8837C72.0461 56.0514 70.1042 55.186 68.2037 54.2503C67.8062 54.1012 67.4335 53.8942 67.0981 53.6333C66.7545 53.3849 66.4646 53.066 66.2576 52.6975C66.092 52.3207 65.9677 51.9315 65.8849 51.5299C65.7938 51.1407 65.7441 50.7432 65.7441 50.3457C65.8228 50.7307 65.9305 51.1075 66.0713 51.476C66.1996 51.8404 66.3652 52.1882 66.5681 52.5112C67.0236 53.095 67.6612 53.5132 68.3734 53.7037C70.3692 54.4821 72.3318 55.3103 74.2779 56.1715C75.2427 56.5938 76.2489 57.0534 77.1598 57.4799C78.0625 57.9106 79.0976 57.9685 80.0417 57.6373C80.5178 57.4675 80.9981 57.335 81.4826 57.1777C81.967 57.0203 82.526 56.8506 83.0188 56.7429V56.747Z"
            fill="inherit" />
        <path
            d="M85.7307 57.0245C85.0144 57.3971 84.2815 57.7325 83.5486 58.0762L82.443 58.5731C82.0869 58.6973 81.7516 58.8712 81.4451 59.0865C81.1553 59.2811 80.9276 59.5502 80.7744 59.8649C80.6336 60.1755 80.5756 60.5191 80.6129 60.8628C80.6253 61.6454 80.6791 62.4238 80.7744 63.1981V63.2685C80.8241 63.5004 80.9193 63.7157 81.0477 63.9144C81.1967 64.1546 81.3665 64.3782 81.5611 64.5852C81.9751 65.0158 82.4265 65.4092 82.9151 65.7529C83.8964 66.494 84.8694 67.2559 85.8218 68.0882C84.7204 67.5126 83.6438 66.8998 82.588 66.2497C82.029 65.9268 81.5073 65.5417 81.0311 65.1028C80.7868 64.8668 80.5715 64.6059 80.3852 64.3244C80.1574 64.0138 80.0166 63.6494 79.9794 63.2644V63.3347C79.8552 62.5191 79.8013 61.6951 79.8096 60.8711C79.7806 60.4073 79.88 59.9436 80.0994 59.5295C80.323 59.1279 80.646 58.7884 81.0435 58.5482C81.412 58.3329 81.8054 58.1673 82.2194 58.0555L83.3705 57.6911C84.1738 57.4509 84.9522 57.2066 85.7307 57.012V57.0245Z"
            fill="inherit" />
        <path
            d="M85.0601 69.3263C83.8841 68.7176 82.7248 68.0965 81.5778 67.434C81.2963 67.2849 80.9691 67.0738 80.7456 66.9661C80.464 66.8585 80.17 66.7963 79.8719 66.7715C79.2549 66.726 78.6297 66.7881 78.0335 66.9495C76.812 67.3098 75.5077 67.6824 74.2489 68.0178C72.9861 68.3532 71.6942 68.6969 70.4147 69.0157C69.951 69.082 69.4955 69.2145 69.069 69.4049C68.6591 69.554 68.3403 69.877 68.1871 70.2869C68.1747 70.5188 68.1747 70.7548 68.1871 70.9866V73.2681C68.1001 72.7712 68.0297 72.2785 67.9676 71.7816L67.8683 71.0405C67.8144 70.7838 67.7937 70.5229 67.7979 70.262C67.9387 69.7031 68.3196 69.231 68.8413 68.9826C69.3051 68.73 69.8061 68.5395 70.3195 68.4236C71.5824 68.0385 72.8453 67.67 74.104 67.3098C75.3835 66.9454 76.6215 66.6183 77.9465 66.2746C78.6256 66.1131 79.3336 66.0759 80.0251 66.1753C80.3853 66.2332 80.7331 66.3409 81.0602 66.4941C81.4039 66.7053 81.6192 66.875 81.9091 67.0613C82.9235 67.7611 83.9959 68.5395 85.0559 69.3263H85.0601Z"
            fill="inherit" />
        <path
            d="M66.6138 73.7526C66.1914 72.9328 65.8353 72.1005 65.4668 71.2517C65.2474 70.6679 64.912 70.1379 64.4772 69.6948C64.03 69.2394 63.5 68.8667 62.9204 68.6059C61.6823 68.0469 60.465 67.4548 59.2683 66.8005C58.9951 66.6598 58.7052 66.5604 58.403 66.5107C58.0841 66.4734 57.757 66.4734 57.4382 66.5107C56.7757 66.6059 56.1339 66.8337 55.5625 67.1815C55.8192 66.9455 56.1008 66.7426 56.403 66.5728C56.7094 66.3989 57.0366 66.2664 57.3761 66.1753C57.728 66.0842 58.0883 66.047 58.4526 66.0677C58.8336 66.0801 59.2062 66.1712 59.5499 66.3327C60.8211 66.8295 62.0674 67.3844 63.3054 67.9682C63.9679 68.2787 64.56 68.7218 65.0445 69.2683C65.5331 69.8232 65.885 70.4857 66.0714 71.202C66.2577 71.9556 66.4606 72.8458 66.6179 73.7568L66.6138 73.7526Z"
            fill="inherit" />
        <path
            d="M51.7322 56.9956C53.0116 57.4469 54.3615 57.6664 55.7196 57.6332C56.3779 57.6084 57.0321 57.5049 57.6657 57.3227C58.295 57.1239 58.9037 56.8631 59.4792 56.5442C60.6883 55.9149 61.8849 55.2607 63.0153 54.5195C63.2927 54.3497 63.5536 54.151 63.7938 53.9274C64.0298 53.6914 64.2409 53.4305 64.4231 53.1489C64.8289 52.6107 65.0277 51.9399 64.978 51.265C65.185 51.9565 65.1105 52.7018 64.7668 53.3353C64.6053 53.6582 64.4107 53.9646 64.183 54.2462C63.9552 54.536 63.6944 54.7969 63.4045 55.0246C62.2949 55.8735 61.1065 56.6146 59.8602 57.244C59.2308 57.5753 58.5683 57.8361 57.881 58.0224C57.1812 58.1922 56.4607 58.2626 55.7403 58.2336C54.32 58.1674 52.9412 57.7409 51.728 56.9956H51.7322Z"
            fill="inherit" />
        <path
            d="M52.9164 67.4339C53.5085 67.0281 54.1171 66.6555 54.7299 66.2745C55.3386 65.9598 55.91 65.5706 56.4193 65.1152C56.6429 64.8998 56.8168 64.6307 56.9162 64.3367C56.9576 64.2084 56.9783 64.0759 56.9783 63.9392V63.7446L56.9327 63.4879C56.7837 62.8006 56.6056 62.1091 56.4028 61.4714V61.4259C56.3241 61.2271 56.2123 61.0449 56.0674 60.8876C55.8976 60.6888 55.7071 60.5067 55.5084 60.341C55.0778 60.0056 54.6181 59.7034 54.1378 59.4384C53.1648 58.8587 52.1462 58.3535 51.0986 57.9188C51.67 58.0016 52.2332 58.1341 52.7797 58.3163C53.3263 58.4902 53.8646 58.6972 54.3904 58.9332C54.937 59.1651 55.4587 59.4508 55.9473 59.7903C56.1999 59.9684 56.4359 60.1713 56.647 60.399C56.8996 60.6516 57.0859 60.9621 57.1853 61.3017V61.2313C57.4296 61.9269 57.6118 62.6391 57.7402 63.3678L57.794 63.6328V63.9682C57.7857 64.1918 57.7402 64.4113 57.6615 64.6224C57.4959 64.9992 57.2474 65.3346 56.9369 65.6037C56.6429 65.848 56.3158 66.0592 55.9721 66.229L54.9825 66.6555C54.2413 66.9287 53.5871 67.2103 52.9122 67.4422L52.9164 67.4339Z"
            fill="inherit" />
        <path
            d="M153.123 59.1776C152.672 59.397 152.212 59.6041 151.753 59.807C151.293 60.0099 150.833 60.2293 150.365 60.4156C149.305 60.8835 148.101 60.8959 147.032 60.4529C146.005 60.0099 145.07 59.6041 144.097 59.161C142.163 58.2791 140.242 57.3847 138.349 56.4199C137.956 56.2585 137.583 56.0431 137.252 55.7823C136.925 55.5256 136.66 55.2026 136.474 54.8299C136.308 54.4532 136.188 54.0598 136.113 53.654C136.031 53.2648 135.989 52.8673 135.989 52.4698C136.064 52.8549 136.171 53.2358 136.3 53.6085C136.424 53.9728 136.581 54.3207 136.776 54.6519C137.223 55.244 137.853 55.6746 138.569 55.8734C140.548 56.6518 142.465 57.5545 144.428 58.453C145.38 58.896 146.382 59.3722 147.285 59.8152C148.179 60.2583 149.21 60.337 150.158 60.0264C150.635 59.8608 151.123 59.7366 151.608 59.5916C152.092 59.4426 152.635 59.3018 153.127 59.1776H153.123Z"
            fill="inherit" />
        <path
            d="M155.844 59.5338C155.119 59.894 154.378 60.2128 153.641 60.5482L152.527 61.0244C152.171 61.1445 151.835 61.3101 151.521 61.5171C151.227 61.7117 150.991 61.9809 150.833 62.2956C150.693 62.6061 150.626 62.9498 150.647 63.2934C150.647 64.076 150.693 64.8545 150.771 65.6287V65.6991C150.817 65.9269 150.904 66.1463 151.028 66.3451C151.173 66.5894 151.343 66.8212 151.533 67.0324C151.943 67.4672 152.386 67.8647 152.866 68.2249C153.844 68.9785 154.796 69.7569 155.723 70.5602C154.639 69.9598 153.583 69.3222 152.531 68.6597C151.985 68.3284 151.479 67.9351 151.028 67.4837C150.788 67.2477 150.573 66.9869 150.39 66.7053C150.179 66.3865 150.047 66.018 150.009 65.637V65.7074C149.902 64.8917 149.856 64.0677 149.877 63.2438C149.86 62.78 149.968 62.3204 150.187 61.9105C150.419 61.5088 150.755 61.1734 151.152 60.9374C151.529 60.7345 151.931 60.5772 152.345 60.4695L153.496 60.1259C154.283 59.9396 155.061 59.7118 155.839 59.5338H155.844Z"
            fill="inherit" />
        <path
            d="M154.933 71.8189C153.774 71.1896 152.598 70.5478 151.488 69.8646C151.215 69.7072 150.888 69.5002 150.664 69.3801C150.387 69.2683 150.097 69.1938 149.799 69.169C149.182 69.111 148.557 69.1565 147.952 69.3097C146.731 69.6451 145.422 69.9971 144.151 70.3159C142.88 70.6347 141.588 70.9453 140.304 71.2351C139.836 71.2972 139.381 71.4214 138.95 71.6078C138.536 71.7444 138.209 72.0591 138.056 72.4649C138.039 72.6967 138.039 72.9328 138.056 73.1646V75.4461C137.986 74.9492 137.923 74.4565 137.87 73.9596L137.783 73.1812C137.741 72.9245 137.721 72.6636 137.729 72.4028C137.874 71.8438 138.267 71.38 138.797 71.1399C139.265 70.8914 139.766 70.7093 140.284 70.6016C141.551 70.2414 142.822 69.8936 144.093 69.5582C145.377 69.2145 146.619 68.9122 147.989 68.5934C148.677 68.4443 149.385 68.4236 150.076 68.5313C150.432 68.5934 150.776 68.7093 151.095 68.875C151.438 69.0861 151.654 69.2559 151.935 69.4505C152.838 70.2124 153.89 71.0074 154.933 71.8189Z"
            fill="inherit" />
        <path
            d="M136.412 75.9099C136.006 75.0735 135.641 74.233 135.314 73.3841C135.103 72.792 134.776 72.2496 134.35 71.7859C133.907 71.3221 133.377 70.9412 132.793 70.672C131.571 70.0882 130.362 69.4713 129.178 68.7964C128.909 68.6514 128.619 68.5521 128.321 68.5024C128.002 68.4485 127.679 68.432 127.356 68.4568C126.689 68.5396 126.048 68.755 125.464 69.0862C125.725 68.8585 126.015 68.6639 126.321 68.5024C126.632 68.3326 126.959 68.2001 127.302 68.1132C127.658 68.0345 128.023 68.0055 128.387 68.0262C128.764 68.051 129.137 68.1463 129.476 68.3078C130.739 68.8212 131.977 69.405 133.199 70.0054C133.857 70.3284 134.441 70.7838 134.913 71.347C135.393 71.9101 135.737 72.5767 135.911 73.2931C136.089 74.0963 136.275 74.999 136.416 75.9099H136.412Z"
            fill="inherit" />
        <path
            d="M121.837 58.8713C123.108 59.3516 124.458 59.5959 125.816 59.5959C126.474 59.5793 127.129 59.4799 127.762 59.306C128.4 59.1114 129.013 58.8506 129.592 58.5276C130.814 57.9189 132.023 57.2896 133.17 56.5732C133.447 56.4035 133.708 56.2089 133.948 55.9894C134.188 55.7534 134.408 55.4925 134.594 55.211C135.004 54.6768 135.211 54.0144 135.178 53.3394C135.368 54.0351 135.277 54.7804 134.921 55.4097C134.756 55.7286 134.553 56.0308 134.321 56.3041C134.089 56.5774 133.828 56.8217 133.542 57.037C132.416 57.8651 131.22 58.5897 129.961 59.1943C129.327 59.5255 128.656 59.7864 127.965 59.9727C127.261 60.1342 126.536 60.1921 125.816 60.1424C124.404 60.0596 123.034 59.6166 121.837 58.863V58.8713Z"
            fill="inherit" />
        <path
            d="M122.826 69.3427C123.427 68.9369 124.048 68.5643 124.665 68.2123C125.282 67.9101 125.857 67.5291 126.379 67.0819C126.611 66.8666 126.785 66.5975 126.893 66.3035C126.934 66.1752 126.959 66.0427 126.963 65.906V65.7114L126.909 65.4547C126.777 64.7674 126.615 64.0759 126.416 63.4217V63.3761C126.342 63.1732 126.234 62.991 126.089 62.8295C125.919 62.6308 125.737 62.4445 125.534 62.2747C125.108 61.9269 124.652 61.6163 124.18 61.3389C123.22 60.7468 122.218 60.2251 121.183 59.7821C121.75 59.869 122.309 60.0098 122.851 60.2044C123.381 60.3907 123.903 60.606 124.408 60.8503C124.959 61.0864 125.481 61.3845 125.965 61.7364C126.213 61.9186 126.441 62.1256 126.652 62.3534C126.897 62.6101 127.075 62.9248 127.174 63.2643V63.2022C127.398 63.902 127.567 64.6141 127.688 65.3388L127.725 65.612V65.9474C127.712 66.171 127.663 66.3863 127.576 66.5934C127.41 66.9702 127.158 67.3014 126.835 67.5581C126.536 67.8024 126.205 68.0094 125.853 68.1668L124.855 68.5809C124.168 68.8458 123.51 69.1108 122.822 69.3427H122.826Z"
            fill="inherit" />
        <path
            d="M68.4355 50.3044C68.8869 50.0725 69.3465 49.8613 69.8061 49.6502C70.2657 49.439 70.717 49.2237 71.1766 49.0249C72.2325 48.5446 73.4333 48.5156 74.5098 48.938C75.5367 49.3645 76.4808 49.7578 77.4704 50.1926C79.4082 51.0331 81.3667 51.9068 83.2506 52.8508C83.644 53.004 84.0125 53.2152 84.3479 53.4761C84.6999 53.7204 84.9856 54.0433 85.1884 54.4201C85.3541 54.7928 85.4824 55.182 85.5611 55.5795C85.6522 55.9687 85.7019 56.3704 85.7019 56.772C85.6191 56.3869 85.5114 56.006 85.3748 55.6333C85.2506 55.2731 85.0849 54.9294 84.882 54.6065C84.4224 54.0226 83.7889 53.5962 83.0767 53.3974C81.0892 52.619 79.1266 51.7867 77.1805 50.913C76.2157 50.4866 75.2096 50.027 74.2986 49.588C73.4001 49.1574 72.365 49.0995 71.4251 49.4224C70.9489 49.588 70.4603 49.7164 69.9841 49.8737C69.508 50.0311 68.9241 50.1719 68.4355 50.3002V50.3044Z"
            fill="inherit" />
        <path
            d="M65.7238 49.9855C66.4401 49.6129 67.1813 49.2858 67.9059 48.9421L69.0114 48.4494C69.3675 48.3252 69.707 48.1513 70.0176 47.9359C70.618 47.5591 70.9451 46.8718 70.8581 46.1679C70.8457 45.3853 70.7919 44.6069 70.7008 43.8326V43.7622C70.6594 43.5303 70.5683 43.3109 70.4358 43.1163C70.2909 42.872 70.117 42.6442 69.9223 42.4372C69.5124 42.0025 69.0611 41.6091 68.5766 41.2613C67.5953 40.5243 66.6306 39.7458 65.6782 38.926C66.7672 39.5057 67.8438 40.1268 68.9038 40.781C69.4627 41.1039 69.9845 41.489 70.4606 41.9279C70.7008 42.1639 70.912 42.4248 71.0983 42.7064C71.326 43.021 71.4627 43.3896 71.5041 43.7746V43.7042C71.6283 44.5199 71.6821 45.3439 71.6697 46.1679C71.6945 46.6317 71.5952 47.0913 71.3798 47.5012C71.1521 47.907 70.825 48.2423 70.4275 48.4825C70.059 48.702 69.6573 48.8676 69.2433 48.9752L68.0963 49.3355C67.2765 49.5673 66.5063 49.8034 65.7196 49.998L65.7238 49.9855Z"
            fill="inherit" />
        <path
            d="M66.4438 37.6837C67.6115 38.3006 68.7792 38.9217 69.9178 39.5925C70.1911 39.7499 70.5182 39.9527 70.7501 40.0604C71.0275 40.1681 71.3173 40.2343 71.6155 40.255C72.2366 40.3047 72.8618 40.2467 73.4622 40.0852C74.6795 39.7333 75.9797 39.3689 77.2467 39.0335C78.5179 38.6981 79.8015 38.3628 81.0809 38.0522C81.5446 37.986 82.0001 37.8535 82.4266 37.663C82.8324 37.5139 83.1595 37.1951 83.3127 36.7893C83.3251 36.5574 83.3251 36.3214 83.3127 36.0896V33.8164C83.3996 34.3091 83.47 34.806 83.5321 35.2946L83.6274 36.073C83.6812 36.3297 83.7019 36.5906 83.6895 36.8514C83.557 37.4146 83.1719 37.8866 82.646 38.1309C82.1823 38.3835 81.6813 38.5739 81.1678 38.6899C79.905 39.0749 78.6421 39.4393 77.375 39.7871C76.0956 40.1515 74.8576 40.4745 73.5326 40.814C72.8494 40.9713 72.1455 41.0003 71.454 40.9092C71.0979 40.8554 70.7501 40.7436 70.4271 40.5821C70.0752 40.3709 69.8599 40.2012 69.57 40.0149C68.597 39.2613 67.5038 38.4787 66.448 37.6837H66.4438Z"
            fill="inherit" />
        <path
            d="M84.8984 33.3195C85.3208 34.1435 85.6769 34.9799 86.0371 35.8287C86.2566 36.4084 86.5961 36.9384 87.0267 37.3856C87.4739 37.8452 87.9998 38.2137 88.5836 38.4746C89.8133 39.0418 91.039 39.6422 92.2315 40.2965C92.4965 40.4414 92.7863 40.5407 93.0886 40.5863C93.4074 40.6236 93.7345 40.6236 94.0533 40.5863C94.72 40.4911 95.3618 40.2675 95.9373 39.9238C95.4156 40.3917 94.7904 40.7354 94.1154 40.93C93.7635 41.0128 93.4032 41.05 93.0389 41.0293C92.6579 41.0128 92.2853 40.9217 91.9416 40.7643C90.6704 40.2675 89.4241 39.7043 88.1944 39.1205C87.536 38.8058 86.948 38.3628 86.4636 37.8121C85.9709 37.2614 85.6189 36.5989 85.445 35.8784C85.238 35.0793 85.0558 34.2263 84.8984 33.3154V33.3195Z"
            fill="inherit" />
        <path
            d="M99.7555 50.1305C98.476 49.675 97.1262 49.4514 95.7681 49.468C95.1138 49.5011 94.4596 49.6046 93.8303 49.7785C93.1967 49.9773 92.5881 50.2382 92.0084 50.557C90.7911 51.1698 89.611 51.8406 88.464 52.5735C88.1825 52.7391 87.9216 52.9378 87.6856 53.1656C87.4454 53.4016 87.2301 53.6624 87.0479 53.944C86.6463 54.4823 86.4476 55.1489 86.489 55.8197C86.2902 55.1241 86.373 54.3829 86.7167 53.7494C86.874 53.4264 87.0728 53.1242 87.3005 52.8467C87.5283 52.5569 87.7891 52.296 88.079 52.0683C89.1886 51.2236 90.377 50.4825 91.6233 49.8572C92.2568 49.526 92.9193 49.2651 93.6108 49.0788C94.3106 48.909 95.031 48.8428 95.7515 48.8759C97.1759 48.9463 98.5547 49.3769 99.7637 50.1305H99.7555Z"
            fill="inherit" />
        <path
            d="M98.5746 39.6838C97.9825 40.0896 97.3656 40.4622 96.761 40.8349C96.1482 41.1454 95.5768 41.5346 95.0634 41.9942C94.8398 42.2137 94.6659 42.4787 94.5582 42.7727C94.5168 42.901 94.4961 43.0335 94.4961 43.1702V43.3731L94.5417 43.6298C94.6907 44.3088 94.8605 45.0003 95.0634 45.6463V45.6918C95.1421 45.8906 95.2539 46.0727 95.3988 46.2301C95.5685 46.4288 95.759 46.6152 95.9578 46.7849C96.3925 47.1245 96.848 47.4267 97.3283 47.6959C98.2972 48.2755 99.3075 48.7807 100.351 49.2155C99.7795 49.1409 99.2206 49.0084 98.674 48.8262C98.1233 48.6441 97.585 48.437 97.0633 48.1969C96.5167 47.965 95.995 47.6793 95.5064 47.3398C95.258 47.1576 95.0261 46.9547 94.815 46.7311C94.5624 46.4785 94.3802 46.1638 94.285 45.8202V45.8906C94.0489 45.1949 93.8626 44.4786 93.7301 43.754L93.6846 43.489V43.1536C93.6929 42.93 93.7384 42.7064 93.8254 42.4994C93.991 42.1226 94.2394 41.7914 94.55 41.5264C94.8439 41.2779 95.1669 41.0667 95.5147 40.9011L96.5126 40.4746C97.2372 40.1931 97.8997 39.9157 98.5788 39.6796L98.5746 39.6838Z"
            fill="inherit" />
        <path
            d="M105.378 87.7727C105.829 87.5449 106.289 87.3379 106.74 87.1267C107.192 86.9155 107.651 86.692 108.119 86.5015C109.171 86.0212 110.376 85.9922 111.452 86.4145C112.479 86.841 113.423 87.193 114.405 87.6691C116.351 88.5097 118.301 89.3751 120.193 90.3274C120.587 90.4847 120.955 90.6918 121.291 90.9526C121.638 91.1969 121.928 91.5199 122.131 91.8967C122.442 92.6379 122.616 93.4287 122.645 94.232C122.566 93.8428 122.454 93.4618 122.309 93.0933C122.189 92.729 122.023 92.3812 121.816 92.0582C121.357 91.4744 120.719 91.0562 120.003 90.8657C118.007 90.0873 116.053 89.2467 114.107 88.3813C113.142 87.9548 112.136 87.4952 111.225 87.0563C110.322 86.6257 109.287 86.5677 108.343 86.8907C107.867 87.0605 107.386 87.193 106.902 87.342C106.417 87.4911 105.867 87.6402 105.374 87.7685L105.378 87.7727Z"
            fill="inherit" />
        <path
            d="M102.666 87.4622C103.382 87.0896 104.115 86.7625 104.848 86.4188L105.954 85.9261C106.31 85.7977 106.645 85.6238 106.96 85.4126C107.25 85.218 107.478 84.9489 107.631 84.6342C107.772 84.3195 107.829 83.98 107.801 83.6363C107.788 82.8537 107.734 82.0753 107.643 81.301V81.2306C107.598 80.9987 107.507 80.7834 107.378 80.5847C107.229 80.3445 107.059 80.1209 106.865 79.9139C106.455 79.4791 106.003 79.0858 105.519 78.738C104.538 77.9968 103.573 77.2184 102.621 76.4027C103.71 76.9782 104.786 77.6034 105.838 78.2577C106.401 78.5765 106.923 78.9616 107.395 79.4046C107.635 79.6406 107.854 79.9015 108.041 80.183C108.268 80.4977 108.405 80.8662 108.438 81.2513V81.1809C108.554 81.9966 108.608 82.8206 108.604 83.6446C108.629 84.1083 108.529 84.5679 108.31 84.9779C108.086 85.3795 107.763 85.719 107.366 85.9592C106.993 86.1745 106.596 86.3401 106.182 86.4519L105.035 86.8122C104.215 87.044 103.453 87.28 102.666 87.4746V87.4622Z"
            fill="inherit" />
        <path
            d="M103.374 75.1605C104.55 75.7774 105.709 76.3985 106.856 77.0693C107.13 77.2184 107.457 77.4295 107.689 77.5372C107.966 77.649 108.256 77.7152 108.554 77.7318C109.171 77.7815 109.796 77.7235 110.392 77.562C111.614 77.2101 112.918 76.8374 114.185 76.5103C115.456 76.1832 116.732 75.8395 118.019 75.529C118.483 75.4586 118.934 75.3261 119.365 75.1398C119.775 74.9907 120.098 74.6677 120.247 74.2578C120.264 74.0259 120.264 73.7899 120.247 73.5581V71.2849C120.334 71.7776 120.396 72.2745 120.466 72.7631L120.562 73.5415C120.611 73.7982 120.632 74.0591 120.624 74.3199C120.487 74.8831 120.102 75.3509 119.58 75.5994C119.117 75.8561 118.62 76.0424 118.102 76.1542C116.839 76.5352 115.576 76.8995 114.309 77.2515C113.03 77.6117 111.792 77.9388 110.467 78.2784C109.784 78.4357 109.076 78.4647 108.38 78.3653C108.024 78.3156 107.676 78.208 107.353 78.0465C107.009 77.8353 106.794 77.6655 106.504 77.4792C105.506 76.738 104.434 75.9596 103.382 75.1646L103.374 75.1605Z"
            fill="inherit" />
        <path
            d="M121.837 70.7673C122.259 71.5457 122.615 72.4277 122.976 73.2765C123.199 73.8562 123.535 74.3862 123.965 74.8334C124.412 75.2888 124.942 75.6573 125.522 75.9223C126.752 76.4896 127.969 77.09 129.17 77.7442C129.439 77.8891 129.733 77.9844 130.035 78.0341C130.354 78.0713 130.677 78.0713 130.992 78.0341C131.663 77.943 132.304 77.7152 132.884 77.3716C132.623 77.6034 132.337 77.8022 132.035 77.9719C131.725 78.1458 131.398 78.2783 131.054 78.3694C130.702 78.4605 130.342 78.4978 129.977 78.4688C129.601 78.4564 129.228 78.3694 128.888 78.2121C127.617 77.7152 126.371 77.1521 125.141 76.5683C124.479 76.2536 123.887 75.8105 123.402 75.2598C122.913 74.705 122.562 74.0425 122.383 73.3262C122.176 72.5477 121.994 71.6948 121.837 70.7631V70.7673Z"
            fill="inherit" />
        <path
            d="M136.665 87.6112C135.385 87.1516 134.035 86.9281 132.677 86.9488C132.019 86.9736 131.365 87.0771 130.731 87.2593C130.102 87.4581 129.493 87.7189 128.918 88.0377C127.704 88.6464 126.52 89.3172 125.373 90.0459C125.092 90.2198 124.831 90.4186 124.595 90.6463C124.355 90.8823 124.143 91.1432 123.965 91.4248C123.556 91.963 123.357 92.6338 123.406 93.3087C123.208 92.6131 123.291 91.8719 123.634 91.2384C123.792 90.9113 123.99 90.609 124.218 90.3275C124.45 90.0501 124.711 89.8016 124.996 89.5863C126.123 88.7334 127.323 87.988 128.586 87.3587C129.212 87.0233 129.878 86.7624 130.566 86.5802C131.269 86.4105 131.994 86.3401 132.715 86.3773C134.114 86.4477 135.476 86.8742 136.673 87.6071L136.665 87.6112Z"
            fill="inherit" />
        <path
            d="M135.518 77.1563C134.917 77.5704 134.308 77.9348 133.696 78.3157C133.083 78.6262 132.516 79.0113 132.006 79.4668C131.783 79.6862 131.609 79.9512 131.501 80.2452C131.46 80.3736 131.439 80.5061 131.439 80.6427V80.8373L131.485 81.094C131.634 81.7814 131.803 82.4729 132.006 83.1188V83.1809C132.089 83.3797 132.205 83.5577 132.35 83.7192C132.52 83.9179 132.706 84.1001 132.909 84.2657C133.34 84.6094 133.795 84.9158 134.271 85.185C135.244 85.7646 136.255 86.2698 137.302 86.7046C136.731 86.6259 136.172 86.4934 135.625 86.3071C135.074 86.1332 134.536 85.9261 134.014 85.6818C133.468 85.45 132.946 85.1643 132.458 84.8247C132.209 84.6425 131.977 84.4396 131.766 84.2161C131.518 83.9593 131.331 83.6488 131.228 83.3051V83.3755C130.992 82.6799 130.81 81.9677 130.681 81.2431L130.636 80.9781V80.6427C130.644 80.4191 130.69 80.1997 130.768 79.9885C130.934 79.6117 131.182 79.2763 131.501 79.0155C131.795 78.767 132.118 78.5558 132.466 78.3902L133.455 77.9637C134.18 77.6739 134.809 77.3965 135.522 77.1522L135.518 77.1563Z"
            fill="inherit" />
        <path
            d="M103.266 49.2899C103.734 49.1036 104.21 48.9255 104.682 48.7516C105.158 48.5819 105.626 48.3997 106.098 48.2465C107.187 47.8531 108.388 47.9235 109.423 48.4411C110.421 48.9545 111.324 49.4224 112.268 49.9358C114.139 50.942 115.99 51.9606 117.816 53.0537C118.193 53.24 118.545 53.4802 118.86 53.7618C119.191 54.035 119.46 54.3787 119.638 54.7679C119.775 55.153 119.866 55.5546 119.911 55.9604C119.973 56.3579 119.99 56.7596 119.957 57.1612C119.907 56.7678 119.829 56.3828 119.725 56.0018C119.626 55.6333 119.493 55.2772 119.319 54.9335C118.913 54.3125 118.317 53.8404 117.622 53.5879C115.704 52.6521 113.82 51.65 111.949 50.619C111.03 50.1139 110.065 49.5673 109.191 49.0622C108.33 48.5612 107.307 48.4162 106.338 48.6564C105.854 48.7806 105.357 48.8758 104.864 48.9918C104.372 49.1077 103.759 49.203 103.258 49.294L103.266 49.2899Z"
            fill="inherit" />
        <path
            d="M100.587 48.7432C101.366 48.4326 102.099 48.1676 102.852 47.8861L103.999 47.4886C104.359 47.3933 104.711 47.2526 105.034 47.0662C105.656 46.735 106.041 46.0808 106.024 45.3769C106.065 44.5984 106.065 43.82 106.024 43.0416V42.9712C105.999 42.7393 105.929 42.5116 105.813 42.3087C105.689 42.0561 105.535 41.8159 105.362 41.5923C104.985 41.1245 104.571 40.698 104.115 40.3088C103.196 39.4889 102.293 38.6401 101.42 37.7623C102.455 38.4331 103.478 39.1411 104.475 39.874C104.997 40.2425 105.477 40.6731 105.9 41.1534C106.115 41.3936 106.31 41.6545 106.475 41.9319C106.674 42.2631 106.782 42.6399 106.786 43.0209V42.9505C106.84 43.7745 106.827 44.5984 106.749 45.4183C106.732 45.882 106.591 46.3333 106.343 46.7267C106.086 47.1076 105.734 47.4182 105.324 47.6211C104.935 47.8074 104.525 47.9399 104.103 48.0103L102.927 48.2753C102.177 48.4451 101.391 48.619 100.592 48.7432H100.587Z"
            fill="inherit" />
        <path
            d="M102.331 36.5533C103.445 37.2613 104.55 37.9777 105.635 38.7437C105.892 38.9135 106.203 39.1495 106.414 39.282C106.683 39.4103 106.969 39.5014 107.263 39.547C107.875 39.6505 108.505 39.6505 109.118 39.547C110.356 39.2985 111.689 39.0418 113.014 38.8141C114.339 38.5863 115.61 38.3545 116.91 38.1516C117.378 38.1226 117.838 38.0274 118.281 37.87C118.699 37.7624 119.047 37.4767 119.237 37.0916C119.274 36.9135 119.291 36.632 119.316 36.3918L119.378 35.6134C119.378 35.1165 119.457 34.6238 119.51 34.1269C119.548 34.6238 119.581 35.1248 119.597 35.6217V36.4001C119.622 36.661 119.622 36.9218 119.597 37.1785C119.411 37.7292 118.989 38.164 118.446 38.3628C117.962 38.5739 117.453 38.7188 116.927 38.7892C115.635 39.0625 114.347 39.3275 113.03 39.5677C111.714 39.8078 110.459 40.0356 109.134 40.2674C108.438 40.3668 107.73 40.3378 107.047 40.1805C106.695 40.0977 106.36 39.961 106.049 39.7747C105.722 39.5428 105.519 39.3482 105.271 39.137C104.314 38.2965 103.317 37.4311 102.335 36.5492L102.331 36.5533Z"
            fill="inherit" />
        <path
            d="M121.083 33.7502C121.435 34.599 121.737 35.4644 122.011 36.3381C122.176 36.9426 122.462 37.5099 122.859 37.9985C123.261 38.4871 123.75 38.9011 124.3 39.2158C125.484 39.8866 126.636 40.5781 127.783 41.3358C128.039 41.5056 128.321 41.6298 128.615 41.7002C128.929 41.7747 129.252 41.8078 129.571 41.7995C130.242 41.7664 130.9 41.5967 131.505 41.3027C131.232 41.5138 130.934 41.6919 130.619 41.8327C130.296 41.9817 129.956 42.0852 129.604 42.1515C129.248 42.2012 128.884 42.2012 128.528 42.1515C128.151 42.1059 127.783 41.9817 127.451 41.7913C126.23 41.1826 125.029 40.5201 123.853 39.8286C123.22 39.4642 122.665 38.9715 122.234 38.3794C121.791 37.7873 121.497 37.0999 121.377 36.3712C121.282 35.5762 121.158 34.6736 121.083 33.7543V33.7502Z"
            fill="inherit" />
        <path
            d="M134.457 51.7369C133.228 51.1738 131.911 50.8384 130.561 50.7473C129.907 50.7183 129.249 50.768 128.607 50.8964C127.957 51.0454 127.327 51.2607 126.723 51.534C125.468 52.0557 124.214 52.6023 123.021 53.24C122.731 53.389 122.458 53.5671 122.201 53.77C121.945 53.9811 121.708 54.213 121.501 54.4697C121.054 54.9707 120.802 55.6208 120.793 56.2916C120.653 55.5835 120.793 54.8465 121.191 54.242C121.381 53.9314 121.601 53.6457 121.853 53.3849C122.11 53.1282 122.392 52.9046 122.702 52.7141C123.882 51.9646 125.129 51.3229 126.425 50.8053C127.079 50.5154 127.762 50.3001 128.466 50.1676C129.182 50.0683 129.907 50.0683 130.623 50.1676C132.01 50.3664 133.327 50.9005 134.457 51.7328V51.7369Z"
            fill="inherit" />
        <path
            d="M134.184 41.2281C133.559 41.5883 132.913 41.8989 132.276 42.2343C131.638 42.4869 131.038 42.8264 130.491 43.2404C130.251 43.4309 130.056 43.6752 129.924 43.9485C129.874 44.0727 129.841 44.2052 129.828 44.3377V44.7973C129.915 45.4888 130.031 46.1927 130.18 46.8552V46.9256C130.243 47.1285 130.342 47.3189 130.47 47.4846C130.623 47.6957 130.797 47.8945 130.984 48.0767C131.385 48.4535 131.816 48.7971 132.267 49.1035C133.191 49.7578 134.155 50.3499 135.157 50.8716C134.598 50.7432 134.048 50.561 133.522 50.3333C132.988 50.1056 132.466 49.8447 131.965 49.5549C131.443 49.2774 130.951 48.9462 130.499 48.5653C130.267 48.3665 130.052 48.1471 129.862 47.911C129.634 47.6336 129.481 47.3024 129.41 46.9546V47.025C129.232 46.3128 129.108 45.5882 129.046 44.8594V44.2839C129.075 44.0603 129.141 43.845 129.241 43.6462C129.427 43.286 129.692 42.9754 130.019 42.7353C130.334 42.5076 130.677 42.3295 131.038 42.197L132.056 41.8533C132.806 41.6339 133.489 41.4103 134.184 41.2281Z"
            fill="inherit" />
        <path
            d="M71.061 86.2862C71.5123 86.0585 71.9719 85.8514 72.4233 85.6403C72.8746 85.4291 73.3342 85.2138 73.8021 85.015C74.858 84.5347 76.0587 84.5057 77.1353 84.9281C78.1622 85.3546 79.1062 85.7479 80.0875 86.1827C82.0336 87.0232 83.9838 87.8969 85.8761 88.841C86.2695 88.9983 86.638 89.2053 86.9734 89.4662C87.3253 89.7105 87.611 90.0335 87.8139 90.4102C88.1245 91.1514 88.2984 91.9423 88.3274 92.7456C88.2487 92.3563 88.1327 91.9795 87.992 91.6069C87.8719 91.2425 87.7063 90.8947 87.4992 90.5717C87.0396 89.992 86.4102 89.5697 85.6981 89.371C83.7023 88.5925 81.7479 87.7603 79.8018 86.8866C78.8371 86.4601 77.8309 86.0005 76.92 85.5616C76.0173 85.131 74.9822 85.073 74.0381 85.396C73.5619 85.5616 73.0816 85.6941 72.5972 85.8473C72.1127 86.0005 71.5455 86.1496 71.0527 86.2821L71.061 86.2862Z"
            fill="inherit" />
        <path
            d="M68.3527 85.9757C69.069 85.603 69.8019 85.2759 70.5348 84.9322L71.6403 84.4395C71.9964 84.3153 72.3359 84.1414 72.6465 83.9261C73.2386 83.541 73.5616 82.8578 73.487 82.158C73.4746 81.3755 73.4208 80.597 73.3297 79.8227V79.7606C73.2841 79.5288 73.193 79.3093 73.0647 79.1147C72.9198 78.8704 72.7459 78.6427 72.5513 78.4356C72.1413 78.0009 71.69 77.6075 71.2056 77.2597C70.2242 76.5185 69.2595 75.7401 68.3071 74.9244C69.3961 75.5041 70.4727 76.1252 71.5327 76.7794C72.0792 77.1024 72.5885 77.4874 73.0523 77.9263C73.2924 78.1623 73.5119 78.4232 73.6982 78.7048C73.9259 79.0195 74.0626 79.388 74.0957 79.773V79.7027C74.2116 80.5184 74.2655 81.3423 74.2613 82.1663C74.2862 82.6301 74.1868 83.0897 73.9673 83.4996C73.7479 83.9054 73.4208 84.2449 73.0233 84.4809C72.6506 84.6962 72.2531 84.8619 71.8391 84.9737L70.6921 85.3339C69.9054 85.5823 69.1435 85.7935 68.3568 85.9881L68.3527 85.9757Z"
            fill="inherit" />
        <path
            d="M69.0688 73.6739C70.2365 74.2908 71.4042 74.9119 72.5428 75.5827C72.8161 75.7318 73.1432 75.943 73.3751 76.0506C73.6525 76.1583 73.9423 76.2245 74.2405 76.2452C74.8574 76.2949 75.4827 76.2369 76.0789 76.0755C77.3004 75.7235 78.6047 75.3508 79.8717 75.0237C81.1429 74.6966 82.4182 74.353 83.7059 74.0424C84.1696 73.9762 84.6251 73.8437 85.0516 73.6532C85.4574 73.5041 85.7803 73.1853 85.9335 72.7795C85.9501 72.5435 85.9501 72.3075 85.9335 72.0715V69.7983C86.0205 70.291 86.0826 70.7879 86.153 71.2765L86.2482 72.0549C86.2979 72.3116 86.3186 72.5725 86.3103 72.8334C86.1778 73.3965 85.7928 73.8685 85.2669 74.1128C84.8032 74.3654 84.3021 74.5558 83.7887 74.6718C82.5258 75.0569 81.2629 75.4212 79.9959 75.7691C78.7165 76.1334 77.4784 76.4564 76.1534 76.7959C75.4702 76.9533 74.7663 76.9822 74.0748 76.8829C73.7146 76.8332 73.3627 76.7255 73.0397 76.564C72.696 76.3529 72.4807 76.1831 72.1909 75.9968C71.193 75.2473 70.1578 74.4689 69.073 73.6739H69.0688Z"
            fill="inherit" />
        <path
            d="M87.5234 69.3096C87.9458 70.1336 88.3019 70.97 88.6621 71.8188C88.8816 72.3985 89.2128 72.9285 89.6434 73.3757C90.0906 73.8312 90.6206 74.1997 91.2003 74.4647C92.4301 75.032 93.6474 75.6323 94.8482 76.2866C95.1173 76.4315 95.4113 76.5267 95.7136 76.5764C96.0324 76.6137 96.3595 76.6137 96.6783 76.5764C97.345 76.4812 97.9867 76.2576 98.5623 75.9139C98.0364 76.3777 97.4153 76.7213 96.7404 76.9201C96.3843 77.0029 96.02 77.0401 95.6556 77.0194C95.2788 77.0029 94.9103 76.9118 94.5666 76.7544C93.2954 76.2576 92.0491 75.6945 90.8194 75.1106C90.1569 74.7959 89.5648 74.3529 89.0803 73.8022C88.5917 73.2474 88.2398 72.5849 88.0617 71.8685C87.8588 71.0694 87.6808 70.2164 87.5234 69.3055V69.3096Z"
            fill="inherit" />
        <path
            d="M102.347 86.1206C101.067 85.6651 99.7175 85.4415 98.3594 85.4581C97.701 85.487 97.051 85.5906 96.4216 85.7686C95.7881 85.9674 95.1794 86.2282 94.5997 86.547C93.3824 87.1557 92.1982 87.8306 91.0554 88.5635C90.7738 88.7333 90.5129 88.932 90.2769 89.1556C90.0409 89.3916 89.8297 89.6525 89.6475 89.9341C89.2418 90.4723 89.043 91.139 89.0886 91.8097C88.8898 91.1141 88.9726 90.373 89.3163 89.7394C89.4736 89.4123 89.6724 89.1101 89.9001 88.8285C90.132 88.5511 90.3929 88.3027 90.6786 88.0873C91.7924 87.2427 92.9807 86.5015 94.2312 85.8763C94.8606 85.5409 95.5272 85.28 96.2187 85.0978C96.9185 84.9281 97.6389 84.8618 98.3594 84.8949C99.7755 84.957 101.15 85.3794 102.355 86.1164L102.347 86.1206Z"
            fill="inherit" />
        <path
            d="M101.2 75.6738C100.608 76.0796 99.9911 76.4522 99.3782 76.8249C98.7654 77.1354 98.1982 77.5246 97.6889 77.9842C97.4611 78.1996 97.2872 78.4687 97.1837 78.7627C97.1423 78.891 97.1216 79.0235 97.1216 79.1602V79.3631L97.1672 79.6198C97.3162 80.2988 97.486 80.9903 97.6889 81.6363V81.6694C97.7717 81.8681 97.8876 82.0503 98.0325 82.2077C98.2023 82.4064 98.3928 82.5886 98.5915 82.7542C99.0222 83.0979 99.4776 83.4043 99.9538 83.6734C100.927 84.2531 101.937 84.7583 102.985 85.193C102.413 85.1185 101.854 84.9902 101.308 84.8038C100.757 84.6258 100.219 84.4146 99.6971 84.1745C99.1505 83.9426 98.6288 83.6569 98.1402 83.3173C97.8876 83.1393 97.6558 82.9364 97.4487 82.7087C97.1961 82.452 97.014 82.1414 96.9104 81.7977V81.8681C96.6661 81.1725 96.484 80.4603 96.3556 79.7316L96.3101 79.4666V79.1312C96.3183 78.9076 96.3639 78.6881 96.4426 78.477C96.6082 78.1002 96.8608 77.7689 97.1754 77.5039C97.4694 77.2555 97.7924 77.0443 98.1402 76.8787L99.1381 76.4522C99.8627 76.2203 100.533 75.9057 101.204 75.6738H101.2Z"
            fill="inherit" />
        <path
            d="M111.017 66.2415L104.512 68.0344C102.889 68.4898 101.154 68.3077 99.6596 67.5292L96.4258 65.9724C95.2084 65.4258 94.3348 64.3202 94.0905 63.0118C93.606 60.7221 93.6226 59.7076 95.6473 58.6476C97.6721 57.5876 100.119 56.2543 100.119 56.2543C100.119 56.2543 101.49 55.3268 104.094 56.4324C106.694 57.5379 110.926 59.4923 110.926 59.4923C110.926 59.4923 112.156 59.9892 113.261 62.3907C114.367 64.7881 113.502 65.5914 111.017 66.2374V66.2415Z"
            stroke="inherit" stroke-width="0.414061" stroke-miterlimit="10" />
        <path
            d="M118.223 57.5256C117.763 57.745 117.303 57.9479 116.844 58.1508C116.384 58.3537 115.925 58.5732 115.457 58.7595C114.393 59.2108 113.192 59.2108 112.132 58.7595C111.105 58.3082 110.169 57.9107 109.196 57.4593C107.263 56.5857 105.3 55.683 103.453 54.71C103.064 54.5485 102.695 54.3332 102.364 54.0723C102.021 53.8197 101.739 53.4926 101.54 53.1158C101.379 52.7432 101.259 52.3498 101.188 51.9482C101.097 51.559 101.056 51.1573 101.064 50.7557C101.134 51.1449 101.238 51.5217 101.375 51.8944C101.491 52.2587 101.648 52.6107 101.851 52.9378C102.298 53.5258 102.923 53.9605 103.635 54.1676C105.615 54.946 107.532 55.8486 109.494 56.7472C110.447 57.1902 111.449 57.6664 112.347 58.1177C113.242 58.5607 114.277 58.6394 115.229 58.3289C115.705 58.1632 116.194 58.039 116.678 57.9024C117.163 57.7616 117.738 57.6457 118.227 57.538L118.223 57.5256Z"
            stroke="inherit" stroke-width="0.414061" stroke-miterlimit="10" />
        <path
            d="M120.926 57.8691C120.209 58.2293 119.468 58.5481 118.727 58.8835L117.613 59.3514C117.253 59.4715 116.913 59.6413 116.599 59.8483C116.309 60.047 116.073 60.3162 115.911 60.6267C115.77 60.9373 115.704 61.2809 115.725 61.6246C115.725 62.4072 115.77 63.1856 115.849 63.9599V64.0303C115.895 64.2622 115.982 64.4816 116.106 64.6845C116.255 64.9247 116.421 65.1524 116.611 65.3636C117.013 65.8066 117.456 66.2083 117.936 66.5644C118.909 67.3428 119.87 68.1212 120.801 68.8997C119.716 68.2993 118.652 67.6616 117.609 66.9908C117.062 66.6596 116.557 66.2662 116.098 65.8232C115.862 65.5872 115.65 65.3263 115.468 65.0448C115.249 64.7301 115.116 64.3616 115.087 63.9765V64.0469C114.98 63.2312 114.938 62.4072 114.963 61.5832C114.942 61.1195 115.05 60.6599 115.274 60.2499C115.505 59.8524 115.837 59.5212 116.23 59.2852C116.607 59.0781 117.004 58.9208 117.423 58.8173L118.574 58.4736C119.36 58.3039 120.131 58.0471 120.917 57.8649L120.926 57.8691Z"
            stroke="inherit" stroke-width="0.414061" stroke-miterlimit="10" />
        <path
            d="M120.007 70.1543C118.848 69.525 117.672 68.8749 116.562 68.1917C116.289 68.0344 115.97 67.8273 115.738 67.7155C115.465 67.5955 115.171 67.5251 114.873 67.4961C114.256 67.4381 113.635 67.4837 113.034 67.6369C111.804 67.9723 110.496 68.3242 109.225 68.6347C107.954 68.9453 106.662 69.2641 105.378 69.554C104.914 69.6161 104.455 69.7403 104.024 69.9183C103.606 70.0508 103.271 70.3614 103.105 70.7672C103.088 70.999 103.088 71.2351 103.105 71.4669V72.2454C103.105 72.7422 103.105 73.2432 103.068 73.7484L102.881 72.2619L102.794 71.4835C102.753 71.2268 102.732 70.9659 102.741 70.705C102.89 70.1502 103.283 69.6865 103.809 69.4504C104.277 69.202 104.778 69.0198 105.295 68.9122C106.566 68.5519 107.834 68.2041 109.113 67.877C110.392 67.5499 111.639 67.2311 112.96 66.9123C113.647 66.7632 114.355 66.7425 115.046 66.8501C115.403 66.9123 115.75 67.0282 116.073 67.1938C116.417 67.405 116.628 67.583 116.914 67.7776C117.92 68.5478 118.972 69.3428 120.007 70.1543Z"
            stroke="inherit" stroke-width="0.414061" stroke-miterlimit="10" />
        <path
            d="M101.498 74.2205C101.084 73.3965 100.72 72.5518 100.401 71.6947C100.194 71.1026 99.8625 70.5561 99.436 70.0965C98.993 69.6286 98.463 69.2476 97.8792 68.9744C96.6577 68.3905 95.4486 67.7736 94.2644 67.0987C93.9953 66.9537 93.7096 66.8502 93.4073 66.7964C93.0885 66.7426 92.7655 66.726 92.4425 66.7591C91.7759 66.8337 91.13 67.0448 90.5503 67.3844C90.8112 67.1566 91.0969 66.962 91.3991 66.8005C91.7138 66.6349 92.0451 66.5066 92.3887 66.4196C92.7407 66.3368 93.105 66.3078 93.4653 66.3327C93.8421 66.3534 94.2147 66.4486 94.5543 66.6142C95.8171 67.1359 97.0552 67.7198 98.2767 68.3284C98.9309 68.6473 99.5147 69.1027 99.9826 69.6617C100.463 70.2248 100.807 70.8915 100.98 71.6078C101.175 72.4193 101.361 73.3137 101.502 74.2246L101.498 74.2205Z"
            stroke="inherit" stroke-width="0.414061" stroke-miterlimit="10" />
        <path
            d="M86.9397 57.1736C88.2109 57.6539 89.5607 57.8982 90.9188 57.8982C91.5772 57.8817 92.2314 57.7864 92.8649 57.6167C93.4984 57.4179 94.1112 57.1571 94.695 56.8382C95.9165 56.2296 97.1256 55.6002 98.2725 54.8839C98.5499 54.7141 98.8108 54.5195 99.051 54.3C99.2911 54.0765 99.5064 53.828 99.6969 53.5589C100.115 53.0247 100.326 52.3581 100.289 51.6832C100.475 52.3829 100.38 53.1241 100.032 53.7535C99.8625 54.0765 99.6555 54.3787 99.4236 54.6561C99.1917 54.9253 98.9309 55.1696 98.6452 55.3807C97.5272 56.2047 96.3306 56.9211 95.076 57.5214C94.4425 57.8568 93.7758 58.1218 93.0802 58.2999C92.3763 58.4614 91.6558 58.5193 90.9395 58.4696C89.5151 58.3827 88.1363 57.9355 86.9355 57.1695L86.9397 57.1736Z"
            stroke="inherit" stroke-width="0.414061" stroke-miterlimit="10" />
        <path
            d="M87.9216 67.6535C88.5219 67.2477 89.143 66.875 89.76 66.5231C90.3769 66.2208 90.9525 65.8399 91.4742 65.3927C91.7019 65.1732 91.8758 64.9082 91.9876 64.6142C92.029 64.49 92.0539 64.3575 92.058 64.225V64.0221L91.9628 63.7571C91.8303 63.0698 91.6647 62.3783 91.4783 61.7324V61.662C91.3955 61.4632 91.2837 61.2769 91.1429 61.1154C90.9773 60.9125 90.791 60.7304 90.5881 60.5606C90.1658 60.2128 89.7144 59.9022 89.2424 59.6248C88.2776 59.0368 87.2715 58.5151 86.2363 58.0679C86.8077 58.159 87.3667 58.2998 87.9133 58.4903C88.4557 58.6808 88.9898 58.9002 89.5115 59.1445C90.0622 59.3847 90.584 59.6786 91.0684 60.0306C91.3127 60.2128 91.5404 60.4198 91.7475 60.6475C91.9959 60.9043 92.174 61.2231 92.2692 61.5668V61.4964C92.4969 62.1961 92.6667 62.9125 92.7826 63.6371L92.8199 63.9021V64.2375C92.8075 64.461 92.7578 64.6805 92.6708 64.8834C92.4928 65.2643 92.2236 65.5997 91.8924 65.8564C91.5984 66.1007 91.2713 66.3036 90.9194 66.4568L89.938 66.8709C89.2673 67.1442 88.6048 67.4092 87.9216 67.6493V67.6535Z"
            stroke="inherit" stroke-width="0.414061" stroke-miterlimit="10" />
        <path
            d="M75.9838 65.5956L69.5162 67.5044C67.9014 67.993 66.1582 67.8481 64.6468 67.0986C63.2225 66.4527 61.384 65.6329 61.384 65.6329C60.175 65.0987 59.3013 64.0098 59.0487 62.7096C58.5105 60.4364 58.5105 59.422 60.5062 58.3247C62.502 57.2274 64.9408 55.8486 64.9408 55.8486C64.9408 55.8486 66.2865 54.8921 68.9158 55.948C71.541 57.008 75.8016 58.8754 75.8016 58.8754C75.8016 58.8754 77.0397 59.3516 78.1369 61.7283C79.2342 64.105 78.4558 64.9 75.988 65.5915L75.9838 65.5956Z"
            stroke="inherit" stroke-width="0.414061" stroke-miterlimit="10" />
        <path
            d="M83.0188 56.747C82.5674 56.9748 82.1078 57.1901 81.6565 57.4013C81.2052 57.6124 80.7456 57.836 80.286 58.0306C79.2384 58.5192 78.0335 58.5565 76.961 58.13C75.9259 57.7035 74.9818 57.3102 74.0005 56.8837C72.0461 56.0514 70.1042 55.186 68.2037 54.2503C67.8062 54.1012 67.4335 53.8942 67.0981 53.6333C66.7545 53.3849 66.4646 53.066 66.2576 52.6975C66.092 52.3207 65.9677 51.9315 65.8849 51.5299C65.7938 51.1407 65.7441 50.7432 65.7441 50.3457C65.8228 50.7307 65.9305 51.1075 66.0713 51.476C66.1996 51.8404 66.3652 52.1882 66.5681 52.5112C67.0236 53.095 67.6612 53.5132 68.3734 53.7037C70.3692 54.4821 72.3318 55.3103 74.2779 56.1715C75.2427 56.5938 76.2489 57.0534 77.1598 57.4799C78.0625 57.9106 79.0976 57.9685 80.0417 57.6373C80.5178 57.4675 80.9981 57.335 81.4826 57.1777C81.967 57.0203 82.526 56.8506 83.0188 56.7429V56.747Z"
            stroke="inherit" stroke-width="0.414061" stroke-miterlimit="10" />
        <path
            d="M85.7307 57.0245C85.0144 57.3971 84.2815 57.7325 83.5486 58.0762L82.443 58.5731C82.0869 58.6973 81.7516 58.8712 81.4451 59.0865C81.1553 59.2811 80.9276 59.5502 80.7744 59.8649C80.6336 60.1755 80.5756 60.5191 80.6129 60.8628C80.6253 61.6454 80.6791 62.4238 80.7744 63.1981V63.2685C80.8241 63.5004 80.9193 63.7157 81.0477 63.9144C81.1967 64.1546 81.3665 64.3782 81.5611 64.5852C81.9751 65.0158 82.4265 65.4092 82.9151 65.7529C83.8964 66.494 84.8694 67.2559 85.8218 68.0882C84.7204 67.5126 83.6438 66.8998 82.588 66.2497C82.029 65.9268 81.5073 65.5417 81.0311 65.1028C80.7868 64.8668 80.5715 64.6059 80.3852 64.3244C80.1574 64.0138 80.0166 63.6494 79.9794 63.2644V63.3347C79.8552 62.5191 79.8013 61.6951 79.8096 60.8711C79.7806 60.4073 79.88 59.9436 80.0994 59.5295C80.323 59.1279 80.646 58.7884 81.0435 58.5482C81.412 58.3329 81.8054 58.1673 82.2194 58.0555L83.3705 57.6911C84.1738 57.4509 84.9522 57.2066 85.7307 57.012V57.0245Z"
            stroke="inherit" stroke-width="0.414061" stroke-miterlimit="10" />
        <path
            d="M85.0601 69.3263C83.8841 68.7176 82.7248 68.0965 81.5778 67.434C81.2963 67.2849 80.9691 67.0738 80.7456 66.9661C80.464 66.8585 80.17 66.7963 79.8719 66.7715C79.2549 66.726 78.6297 66.7881 78.0335 66.9495C76.812 67.3098 75.5077 67.6824 74.2489 68.0178C72.9861 68.3532 71.6942 68.6969 70.4147 69.0157C69.951 69.082 69.4955 69.2145 69.069 69.4049C68.6591 69.554 68.3403 69.877 68.1871 70.2869C68.1747 70.5188 68.1747 70.7548 68.1871 70.9866V73.2681C68.1001 72.7712 68.0297 72.2785 67.9676 71.7816L67.8683 71.0405C67.8144 70.7838 67.7937 70.5229 67.7979 70.262C67.9387 69.7031 68.3196 69.231 68.8413 68.9826C69.3051 68.73 69.8061 68.5395 70.3195 68.4236C71.5824 68.0385 72.8453 67.67 74.104 67.3098C75.3835 66.9454 76.6215 66.6183 77.9465 66.2746C78.6256 66.1131 79.3336 66.0759 80.0251 66.1753C80.3853 66.2332 80.7331 66.3409 81.0602 66.4941C81.4039 66.7053 81.6192 66.875 81.9091 67.0613C82.9235 67.7611 83.9959 68.5395 85.0559 69.3263H85.0601Z"
            stroke="inherit" stroke-width="0.414061" stroke-miterlimit="10" />
        <path
            d="M66.6138 73.7526C66.1914 72.9328 65.8353 72.1005 65.4668 71.2517C65.2474 70.6679 64.912 70.1379 64.4772 69.6948C64.03 69.2394 63.5 68.8667 62.9204 68.6059C61.6823 68.0469 60.465 67.4548 59.2683 66.8005C58.9951 66.6598 58.7052 66.5604 58.403 66.5107C58.0841 66.4734 57.757 66.4734 57.4382 66.5107C56.7757 66.6059 56.1339 66.8337 55.5625 67.1815C55.8192 66.9455 56.1008 66.7426 56.403 66.5728C56.7094 66.3989 57.0366 66.2664 57.3761 66.1753C57.728 66.0842 58.0883 66.047 58.4526 66.0677C58.8336 66.0801 59.2062 66.1712 59.5499 66.3327C60.8211 66.8295 62.0674 67.3844 63.3054 67.9682C63.9679 68.2787 64.56 68.7218 65.0445 69.2683C65.5331 69.8232 65.885 70.4857 66.0714 71.202C66.2577 71.9556 66.4606 72.8458 66.6179 73.7568L66.6138 73.7526Z"
            stroke="inherit" stroke-width="0.414061" stroke-miterlimit="10" />
        <path
            d="M51.7322 56.9956C53.0116 57.4469 54.3615 57.6664 55.7196 57.6332C56.3779 57.6084 57.0321 57.5049 57.6657 57.3227C58.295 57.1239 58.9037 56.8631 59.4792 56.5442C60.6883 55.9149 61.8849 55.2607 63.0153 54.5195C63.2927 54.3497 63.5536 54.151 63.7938 53.9274C64.0298 53.6914 64.2409 53.4305 64.4231 53.1489C64.8289 52.6107 65.0277 51.9399 64.978 51.265C65.185 51.9565 65.1105 52.7018 64.7668 53.3353C64.6053 53.6582 64.4107 53.9646 64.183 54.2462C63.9552 54.536 63.6944 54.7969 63.4045 55.0246C62.2949 55.8735 61.1065 56.6146 59.8602 57.244C59.2308 57.5753 58.5683 57.8361 57.881 58.0224C57.1812 58.1922 56.4607 58.2626 55.7403 58.2336C54.32 58.1674 52.9412 57.7409 51.728 56.9956H51.7322Z"
            stroke="inherit" stroke-width="0.414061" stroke-miterlimit="10" />
        <path
            d="M52.9164 67.4339C53.5085 67.0281 54.1171 66.6555 54.7299 66.2745C55.3386 65.9598 55.91 65.5706 56.4193 65.1152C56.6429 64.8998 56.8168 64.6307 56.9162 64.3367C56.9576 64.2084 56.9783 64.0759 56.9783 63.9392V63.7446L56.9327 63.4879C56.7837 62.8006 56.6056 62.1091 56.4028 61.4714V61.4259C56.3241 61.2271 56.2123 61.0449 56.0674 60.8876C55.8976 60.6888 55.7071 60.5067 55.5084 60.341C55.0778 60.0056 54.6181 59.7034 54.1378 59.4384C53.1648 58.8587 52.1462 58.3535 51.0986 57.9188C51.67 58.0016 52.2332 58.1341 52.7797 58.3163C53.3263 58.4902 53.8646 58.6972 54.3904 58.9332C54.937 59.1651 55.4587 59.4508 55.9473 59.7903C56.1999 59.9684 56.4359 60.1713 56.647 60.399C56.8996 60.6516 57.0859 60.9621 57.1853 61.3017V61.2313C57.4296 61.9269 57.6118 62.6391 57.7402 63.3678L57.794 63.6328V63.9682C57.7857 64.1918 57.7402 64.4113 57.6615 64.6224C57.4959 64.9992 57.2474 65.3346 56.9369 65.6037C56.6429 65.848 56.3158 66.0592 55.9721 66.229L54.9825 66.6555C54.2413 66.9287 53.5871 67.2103 52.9122 67.4422L52.9164 67.4339Z"
            stroke="inherit" stroke-width="0.414061" stroke-miterlimit="10" />
        <path
            d="M145.927 67.9185L139.431 69.7197C137.807 70.1751 136.073 69.9971 134.578 69.2228C133.162 68.5437 131.336 67.6659 131.336 67.6659C130.118 67.1235 129.245 66.018 129 64.7054C128.508 62.4156 128.532 61.4095 130.557 60.3495C132.582 59.2895 135.021 57.9521 135.021 57.9521C135.021 57.9521 136.391 57.0163 138.996 58.1218C141.596 59.2274 145.836 61.1776 145.836 61.1776C145.836 61.1776 147.058 61.6745 148.171 64.076C149.285 66.4734 148.412 67.2767 145.927 67.9226V67.9185Z"
            stroke="inherit" stroke-width="0.414061" stroke-miterlimit="10" />
        <path
            d="M153.123 59.1776C152.672 59.397 152.212 59.6041 151.753 59.807C151.293 60.0099 150.833 60.2293 150.365 60.4156C149.305 60.8835 148.101 60.8959 147.032 60.4529C146.005 60.0099 145.07 59.6041 144.097 59.161C142.163 58.2791 140.242 57.3847 138.349 56.4199C137.956 56.2585 137.583 56.0431 137.252 55.7823C136.925 55.5256 136.66 55.2026 136.474 54.8299C136.308 54.4532 136.188 54.0598 136.113 53.654C136.031 53.2648 135.989 52.8673 135.989 52.4698C136.064 52.8549 136.171 53.2358 136.3 53.6085C136.424 53.9728 136.581 54.3207 136.776 54.6519C137.223 55.244 137.853 55.6746 138.569 55.8734C140.548 56.6518 142.465 57.5545 144.428 58.453C145.38 58.896 146.382 59.3722 147.285 59.8152C148.179 60.2583 149.21 60.337 150.158 60.0264C150.635 59.8608 151.123 59.7366 151.608 59.5916C152.092 59.4426 152.635 59.3018 153.127 59.1776H153.123Z"
            stroke="inherit" stroke-width="0.414061" stroke-miterlimit="10" />
        <path
            d="M155.844 59.5338C155.119 59.894 154.378 60.2128 153.641 60.5482L152.527 61.0244C152.171 61.1445 151.835 61.3101 151.521 61.5171C151.227 61.7117 150.991 61.9809 150.833 62.2956C150.693 62.6061 150.626 62.9498 150.647 63.2934C150.647 64.076 150.693 64.8545 150.771 65.6287V65.6991C150.817 65.9269 150.904 66.1463 151.028 66.3451C151.173 66.5894 151.343 66.8212 151.533 67.0324C151.943 67.4672 152.386 67.8647 152.866 68.2249C153.844 68.9785 154.796 69.7569 155.723 70.5602C154.639 69.9598 153.583 69.3222 152.531 68.6597C151.985 68.3284 151.479 67.9351 151.028 67.4837C150.788 67.2477 150.573 66.9869 150.39 66.7053C150.179 66.3865 150.047 66.018 150.009 65.637V65.7074C149.902 64.8917 149.856 64.0677 149.877 63.2438C149.86 62.78 149.968 62.3204 150.187 61.9105C150.419 61.5088 150.755 61.1734 151.152 60.9374C151.529 60.7345 151.931 60.5772 152.345 60.4695L153.496 60.1259C154.283 59.9396 155.061 59.7118 155.839 59.5338H155.844Z"
            stroke="inherit" stroke-width="0.414061" stroke-miterlimit="10" />
        <path
            d="M154.933 71.8189C153.774 71.1896 152.598 70.5478 151.488 69.8646C151.215 69.7072 150.888 69.5002 150.664 69.3801C150.387 69.2683 150.097 69.1938 149.799 69.169C149.182 69.111 148.557 69.1565 147.952 69.3097C146.731 69.6451 145.422 69.9971 144.151 70.3159C142.88 70.6347 141.588 70.9453 140.304 71.2351C139.836 71.2972 139.381 71.4214 138.95 71.6078C138.536 71.7444 138.209 72.0591 138.056 72.4649C138.039 72.6967 138.039 72.9328 138.056 73.1646V75.4461C137.986 74.9492 137.923 74.4565 137.87 73.9596L137.783 73.1812C137.741 72.9245 137.721 72.6636 137.729 72.4028C137.874 71.8438 138.267 71.38 138.797 71.1399C139.265 70.8914 139.766 70.7093 140.284 70.6016C141.551 70.2414 142.822 69.8936 144.093 69.5582C145.377 69.2145 146.619 68.9122 147.989 68.5934C148.677 68.4443 149.385 68.4236 150.076 68.5313C150.432 68.5934 150.776 68.7093 151.095 68.875C151.438 69.0861 151.654 69.2559 151.935 69.4505C152.838 70.2124 153.89 71.0074 154.933 71.8189Z"
            stroke="inherit" stroke-width="0.414061" stroke-miterlimit="10" />
        <path
            d="M136.412 75.9099C136.006 75.0735 135.641 74.233 135.314 73.3841C135.103 72.792 134.776 72.2496 134.35 71.7859C133.907 71.3221 133.377 70.9412 132.793 70.672C131.571 70.0882 130.362 69.4713 129.178 68.7964C128.909 68.6514 128.619 68.5521 128.321 68.5024C128.002 68.4485 127.679 68.432 127.356 68.4568C126.689 68.5396 126.048 68.755 125.464 69.0862C125.725 68.8585 126.015 68.6639 126.321 68.5024C126.632 68.3326 126.959 68.2001 127.302 68.1132C127.658 68.0345 128.023 68.0055 128.387 68.0262C128.764 68.051 129.137 68.1463 129.476 68.3078C130.739 68.8212 131.977 69.405 133.199 70.0054C133.857 70.3284 134.441 70.7838 134.913 71.347C135.393 71.9101 135.737 72.5767 135.911 73.2931C136.089 74.0963 136.275 74.999 136.416 75.9099H136.412Z"
            stroke="inherit" stroke-width="0.414061" stroke-miterlimit="10" />
        <path
            d="M121.837 58.8713C123.108 59.3516 124.458 59.5959 125.816 59.5959C126.474 59.5793 127.129 59.4799 127.762 59.306C128.4 59.1114 129.013 58.8506 129.592 58.5276C130.814 57.9189 132.023 57.2896 133.17 56.5732C133.447 56.4035 133.708 56.2089 133.948 55.9894C134.188 55.7534 134.408 55.4925 134.594 55.211C135.004 54.6768 135.211 54.0144 135.178 53.3394C135.368 54.0351 135.277 54.7804 134.921 55.4097C134.756 55.7286 134.553 56.0308 134.321 56.3041C134.089 56.5774 133.828 56.8217 133.542 57.037C132.416 57.8651 131.22 58.5897 129.961 59.1943C129.327 59.5255 128.656 59.7864 127.965 59.9727C127.261 60.1342 126.536 60.1921 125.816 60.1424C124.404 60.0596 123.034 59.6166 121.837 58.863V58.8713Z"
            stroke="inherit" stroke-width="0.414061" stroke-miterlimit="10" />
        <path
            d="M122.826 69.3427C123.427 68.9369 124.048 68.5643 124.665 68.2123C125.282 67.9101 125.857 67.5291 126.379 67.0819C126.611 66.8666 126.785 66.5975 126.893 66.3035C126.934 66.1752 126.959 66.0427 126.963 65.906V65.7114L126.909 65.4547C126.777 64.7674 126.615 64.0759 126.416 63.4217V63.3761C126.342 63.1732 126.234 62.991 126.089 62.8295C125.919 62.6308 125.737 62.4445 125.534 62.2747C125.108 61.9269 124.652 61.6163 124.18 61.3389C123.22 60.7468 122.218 60.2251 121.183 59.7821C121.75 59.869 122.309 60.0098 122.851 60.2044C123.381 60.3907 123.903 60.606 124.408 60.8503C124.959 61.0864 125.481 61.3845 125.965 61.7364C126.213 61.9186 126.441 62.1256 126.652 62.3534C126.897 62.6101 127.075 62.9248 127.174 63.2643V63.2022C127.398 63.902 127.567 64.6141 127.688 65.3388L127.725 65.612V65.9474C127.712 66.171 127.663 66.3863 127.576 66.5934C127.41 66.9702 127.158 67.3014 126.835 67.5581C126.536 67.8024 126.205 68.0094 125.853 68.1668L124.855 68.5809C124.168 68.8458 123.51 69.1108 122.822 69.3427H122.826Z"
            stroke="inherit" stroke-width="0.414061" stroke-miterlimit="10" />
        <path
            d="M75.5039 41.4517L81.9757 39.5595C83.5905 39.075 85.3296 39.2241 86.8368 39.9818C88.2611 40.636 90.0996 41.46 90.0996 41.46C91.3086 41.9942 92.1782 43.0831 92.4349 44.3833C92.9566 46.6648 92.9566 47.6709 90.9567 48.7682C88.9568 49.8655 86.5221 51.2319 86.5221 51.2319C86.5221 51.2319 85.1764 52.1842 82.5471 51.1242C79.922 50.0642 75.6696 48.1637 75.6696 48.1637C75.6696 48.1637 74.4315 47.6875 73.3343 45.3066C72.237 42.9217 73.032 42.1349 75.4998 41.46L75.5039 41.4517Z"
            stroke="inherit" stroke-width="0.414061" stroke-miterlimit="10" />
        <path
            d="M68.4355 50.3044C68.8869 50.0725 69.3465 49.8613 69.8061 49.6502C70.2657 49.439 70.717 49.2237 71.1766 49.0249C72.2325 48.5446 73.4333 48.5156 74.5098 48.938C75.5367 49.3645 76.4808 49.7578 77.4704 50.1926C79.4082 51.0331 81.3667 51.9068 83.2506 52.8508C83.644 53.004 84.0125 53.2152 84.3479 53.4761C84.6999 53.7204 84.9856 54.0433 85.1884 54.4201C85.3541 54.7928 85.4824 55.182 85.5611 55.5795C85.6522 55.9687 85.7019 56.3704 85.7019 56.772C85.6191 56.3869 85.5114 56.006 85.3748 55.6333C85.2506 55.2731 85.0849 54.9294 84.882 54.6065C84.4224 54.0226 83.7889 53.5962 83.0767 53.3974C81.0892 52.619 79.1266 51.7867 77.1805 50.913C76.2157 50.4866 75.2096 50.027 74.2986 49.588C73.4001 49.1574 72.365 49.0995 71.4251 49.4224C70.9489 49.588 70.4603 49.7164 69.9841 49.8737C69.508 50.0311 68.9241 50.1719 68.4355 50.3002V50.3044Z"
            stroke="inherit" stroke-width="0.414061" stroke-miterlimit="10" />
        <path
            d="M65.7238 49.9855C66.4401 49.6129 67.1813 49.2858 67.9059 48.9421L69.0114 48.4494C69.3675 48.3252 69.707 48.1513 70.0176 47.9359C70.618 47.5591 70.9451 46.8718 70.8581 46.1679C70.8457 45.3853 70.7919 44.6069 70.7008 43.8326V43.7622C70.6594 43.5303 70.5683 43.3109 70.4358 43.1163C70.2909 42.872 70.117 42.6442 69.9223 42.4372C69.5124 42.0025 69.0611 41.6091 68.5766 41.2613C67.5953 40.5243 66.6306 39.7458 65.6782 38.926C66.7672 39.5057 67.8438 40.1268 68.9038 40.781C69.4627 41.1039 69.9845 41.489 70.4606 41.9279C70.7008 42.1639 70.912 42.4248 71.0983 42.7064C71.326 43.021 71.4627 43.3896 71.5041 43.7746V43.7042C71.6283 44.5199 71.6821 45.3439 71.6697 46.1679C71.6945 46.6317 71.5952 47.0913 71.3798 47.5012C71.1521 47.907 70.825 48.2423 70.4275 48.4825C70.059 48.702 69.6573 48.8676 69.2433 48.9752L68.0963 49.3355C67.2765 49.5673 66.5063 49.8034 65.7196 49.998L65.7238 49.9855Z"
            stroke="inherit" stroke-width="0.414061" stroke-miterlimit="10" />
        <path
            d="M66.4438 37.6837C67.6115 38.3006 68.7792 38.9217 69.9178 39.5925C70.1911 39.7499 70.5182 39.9527 70.7501 40.0604C71.0275 40.1681 71.3173 40.2343 71.6155 40.255C72.2366 40.3047 72.8618 40.2467 73.4622 40.0852C74.6795 39.7333 75.9797 39.3689 77.2467 39.0335C78.5179 38.6981 79.8015 38.3628 81.0809 38.0522C81.5446 37.986 82.0001 37.8535 82.4266 37.663C82.8324 37.5139 83.1595 37.1951 83.3127 36.7893C83.3251 36.5574 83.3251 36.3214 83.3127 36.0896V33.8164C83.3996 34.3091 83.47 34.806 83.5321 35.2946L83.6274 36.073C83.6812 36.3297 83.7019 36.5906 83.6895 36.8514C83.557 37.4146 83.1719 37.8866 82.646 38.1309C82.1823 38.3835 81.6813 38.5739 81.1678 38.6899C79.905 39.0749 78.6421 39.4393 77.375 39.7871C76.0956 40.1515 74.8576 40.4745 73.5326 40.814C72.8494 40.9713 72.1455 41.0003 71.454 40.9092C71.0979 40.8554 70.7501 40.7436 70.4271 40.5821C70.0752 40.3709 69.8599 40.2012 69.57 40.0149C68.597 39.2613 67.5038 38.4787 66.448 37.6837H66.4438Z"
            stroke="inherit" stroke-width="0.414061" stroke-miterlimit="10" />
        <path
            d="M84.8984 33.3195C85.3208 34.1435 85.6769 34.9799 86.0371 35.8287C86.2566 36.4084 86.5961 36.9384 87.0267 37.3856C87.4739 37.8452 87.9998 38.2137 88.5836 38.4746C89.8133 39.0418 91.039 39.6422 92.2315 40.2965C92.4965 40.4414 92.7863 40.5407 93.0886 40.5863C93.4074 40.6236 93.7345 40.6236 94.0533 40.5863C94.72 40.4911 95.3618 40.2675 95.9373 39.9238C95.4156 40.3917 94.7904 40.7354 94.1154 40.93C93.7635 41.0128 93.4032 41.05 93.0389 41.0293C92.6579 41.0128 92.2853 40.9217 91.9416 40.7643C90.6704 40.2675 89.4241 39.7043 88.1944 39.1205C87.536 38.8058 86.948 38.3628 86.4636 37.8121C85.9709 37.2614 85.6189 36.5989 85.445 35.8784C85.238 35.0793 85.0558 34.2263 84.8984 33.3154V33.3195Z"
            stroke="inherit" stroke-width="0.414061" stroke-miterlimit="10" />
        <path
            d="M99.7555 50.1305C98.476 49.675 97.1262 49.4514 95.7681 49.468C95.1138 49.5011 94.4596 49.6046 93.8303 49.7785C93.1967 49.9773 92.5881 50.2382 92.0084 50.557C90.7911 51.1698 89.611 51.8406 88.464 52.5735C88.1825 52.7391 87.9216 52.9378 87.6856 53.1656C87.4454 53.4016 87.2301 53.6624 87.0479 53.944C86.6463 54.4823 86.4476 55.1489 86.489 55.8197C86.2902 55.1241 86.373 54.3829 86.7167 53.7494C86.874 53.4264 87.0728 53.1242 87.3005 52.8467C87.5283 52.5569 87.7891 52.296 88.079 52.0683C89.1886 51.2236 90.377 50.4825 91.6233 49.8572C92.2568 49.526 92.9193 49.2651 93.6108 49.0788C94.3106 48.909 95.031 48.8428 95.7515 48.8759C97.1759 48.9463 98.5547 49.3769 99.7637 50.1305H99.7555Z"
            stroke="inherit" stroke-width="0.414061" stroke-miterlimit="10" />
        <path
            d="M98.5746 39.6838C97.9825 40.0896 97.3656 40.4622 96.761 40.8349C96.1482 41.1454 95.5768 41.5346 95.0634 41.9942C94.8398 42.2137 94.6659 42.4787 94.5582 42.7727C94.5168 42.901 94.4961 43.0335 94.4961 43.1702V43.3731L94.5417 43.6298C94.6907 44.3088 94.8605 45.0003 95.0634 45.6463V45.6918C95.1421 45.8906 95.2539 46.0727 95.3988 46.2301C95.5685 46.4288 95.759 46.6152 95.9578 46.7849C96.3925 47.1245 96.848 47.4267 97.3283 47.6959C98.2972 48.2755 99.3075 48.7807 100.351 49.2155C99.7795 49.1409 99.2206 49.0084 98.674 48.8262C98.1233 48.6441 97.585 48.437 97.0633 48.1969C96.5167 47.965 95.995 47.6793 95.5064 47.3398C95.258 47.1576 95.0261 46.9547 94.815 46.7311C94.5624 46.4785 94.3802 46.1638 94.285 45.8202V45.8906C94.0489 45.1949 93.8626 44.4786 93.7301 43.754L93.6846 43.489V43.1536C93.6929 42.93 93.7384 42.7064 93.8254 42.4994C93.991 42.1226 94.2394 41.7914 94.55 41.5264C94.8439 41.2779 95.1669 41.0667 95.5147 40.9011L96.5126 40.4746C97.2372 40.1931 97.8997 39.9157 98.5788 39.6796L98.5746 39.6838Z"
            stroke="inherit" stroke-width="0.414061" stroke-miterlimit="10" />
        <path
            d="M112.442 78.9242L118.914 76.9988C120.529 76.5144 122.268 76.6634 123.775 77.4212C125.199 78.0754 127.029 78.8994 127.029 78.8994C128.238 79.4335 129.112 80.5225 129.365 81.8226C129.886 84.1041 129.878 85.1103 127.886 86.1992C125.891 87.2882 123.452 88.667 123.452 88.667C123.452 88.667 122.098 89.6194 119.477 88.5511C116.856 87.4828 112.591 85.5989 112.591 85.5989C112.591 85.5989 111.361 85.1227 110.256 82.7418C109.15 80.3568 109.958 79.6115 112.438 78.9242H112.442Z"
            stroke="inherit" stroke-width="0.414061" stroke-miterlimit="10" />
        <path
            d="M105.378 87.7727C105.829 87.5449 106.289 87.3379 106.74 87.1267C107.192 86.9155 107.651 86.692 108.119 86.5015C109.171 86.0212 110.376 85.9922 111.452 86.4145C112.479 86.841 113.423 87.193 114.405 87.6691C116.351 88.5097 118.301 89.3751 120.193 90.3274C120.587 90.4847 120.955 90.6918 121.291 90.9526C121.638 91.1969 121.928 91.5199 122.131 91.8967C122.442 92.6379 122.616 93.4287 122.645 94.232C122.566 93.8428 122.454 93.4618 122.309 93.0933C122.189 92.729 122.023 92.3812 121.816 92.0582C121.357 91.4744 120.719 91.0562 120.003 90.8657C118.007 90.0873 116.053 89.2467 114.107 88.3813C113.142 87.9548 112.136 87.4952 111.225 87.0563C110.322 86.6257 109.287 86.5677 108.343 86.8907C107.867 87.0605 107.386 87.193 106.902 87.342C106.417 87.4911 105.867 87.6402 105.374 87.7685L105.378 87.7727Z"
            stroke="inherit" stroke-width="0.414061" stroke-miterlimit="10" />
        <path
            d="M102.666 87.4622C103.382 87.0896 104.115 86.7625 104.848 86.4188L105.954 85.9261C106.31 85.7977 106.645 85.6238 106.96 85.4126C107.25 85.218 107.478 84.9489 107.631 84.6342C107.772 84.3195 107.829 83.98 107.801 83.6363C107.788 82.8537 107.734 82.0753 107.643 81.301V81.2306C107.598 80.9987 107.507 80.7834 107.378 80.5847C107.229 80.3445 107.059 80.1209 106.865 79.9139C106.455 79.4791 106.003 79.0858 105.519 78.738C104.538 77.9968 103.573 77.2184 102.621 76.4027C103.71 76.9782 104.786 77.6034 105.838 78.2577C106.401 78.5765 106.923 78.9616 107.395 79.4046C107.635 79.6406 107.854 79.9015 108.041 80.183C108.268 80.4977 108.405 80.8662 108.438 81.2513V81.1809C108.554 81.9966 108.608 82.8206 108.604 83.6446C108.629 84.1083 108.529 84.5679 108.31 84.9779C108.086 85.3795 107.763 85.719 107.366 85.9592C106.993 86.1745 106.596 86.3401 106.182 86.4519L105.035 86.8122C104.215 87.044 103.453 87.28 102.666 87.4746V87.4622Z"
            stroke="inherit" stroke-width="0.414061" stroke-miterlimit="10" />
        <path
            d="M103.374 75.1605C104.55 75.7774 105.709 76.3985 106.856 77.0693C107.13 77.2184 107.457 77.4295 107.689 77.5372C107.966 77.649 108.256 77.7152 108.554 77.7318C109.171 77.7815 109.796 77.7235 110.392 77.562C111.614 77.2101 112.918 76.8374 114.185 76.5103C115.456 76.1832 116.732 75.8395 118.019 75.529C118.483 75.4586 118.934 75.3261 119.365 75.1398C119.775 74.9907 120.098 74.6677 120.247 74.2578C120.264 74.0259 120.264 73.7899 120.247 73.5581V71.2849C120.334 71.7776 120.396 72.2745 120.466 72.7631L120.562 73.5415C120.611 73.7982 120.632 74.0591 120.624 74.3199C120.487 74.8831 120.102 75.3509 119.58 75.5994C119.117 75.8561 118.62 76.0424 118.102 76.1542C116.839 76.5352 115.576 76.8995 114.309 77.2515C113.03 77.6117 111.792 77.9388 110.467 78.2784C109.784 78.4357 109.076 78.4647 108.38 78.3653C108.024 78.3156 107.676 78.208 107.353 78.0465C107.009 77.8353 106.794 77.6655 106.504 77.4792C105.506 76.738 104.434 75.9596 103.382 75.1646L103.374 75.1605Z"
            stroke="inherit" stroke-width="0.414061" stroke-miterlimit="10" />
        <path
            d="M121.837 70.7673C122.259 71.5457 122.615 72.4277 122.976 73.2765C123.199 73.8562 123.535 74.3862 123.965 74.8334C124.412 75.2888 124.942 75.6573 125.522 75.9223C126.752 76.4896 127.969 77.09 129.17 77.7442C129.439 77.8891 129.733 77.9844 130.035 78.0341C130.354 78.0713 130.677 78.0713 130.992 78.0341C131.663 77.943 132.304 77.7152 132.884 77.3716C132.623 77.6034 132.337 77.8022 132.035 77.9719C131.725 78.1458 131.398 78.2783 131.054 78.3694C130.702 78.4605 130.342 78.4978 129.977 78.4688C129.601 78.4564 129.228 78.3694 128.888 78.2121C127.617 77.7152 126.371 77.1521 125.141 76.5683C124.479 76.2536 123.887 75.8105 123.402 75.2598C122.913 74.705 122.562 74.0425 122.383 73.3262C122.176 72.5477 121.994 71.6948 121.837 70.7631V70.7673Z"
            stroke="inherit" stroke-width="0.414061" stroke-miterlimit="10" />
        <path
            d="M136.665 87.6112C135.385 87.1516 134.035 86.9281 132.677 86.9488C132.019 86.9736 131.365 87.0771 130.731 87.2593C130.102 87.4581 129.493 87.7189 128.918 88.0377C127.704 88.6464 126.52 89.3172 125.373 90.0459C125.092 90.2198 124.831 90.4186 124.595 90.6463C124.355 90.8823 124.143 91.1432 123.965 91.4248C123.556 91.963 123.357 92.6338 123.406 93.3087C123.208 92.6131 123.291 91.8719 123.634 91.2384C123.792 90.9113 123.99 90.609 124.218 90.3275C124.45 90.0501 124.711 89.8016 124.996 89.5863C126.123 88.7334 127.323 87.988 128.586 87.3587C129.212 87.0233 129.878 86.7624 130.566 86.5802C131.269 86.4105 131.994 86.3401 132.715 86.3773C134.114 86.4477 135.476 86.8742 136.673 87.6071L136.665 87.6112Z"
            stroke="inherit" stroke-width="0.414061" stroke-miterlimit="10" />
        <path
            d="M135.518 77.1563C134.917 77.5704 134.308 77.9348 133.696 78.3157C133.083 78.6262 132.516 79.0113 132.006 79.4668C131.783 79.6862 131.609 79.9512 131.501 80.2452C131.46 80.3736 131.439 80.5061 131.439 80.6427V80.8373L131.485 81.094C131.634 81.7814 131.803 82.4729 132.006 83.1188V83.1809C132.089 83.3797 132.205 83.5577 132.35 83.7192C132.52 83.9179 132.706 84.1001 132.909 84.2657C133.34 84.6094 133.795 84.9158 134.271 85.185C135.244 85.7646 136.255 86.2698 137.302 86.7046C136.731 86.6259 136.172 86.4934 135.625 86.3071C135.074 86.1332 134.536 85.9261 134.014 85.6818C133.468 85.45 132.946 85.1643 132.458 84.8247C132.209 84.6425 131.977 84.4396 131.766 84.2161C131.518 83.9593 131.331 83.6488 131.228 83.3051V83.3755C130.992 82.6799 130.81 81.9677 130.681 81.2431L130.636 80.9781V80.6427C130.644 80.4191 130.69 80.1997 130.768 79.9885C130.934 79.6117 131.182 79.2763 131.501 79.0155C131.795 78.767 132.118 78.5558 132.466 78.3902L133.455 77.9637C134.18 77.6739 134.809 77.3965 135.522 77.1522L135.518 77.1563Z"
            stroke="inherit" stroke-width="0.414061" stroke-miterlimit="10" />
        <path
            d="M111.051 41.0624L117.655 39.7167C119.303 39.3689 121.025 39.667 122.462 40.549L125.58 42.2922C126.752 42.9174 127.543 44.0851 127.683 45.4101C128.019 47.7454 127.932 48.7267 125.845 49.6459C123.758 50.5651 121.224 51.7328 121.224 51.7328C121.224 51.7328 119.8 52.565 117.274 51.2897C114.748 50.0103 110.661 47.7702 110.661 47.7702C110.661 47.7702 109.469 47.1947 108.55 44.7227C107.631 42.2549 108.525 41.5386 111.051 41.0624Z"
            stroke="inherit" stroke-width="0.414061" stroke-miterlimit="10" />
        <path
            d="M103.266 49.2899C103.734 49.1036 104.21 48.9255 104.682 48.7516C105.158 48.5819 105.626 48.3997 106.098 48.2465C107.187 47.8531 108.388 47.9235 109.423 48.4411C110.421 48.9545 111.324 49.4224 112.268 49.9358C114.139 50.942 115.99 51.9606 117.816 53.0537C118.193 53.24 118.545 53.4802 118.86 53.7618C119.191 54.035 119.46 54.3787 119.638 54.7679C119.775 55.153 119.866 55.5546 119.911 55.9604C119.973 56.3579 119.99 56.7596 119.957 57.1612C119.907 56.7678 119.829 56.3828 119.725 56.0018C119.626 55.6333 119.493 55.2772 119.319 54.9335C118.913 54.3125 118.317 53.8404 117.622 53.5879C115.704 52.6521 113.82 51.65 111.949 50.619C111.03 50.1139 110.065 49.5673 109.191 49.0622C108.33 48.5612 107.307 48.4162 106.338 48.6564C105.854 48.7806 105.357 48.8758 104.864 48.9918C104.372 49.1077 103.759 49.203 103.258 49.294L103.266 49.2899Z"
            stroke="inherit" stroke-width="0.414061" stroke-miterlimit="10" />
        <path
            d="M100.587 48.7432C101.366 48.4326 102.099 48.1676 102.852 47.8861L103.999 47.4886C104.359 47.3933 104.711 47.2526 105.034 47.0662C105.656 46.735 106.041 46.0808 106.024 45.3769C106.065 44.5984 106.065 43.82 106.024 43.0416V42.9712C105.999 42.7393 105.929 42.5116 105.813 42.3087C105.689 42.0561 105.535 41.8159 105.362 41.5923C104.985 41.1245 104.571 40.698 104.115 40.3088C103.196 39.4889 102.293 38.6401 101.42 37.7623C102.455 38.4331 103.478 39.1411 104.475 39.874C104.997 40.2425 105.477 40.6731 105.9 41.1534C106.115 41.3936 106.31 41.6545 106.475 41.9319C106.674 42.2631 106.782 42.6399 106.786 43.0209V42.9505C106.84 43.7745 106.827 44.5984 106.749 45.4183C106.732 45.882 106.591 46.3333 106.343 46.7267C106.086 47.1076 105.734 47.4182 105.324 47.6211C104.935 47.8074 104.525 47.9399 104.103 48.0103L102.927 48.2753C102.177 48.4451 101.391 48.619 100.592 48.7432H100.587Z"
            stroke="inherit" stroke-width="0.414061" stroke-miterlimit="10" />
        <path
            d="M102.331 36.5533C103.445 37.2613 104.55 37.9777 105.635 38.7437C105.892 38.9135 106.203 39.1495 106.414 39.282C106.683 39.4103 106.969 39.5014 107.263 39.547C107.875 39.6505 108.505 39.6505 109.118 39.547C110.356 39.2985 111.689 39.0418 113.014 38.8141C114.339 38.5863 115.61 38.3545 116.91 38.1516C117.378 38.1226 117.838 38.0274 118.281 37.87C118.699 37.7624 119.047 37.4767 119.237 37.0916C119.274 36.9135 119.291 36.632 119.316 36.3918L119.378 35.6134C119.378 35.1165 119.457 34.6238 119.51 34.1269C119.548 34.6238 119.581 35.1248 119.597 35.6217V36.4001C119.622 36.661 119.622 36.9218 119.597 37.1785C119.411 37.7292 118.989 38.164 118.446 38.3628C117.962 38.5739 117.453 38.7188 116.927 38.7892C115.635 39.0625 114.347 39.3275 113.03 39.5677C111.714 39.8078 110.459 40.0356 109.134 40.2674C108.438 40.3668 107.73 40.3378 107.047 40.1805C106.695 40.0977 106.36 39.961 106.049 39.7747C105.722 39.5428 105.519 39.3482 105.271 39.137C104.314 38.2965 103.317 37.4311 102.335 36.5492L102.331 36.5533Z"
            stroke="inherit" stroke-width="0.414061" stroke-miterlimit="10" />
        <path
            d="M121.083 33.7502C121.435 34.599 121.737 35.4644 122.011 36.3381C122.176 36.9426 122.462 37.5099 122.859 37.9985C123.261 38.4871 123.75 38.9011 124.3 39.2158C125.484 39.8866 126.636 40.5781 127.783 41.3358C128.039 41.5056 128.321 41.6298 128.615 41.7002C128.929 41.7747 129.252 41.8078 129.571 41.7995C130.242 41.7664 130.9 41.5967 131.505 41.3027C131.232 41.5138 130.934 41.6919 130.619 41.8327C130.296 41.9817 129.956 42.0852 129.604 42.1515C129.248 42.2012 128.884 42.2012 128.528 42.1515C128.151 42.1059 127.783 41.9817 127.451 41.7913C126.23 41.1826 125.029 40.5201 123.853 39.8286C123.22 39.4642 122.665 38.9715 122.234 38.3794C121.791 37.7873 121.497 37.0999 121.377 36.3712C121.282 35.5762 121.158 34.6736 121.083 33.7543V33.7502Z"
            stroke="inherit" stroke-width="0.414061" stroke-miterlimit="10" />
        <path
            d="M134.457 51.7369C133.228 51.1738 131.911 50.8384 130.561 50.7473C129.907 50.7183 129.249 50.768 128.607 50.8964C127.957 51.0454 127.327 51.2607 126.723 51.534C125.468 52.0557 124.214 52.6023 123.021 53.24C122.731 53.389 122.458 53.5671 122.201 53.77C121.945 53.9811 121.708 54.213 121.501 54.4697C121.054 54.9707 120.802 55.6208 120.793 56.2916C120.653 55.5835 120.793 54.8465 121.191 54.242C121.381 53.9314 121.601 53.6457 121.853 53.3849C122.11 53.1282 122.392 52.9046 122.702 52.7141C123.882 51.9646 125.129 51.3229 126.425 50.8053C127.079 50.5154 127.762 50.3001 128.466 50.1676C129.182 50.0683 129.907 50.0683 130.623 50.1676C132.01 50.3664 133.327 50.9005 134.457 51.7328V51.7369Z"
            stroke="inherit" stroke-width="0.414061" stroke-miterlimit="10" />
        <path
            d="M134.184 41.2281C133.559 41.5883 132.913 41.8989 132.276 42.2343C131.638 42.4869 131.038 42.8264 130.491 43.2404C130.251 43.4309 130.056 43.6752 129.924 43.9485C129.874 44.0727 129.841 44.2052 129.828 44.3377V44.7973C129.915 45.4888 130.031 46.1927 130.18 46.8552V46.9256C130.243 47.1285 130.342 47.3189 130.47 47.4846C130.623 47.6957 130.797 47.8945 130.984 48.0767C131.385 48.4535 131.816 48.7971 132.267 49.1035C133.191 49.7578 134.155 50.3499 135.157 50.8716C134.598 50.7432 134.048 50.561 133.522 50.3333C132.988 50.1056 132.466 49.8447 131.965 49.5549C131.443 49.2774 130.951 48.9462 130.499 48.5653C130.267 48.3665 130.052 48.1471 129.862 47.911C129.634 47.6336 129.481 47.3024 129.41 46.9546V47.025C129.232 46.3128 129.108 45.5882 129.046 44.8594V44.2839C129.075 44.0603 129.141 43.845 129.241 43.6462C129.427 43.286 129.692 42.9754 130.019 42.7353C130.334 42.5076 130.677 42.3295 131.038 42.197L132.056 41.8533C132.806 41.6339 133.489 41.4103 134.184 41.2281Z"
            stroke="inherit" stroke-width="0.414061" stroke-miterlimit="10" />
        <path
            d="M78.1286 77.446L84.6004 75.5537C86.2152 75.0693 87.9543 75.2184 89.4615 75.9761C90.8858 76.6303 92.716 77.4543 92.716 77.4543C93.9251 77.9884 94.7987 79.0774 95.0513 80.3775C95.573 82.659 95.573 83.6652 93.5731 84.7625C91.5691 85.8597 89.1385 87.2261 89.1385 87.2261C89.1385 87.2261 87.7845 88.1785 85.1635 87.1185C82.5467 86.0585 78.2777 84.1579 78.2777 84.1579C78.2777 84.1579 77.0479 83.6818 75.9424 81.3009C74.8369 78.9159 75.6484 78.1292 78.1245 77.4543L78.1286 77.446Z"
            stroke="inherit" stroke-width="0.414061" stroke-miterlimit="10" />
        <path
            d="M71.061 86.2862C71.5123 86.0585 71.9719 85.8514 72.4233 85.6403C72.8746 85.4291 73.3342 85.2138 73.8021 85.015C74.858 84.5347 76.0587 84.5057 77.1353 84.9281C78.1622 85.3546 79.1062 85.7479 80.0875 86.1827C82.0336 87.0232 83.9838 87.8969 85.8761 88.841C86.2695 88.9983 86.638 89.2053 86.9734 89.4662C87.3253 89.7105 87.611 90.0335 87.8139 90.4102C88.1245 91.1514 88.2984 91.9423 88.3274 92.7456C88.2487 92.3563 88.1327 91.9795 87.992 91.6069C87.8719 91.2425 87.7063 90.8947 87.4992 90.5717C87.0396 89.992 86.4102 89.5697 85.6981 89.371C83.7023 88.5925 81.7479 87.7603 79.8018 86.8866C78.8371 86.4601 77.8309 86.0005 76.92 85.5616C76.0173 85.131 74.9822 85.073 74.0381 85.396C73.5619 85.5616 73.0816 85.6941 72.5972 85.8473C72.1127 86.0005 71.5455 86.1496 71.0527 86.2821L71.061 86.2862Z"
            stroke="inherit" stroke-width="0.414061" stroke-miterlimit="10" />
        <path
            d="M68.3527 85.9757C69.069 85.603 69.8019 85.2759 70.5348 84.9322L71.6403 84.4395C71.9964 84.3153 72.3359 84.1414 72.6465 83.9261C73.2386 83.541 73.5616 82.8578 73.487 82.158C73.4746 81.3755 73.4208 80.597 73.3297 79.8227V79.7606C73.2841 79.5288 73.193 79.3093 73.0647 79.1147C72.9198 78.8704 72.7459 78.6427 72.5513 78.4356C72.1413 78.0009 71.69 77.6075 71.2056 77.2597C70.2242 76.5185 69.2595 75.7401 68.3071 74.9244C69.3961 75.5041 70.4727 76.1252 71.5327 76.7794C72.0792 77.1024 72.5885 77.4874 73.0523 77.9263C73.2924 78.1623 73.5119 78.4232 73.6982 78.7048C73.9259 79.0195 74.0626 79.388 74.0957 79.773V79.7027C74.2116 80.5184 74.2655 81.3423 74.2613 82.1663C74.2862 82.6301 74.1868 83.0897 73.9673 83.4996C73.7479 83.9054 73.4208 84.2449 73.0233 84.4809C72.6506 84.6962 72.2531 84.8619 71.8391 84.9737L70.6921 85.3339C69.9054 85.5823 69.1435 85.7935 68.3568 85.9881L68.3527 85.9757Z"
            stroke="inherit" stroke-width="0.414061" stroke-miterlimit="10" />
        <path
            d="M69.0688 73.6739C70.2365 74.2908 71.4042 74.9119 72.5428 75.5827C72.8161 75.7318 73.1432 75.943 73.3751 76.0506C73.6525 76.1583 73.9423 76.2245 74.2405 76.2452C74.8574 76.2949 75.4827 76.2369 76.0789 76.0755C77.3004 75.7235 78.6047 75.3508 79.8717 75.0237C81.1429 74.6966 82.4182 74.353 83.7059 74.0424C84.1696 73.9762 84.6251 73.8437 85.0516 73.6532C85.4574 73.5041 85.7803 73.1853 85.9335 72.7795C85.9501 72.5435 85.9501 72.3075 85.9335 72.0715V69.7983C86.0205 70.291 86.0826 70.7879 86.153 71.2765L86.2482 72.0549C86.2979 72.3116 86.3186 72.5725 86.3103 72.8334C86.1778 73.3965 85.7928 73.8685 85.2669 74.1128C84.8032 74.3654 84.3021 74.5558 83.7887 74.6718C82.5258 75.0569 81.2629 75.4212 79.9959 75.7691C78.7165 76.1334 77.4784 76.4564 76.1534 76.7959C75.4702 76.9533 74.7663 76.9822 74.0748 76.8829C73.7146 76.8332 73.3627 76.7255 73.0397 76.564C72.696 76.3529 72.4807 76.1831 72.1909 75.9968C71.193 75.2473 70.1578 74.4689 69.073 73.6739H69.0688Z"
            stroke="inherit" stroke-width="0.414061" stroke-miterlimit="10" />
        <path
            d="M87.5234 69.3096C87.9458 70.1336 88.3019 70.97 88.6621 71.8188C88.8816 72.3985 89.2128 72.9285 89.6434 73.3757C90.0906 73.8312 90.6206 74.1997 91.2003 74.4647C92.4301 75.032 93.6474 75.6323 94.8482 76.2866C95.1173 76.4315 95.4113 76.5267 95.7136 76.5764C96.0324 76.6137 96.3595 76.6137 96.6783 76.5764C97.345 76.4812 97.9867 76.2576 98.5623 75.9139C98.0364 76.3777 97.4153 76.7213 96.7404 76.9201C96.3843 77.0029 96.02 77.0401 95.6556 77.0194C95.2788 77.0029 94.9103 76.9118 94.5666 76.7544C93.2954 76.2576 92.0491 75.6945 90.8194 75.1106C90.1569 74.7959 89.5648 74.3529 89.0803 73.8022C88.5917 73.2474 88.2398 72.5849 88.0617 71.8685C87.8588 71.0694 87.6808 70.2164 87.5234 69.3055V69.3096Z"
            stroke="inherit" stroke-width="0.414061" stroke-miterlimit="10" />
        <path
            d="M102.347 86.1206C101.067 85.6651 99.7175 85.4415 98.3594 85.4581C97.701 85.487 97.051 85.5906 96.4216 85.7686C95.7881 85.9674 95.1794 86.2282 94.5997 86.547C93.3824 87.1557 92.1982 87.8306 91.0554 88.5635C90.7738 88.7333 90.5129 88.932 90.2769 89.1556C90.0409 89.3916 89.8297 89.6525 89.6475 89.9341C89.2418 90.4723 89.043 91.139 89.0886 91.8097C88.8898 91.1141 88.9726 90.373 89.3163 89.7394C89.4736 89.4123 89.6724 89.1101 89.9001 88.8285C90.132 88.5511 90.3929 88.3027 90.6786 88.0873C91.7924 87.2427 92.9807 86.5015 94.2312 85.8763C94.8606 85.5409 95.5272 85.28 96.2187 85.0978C96.9185 84.9281 97.6389 84.8618 98.3594 84.8949C99.7755 84.957 101.15 85.3794 102.355 86.1164L102.347 86.1206Z"
            stroke="inherit" stroke-width="0.414061" stroke-miterlimit="10" />
        <path
            d="M101.2 75.6738C100.608 76.0796 99.9911 76.4522 99.3782 76.8249C98.7654 77.1354 98.1982 77.5246 97.6889 77.9842C97.4611 78.1996 97.2872 78.4687 97.1837 78.7627C97.1423 78.891 97.1216 79.0235 97.1216 79.1602V79.3631L97.1672 79.6198C97.3162 80.2988 97.486 80.9903 97.6889 81.6363V81.6694C97.7717 81.8681 97.8876 82.0503 98.0325 82.2077C98.2023 82.4064 98.3928 82.5886 98.5915 82.7542C99.0222 83.0979 99.4776 83.4043 99.9538 83.6734C100.927 84.2531 101.937 84.7583 102.985 85.193C102.413 85.1185 101.854 84.9902 101.308 84.8038C100.757 84.6258 100.219 84.4146 99.6971 84.1745C99.1505 83.9426 98.6288 83.6569 98.1402 83.3173C97.8876 83.1393 97.6558 82.9364 97.4487 82.7087C97.1961 82.452 97.014 82.1414 96.9104 81.7977V81.8681C96.6661 81.1725 96.484 80.4603 96.3556 79.7316L96.3101 79.4666V79.1312C96.3183 78.9076 96.3639 78.6881 96.4426 78.477C96.6082 78.1002 96.8608 77.7689 97.1754 77.5039C97.4694 77.2555 97.7924 77.0443 98.1402 76.8787L99.1381 76.4522C99.8627 76.2203 100.533 75.9057 101.204 75.6738H101.2Z"
            stroke="inherit" stroke-width="0.414061" stroke-miterlimit="10" />

    </g>
    <g fill="none">
        <path
            d="M193.564 113.151L121.406 134.96C121.406 134.96 97.8908 144.447 66.9505 130.742L30.3793 114.676C16.7104 108.921 6.75163 96.8763 3.71898 82.4348C-2.43003 56.9897 -2.46589 46.0813 19.7709 33.5766C42.0078 21.0719 69.0706 5.73113 69.0706 5.73113C69.0706 5.73113 84.1023 -5.17332 113.544 6.49559C142.986 18.1646 190.823 38.5951 190.823 38.5951C190.823 38.5951 204.683 43.7562 217.559 70.1123C229.92 95.4147 221.181 105.265 193.568 113.151H193.564Z"
            stroke="inherit" stroke-width="0.396039" stroke-miterlimit="10" />
    </g>
</svg>