<svg width="224" height="139" viewBox="0 0 224 139" fill="none" xmlns="http://www.w3.org/2000/svg">
<g clip-path="url(#clip0_515_2974)">
<path d="M193.557 112.931L121.403 134.872C121.403 134.872 97.8885 144.416 66.9499 130.628L30.3801 114.463C16.7119 108.674 6.75377 96.5547 3.7187 82.0253C-2.42182 56.4281 -2.45908 45.4554 19.776 32.8763C42.011 20.2971 69.0741 4.86507 69.0741 4.86507C69.0741 4.86507 84.1045 -6.10754 113.544 5.63109C142.984 17.3697 190.816 37.9237 190.816 37.9237C190.816 37.9237 204.675 43.116 217.548 69.6283C229.908 95.0806 221.167 104.993 193.557 112.927V112.931Z" stroke="#E5EBF0" stroke-width="0.414061" stroke-miterlimit="10"/>
<path d="M111.017 66.2413L104.512 68.0342C102.889 68.4896 101.154 68.3075 99.6596 67.529L96.4258 65.9722C95.2084 65.4256 94.3348 64.32 94.0905 63.0116C93.606 60.7219 93.6226 59.7074 95.6473 58.6474C97.6721 57.5874 100.119 56.2541 100.119 56.2541C100.119 56.2541 101.49 55.3266 104.094 56.4322C106.694 57.5377 110.926 59.4921 110.926 59.4921C110.926 59.4921 112.156 59.989 113.261 62.3905C114.367 64.7879 113.502 65.5912 111.017 66.2372V66.2413Z" stroke="#E5EBF0" stroke-width="0.414061" stroke-miterlimit="10"/>
<path d="M118.223 57.5254C117.763 57.7448 117.303 57.9477 116.844 58.1506C116.384 58.3535 115.925 58.573 115.457 58.7593C114.393 59.2106 113.192 59.2106 112.132 58.7593C111.105 58.308 110.169 57.9105 109.196 57.4591C107.263 56.5855 105.3 55.6828 103.453 54.7098C103.064 54.5483 102.695 54.333 102.364 54.0721C102.021 53.8195 101.739 53.4924 101.54 53.1156C101.379 52.743 101.259 52.3496 101.188 51.948C101.097 51.5588 101.056 51.1571 101.064 50.7555C101.134 51.1447 101.238 51.5215 101.375 51.8942C101.491 52.2585 101.648 52.6105 101.851 52.9376C102.298 53.5256 102.923 53.9603 103.635 54.1674C105.615 54.9458 107.532 55.8484 109.494 56.747C110.447 57.19 111.449 57.6662 112.347 58.1175C113.242 58.5605 114.277 58.6392 115.229 58.3287C115.705 58.163 116.194 58.0388 116.678 57.9022C117.163 57.7614 117.738 57.6455 118.227 57.5378L118.223 57.5254Z" fill="#E5EBF0" stroke="#E5EBF0" stroke-width="0.414061" stroke-miterlimit="10"/>
<path d="M120.926 57.8689C120.209 58.2291 119.468 58.5479 118.727 58.8833L117.613 59.3512C117.253 59.4713 116.913 59.6411 116.599 59.8481C116.309 60.0468 116.073 60.316 115.911 60.6265C115.77 60.9371 115.704 61.2807 115.725 61.6244C115.725 62.407 115.77 63.1854 115.849 63.9597V64.0301C115.895 64.262 115.982 64.4814 116.106 64.6843C116.255 64.9245 116.421 65.1522 116.611 65.3634C117.013 65.8064 117.456 66.2081 117.936 66.5642C118.909 67.3426 119.87 68.121 120.801 68.8995C119.716 68.2991 118.652 67.6614 117.609 66.9906C117.062 66.6594 116.557 66.266 116.098 65.823C115.862 65.587 115.65 65.3261 115.468 65.0446C115.249 64.7299 115.116 64.3614 115.087 63.9763V64.0467C114.98 63.231 114.938 62.407 114.963 61.583C114.942 61.1193 115.05 60.6597 115.274 60.2497C115.505 59.8522 115.837 59.521 116.23 59.285C116.607 59.0779 117.004 58.9206 117.423 58.8171L118.574 58.4734C119.36 58.3037 120.131 58.0469 120.917 57.8647L120.926 57.8689Z" fill="#E5EBF0" stroke="#E5EBF0" stroke-width="0.414061" stroke-miterlimit="10"/>
<path d="M120.007 70.1541C118.848 69.5248 117.672 68.8747 116.562 68.1915C116.289 68.0342 115.97 67.8271 115.738 67.7153C115.465 67.5953 115.171 67.5249 114.873 67.4959C114.256 67.4379 113.635 67.4835 113.034 67.6367C111.804 67.9721 110.496 68.324 109.225 68.6345C107.954 68.9451 106.662 69.2639 105.378 69.5538C104.914 69.6159 104.455 69.7401 104.024 69.9181C103.606 70.0506 103.271 70.3612 103.105 70.767C103.088 70.9988 103.088 71.2349 103.105 71.4667V72.2452C103.105 72.742 103.105 73.243 103.068 73.7482L102.881 72.2617L102.794 71.4833C102.753 71.2266 102.732 70.9657 102.741 70.7048C102.89 70.15 103.283 69.6863 103.809 69.4502C104.277 69.2018 104.778 69.0196 105.295 68.912C106.566 68.5517 107.834 68.2039 109.113 67.8768C110.392 67.5497 111.639 67.2309 112.96 66.9121C113.647 66.763 114.355 66.7423 115.046 66.8499C115.403 66.9121 115.75 67.028 116.073 67.1936C116.417 67.4048 116.628 67.5828 116.914 67.7774C117.92 68.5476 118.972 69.3426 120.007 70.1541Z" fill="#E5EBF0" stroke="#E5EBF0" stroke-width="0.414061" stroke-miterlimit="10"/>
<path d="M101.498 74.2203C101.084 73.3963 100.72 72.5516 100.401 71.6945C100.194 71.1024 99.8625 70.5559 99.436 70.0963C98.993 69.6284 98.463 69.2474 97.8792 68.9742C96.6577 68.3903 95.4486 67.7734 94.2644 67.0985C93.9953 66.9535 93.7096 66.85 93.4073 66.7962C93.0885 66.7424 92.7655 66.7258 92.4425 66.7589C91.7759 66.8335 91.13 67.0446 90.5503 67.3842C90.8112 67.1564 91.0969 66.9618 91.3991 66.8003C91.7138 66.6347 92.0451 66.5064 92.3887 66.4194C92.7407 66.3366 93.105 66.3076 93.4653 66.3325C93.8421 66.3532 94.2147 66.4484 94.5543 66.614C95.8171 67.1357 97.0552 67.7196 98.2767 68.3282C98.9309 68.6471 99.5147 69.1025 99.9826 69.6615C100.463 70.2246 100.807 70.8913 100.98 71.6076C101.175 72.4191 101.361 73.3135 101.502 74.2244L101.498 74.2203Z" fill="#E5EBF0" stroke="#E5EBF0" stroke-width="0.414061" stroke-miterlimit="10"/>
<path d="M86.9397 57.1734C88.2109 57.6537 89.5607 57.898 90.9188 57.898C91.5772 57.8815 92.2314 57.7862 92.8649 57.6165C93.4984 57.4177 94.1112 57.1569 94.695 56.838C95.9165 56.2294 97.1256 55.6 98.2725 54.8837C98.5499 54.7139 98.8108 54.5193 99.051 54.2998C99.2911 54.0763 99.5064 53.8278 99.6969 53.5587C100.115 53.0245 100.326 52.3579 100.289 51.683C100.475 52.3827 100.38 53.1239 100.032 53.7533C99.8625 54.0763 99.6555 54.3785 99.4236 54.6559C99.1917 54.9251 98.9309 55.1694 98.6452 55.3805C97.5272 56.2045 96.3306 56.9209 95.076 57.5212C94.4425 57.8566 93.7758 58.1216 93.0802 58.2997C92.3763 58.4612 91.6558 58.5191 90.9395 58.4694C89.5151 58.3825 88.1363 57.9353 86.9355 57.1693L86.9397 57.1734Z" fill="#E5EBF0" stroke="#E5EBF0" stroke-width="0.414061" stroke-miterlimit="10"/>
<path d="M87.9216 67.6533C88.5219 67.2475 89.143 66.8748 89.76 66.5229C90.3769 66.2206 90.9525 65.8397 91.4742 65.3925C91.7019 65.173 91.8758 64.908 91.9876 64.614C92.029 64.4898 92.0539 64.3573 92.058 64.2248V64.0219L91.9628 63.7569C91.8303 63.0696 91.6647 62.3781 91.4783 61.7322V61.6618C91.3955 61.463 91.2837 61.2767 91.1429 61.1152C90.9773 60.9123 90.791 60.7302 90.5881 60.5604C90.1658 60.2126 89.7144 59.902 89.2424 59.6246C88.2776 59.0366 87.2715 58.5149 86.2363 58.0677C86.8077 58.1588 87.3667 58.2996 87.9133 58.4901C88.4557 58.6806 88.9898 58.9 89.5115 59.1443C90.0622 59.3845 90.584 59.6784 91.0684 60.0304C91.3127 60.2126 91.5404 60.4196 91.7475 60.6473C91.9959 60.9041 92.174 61.2229 92.2692 61.5666V61.4962C92.4969 62.1959 92.6667 62.9123 92.7826 63.6369L92.8199 63.9019V64.2373C92.8075 64.4608 92.7578 64.6803 92.6708 64.8832C92.4928 65.2641 92.2236 65.5995 91.8924 65.8562C91.5984 66.1005 91.2713 66.3034 90.9194 66.4566L89.938 66.8707C89.2673 67.144 88.6048 67.409 87.9216 67.6491V67.6533Z" fill="#E5EBF0" stroke="#E5EBF0" stroke-width="0.414061" stroke-miterlimit="10"/>
<path d="M75.9838 65.5954L69.5162 67.5042C67.9014 67.9928 66.1582 67.8479 64.6468 67.0984C63.2225 66.4525 61.384 65.6327 61.384 65.6327C60.175 65.0985 59.3013 64.0096 59.0487 62.7094C58.5105 60.4362 58.5105 59.4218 60.5062 58.3245C62.502 57.2272 64.9408 55.8484 64.9408 55.8484C64.9408 55.8484 66.2865 54.8919 68.9158 55.9478C71.541 57.0078 75.8016 58.8752 75.8016 58.8752C75.8016 58.8752 77.0397 59.3514 78.1369 61.7281C79.2342 64.1048 78.4558 64.8998 75.988 65.5913L75.9838 65.5954Z" stroke="#E5EBF0" stroke-width="0.414061" stroke-miterlimit="10"/>
<path d="M83.0188 56.7468C82.5674 56.9746 82.1078 57.1899 81.6565 57.4011C81.2052 57.6122 80.7456 57.8358 80.286 58.0304C79.2384 58.519 78.0335 58.5563 76.961 58.1298C75.9259 57.7033 74.9818 57.31 74.0005 56.8835C72.0461 56.0512 70.1042 55.1858 68.2037 54.2501C67.8062 54.101 67.4335 53.894 67.0981 53.6331C66.7545 53.3847 66.4646 53.0658 66.2576 52.6973C66.092 52.3205 65.9677 51.9313 65.8849 51.5297C65.7938 51.1405 65.7441 50.743 65.7441 50.3455C65.8228 50.7305 65.9305 51.1073 66.0713 51.4758C66.1996 51.8402 66.3652 52.188 66.5681 52.511C67.0236 53.0948 67.6612 53.513 68.3734 53.7035C70.3692 54.4819 72.3318 55.3101 74.2779 56.1713C75.2427 56.5936 76.2489 57.0532 77.1598 57.4797C78.0625 57.9104 79.0976 57.9683 80.0417 57.6371C80.5178 57.4673 80.9981 57.3348 81.4826 57.1775C81.967 57.0201 82.526 56.8504 83.0188 56.7427V56.7468Z" fill="#E5EBF0" stroke="#E5EBF0" stroke-width="0.414061" stroke-miterlimit="10"/>
<path d="M85.7307 57.0243C85.0144 57.3969 84.2815 57.7323 83.5486 58.076L82.443 58.5729C82.0869 58.6971 81.7516 58.871 81.4451 59.0863C81.1553 59.2809 80.9276 59.55 80.7744 59.8647C80.6336 60.1753 80.5756 60.5189 80.6129 60.8626C80.6253 61.6452 80.6791 62.4236 80.7744 63.1979V63.2683C80.8241 63.5002 80.9193 63.7155 81.0477 63.9142C81.1967 64.1544 81.3665 64.378 81.5611 64.585C81.9751 65.0156 82.4265 65.409 82.9151 65.7527C83.8964 66.4938 84.8694 67.2557 85.8218 68.088C84.7204 67.5124 83.6438 66.8996 82.588 66.2495C82.029 65.9266 81.5073 65.5415 81.0311 65.1026C80.7868 64.8666 80.5715 64.6057 80.3852 64.3242C80.1574 64.0136 80.0166 63.6492 79.9794 63.2642V63.3345C79.8552 62.5189 79.8013 61.6949 79.8096 60.8709C79.7806 60.4071 79.88 59.9434 80.0994 59.5293C80.323 59.1277 80.646 58.7882 81.0435 58.548C81.412 58.3327 81.8054 58.1671 82.2194 58.0553L83.3705 57.6909C84.1738 57.4507 84.9522 57.2064 85.7307 57.0118V57.0243Z" fill="#E5EBF0" stroke="#E5EBF0" stroke-width="0.414061" stroke-miterlimit="10"/>
<path d="M85.0601 69.3261C83.8841 68.7174 82.7248 68.0963 81.5778 67.4338C81.2963 67.2847 80.9691 67.0736 80.7456 66.9659C80.464 66.8583 80.17 66.7961 79.8719 66.7713C79.2549 66.7258 78.6297 66.7879 78.0335 66.9493C76.812 67.3096 75.5077 67.6822 74.2489 68.0176C72.9861 68.353 71.6942 68.6967 70.4147 69.0155C69.951 69.0818 69.4955 69.2143 69.069 69.4047C68.6591 69.5538 68.3403 69.8768 68.1871 70.2867C68.1747 70.5186 68.1747 70.7546 68.1871 70.9864V73.2679C68.1001 72.771 68.0297 72.2783 67.9676 71.7814L67.8683 71.0403C67.8144 70.7836 67.7937 70.5227 67.7979 70.2618C67.9387 69.7029 68.3196 69.2308 68.8413 68.9824C69.3051 68.7298 69.8061 68.5393 70.3195 68.4234C71.5824 68.0383 72.8453 67.6698 74.104 67.3096C75.3835 66.9452 76.6215 66.6181 77.9465 66.2744C78.6256 66.1129 79.3336 66.0757 80.0251 66.1751C80.3853 66.233 80.7331 66.3407 81.0602 66.4939C81.4039 66.7051 81.6192 66.8748 81.9091 67.0611C82.9235 67.7609 83.9959 68.5393 85.0559 69.3261H85.0601Z" fill="#E5EBF0" stroke="#E5EBF0" stroke-width="0.414061" stroke-miterlimit="10"/>
<path d="M66.6138 73.7524C66.1914 72.9326 65.8353 72.1003 65.4668 71.2515C65.2474 70.6677 64.912 70.1377 64.4772 69.6946C64.03 69.2392 63.5 68.8665 62.9204 68.6057C61.6823 68.0467 60.465 67.4546 59.2683 66.8003C58.9951 66.6596 58.7052 66.5602 58.403 66.5105C58.0841 66.4732 57.757 66.4732 57.4382 66.5105C56.7757 66.6057 56.1339 66.8335 55.5625 67.1813C55.8192 66.9453 56.1008 66.7424 56.403 66.5726C56.7094 66.3987 57.0366 66.2662 57.3761 66.1751C57.728 66.084 58.0883 66.0468 58.4526 66.0675C58.8336 66.0799 59.2062 66.171 59.5499 66.3325C60.8211 66.8293 62.0674 67.3842 63.3054 67.968C63.9679 68.2785 64.56 68.7216 65.0445 69.2681C65.5331 69.823 65.885 70.4855 66.0714 71.2018C66.2577 71.9554 66.4606 72.8456 66.6179 73.7566L66.6138 73.7524Z" fill="#E5EBF0" stroke="#E5EBF0" stroke-width="0.414061" stroke-miterlimit="10"/>
<path d="M51.7322 56.9954C53.0116 57.4467 54.3615 57.6662 55.7196 57.633C56.3779 57.6082 57.0321 57.5047 57.6657 57.3225C58.295 57.1237 58.9037 56.8629 59.4792 56.544C60.6883 55.9147 61.8849 55.2605 63.0153 54.5193C63.2927 54.3495 63.5536 54.1508 63.7938 53.9272C64.0298 53.6912 64.2409 53.4303 64.4231 53.1487C64.8289 52.6105 65.0277 51.9397 64.978 51.2648C65.185 51.9563 65.1105 52.7016 64.7668 53.3351C64.6053 53.658 64.4107 53.9644 64.183 54.246C63.9552 54.5358 63.6944 54.7967 63.4045 55.0244C62.2949 55.8733 61.1065 56.6144 59.8602 57.2438C59.2308 57.5751 58.5683 57.8359 57.881 58.0222C57.1812 58.192 56.4607 58.2624 55.7403 58.2334C54.32 58.1672 52.9412 57.7407 51.728 56.9954H51.7322Z" fill="#E5EBF0" stroke="#E5EBF0" stroke-width="0.414061" stroke-miterlimit="10"/>
<path d="M52.9164 67.4337C53.5085 67.0279 54.1171 66.6553 54.7299 66.2743C55.3386 65.9596 55.91 65.5704 56.4193 65.115C56.6429 64.8996 56.8168 64.6305 56.9162 64.3365C56.9576 64.2082 56.9783 64.0757 56.9783 63.939V63.7444L56.9327 63.4877C56.7837 62.8004 56.6056 62.1089 56.4028 61.4712V61.4257C56.3241 61.2269 56.2123 61.0447 56.0674 60.8874C55.8976 60.6886 55.7071 60.5065 55.5084 60.3408C55.0778 60.0054 54.6181 59.7032 54.1378 59.4382C53.1648 58.8585 52.1462 58.3533 51.0986 57.9186C51.67 58.0014 52.2332 58.1339 52.7797 58.3161C53.3263 58.49 53.8646 58.697 54.3904 58.933C54.937 59.1649 55.4587 59.4506 55.9473 59.7901C56.1999 59.9682 56.4359 60.1711 56.647 60.3988C56.8996 60.6514 57.0859 60.9619 57.1853 61.3015V61.2311C57.4296 61.9267 57.6118 62.6389 57.7402 63.3676L57.794 63.6326V63.968C57.7857 64.1916 57.7402 64.4111 57.6615 64.6222C57.4959 64.999 57.2474 65.3344 56.9369 65.6035C56.6429 65.8478 56.3158 66.059 55.9721 66.2288L54.9825 66.6553C54.2413 66.9285 53.5871 67.2101 52.9122 67.442L52.9164 67.4337Z" fill="#E5EBF0" stroke="#E5EBF0" stroke-width="0.414061" stroke-miterlimit="10"/>
<path d="M145.927 67.9183L139.431 69.7195C137.807 70.1749 136.073 69.9969 134.578 69.2226C133.162 68.5435 131.336 67.6657 131.336 67.6657C130.118 67.1233 129.245 66.0178 129 64.7052C128.508 62.4154 128.532 61.4093 130.557 60.3493C132.582 59.2893 135.021 57.9519 135.021 57.9519C135.021 57.9519 136.391 57.0161 138.996 58.1216C141.596 59.2272 145.836 61.1774 145.836 61.1774C145.836 61.1774 147.058 61.6743 148.171 64.0758C149.285 66.4732 148.412 67.2765 145.927 67.9224V67.9183Z" stroke="#E5EBF0" stroke-width="0.414061" stroke-miterlimit="10"/>
<path d="M153.123 59.1774C152.672 59.3968 152.212 59.6039 151.753 59.8068C151.293 60.0097 150.833 60.2291 150.365 60.4154C149.305 60.8833 148.101 60.8957 147.032 60.4527C146.005 60.0097 145.07 59.6039 144.097 59.1608C142.163 58.2789 140.242 57.3845 138.349 56.4197C137.956 56.2583 137.583 56.0429 137.252 55.7821C136.925 55.5254 136.66 55.2024 136.474 54.8297C136.308 54.453 136.188 54.0596 136.113 53.6538C136.031 53.2646 135.989 52.8671 135.989 52.4696C136.064 52.8547 136.171 53.2356 136.3 53.6083C136.424 53.9726 136.581 54.3205 136.776 54.6517C137.223 55.2438 137.853 55.6744 138.569 55.8732C140.548 56.6516 142.465 57.5543 144.428 58.4528C145.38 58.8958 146.382 59.372 147.285 59.815C148.179 60.2581 149.21 60.3368 150.158 60.0262C150.635 59.8606 151.123 59.7364 151.608 59.5914C152.092 59.4424 152.635 59.3016 153.127 59.1774H153.123Z" fill="#E5EBF0" stroke="#E5EBF0" stroke-width="0.414061" stroke-miterlimit="10"/>
<path d="M155.844 59.5336C155.119 59.8938 154.378 60.2126 153.641 60.548L152.527 61.0242C152.171 61.1443 151.835 61.3099 151.521 61.5169C151.227 61.7115 150.991 61.9807 150.833 62.2954C150.693 62.6059 150.626 62.9496 150.647 63.2932C150.647 64.0758 150.693 64.8543 150.771 65.6285V65.6989C150.817 65.9267 150.904 66.1461 151.028 66.3449C151.173 66.5892 151.343 66.821 151.533 67.0322C151.943 67.467 152.386 67.8645 152.866 68.2247C153.844 68.9783 154.796 69.7567 155.723 70.56C154.639 69.9596 153.583 69.322 152.531 68.6595C151.985 68.3282 151.479 67.9349 151.028 67.4835C150.788 67.2475 150.573 66.9867 150.39 66.7051C150.179 66.3863 150.047 66.0178 150.009 65.6368V65.7072C149.902 64.8915 149.856 64.0675 149.877 63.2436C149.86 62.7798 149.968 62.3202 150.187 61.9103C150.419 61.5086 150.755 61.1732 151.152 60.9372C151.529 60.7343 151.931 60.577 152.345 60.4693L153.496 60.1257C154.283 59.9394 155.061 59.7116 155.839 59.5336H155.844Z" fill="#E5EBF0" stroke="#E5EBF0" stroke-width="0.414061" stroke-miterlimit="10"/>
<path d="M154.933 71.8187C153.774 71.1894 152.598 70.5476 151.488 69.8644C151.215 69.707 150.888 69.5 150.664 69.3799C150.387 69.2681 150.097 69.1936 149.799 69.1688C149.182 69.1108 148.557 69.1563 147.952 69.3095C146.731 69.6449 145.422 69.9969 144.151 70.3157C142.88 70.6345 141.588 70.9451 140.304 71.2349C139.836 71.297 139.381 71.4212 138.95 71.6076C138.536 71.7442 138.209 72.0589 138.056 72.4647C138.039 72.6965 138.039 72.9326 138.056 73.1644V75.4459C137.986 74.949 137.923 74.4563 137.87 73.9594L137.783 73.181C137.741 72.9243 137.721 72.6634 137.729 72.4026C137.874 71.8436 138.267 71.3798 138.797 71.1397C139.265 70.8912 139.766 70.7091 140.284 70.6014C141.551 70.2412 142.822 69.8934 144.093 69.558C145.377 69.2143 146.619 68.912 147.989 68.5932C148.677 68.4441 149.385 68.4234 150.076 68.5311C150.432 68.5932 150.776 68.7091 151.095 68.8748C151.438 69.0859 151.654 69.2557 151.935 69.4503C152.838 70.2122 153.89 71.0072 154.933 71.8187Z" fill="#E5EBF0" stroke="#E5EBF0" stroke-width="0.414061" stroke-miterlimit="10"/>
<path d="M136.412 75.9097C136.006 75.0733 135.641 74.2328 135.314 73.3839C135.103 72.7918 134.776 72.2494 134.35 71.7857C133.907 71.3219 133.377 70.941 132.793 70.6718C131.571 70.088 130.362 69.4711 129.178 68.7962C128.909 68.6512 128.619 68.5519 128.321 68.5022C128.002 68.4483 127.679 68.4318 127.356 68.4566C126.689 68.5394 126.048 68.7548 125.464 69.086C125.725 68.8583 126.015 68.6637 126.321 68.5022C126.632 68.3324 126.959 68.1999 127.302 68.113C127.658 68.0343 128.023 68.0053 128.387 68.026C128.764 68.0508 129.137 68.1461 129.476 68.3076C130.739 68.821 131.977 69.4048 133.199 70.0052C133.857 70.3282 134.441 70.7836 134.913 71.3468C135.393 71.9099 135.737 72.5765 135.911 73.2929C136.089 74.0961 136.275 74.9988 136.416 75.9097H136.412Z" fill="#E5EBF0" stroke="#E5EBF0" stroke-width="0.414061" stroke-miterlimit="10"/>
<path d="M121.837 58.8711C123.108 59.3514 124.458 59.5957 125.816 59.5957C126.474 59.5791 127.129 59.4797 127.762 59.3058C128.4 59.1112 129.013 58.8504 129.592 58.5274C130.814 57.9187 132.023 57.2894 133.17 56.573C133.447 56.4033 133.708 56.2087 133.948 55.9892C134.188 55.7532 134.408 55.4923 134.594 55.2108C135.004 54.6766 135.211 54.0142 135.178 53.3392C135.368 54.0349 135.277 54.7802 134.921 55.4095C134.756 55.7284 134.553 56.0306 134.321 56.3039C134.089 56.5772 133.828 56.8215 133.542 57.0368C132.416 57.8649 131.22 58.5895 129.961 59.1941C129.327 59.5253 128.656 59.7862 127.965 59.9725C127.261 60.134 126.536 60.1919 125.816 60.1422C124.404 60.0594 123.034 59.6164 121.837 58.8628V58.8711Z" fill="#E5EBF0" stroke="#E5EBF0" stroke-width="0.414061" stroke-miterlimit="10"/>
<path d="M122.826 69.3425C123.427 68.9367 124.048 68.5641 124.665 68.2121C125.282 67.9099 125.857 67.5289 126.379 67.0817C126.611 66.8664 126.785 66.5973 126.893 66.3033C126.934 66.175 126.959 66.0425 126.963 65.9058V65.7112L126.909 65.4545C126.777 64.7672 126.615 64.0757 126.416 63.4215V63.3759C126.342 63.173 126.234 62.9908 126.089 62.8293C125.919 62.6306 125.737 62.4443 125.534 62.2745C125.108 61.9267 124.652 61.6161 124.18 61.3387C123.22 60.7466 122.218 60.2249 121.183 59.7819C121.75 59.8688 122.309 60.0096 122.851 60.2042C123.381 60.3905 123.903 60.6058 124.408 60.8501C124.959 61.0862 125.481 61.3843 125.965 61.7362C126.213 61.9184 126.441 62.1254 126.652 62.3532C126.897 62.6099 127.075 62.9246 127.174 63.2641V63.202C127.398 63.9018 127.567 64.6139 127.688 65.3386L127.725 65.6118V65.9472C127.712 66.1708 127.663 66.3861 127.576 66.5932C127.41 66.97 127.158 67.3012 126.835 67.5579C126.536 67.8022 126.205 68.0092 125.853 68.1666L124.855 68.5807C124.168 68.8456 123.51 69.1106 122.822 69.3425H122.826Z" fill="#E5EBF0" stroke="#E5EBF0" stroke-width="0.414061" stroke-miterlimit="10"/>
<path d="M75.5039 41.4515L81.9757 39.5593C83.5905 39.0748 85.3296 39.2239 86.8368 39.9816C88.2611 40.6358 90.0996 41.4598 90.0996 41.4598C91.3086 41.994 92.1782 43.0829 92.4349 44.3831C92.9566 46.6646 92.9566 47.6707 90.9567 48.768C88.9568 49.8653 86.5221 51.2317 86.5221 51.2317C86.5221 51.2317 85.1764 52.184 82.5471 51.124C79.922 50.064 75.6696 48.1635 75.6696 48.1635C75.6696 48.1635 74.4315 47.6873 73.3343 45.3064C72.237 42.9215 73.032 42.1347 75.4998 41.4598L75.5039 41.4515Z" stroke="#E5EBF0" stroke-width="0.414061" stroke-miterlimit="10"/>
<path d="M68.4355 50.3042C68.8869 50.0723 69.3465 49.8611 69.8061 49.65C70.2657 49.4388 70.717 49.2235 71.1766 49.0247C72.2325 48.5444 73.4333 48.5154 74.5098 48.9378C75.5367 49.3643 76.4808 49.7576 77.4704 50.1924C79.4082 51.0329 81.3667 51.9066 83.2506 52.8506C83.644 53.0038 84.0125 53.215 84.3479 53.4759C84.6999 53.7202 84.9856 54.0431 85.1884 54.4199C85.3541 54.7926 85.4824 55.1818 85.5611 55.5793C85.6522 55.9685 85.7019 56.3702 85.7019 56.7718C85.6191 56.3867 85.5114 56.0058 85.3748 55.6331C85.2506 55.2729 85.0849 54.9292 84.882 54.6063C84.4224 54.0224 83.7889 53.596 83.0767 53.3972C81.0892 52.6188 79.1266 51.7865 77.1805 50.9128C76.2157 50.4864 75.2096 50.0268 74.2986 49.5878C73.4001 49.1572 72.365 49.0993 71.4251 49.4222C70.9489 49.5878 70.4603 49.7162 69.9841 49.8735C69.508 50.0309 68.9241 50.1717 68.4355 50.3V50.3042Z" fill="#E5EBF0" stroke="#E5EBF0" stroke-width="0.414061" stroke-miterlimit="10"/>
<path d="M65.7238 49.9853C66.4401 49.6127 67.1813 49.2856 67.9059 48.9419L69.0114 48.4492C69.3675 48.325 69.707 48.1511 70.0176 47.9357C70.618 47.5589 70.9451 46.8716 70.8581 46.1677C70.8457 45.3851 70.7919 44.6067 70.7008 43.8324V43.762C70.6594 43.5301 70.5683 43.3107 70.4358 43.1161C70.2909 42.8718 70.117 42.644 69.9223 42.437C69.5124 42.0023 69.0611 41.6089 68.5766 41.2611C67.5953 40.5241 66.6306 39.7456 65.6782 38.9258C66.7672 39.5055 67.8438 40.1266 68.9038 40.7808C69.4627 41.1037 69.9845 41.4888 70.4606 41.9277C70.7008 42.1637 70.912 42.4246 71.0983 42.7062C71.326 43.0208 71.4627 43.3894 71.5041 43.7744V43.704C71.6283 44.5197 71.6821 45.3437 71.6697 46.1677C71.6945 46.6315 71.5952 47.0911 71.3798 47.501C71.1521 47.9068 70.825 48.2421 70.4275 48.4823C70.059 48.7018 69.6573 48.8674 69.2433 48.975L68.0963 49.3353C67.2765 49.5671 66.5063 49.8032 65.7196 49.9978L65.7238 49.9853Z" fill="#E5EBF0" stroke="#E5EBF0" stroke-width="0.414061" stroke-miterlimit="10"/>
<path d="M66.4438 37.6835C67.6115 38.3004 68.7792 38.9215 69.9178 39.5923C70.1911 39.7497 70.5182 39.9525 70.7501 40.0602C71.0275 40.1679 71.3173 40.2341 71.6155 40.2548C72.2366 40.3045 72.8618 40.2465 73.4622 40.085C74.6795 39.7331 75.9797 39.3687 77.2467 39.0333C78.5179 38.6979 79.8015 38.3626 81.0809 38.052C81.5446 37.9858 82.0001 37.8533 82.4266 37.6628C82.8324 37.5137 83.1595 37.1949 83.3127 36.7891C83.3251 36.5572 83.3251 36.3212 83.3127 36.0894V33.8162C83.3996 34.3089 83.47 34.8058 83.5321 35.2944L83.6274 36.0728C83.6812 36.3295 83.7019 36.5904 83.6895 36.8512C83.557 37.4144 83.1719 37.8864 82.646 38.1307C82.1823 38.3833 81.6813 38.5737 81.1678 38.6897C79.905 39.0747 78.6421 39.4391 77.375 39.7869C76.0956 40.1513 74.8576 40.4743 73.5326 40.8138C72.8494 40.9711 72.1455 41.0001 71.454 40.909C71.0979 40.8552 70.7501 40.7434 70.4271 40.5819C70.0752 40.3707 69.8599 40.201 69.57 40.0147C68.597 39.2611 67.5038 38.4785 66.448 37.6835H66.4438Z" fill="#E5EBF0" stroke="#E5EBF0" stroke-width="0.414061" stroke-miterlimit="10"/>
<path d="M84.8984 33.3193C85.3208 34.1433 85.6769 34.9797 86.0371 35.8285C86.2566 36.4082 86.5961 36.9382 87.0267 37.3854C87.4739 37.845 87.9998 38.2135 88.5836 38.4744C89.8133 39.0416 91.039 39.642 92.2315 40.2963C92.4965 40.4412 92.7863 40.5405 93.0886 40.5861C93.4074 40.6234 93.7345 40.6234 94.0533 40.5861C94.72 40.4909 95.3618 40.2673 95.9373 39.9236C95.4156 40.3915 94.7904 40.7352 94.1154 40.9298C93.7635 41.0126 93.4032 41.0498 93.0389 41.0291C92.6579 41.0126 92.2853 40.9215 91.9416 40.7641C90.6704 40.2673 89.4241 39.7041 88.1944 39.1203C87.536 38.8056 86.948 38.3626 86.4636 37.8119C85.9709 37.2612 85.6189 36.5987 85.445 35.8782C85.238 35.0791 85.0558 34.2261 84.8984 33.3152V33.3193Z" fill="#E5EBF0" stroke="#E5EBF0" stroke-width="0.414061" stroke-miterlimit="10"/>
<path d="M99.7555 50.1303C98.476 49.6748 97.1262 49.4512 95.7681 49.4678C95.1138 49.5009 94.4596 49.6044 93.8303 49.7783C93.1967 49.9771 92.5881 50.238 92.0084 50.5568C90.7911 51.1696 89.611 51.8404 88.464 52.5733C88.1825 52.7389 87.9216 52.9376 87.6856 53.1654C87.4454 53.4014 87.2301 53.6622 87.0479 53.9438C86.6463 54.4821 86.4476 55.1487 86.489 55.8195C86.2902 55.1239 86.373 54.3827 86.7167 53.7492C86.874 53.4262 87.0728 53.124 87.3005 52.8465C87.5283 52.5567 87.7891 52.2958 88.079 52.0681C89.1886 51.2234 90.377 50.4823 91.6233 49.857C92.2568 49.5258 92.9193 49.2649 93.6108 49.0786C94.3106 48.9088 95.031 48.8426 95.7515 48.8757C97.1759 48.9461 98.5547 49.3767 99.7637 50.1303H99.7555Z" fill="#E5EBF0" stroke="#E5EBF0" stroke-width="0.414061" stroke-miterlimit="10"/>
<path d="M98.5746 39.6836C97.9825 40.0894 97.3656 40.462 96.761 40.8347C96.1482 41.1452 95.5768 41.5344 95.0634 41.994C94.8398 42.2135 94.6659 42.4785 94.5582 42.7725C94.5168 42.9008 94.4961 43.0333 94.4961 43.17V43.3729L94.5417 43.6296C94.6907 44.3086 94.8605 45.0001 95.0634 45.6461V45.6916C95.1421 45.8904 95.2539 46.0725 95.3988 46.2299C95.5685 46.4286 95.759 46.615 95.9578 46.7847C96.3925 47.1243 96.848 47.4265 97.3283 47.6957C98.2972 48.2753 99.3075 48.7805 100.351 49.2153C99.7795 49.1407 99.2206 49.0082 98.674 48.826C98.1233 48.6439 97.585 48.4368 97.0633 48.1967C96.5167 47.9648 95.995 47.6791 95.5064 47.3396C95.258 47.1574 95.0261 46.9545 94.815 46.7309C94.5624 46.4783 94.3802 46.1636 94.285 45.82V45.8904C94.0489 45.1947 93.8626 44.4784 93.7301 43.7538L93.6846 43.4888V43.1534C93.6929 42.9298 93.7384 42.7062 93.8254 42.4992C93.991 42.1224 94.2394 41.7912 94.55 41.5262C94.8439 41.2777 95.1669 41.0665 95.5147 40.9009L96.5126 40.4744C97.2372 40.1929 97.8997 39.9155 98.5788 39.6794L98.5746 39.6836Z" fill="#E5EBF0" stroke="#E5EBF0" stroke-width="0.414061" stroke-miterlimit="10"/>
<path d="M112.442 78.924L118.914 76.9986C120.529 76.5142 122.268 76.6632 123.775 77.421C125.199 78.0752 127.029 78.8992 127.029 78.8992C128.238 79.4333 129.112 80.5223 129.365 81.8224C129.886 84.1039 129.878 85.1101 127.886 86.199C125.891 87.288 123.452 88.6668 123.452 88.6668C123.452 88.6668 122.098 89.6192 119.477 88.5509C116.856 87.4826 112.591 85.5987 112.591 85.5987C112.591 85.5987 111.361 85.1225 110.256 82.7416C109.15 80.3566 109.958 79.6113 112.438 78.924H112.442Z" stroke="#E5EBF0" stroke-width="0.414061" stroke-miterlimit="10"/>
<path d="M105.378 87.7725C105.829 87.5447 106.289 87.3377 106.74 87.1265C107.192 86.9153 107.651 86.6918 108.119 86.5013C109.171 86.021 110.376 85.992 111.452 86.4143C112.479 86.8408 113.423 87.1928 114.405 87.6689C116.351 88.5095 118.301 89.3749 120.193 90.3272C120.587 90.4845 120.955 90.6916 121.291 90.9524C121.638 91.1967 121.928 91.5197 122.131 91.8965C122.442 92.6377 122.616 93.4285 122.645 94.2318C122.566 93.8426 122.454 93.4616 122.309 93.0931C122.189 92.7288 122.023 92.381 121.816 92.058C121.357 91.4742 120.719 91.056 120.003 90.8655C118.007 90.0871 116.053 89.2465 114.107 88.3811C113.142 87.9546 112.136 87.495 111.225 87.0561C110.322 86.6255 109.287 86.5675 108.343 86.8905C107.867 87.0603 107.386 87.1928 106.902 87.3418C106.417 87.4909 105.867 87.64 105.374 87.7683L105.378 87.7725Z" fill="#E5EBF0" stroke="#E5EBF0" stroke-width="0.414061" stroke-miterlimit="10"/>
<path d="M102.666 87.462C103.382 87.0894 104.115 86.7623 104.848 86.4186L105.954 85.9259C106.31 85.7975 106.645 85.6236 106.96 85.4124C107.25 85.2178 107.478 84.9487 107.631 84.634C107.772 84.3193 107.829 83.9798 107.801 83.6361C107.788 82.8535 107.734 82.0751 107.643 81.3008V81.2304C107.598 80.9985 107.507 80.7832 107.378 80.5845C107.229 80.3443 107.059 80.1207 106.865 79.9137C106.455 79.4789 106.003 79.0856 105.519 78.7378C104.538 77.9966 103.573 77.2182 102.621 76.4025C103.71 76.978 104.786 77.6032 105.838 78.2575C106.401 78.5763 106.923 78.9614 107.395 79.4044C107.635 79.6404 107.854 79.9013 108.041 80.1828C108.268 80.4975 108.405 80.866 108.438 81.2511V81.1807C108.554 81.9964 108.608 82.8204 108.604 83.6444C108.629 84.1081 108.529 84.5677 108.31 84.9777C108.086 85.3793 107.763 85.7188 107.366 85.959C106.993 86.1743 106.596 86.3399 106.182 86.4517L105.035 86.812C104.215 87.0438 103.453 87.2798 102.666 87.4744V87.462Z" fill="#E5EBF0" stroke="#E5EBF0" stroke-width="0.414061" stroke-miterlimit="10"/>
<path d="M103.374 75.1603C104.55 75.7772 105.709 76.3983 106.856 77.0691C107.13 77.2182 107.457 77.4293 107.689 77.537C107.966 77.6488 108.256 77.715 108.554 77.7316C109.171 77.7813 109.796 77.7233 110.392 77.5618C111.614 77.2099 112.918 76.8372 114.185 76.5101C115.456 76.183 116.732 75.8393 118.019 75.5288C118.483 75.4584 118.934 75.3259 119.365 75.1396C119.775 74.9905 120.098 74.6675 120.247 74.2576C120.264 74.0257 120.264 73.7897 120.247 73.5579V71.2847C120.334 71.7774 120.396 72.2743 120.466 72.7629L120.562 73.5413C120.611 73.798 120.632 74.0589 120.624 74.3197C120.487 74.8829 120.102 75.3507 119.58 75.5992C119.117 75.8559 118.62 76.0422 118.102 76.154C116.839 76.535 115.576 76.8993 114.309 77.2513C113.03 77.6115 111.792 77.9386 110.467 78.2782C109.784 78.4355 109.076 78.4645 108.38 78.3651C108.024 78.3154 107.676 78.2078 107.353 78.0463C107.009 77.8351 106.794 77.6653 106.504 77.479C105.506 76.7378 104.434 75.9594 103.382 75.1644L103.374 75.1603Z" fill="#E5EBF0" stroke="#E5EBF0" stroke-width="0.414061" stroke-miterlimit="10"/>
<path d="M121.837 70.7671C122.259 71.5455 122.615 72.4275 122.976 73.2763C123.199 73.856 123.535 74.386 123.965 74.8332C124.412 75.2886 124.942 75.6571 125.522 75.9221C126.752 76.4894 127.969 77.0898 129.17 77.744C129.439 77.8889 129.733 77.9842 130.035 78.0339C130.354 78.0711 130.677 78.0711 130.992 78.0339C131.663 77.9428 132.304 77.715 132.884 77.3714C132.623 77.6032 132.337 77.802 132.035 77.9717C131.725 78.1456 131.398 78.2781 131.054 78.3692C130.702 78.4603 130.342 78.4976 129.977 78.4686C129.601 78.4562 129.228 78.3692 128.888 78.2119C127.617 77.715 126.371 77.1519 125.141 76.5681C124.479 76.2534 123.887 75.8103 123.402 75.2596C122.913 74.7048 122.562 74.0423 122.383 73.326C122.176 72.5475 121.994 71.6946 121.837 70.7629V70.7671Z" fill="#E5EBF0" stroke="#E5EBF0" stroke-width="0.414061" stroke-miterlimit="10"/>
<path d="M136.665 87.611C135.385 87.1514 134.035 86.9279 132.677 86.9486C132.019 86.9734 131.365 87.0769 130.731 87.2591C130.102 87.4579 129.493 87.7187 128.918 88.0375C127.704 88.6462 126.52 89.317 125.373 90.0457C125.092 90.2196 124.831 90.4184 124.595 90.6461C124.355 90.8821 124.143 91.143 123.965 91.4246C123.556 91.9628 123.357 92.6336 123.406 93.3085C123.208 92.6129 123.291 91.8717 123.634 91.2382C123.792 90.9111 123.99 90.6088 124.218 90.3273C124.45 90.0499 124.711 89.8014 124.996 89.5861C126.123 88.7332 127.323 87.9878 128.586 87.3585C129.212 87.0231 129.878 86.7622 130.566 86.58C131.269 86.4103 131.994 86.3399 132.715 86.3771C134.114 86.4475 135.476 86.874 136.673 87.6069L136.665 87.611Z" fill="#E5EBF0" stroke="#E5EBF0" stroke-width="0.414061" stroke-miterlimit="10"/>
<path d="M135.518 77.1561C134.917 77.5702 134.308 77.9346 133.696 78.3155C133.083 78.626 132.516 79.0111 132.006 79.4666C131.783 79.686 131.609 79.951 131.501 80.245C131.46 80.3734 131.439 80.5059 131.439 80.6425V80.8371L131.485 81.0938C131.634 81.7812 131.803 82.4727 132.006 83.1186V83.1807C132.089 83.3795 132.205 83.5575 132.35 83.719C132.52 83.9177 132.706 84.0999 132.909 84.2655C133.34 84.6092 133.795 84.9156 134.271 85.1848C135.244 85.7644 136.255 86.2696 137.302 86.7044C136.731 86.6257 136.172 86.4932 135.625 86.3069C135.074 86.133 134.536 85.9259 134.014 85.6816C133.468 85.4498 132.946 85.1641 132.458 84.8245C132.209 84.6423 131.977 84.4394 131.766 84.2159C131.518 83.9591 131.331 83.6486 131.228 83.3049V83.3753C130.992 82.6797 130.81 81.9675 130.681 81.2429L130.636 80.9779V80.6425C130.644 80.4189 130.69 80.1995 130.768 79.9883C130.934 79.6115 131.182 79.2761 131.501 79.0153C131.795 78.7668 132.118 78.5556 132.466 78.39L133.455 77.9635C134.18 77.6737 134.809 77.3963 135.522 77.152L135.518 77.1561Z" fill="#E5EBF0" stroke="#E5EBF0" stroke-width="0.414061" stroke-miterlimit="10"/>
<path d="M111.051 41.0622L117.655 39.7165C119.303 39.3687 121.025 39.6668 122.462 40.5488L125.58 42.292C126.752 42.9172 127.543 44.0849 127.683 45.4099C128.019 47.7452 127.932 48.7265 125.845 49.6457C123.758 50.5649 121.224 51.7326 121.224 51.7326C121.224 51.7326 119.8 52.5648 117.274 51.2895C114.748 50.0101 110.661 47.77 110.661 47.77C110.661 47.77 109.469 47.1945 108.55 44.7225C107.631 42.2547 108.525 41.5384 111.051 41.0622Z" stroke="#E5EBF0" stroke-width="0.414061" stroke-miterlimit="10"/>
<path d="M103.266 49.2897C103.734 49.1034 104.21 48.9253 104.682 48.7514C105.158 48.5817 105.626 48.3995 106.098 48.2463C107.187 47.8529 108.388 47.9233 109.423 48.4409C110.421 48.9543 111.324 49.4222 112.268 49.9356C114.139 50.9418 115.99 51.9604 117.816 53.0535C118.193 53.2398 118.545 53.48 118.86 53.7616C119.191 54.0348 119.46 54.3785 119.638 54.7677C119.775 55.1528 119.866 55.5544 119.911 55.9602C119.973 56.3577 119.99 56.7594 119.957 57.161C119.907 56.7676 119.829 56.3826 119.725 56.0016C119.626 55.6331 119.493 55.277 119.319 54.9333C118.913 54.3123 118.317 53.8402 117.622 53.5877C115.704 52.6519 113.82 51.6498 111.949 50.6188C111.03 50.1137 110.065 49.5671 109.191 49.062C108.33 48.561 107.307 48.416 106.338 48.6562C105.854 48.7804 105.357 48.8756 104.864 48.9916C104.372 49.1075 103.759 49.2028 103.258 49.2938L103.266 49.2897Z" fill="#E5EBF0" stroke="#E5EBF0" stroke-width="0.414061" stroke-miterlimit="10"/>
<path d="M100.587 48.743C101.366 48.4324 102.099 48.1674 102.852 47.8859L103.999 47.4884C104.359 47.3931 104.711 47.2524 105.034 47.066C105.656 46.7348 106.041 46.0806 106.024 45.3767C106.065 44.5982 106.065 43.8198 106.024 43.0414V42.971C105.999 42.7391 105.929 42.5114 105.813 42.3085C105.689 42.0559 105.535 41.8157 105.362 41.5921C104.985 41.1243 104.571 40.6978 104.115 40.3086C103.196 39.4887 102.293 38.6399 101.42 37.7621C102.455 38.4329 103.478 39.1409 104.475 39.8738C104.997 40.2423 105.477 40.6729 105.9 41.1532C106.115 41.3934 106.31 41.6543 106.475 41.9317C106.674 42.2629 106.782 42.6397 106.786 43.0207V42.9503C106.84 43.7743 106.827 44.5982 106.749 45.4181C106.732 45.8818 106.591 46.3331 106.343 46.7265C106.086 47.1074 105.734 47.418 105.324 47.6209C104.935 47.8072 104.525 47.9397 104.103 48.0101L102.927 48.2751C102.177 48.4449 101.391 48.6188 100.592 48.743H100.587Z" fill="#E5EBF0" stroke="#E5EBF0" stroke-width="0.414061" stroke-miterlimit="10"/>
<path d="M102.331 36.5531C103.445 37.2611 104.55 37.9775 105.635 38.7435C105.892 38.9133 106.203 39.1493 106.414 39.2818C106.683 39.4101 106.969 39.5012 107.263 39.5468C107.875 39.6503 108.505 39.6503 109.118 39.5468C110.356 39.2983 111.689 39.0416 113.014 38.8139C114.339 38.5861 115.61 38.3543 116.91 38.1514C117.378 38.1224 117.838 38.0272 118.281 37.8698C118.699 37.7622 119.047 37.4765 119.237 37.0914C119.274 36.9133 119.291 36.6318 119.316 36.3916L119.378 35.6132C119.378 35.1163 119.457 34.6236 119.51 34.1267C119.548 34.6236 119.581 35.1246 119.597 35.6215V36.3999C119.622 36.6608 119.622 36.9216 119.597 37.1783C119.411 37.729 118.989 38.1638 118.446 38.3626C117.962 38.5737 117.453 38.7186 116.927 38.789C115.635 39.0623 114.347 39.3273 113.03 39.5675C111.714 39.8076 110.459 40.0354 109.134 40.2672C108.438 40.3666 107.73 40.3376 107.047 40.1803C106.695 40.0975 106.36 39.9608 106.049 39.7745C105.722 39.5426 105.519 39.348 105.271 39.1368C104.314 38.2963 103.317 37.4309 102.335 36.549L102.331 36.5531Z" fill="#E5EBF0" stroke="#E5EBF0" stroke-width="0.414061" stroke-miterlimit="10"/>
<path d="M121.083 33.75C121.435 34.5988 121.737 35.4642 122.011 36.3379C122.176 36.9424 122.462 37.5097 122.859 37.9983C123.261 38.4869 123.75 38.9009 124.3 39.2156C125.484 39.8864 126.636 40.5779 127.783 41.3356C128.039 41.5054 128.321 41.6296 128.615 41.7C128.929 41.7745 129.252 41.8076 129.571 41.7993C130.242 41.7662 130.9 41.5965 131.505 41.3025C131.232 41.5136 130.934 41.6917 130.619 41.8325C130.296 41.9815 129.956 42.085 129.604 42.1513C129.248 42.201 128.884 42.201 128.528 42.1513C128.151 42.1057 127.783 41.9815 127.451 41.7911C126.23 41.1824 125.029 40.5199 123.853 39.8284C123.22 39.464 122.665 38.9713 122.234 38.3792C121.791 37.7871 121.497 37.0997 121.377 36.371C121.282 35.576 121.158 34.6734 121.083 33.7541V33.75Z" fill="#E5EBF0" stroke="#E5EBF0" stroke-width="0.414061" stroke-miterlimit="10"/>
<path d="M134.457 51.7367C133.228 51.1736 131.911 50.8382 130.561 50.7471C129.907 50.7181 129.249 50.7678 128.607 50.8962C127.957 51.0452 127.327 51.2605 126.723 51.5338C125.468 52.0555 124.214 52.6021 123.021 53.2398C122.731 53.3888 122.458 53.5669 122.201 53.7698C121.945 53.9809 121.708 54.2128 121.501 54.4695C121.054 54.9705 120.802 55.6206 120.793 56.2914C120.653 55.5833 120.793 54.8463 121.191 54.2418C121.381 53.9312 121.601 53.6455 121.853 53.3847C122.11 53.128 122.392 52.9044 122.702 52.7139C123.882 51.9644 125.129 51.3227 126.425 50.8051C127.079 50.5152 127.762 50.2999 128.466 50.1674C129.182 50.0681 129.907 50.0681 130.623 50.1674C132.01 50.3662 133.327 50.9003 134.457 51.7326V51.7367Z" fill="#E5EBF0" stroke="#E5EBF0" stroke-width="0.414061" stroke-miterlimit="10"/>
<path d="M134.184 41.2279C133.559 41.5881 132.913 41.8987 132.276 42.2341C131.638 42.4867 131.038 42.8262 130.491 43.2402C130.251 43.4307 130.056 43.675 129.924 43.9483C129.874 44.0725 129.841 44.205 129.828 44.3375V44.7971C129.915 45.4886 130.031 46.1925 130.18 46.855V46.9254C130.243 47.1283 130.342 47.3187 130.47 47.4844C130.623 47.6955 130.797 47.8943 130.984 48.0765C131.385 48.4533 131.816 48.7969 132.267 49.1033C133.191 49.7576 134.155 50.3497 135.157 50.8714C134.598 50.743 134.048 50.5608 133.522 50.3331C132.988 50.1054 132.466 49.8445 131.965 49.5547C131.443 49.2772 130.951 48.946 130.499 48.5651C130.267 48.3663 130.052 48.1469 129.862 47.9108C129.634 47.6334 129.481 47.3022 129.41 46.9544V47.0248C129.232 46.3126 129.108 45.588 129.046 44.8592V44.2837C129.075 44.0601 129.141 43.8448 129.241 43.646C129.427 43.2858 129.692 42.9752 130.019 42.7351C130.334 42.5074 130.677 42.3293 131.038 42.1968L132.056 41.8531C132.806 41.6337 133.489 41.4101 134.184 41.2279Z" fill="#E5EBF0" stroke="#E5EBF0" stroke-width="0.414061" stroke-miterlimit="10"/>
<path d="M78.1286 77.4458L84.6004 75.5535C86.2152 75.0691 87.9543 75.2182 89.4615 75.9759C90.8858 76.6301 92.716 77.4541 92.716 77.4541C93.9251 77.9882 94.7987 79.0772 95.0513 80.3773C95.573 82.6588 95.573 83.665 93.5731 84.7623C91.5691 85.8595 89.1385 87.2259 89.1385 87.2259C89.1385 87.2259 87.7845 88.1783 85.1635 87.1183C82.5467 86.0583 78.2777 84.1577 78.2777 84.1577C78.2777 84.1577 77.0479 83.6816 75.9424 81.3007C74.8369 78.9157 75.6484 78.129 78.1245 77.4541L78.1286 77.4458Z" stroke="#E5EBF0" stroke-width="0.414061" stroke-miterlimit="10"/>
<path d="M71.061 86.286C71.5123 86.0583 71.9719 85.8512 72.4233 85.6401C72.8746 85.4289 73.3342 85.2136 73.8021 85.0148C74.858 84.5345 76.0587 84.5055 77.1353 84.9279C78.1622 85.3544 79.1062 85.7477 80.0875 86.1825C82.0336 87.023 83.9838 87.8967 85.8761 88.8408C86.2695 88.9981 86.638 89.2051 86.9734 89.466C87.3253 89.7103 87.611 90.0333 87.8139 90.41C88.1245 91.1512 88.2984 91.9421 88.3274 92.7454C88.2487 92.3561 88.1327 91.9793 87.992 91.6067C87.8719 91.2423 87.7063 90.8945 87.4992 90.5715C87.0396 89.9918 86.4102 89.5695 85.6981 89.3708C83.7023 88.5923 81.7479 87.7601 79.8018 86.8864C78.8371 86.4599 77.8309 86.0003 76.92 85.5614C76.0173 85.1308 74.9822 85.0728 74.0381 85.3958C73.5619 85.5614 73.0816 85.6939 72.5972 85.8471C72.1127 86.0003 71.5455 86.1494 71.0527 86.2819L71.061 86.286Z" fill="#E5EBF0" stroke="#E5EBF0" stroke-width="0.414061" stroke-miterlimit="10"/>
<path d="M68.3527 85.9755C69.069 85.6028 69.8019 85.2757 70.5348 84.932L71.6403 84.4393C71.9964 84.3151 72.3359 84.1412 72.6465 83.9259C73.2386 83.5408 73.5616 82.8576 73.487 82.1578C73.4746 81.3753 73.4208 80.5968 73.3297 79.8225V79.7604C73.2841 79.5286 73.193 79.3091 73.0647 79.1145C72.9198 78.8702 72.7459 78.6425 72.5513 78.4354C72.1413 78.0007 71.69 77.6073 71.2056 77.2595C70.2242 76.5183 69.2595 75.7399 68.3071 74.9242C69.3961 75.5039 70.4727 76.125 71.5327 76.7792C72.0792 77.1022 72.5885 77.4872 73.0523 77.9261C73.2924 78.1621 73.5119 78.423 73.6982 78.7046C73.9259 79.0193 74.0626 79.3878 74.0957 79.7728V79.7025C74.2116 80.5182 74.2655 81.3421 74.2613 82.1661C74.2862 82.6299 74.1868 83.0895 73.9673 83.4994C73.7479 83.9052 73.4208 84.2447 73.0233 84.4807C72.6506 84.696 72.2531 84.8617 71.8391 84.9735L70.6921 85.3337C69.9054 85.5821 69.1435 85.7933 68.3568 85.9879L68.3527 85.9755Z" fill="#E5EBF0" stroke="#E5EBF0" stroke-width="0.414061" stroke-miterlimit="10"/>
<path d="M69.0688 73.6737C70.2365 74.2906 71.4042 74.9117 72.5428 75.5825C72.8161 75.7316 73.1432 75.9428 73.3751 76.0504C73.6525 76.1581 73.9423 76.2243 74.2405 76.245C74.8574 76.2947 75.4827 76.2367 76.0789 76.0753C77.3004 75.7233 78.6047 75.3506 79.8717 75.0235C81.1429 74.6964 82.4182 74.3528 83.7059 74.0422C84.1696 73.976 84.6251 73.8435 85.0516 73.653C85.4574 73.5039 85.7803 73.1851 85.9335 72.7793C85.9501 72.5433 85.9501 72.3073 85.9335 72.0713V69.7981C86.0205 70.2908 86.0826 70.7877 86.153 71.2763L86.2482 72.0547C86.2979 72.3114 86.3186 72.5723 86.3103 72.8332C86.1778 73.3963 85.7928 73.8683 85.2669 74.1126C84.8032 74.3652 84.3021 74.5556 83.7887 74.6716C82.5258 75.0567 81.2629 75.421 79.9959 75.7689C78.7165 76.1332 77.4784 76.4562 76.1534 76.7957C75.4702 76.9531 74.7663 76.982 74.0748 76.8827C73.7146 76.833 73.3627 76.7253 73.0397 76.5638C72.696 76.3527 72.4807 76.1829 72.1909 75.9966C71.193 75.2471 70.1578 74.4687 69.073 73.6737H69.0688Z" fill="#E5EBF0" stroke="#E5EBF0" stroke-width="0.414061" stroke-miterlimit="10"/>
<path d="M87.5234 69.3094C87.9458 70.1334 88.3019 70.9698 88.6621 71.8186C88.8816 72.3983 89.2128 72.9283 89.6434 73.3755C90.0906 73.831 90.6206 74.1995 91.2003 74.4645C92.4301 75.0318 93.6474 75.6321 94.8482 76.2864C95.1173 76.4313 95.4113 76.5265 95.7136 76.5762C96.0324 76.6135 96.3595 76.6135 96.6783 76.5762C97.345 76.481 97.9867 76.2574 98.5623 75.9137C98.0364 76.3775 97.4153 76.7211 96.7404 76.9199C96.3843 77.0027 96.02 77.0399 95.6556 77.0192C95.2788 77.0027 94.9103 76.9116 94.5666 76.7542C93.2954 76.2574 92.0491 75.6943 90.8194 75.1104C90.1569 74.7957 89.5648 74.3527 89.0803 73.802C88.5917 73.2472 88.2398 72.5847 88.0617 71.8683C87.8588 71.0692 87.6808 70.2162 87.5234 69.3053V69.3094Z" fill="#E5EBF0" stroke="#E5EBF0" stroke-width="0.414061" stroke-miterlimit="10"/>
<path d="M102.347 86.1204C101.067 85.6649 99.7175 85.4413 98.3594 85.4579C97.701 85.4868 97.051 85.5904 96.4216 85.7684C95.7881 85.9672 95.1794 86.228 94.5997 86.5468C93.3824 87.1555 92.1982 87.8304 91.0554 88.5633C90.7738 88.7331 90.5129 88.9318 90.2769 89.1554C90.0409 89.3914 89.8297 89.6523 89.6475 89.9339C89.2418 90.4721 89.043 91.1388 89.0886 91.8095C88.8898 91.1139 88.9726 90.3728 89.3163 89.7392C89.4736 89.4121 89.6724 89.1099 89.9001 88.8283C90.132 88.5509 90.3929 88.3025 90.6786 88.0871C91.7924 87.2425 92.9807 86.5013 94.2312 85.8761C94.8606 85.5407 95.5272 85.2798 96.2187 85.0976C96.9185 84.9279 97.6389 84.8616 98.3594 84.8947C99.7755 84.9568 101.15 85.3792 102.355 86.1162L102.347 86.1204Z" fill="#E5EBF0" stroke="#E5EBF0" stroke-width="0.414061" stroke-miterlimit="10"/>
<path d="M101.2 75.6736C100.608 76.0794 99.9911 76.452 99.3782 76.8247C98.7654 77.1352 98.1982 77.5244 97.6889 77.984C97.4611 78.1994 97.2872 78.4685 97.1837 78.7625C97.1423 78.8908 97.1216 79.0233 97.1216 79.16V79.3629L97.1672 79.6196C97.3162 80.2986 97.486 80.9901 97.6889 81.6361V81.6692C97.7717 81.8679 97.8876 82.0501 98.0325 82.2075C98.2023 82.4062 98.3928 82.5884 98.5915 82.754C99.0222 83.0977 99.4776 83.4041 99.9538 83.6732C100.927 84.2529 101.937 84.7581 102.985 85.1928C102.413 85.1183 101.854 84.99 101.308 84.8036C100.757 84.6256 100.219 84.4144 99.6971 84.1743C99.1505 83.9424 98.6288 83.6567 98.1402 83.3171C97.8876 83.1391 97.6558 82.9362 97.4487 82.7085C97.1961 82.4518 97.014 82.1412 96.9104 81.7975V81.8679C96.6661 81.1723 96.484 80.4601 96.3556 79.7314L96.3101 79.4664V79.131C96.3183 78.9074 96.3639 78.6879 96.4426 78.4768C96.6082 78.1 96.8608 77.7687 97.1754 77.5037C97.4694 77.2553 97.7924 77.0441 98.1402 76.8785L99.1381 76.452C99.8627 76.2201 100.533 75.9055 101.204 75.6736H101.2Z" fill="#E5EBF0" stroke="#E5EBF0" stroke-width="0.414061" stroke-miterlimit="10"/>
</g>
<defs>
<clipPath id="clip0_515_2974">
<rect width="223.245" height="138.296" fill="white"/>
</clipPath>
</defs>
</svg>
