<?xml version="1.0" encoding="utf-8"?>
<!-- Generator: Adobe Illustrator 22.0.1, SVG Export Plug-In . SVG Version: 6.00 Build 0)  -->
<svg version="1.1" xmlns="http://www.w3.org/2000/svg" xmlns:xlink="http://www.w3.org/1999/xlink" x="0px" y="0px"
	 viewBox="0 0 267.8 184.3" style="enable-background:new 0 0 267.8 184.3;" xml:space="preserve">
<style type="text/css">
	.st0{fill:#241C28;}
	.st1{display:none;}
	.st2{display:inline;fill:#82AEDD;}
	.st3{display:inline;fill:#B9B5C6;}
	.st4{display:inline;fill:#FBFBFD;}
	.st5{display:inline;fill:#4F4E5C;}
	.st6{display:inline;fill:#D2D5E2;}
	.st7{display:inline;fill:#443C4F;}
	.st8{fill:none;stroke:#F0F2F5;stroke-miterlimit:10;}
	.st9{fill:#43455D;}
	.st10{fill:#82AEDD;}
	.st11{fill:none;stroke:#43455D;stroke-miterlimit:10;}
	.st12{font-family:'NotoSans-Regular';}
	.st13{font-size:16px;}
	.st14{display:inline;fill:#B7B5C8;}
	.st15{fill:none;}
</style>
<g id="Calque_2">
	<rect y="-1.2" class="st0" width="267.8" height="185.4"/>
</g>
<g id="Calque_1">
	<g>
		<path class="st8" d="M221.3,135.8l-77.1,23.4c0,0-25.1,10.2-58.2-4.5L47,137.4c-14.6-6.2-25.2-19.1-28.5-34.6
			C12,75.4,11.9,63.7,35.7,50.3s52.6-29.9,52.6-29.9s16.1-11.7,47.5,0.8c31.4,12.5,82.5,34.5,82.5,34.5s14.8,5.5,28.6,33.9
			C260.1,116.7,250.8,127.3,221.3,135.8z"/>
		<g>
			<path class="st11" d="M133.1,85.9l-6.9,1.9c-1.7,0.5-3.6,0.3-5.2-0.5l-3.5-1.7c-1.3-0.6-2.2-1.8-2.5-3.2
				c-0.5-2.4-0.5-3.5,1.7-4.7c2.2-1.1,4.8-2.6,4.8-2.6s1.5-1,4.2,0.2c2.8,1.2,7.3,3.3,7.3,3.3s1.3,0.5,2.5,3.1
				C136.7,84.4,135.8,85.2,133.1,85.9z"/>
			<path class="st10" d="M140.8,76.6c-0.5,0.2-1,0.4-1.5,0.7c-0.5,0.2-1,0.4-1.5,0.6l0,0c-1.1,0.5-2.4,0.5-3.6,0
				c-1.1-0.5-2.1-0.9-3.1-1.4c-2.1-0.9-4.2-1.9-6.1-2.9l0,0c-0.4-0.2-0.8-0.4-1.2-0.7c-0.4-0.3-0.7-0.6-0.9-1
				c-0.2-0.4-0.3-0.8-0.4-1.2c-0.1-0.4-0.1-0.8-0.1-1.3c0.1,0.4,0.2,0.8,0.3,1.2c0.1,0.4,0.3,0.8,0.5,1.1c0.5,0.6,1.1,1.1,1.9,1.3
				l0,0l0,0c2.1,0.8,4.2,1.8,6.3,2.8c1,0.5,2.1,1,3,1.5c1,0.5,2.1,0.6,3.1,0.2l0,0c0.5-0.2,1-0.3,1.5-0.5
				C139.7,76.8,140.3,76.7,140.8,76.6z"/>
			<path class="st10" d="M143.7,77c-0.8,0.4-1.6,0.7-2.3,1.1l-1.2,0.5c-0.4,0.1-0.7,0.3-1.1,0.5c-0.3,0.2-0.6,0.5-0.7,0.8
				c-0.2,0.3-0.2,0.7-0.2,1.1c0,0.8,0,1.7,0.1,2.5v0.1c0.1,0.2,0.1,0.5,0.3,0.7c0.2,0.3,0.3,0.5,0.5,0.7c0.4,0.5,0.9,0.9,1.4,1.3
				c1,0.8,2.1,1.7,3.1,2.5c-1.2-0.6-2.3-1.3-3.4-2c-0.6-0.4-1.1-0.8-1.6-1.2c-0.3-0.3-0.5-0.5-0.7-0.8c-0.2-0.3-0.4-0.7-0.4-1.1v0.1
				c-0.1-0.9-0.2-1.8-0.1-2.6c0-0.5,0.1-1,0.3-1.4c0.2-0.4,0.6-0.8,1-1c0.4-0.2,0.8-0.4,1.3-0.5l1.2-0.4
				C142.1,77.4,142.9,77.2,143.7,77z"/>
			<path class="st10" d="M142.7,90.1c-1.2-0.7-2.5-1.4-3.7-2.1c-0.3-0.2-0.6-0.4-0.9-0.5c-0.3-0.1-0.6-0.2-0.9-0.2
				c-0.7-0.1-1.3,0-2,0.1c-1.3,0.4-2.7,0.7-4.1,1.1c-1.4,0.3-2.7,0.7-4.1,1l0,0l0,0c-0.5,0.1-1,0.2-1.4,0.4c-0.4,0.1-0.8,0.5-1,0.9
				c0,0.2,0,0.5,0,0.7v0.8c0,0.5,0,1.1,0,1.6l-0.2-1.6l-0.1-0.8c0-0.3-0.1-0.6-0.1-0.8c0.2-0.6,0.6-1.1,1.1-1.3
				c0.5-0.3,1-0.5,1.6-0.6l0,0c1.4-0.4,2.7-0.8,4.1-1.1c1.4-0.3,2.7-0.7,4.1-1c0.7-0.2,1.5-0.2,2.2-0.1c0.4,0.1,0.8,0.2,1.1,0.4
				c0.4,0.2,0.6,0.4,0.9,0.6C140.5,88.4,141.6,89.2,142.7,90.1z"/>
			<path class="st10" d="M123,94.4c-0.4-0.9-0.8-1.8-1.2-2.7l0,0c-0.2-0.6-0.6-1.2-1-1.7c-0.5-0.5-1-0.9-1.7-1.2
				c-1.3-0.6-2.6-1.3-3.9-2l0,0c-0.3-0.2-0.6-0.3-0.9-0.3c-0.3-0.1-0.7-0.1-1,0c-0.7,0.1-1.4,0.3-2,0.7c0.3-0.2,0.6-0.5,0.9-0.6
				c0.3-0.2,0.7-0.3,1.1-0.4c0.4-0.1,0.8-0.1,1.1-0.1c0.4,0,0.8,0.1,1.2,0.3l0,0c1.3,0.6,2.7,1.2,4,1.8c0.7,0.3,1.3,0.8,1.8,1.4
				c0.5,0.6,0.9,1.3,1.1,2.1l0,0C122.6,92.5,122.8,93.5,123,94.4z"/>
			<path class="st10" d="M107.4,76.2c1.4,0.5,2.8,0.8,4.3,0.8c0.7,0,1.4-0.1,2.1-0.3c0.7-0.2,1.3-0.5,2-0.8c1.3-0.6,2.6-1.3,3.8-2.1
				c0.3-0.2,0.6-0.4,0.8-0.6c0.3-0.2,0.5-0.5,0.7-0.8c0.4-0.6,0.7-1.3,0.6-2c0.2,0.7,0.1,1.5-0.3,2.2c-0.2,0.3-0.4,0.7-0.6,1
				c-0.2,0.3-0.5,0.5-0.8,0.8c-1.2,0.9-2.5,1.6-3.8,2.3c-0.7,0.4-1.4,0.6-2.1,0.8c-0.7,0.2-1.5,0.2-2.3,0.2
				C110.2,77.5,108.7,77,107.4,76.2z"/>
			<path class="st10" d="M108.5,87.4c0.6-0.4,1.3-0.8,2-1.2c0.7-0.3,1.3-0.7,1.8-1.2c0.2-0.2,0.4-0.5,0.5-0.8c0-0.1,0.1-0.3,0.1-0.4
				v-0.2l-0.1-0.3c-0.1-0.7-0.3-1.5-0.5-2.2V81c-0.1-0.2-0.2-0.4-0.4-0.6c-0.2-0.2-0.4-0.4-0.6-0.6c-0.5-0.4-0.9-0.7-1.4-1
				c-1-0.6-2.1-1.2-3.2-1.7c0.6,0.1,1.2,0.2,1.8,0.4c0.6,0.2,1.1,0.4,1.7,0.7c0.6,0.3,1.1,0.6,1.7,0.9c0.3,0.2,0.5,0.4,0.7,0.7
				c0.3,0.3,0.5,0.6,0.6,1v-0.1c0.2,0.7,0.4,1.5,0.5,2.3l0,0.3v0.4c0,0.2-0.1,0.5-0.2,0.7c-0.2,0.4-0.5,0.8-0.8,1
				c-0.3,0.3-0.7,0.5-1,0.6l-1,0.4C109.9,86.9,109.2,87.2,108.5,87.4z"/>
			<path class="st11" d="M95.7,85.2l-6.9,2c-1.7,0.5-3.6,0.4-5.2-0.4c-1.5-0.7-3.5-1.6-3.5-1.6c-1.3-0.6-2.2-1.7-2.5-3.1
				c-0.6-2.4-0.6-3.5,1.6-4.7c2.1-1.2,4.7-2.6,4.7-2.6s1.4-1,4.2,0.1c2.8,1.1,7.4,3.1,7.4,3.1s1.3,0.5,2.5,3
				C99.2,83.6,98.4,84.5,95.7,85.2z"/>
			<path class="st10" d="M103.2,75.8c-0.5,0.2-1,0.5-1.5,0.7c-0.5,0.2-1,0.5-1.5,0.7l0,0c-1.1,0.5-2.4,0.6-3.6,0.1
				c-1.1-0.5-2.1-0.9-3.2-1.3c-2.1-0.9-4.2-1.8-6.2-2.8l0,0c-0.4-0.2-0.8-0.4-1.2-0.7c-0.4-0.3-0.7-0.6-0.9-1
				c-0.2-0.4-0.3-0.8-0.4-1.2c-0.1-0.4-0.1-0.8-0.1-1.3c0.1,0.4,0.2,0.8,0.3,1.2c0.1,0.4,0.3,0.8,0.5,1.1c0.5,0.6,1.2,1.1,1.9,1.3
				l0,0l0,0c2.1,0.8,4.2,1.7,6.3,2.6c1,0.4,2.1,0.9,3.1,1.4c1,0.5,2.1,0.5,3.1,0.2l0,0c0.5-0.2,1-0.3,1.5-0.5
				C102.1,76.1,102.7,75.9,103.2,75.8z"/>
			<path class="st10" d="M106.1,76.1c-0.8,0.4-1.5,0.8-2.3,1.1l-1.2,0.5c-0.4,0.1-0.7,0.3-1.1,0.5c-0.3,0.2-0.6,0.5-0.7,0.8
				c-0.2,0.3-0.2,0.7-0.2,1.1c0,0.8,0.1,1.7,0.2,2.5v0.1c0.1,0.2,0.2,0.5,0.3,0.7c0.2,0.3,0.3,0.5,0.5,0.7c0.4,0.5,0.9,0.9,1.4,1.2
				c1,0.8,2.1,1.6,3.1,2.5c-1.2-0.6-2.3-1.3-3.5-2c-0.6-0.3-1.2-0.8-1.7-1.2c-0.3-0.3-0.5-0.5-0.7-0.8c-0.2-0.3-0.4-0.7-0.4-1.1v0.1
				c-0.1-0.9-0.2-1.7-0.2-2.6c0-0.5,0.1-1,0.3-1.4c0.2-0.4,0.6-0.8,1-1c0.4-0.2,0.8-0.4,1.3-0.5l1.2-0.4
				C104.5,76.5,105.3,76.3,106.1,76.1z"/>
			<path class="st10" d="M105.4,89.2c-1.3-0.6-2.5-1.3-3.7-2c-0.3-0.2-0.6-0.4-0.9-0.5c-0.3-0.1-0.6-0.2-0.9-0.2c-0.7,0-1.3,0-2,0.2
				c-1.3,0.4-2.7,0.8-4,1.1c-1.3,0.4-2.7,0.7-4.1,1.1l0,0l0,0c-0.5,0.1-1,0.2-1.4,0.4c-0.4,0.2-0.8,0.5-0.9,0.9c0,0.2,0,0.5,0,0.7
				v0.8c0,0.5,0,1.1,0,1.6c-0.1-0.5-0.2-1.1-0.2-1.6L87.1,91C87,90.8,87,90.5,87,90.2c0.1-0.6,0.6-1.1,1.1-1.4
				c0.5-0.3,1-0.5,1.6-0.6l0,0c1.3-0.4,2.7-0.8,4-1.2c1.4-0.4,2.7-0.7,4.1-1.1c0.7-0.2,1.5-0.2,2.2-0.1c0.4,0.1,0.8,0.2,1.1,0.3
				c0.4,0.2,0.6,0.4,0.9,0.6C103.1,87.5,104.3,88.4,105.4,89.2z"/>
			<path class="st10" d="M85.7,93.9c-0.4-0.9-0.8-1.8-1.2-2.7l0,0c-0.2-0.6-0.6-1.2-1.1-1.7c-0.5-0.5-1-0.9-1.7-1.2
				c-1.3-0.6-2.6-1.2-3.9-1.9l0,0c-0.3-0.2-0.6-0.3-0.9-0.3c-0.3,0-0.7,0-1,0c-0.7,0.1-1.4,0.3-2,0.7c0.3-0.3,0.6-0.5,0.9-0.6
				c0.3-0.2,0.7-0.3,1-0.4c0.4-0.1,0.8-0.1,1.1-0.1c0.4,0,0.8,0.1,1.2,0.3l0,0c1.4,0.5,2.7,1.1,4,1.7c0.7,0.3,1.3,0.8,1.9,1.4
				c0.5,0.6,0.9,1.3,1.1,2.1l0,0C85.3,92,85.5,93,85.7,93.9z"/>
			<path class="st10" d="M69.8,76c1.4,0.5,2.8,0.7,4.3,0.7c0.7,0,1.4-0.1,2.1-0.3c0.7-0.2,1.3-0.5,1.9-0.8c1.3-0.7,2.6-1.4,3.8-2.2
				c0.3-0.2,0.6-0.4,0.8-0.6c0.3-0.3,0.5-0.5,0.7-0.8c0.4-0.6,0.6-1.3,0.6-2c0.2,0.7,0.1,1.5-0.2,2.2c-0.2,0.3-0.4,0.7-0.6,1
				c-0.2,0.3-0.5,0.6-0.8,0.8c-1.2,0.9-2.5,1.7-3.8,2.4c-0.7,0.4-1.4,0.6-2.1,0.8c-0.7,0.2-1.5,0.3-2.3,0.2
				C72.6,77.3,71.1,76.8,69.8,76z"/>
			<path class="st10" d="M71.1,87.2c0.6-0.4,1.3-0.8,1.9-1.2c0.7-0.3,1.3-0.8,1.8-1.2c0.2-0.2,0.4-0.5,0.5-0.8
				c0-0.1,0.1-0.3,0.1-0.4v-0.2l0-0.3c-0.2-0.7-0.3-1.5-0.6-2.2l0,0v0c-0.1-0.2-0.2-0.4-0.4-0.6c-0.2-0.2-0.4-0.4-0.6-0.6
				c-0.5-0.4-1-0.7-1.5-1c-1-0.6-2.1-1.2-3.2-1.6c0.6,0.1,1.2,0.2,1.8,0.4c0.6,0.2,1.2,0.4,1.7,0.7c0.6,0.2,1.1,0.6,1.7,0.9
				c0.3,0.2,0.5,0.4,0.7,0.6c0.3,0.3,0.5,0.6,0.6,1v-0.1c0.3,0.7,0.5,1.5,0.6,2.3l0.1,0.3v0.4c0,0.2-0.1,0.5-0.1,0.7
				c-0.2,0.4-0.4,0.8-0.8,1c-0.3,0.3-0.7,0.5-1,0.7l-1.1,0.5C72.5,86.6,71.8,86.9,71.1,87.2z"/>
			<path class="st11" d="M170.4,87.7l-6.9,1.9c-1.7,0.5-3.6,0.3-5.2-0.5c-1.5-0.7-3.5-1.7-3.5-1.7c-1.3-0.6-2.2-1.8-2.5-3.2
				c-0.5-2.4-0.5-3.5,1.7-4.7c2.2-1.1,4.8-2.6,4.8-2.6s1.5-1,4.2,0.2c2.8,1.2,7.3,3.3,7.3,3.3s1.3,0.5,2.5,3.1
				C174,86.2,173.1,87,170.4,87.7z"/>
			<path class="st10" d="M178.1,78.4c-0.5,0.2-1,0.5-1.5,0.7c-0.5,0.2-1,0.4-1.5,0.6l0,0c-1.1,0.5-2.4,0.5-3.6,0
				c-1.1-0.5-2.1-0.9-3.1-1.4c-2.1-0.9-4.1-1.9-6.1-2.9l0,0c-0.4-0.2-0.8-0.4-1.2-0.7c-0.3-0.3-0.6-0.6-0.8-1
				c-0.2-0.4-0.3-0.8-0.4-1.3c-0.1-0.4-0.1-0.8-0.1-1.3c0.1,0.4,0.2,0.8,0.3,1.2c0.1,0.4,0.3,0.8,0.5,1.1c0.5,0.6,1.2,1.1,1.9,1.3
				l0,0l0,0c2.1,0.8,4.2,1.8,6.3,2.8c1,0.5,2.1,1,3.1,1.5c1,0.5,2.1,0.6,3.1,0.2l0,0c0.5-0.2,1-0.3,1.5-0.5
				C177,78.6,177.6,78.5,178.1,78.4z"/>
			<path class="st10" d="M181,78.7c-0.8,0.4-1.6,0.7-2.4,1.1l-1.2,0.5c-0.4,0.1-0.7,0.3-1.1,0.5c-0.3,0.2-0.6,0.5-0.7,0.8
				c-0.2,0.3-0.2,0.7-0.2,1.1c0,0.8,0,1.7,0.1,2.5v0.1c0,0.2,0.1,0.5,0.3,0.7c0.2,0.3,0.3,0.5,0.5,0.7c0.4,0.5,0.9,0.9,1.4,1.3
				c1,0.8,2.1,1.6,3.1,2.5c-1.2-0.6-2.3-1.3-3.4-2c-0.6-0.4-1.1-0.8-1.6-1.3c-0.3-0.3-0.5-0.5-0.7-0.8c-0.2-0.3-0.4-0.7-0.4-1.1v0.1
				c-0.1-0.9-0.2-1.8-0.1-2.6c0-0.5,0.1-1,0.3-1.4c0.2-0.4,0.6-0.8,1-1c0.4-0.2,0.8-0.4,1.3-0.5l1.2-0.4
				C179.3,79.2,180.2,78.9,181,78.7z"/>
			<path class="st10" d="M180,91.9c-1.2-0.7-2.5-1.4-3.7-2.1c-0.3-0.2-0.6-0.4-0.9-0.5c-0.3-0.1-0.6-0.2-0.9-0.2
				c-0.7-0.1-1.3,0-2,0.1c-1.3,0.4-2.7,0.7-4.1,1.1c-1.4,0.3-2.7,0.7-4.1,1l0,0l0,0c-0.5,0.1-1,0.2-1.4,0.4c-0.4,0.1-0.8,0.5-1,0.9
				c0,0.2,0,0.5,0,0.7v0.8c0,0.5,0,1.1,0,1.6c-0.1-0.5-0.1-1.1-0.2-1.6l-0.1-0.8c0-0.3-0.1-0.6-0.1-0.8c0.2-0.6,0.6-1.1,1.1-1.3
				c0.5-0.3,1-0.5,1.6-0.6l0,0c1.4-0.4,2.7-0.8,4.1-1.1c1.4-0.4,2.7-0.7,4.2-1c0.7-0.2,1.5-0.2,2.2-0.1c0.4,0.1,0.7,0.2,1.1,0.4
				c0.4,0.2,0.6,0.4,0.9,0.6C177.8,90.2,178.9,91,180,91.9z"/>
			<path class="st10" d="M160.3,96.2c-0.4-0.9-0.8-1.8-1.2-2.7l0,0c-0.2-0.6-0.6-1.2-1-1.7c-0.5-0.5-1-0.9-1.7-1.2
				c-1.3-0.6-2.6-1.3-3.9-2l0,0c-0.3-0.2-0.6-0.3-0.9-0.3c-0.3-0.1-0.7-0.1-1,0c-0.7,0.1-1.4,0.3-2,0.7c0.3-0.2,0.6-0.5,0.9-0.6
				c0.3-0.2,0.7-0.3,1-0.4c0.4-0.1,0.8-0.1,1.2-0.1c0.4,0,0.8,0.1,1.2,0.3l0,0c1.3,0.5,2.7,1.2,4,1.8c0.7,0.3,1.3,0.8,1.8,1.4
				c0.5,0.6,0.9,1.3,1.1,2.1l0,0C159.9,94.3,160.1,95.3,160.3,96.2z"/>
			<path class="st10" d="M144.7,78c1.4,0.5,2.8,0.8,4.3,0.8c0.7,0,1.4-0.1,2.1-0.3c0.7-0.2,1.3-0.5,2-0.8c1.3-0.6,2.6-1.3,3.8-2.1
				c0.3-0.2,0.6-0.4,0.8-0.6c0.3-0.3,0.5-0.5,0.7-0.8c0.4-0.6,0.7-1.3,0.6-2c0.2,0.7,0.1,1.5-0.3,2.2c-0.2,0.3-0.4,0.7-0.6,1
				c-0.2,0.3-0.5,0.6-0.8,0.8c-1.2,0.9-2.5,1.7-3.8,2.3c-0.7,0.4-1.4,0.6-2.1,0.8c-0.8,0.2-1.5,0.2-2.3,0.2
				C147.4,79.3,146,78.8,144.7,78z"/>
			<path class="st10" d="M145.7,89.2c0.6-0.4,1.3-0.8,2-1.2c0.7-0.3,1.3-0.7,1.8-1.2c0.2-0.2,0.4-0.5,0.5-0.8c0-0.1,0.1-0.3,0.1-0.4
				v-0.2l-0.1-0.3c-0.1-0.7-0.3-1.5-0.5-2.2l0,0v0c-0.1-0.2-0.2-0.4-0.3-0.6c-0.2-0.2-0.4-0.4-0.6-0.6c-0.5-0.4-0.9-0.7-1.4-1
				c-1-0.6-2.1-1.2-3.2-1.7c0.6,0.1,1.2,0.2,1.8,0.4c0.6,0.2,1.1,0.4,1.7,0.7c0.6,0.3,1.1,0.6,1.7,0.9c0.3,0.2,0.5,0.4,0.7,0.7
				c0.3,0.3,0.5,0.6,0.6,1v-0.1c0.2,0.7,0.4,1.5,0.5,2.3l0,0.3v0.4c0,0.2-0.1,0.5-0.2,0.7c-0.2,0.4-0.4,0.8-0.8,1
				c-0.3,0.3-0.7,0.5-1,0.6l-1.1,0.4C147.2,88.7,146.5,89,145.7,89.2z"/>
			<path class="st11" d="M95.2,59.4l6.9-2c1.7-0.5,3.6-0.4,5.2,0.4c1.5,0.7,3.5,1.6,3.5,1.6c1.3,0.6,2.2,1.7,2.5,3.1
				c0.6,2.4,0.6,3.5-1.6,4.7c-2.1,1.2-4.7,2.6-4.7,2.6s-1.4,1-4.2-0.1c-2.8-1.1-7.3-3.2-7.3-3.2s-1.3-0.5-2.5-3.1
				C91.7,61,92.6,60.2,95.2,59.4z"/>
			<path class="st10" d="M87.7,68.9c0.5-0.2,1-0.5,1.5-0.7c0.5-0.2,1-0.5,1.5-0.7l0,0c1.1-0.5,2.4-0.5,3.6-0.1
				c1.1,0.5,2.1,0.9,3.2,1.3c2.1,0.9,4.2,1.8,6.2,2.8l0,0c0.4,0.2,0.8,0.4,1.2,0.7c0.4,0.3,0.7,0.6,0.9,1c0.2,0.4,0.3,0.8,0.4,1.2
				c0.1,0.4,0.1,0.8,0.1,1.3c-0.1-0.4-0.2-0.8-0.3-1.2c-0.1-0.4-0.3-0.8-0.5-1.1c-0.5-0.6-1.2-1.1-1.9-1.3l0,0l0,0
				c-2.1-0.8-4.2-1.7-6.3-2.7c-1-0.5-2.1-0.9-3.1-1.4c-1-0.5-2.1-0.5-3.1-0.2l0,0c-0.5,0.2-1,0.3-1.5,0.5
				C88.8,68.6,88.2,68.7,87.7,68.9z"/>
			<path class="st10" d="M84.8,68.5c0.8-0.4,1.6-0.7,2.3-1.1l1.2-0.5c0.4-0.1,0.7-0.3,1.1-0.5c0.6-0.4,1-1.1,0.9-1.9
				c0-0.8-0.1-1.7-0.2-2.5v-0.1c0-0.2-0.1-0.5-0.3-0.7c-0.2-0.3-0.3-0.5-0.5-0.7c-0.4-0.5-0.9-0.9-1.4-1.3c-1-0.8-2.1-1.6-3.1-2.5
				c1.2,0.6,2.3,1.3,3.4,2c0.6,0.3,1.2,0.8,1.7,1.2c0.3,0.3,0.5,0.5,0.7,0.8c0.2,0.3,0.4,0.7,0.4,1.1v-0.1c0.1,0.9,0.2,1.7,0.2,2.6
				c0,0.5-0.1,1-0.3,1.4c-0.2,0.4-0.6,0.8-1,1c-0.4,0.2-0.8,0.4-1.3,0.5l-1.2,0.4C86.4,68.1,85.6,68.3,84.8,68.5z"/>
			<path class="st10" d="M85.5,55.4c1.2,0.7,2.5,1.3,3.7,2c0.3,0.2,0.6,0.4,0.9,0.5c0.3,0.1,0.6,0.2,0.9,0.2c0.7,0.1,1.3,0,2-0.2
				c1.3-0.4,2.7-0.8,4-1.1c1.4-0.4,2.7-0.7,4.1-1l0,0l0,0c0.5-0.1,1-0.2,1.4-0.4c0.4-0.2,0.8-0.5,0.9-0.9c0-0.2,0-0.5,0-0.7v-0.8
				c0-0.5,0-1.1,0-1.6c0.1,0.5,0.2,1.1,0.2,1.6l0.1,0.8c0.1,0.3,0.1,0.6,0.1,0.8c-0.1,0.6-0.6,1.1-1.1,1.4c-0.5,0.3-1,0.5-1.6,0.6
				l0,0c-1.3,0.4-2.7,0.8-4.1,1.2c-1.4,0.4-2.7,0.7-4.1,1.1c-0.7,0.2-1.5,0.2-2.2,0.1c-0.4-0.1-0.8-0.2-1.1-0.3
				c-0.4-0.2-0.6-0.4-0.9-0.6C87.8,57.1,86.7,56.3,85.5,55.4z"/>
			<path class="st10" d="M105.2,50.7c0.4,0.9,0.8,1.8,1.2,2.7l0,0c0.2,0.6,0.6,1.2,1.1,1.7c0.5,0.5,1,0.9,1.7,1.2
				c1.3,0.6,2.6,1.2,3.9,1.9l0,0c0.3,0.2,0.6,0.3,0.9,0.3c0.3,0,0.7,0,1,0c0.7-0.1,1.4-0.3,2-0.7c-0.6,0.5-1.2,0.9-1.9,1.1
				c-0.4,0.1-0.8,0.1-1.1,0.1c-0.4,0-0.8-0.1-1.2-0.3l0,0c-1.4-0.5-2.7-1.1-4-1.8c-0.7-0.3-1.3-0.8-1.8-1.4
				c-0.5-0.6-0.9-1.3-1.1-2.1l0,0C105.6,52.6,105.4,51.7,105.2,50.7z"/>
			<path class="st10" d="M121.1,68.7c-1.4-0.5-2.8-0.7-4.3-0.7c-0.7,0-1.4,0.1-2.1,0.3c-0.7,0.2-1.3,0.5-1.9,0.8
				c-1.3,0.7-2.6,1.4-3.8,2.2c-0.3,0.2-0.6,0.4-0.8,0.6c-0.3,0.3-0.5,0.5-0.7,0.8c-0.4,0.6-0.6,1.3-0.6,2c-0.2-0.7-0.1-1.5,0.2-2.2
				c0.2-0.3,0.4-0.7,0.6-1c0.2-0.3,0.5-0.6,0.8-0.8c1.2-0.9,2.5-1.7,3.8-2.4c0.7-0.4,1.4-0.6,2.1-0.8c0.7-0.2,1.5-0.3,2.3-0.2
				C118.3,67.4,119.8,67.9,121.1,68.7z"/>
			<path class="st10" d="M119.8,57.5c-0.6,0.4-1.3,0.8-1.9,1.2c-0.7,0.3-1.3,0.7-1.8,1.2c-0.2,0.2-0.4,0.5-0.5,0.8
				c0,0.1-0.1,0.3-0.1,0.4v0.2l0,0.3c0.2,0.7,0.3,1.5,0.6,2.2l0,0v0c0.1,0.2,0.2,0.4,0.4,0.6c0.2,0.2,0.4,0.4,0.6,0.6
				c0.5,0.4,1,0.7,1.5,1c1,0.6,2.1,1.2,3.2,1.6c-0.6-0.1-1.2-0.2-1.8-0.4c-0.6-0.2-1.2-0.4-1.7-0.7c-0.6-0.2-1.1-0.6-1.7-0.9
				c-0.3-0.2-0.5-0.4-0.7-0.6c-0.3-0.3-0.5-0.6-0.6-1v0.1c-0.3-0.7-0.5-1.5-0.6-2.3l0-0.3v-0.4c0-0.2,0.1-0.5,0.1-0.7
				c0.2-0.4,0.4-0.8,0.8-1c0.3-0.3,0.7-0.5,1-0.7l1.1-0.5C118.4,58.1,119.1,57.8,119.8,57.5z"/>
			<path class="st11" d="M134.7,99.5l6.9-2.1c1.7-0.5,3.6-0.4,5.2,0.4c1.5,0.7,3.5,1.6,3.5,1.6c1.3,0.6,2.2,1.7,2.5,3.1
				c0.6,2.4,0.5,3.5-1.6,4.7c-2.1,1.2-4.7,2.6-4.7,2.6s-1.4,1-4.2-0.1c-2.8-1.1-7.4-3.2-7.4-3.2s-1.3-0.5-2.5-3.1
				C131.1,101,132,100.2,134.7,99.5z"/>
			<path class="st10" d="M127.1,108.9c0.5-0.2,1-0.5,1.5-0.7c0.5-0.2,1-0.5,1.5-0.7l0,0c1.1-0.5,2.4-0.5,3.6-0.1
				c1.1,0.5,2.1,0.8,3.2,1.3c2.1,0.9,4.2,1.8,6.2,2.8l0,0c0.4,0.2,0.8,0.4,1.2,0.7c0.4,0.3,0.7,0.6,0.9,1c0.3,0.8,0.5,1.6,0.5,2.5
				c-0.1-0.4-0.2-0.8-0.4-1.2c-0.1-0.4-0.3-0.8-0.5-1.1c-0.5-0.6-1.2-1.1-1.9-1.3l0,0l0,0c-2.1-0.8-4.2-1.7-6.3-2.7
				c-1-0.5-2.1-0.9-3.1-1.4c-1-0.5-2.1-0.5-3.1-0.2l0,0c-0.5,0.2-1,0.3-1.5,0.5C128.2,108.6,127.6,108.8,127.1,108.9z"/>
			<path class="st10" d="M124.2,108.6c0.8-0.4,1.5-0.7,2.3-1.1l1.2-0.5c0.4-0.1,0.7-0.3,1.1-0.5c0.3-0.2,0.6-0.5,0.7-0.8
				c0.1-0.3,0.2-0.7,0.2-1.1c0-0.8-0.1-1.7-0.2-2.5v-0.1c-0.1-0.2-0.1-0.5-0.3-0.7c-0.2-0.3-0.3-0.5-0.5-0.7
				c-0.4-0.5-0.9-0.9-1.4-1.3c-1-0.8-2.1-1.6-3.1-2.5c1.2,0.6,2.3,1.3,3.4,2c0.6,0.3,1.2,0.8,1.7,1.2c0.3,0.3,0.5,0.5,0.7,0.8
				c0.2,0.3,0.4,0.7,0.4,1.1v-0.1c0.1,0.9,0.2,1.7,0.2,2.6c0,0.5-0.1,1-0.3,1.4c-0.2,0.4-0.6,0.8-1,1c-0.4,0.2-0.8,0.4-1.3,0.5
				l-1.2,0.4C125.9,108.1,125.1,108.4,124.2,108.6z"/>
			<path class="st10" d="M125,95.4c1.3,0.7,2.5,1.3,3.7,2c0.3,0.2,0.6,0.4,0.9,0.5c0.3,0.1,0.6,0.2,0.9,0.2c0.7,0.1,1.3,0,2-0.2
				c1.3-0.4,2.7-0.8,4.1-1.1c1.4-0.3,2.7-0.7,4.1-1l0,0l0,0c0.5-0.1,1-0.2,1.4-0.4c0.4-0.2,0.8-0.5,0.9-0.9c0-0.2,0-0.5,0-0.7v-0.8
				c0-0.5,0-1.1,0-1.6c0.1,0.5,0.2,1.1,0.2,1.6l0.1,0.8c0.1,0.3,0.1,0.6,0.1,0.8c-0.1,0.6-0.6,1.1-1.1,1.4c-0.5,0.3-1,0.5-1.6,0.6
				l0,0c-1.3,0.4-2.7,0.8-4.1,1.2c-1.4,0.4-2.7,0.7-4.1,1.1c-0.7,0.2-1.5,0.2-2.2,0.1c-0.4-0.1-0.8-0.2-1.1-0.3
				c-0.4-0.2-0.6-0.4-0.9-0.6C127.2,97.1,126.1,96.3,125,95.4z"/>
			<path class="st10" d="M144.7,90.7c0.4,0.8,0.8,1.8,1.2,2.7l0,0c0.2,0.6,0.6,1.2,1.1,1.7c0.5,0.5,1,0.9,1.7,1.2
				c1.3,0.6,2.6,1.2,3.9,1.9l0,0c0.3,0.2,0.6,0.3,0.9,0.3c0.3,0,0.7,0,1,0c0.7-0.1,1.4-0.3,2-0.7c-0.3,0.2-0.6,0.5-0.9,0.6
				c-0.3,0.2-0.7,0.3-1,0.4c-0.4,0.1-0.8,0.1-1.1,0.1c-0.4,0-0.8-0.1-1.2-0.3l0,0c-1.4-0.5-2.7-1.1-4-1.8c-0.7-0.3-1.3-0.8-1.9-1.4
				c-0.5-0.6-0.9-1.3-1.1-2.1l0,0C145.1,92.6,144.9,91.7,144.7,90.7z"/>
			<path class="st10" d="M160.5,108.7c-1.4-0.5-2.8-0.7-4.3-0.7c-0.7,0-1.4,0.1-2.1,0.3c-0.7,0.2-1.3,0.5-1.9,0.8
				c-1.3,0.7-2.6,1.4-3.8,2.1c-0.3,0.2-0.6,0.4-0.8,0.6c-0.3,0.3-0.5,0.5-0.7,0.8c-0.4,0.6-0.7,1.3-0.6,2c-0.2-0.7-0.1-1.5,0.2-2.2
				c0.2-0.3,0.4-0.7,0.6-1c0.2-0.3,0.5-0.6,0.8-0.8c1.2-0.9,2.5-1.7,3.8-2.4c0.7-0.4,1.4-0.6,2.1-0.8c0.8-0.2,1.5-0.3,2.3-0.2
				C157.8,107.5,159.2,107.9,160.5,108.7z"/>
			<path class="st10" d="M159.3,97.6c-0.6,0.4-1.3,0.8-1.9,1.2c-0.7,0.3-1.3,0.7-1.8,1.2c-0.2,0.2-0.4,0.5-0.5,0.8
				c0,0.1-0.1,0.3-0.1,0.4v0.2l0,0.3c0.2,0.7,0.3,1.5,0.6,2.2v0.1c0.1,0.2,0.2,0.4,0.4,0.6c0.2,0.2,0.4,0.4,0.6,0.6
				c0.5,0.4,0.9,0.7,1.5,1c1,0.6,2.1,1.2,3.2,1.6c-0.6-0.1-1.2-0.2-1.8-0.4c-0.6-0.2-1.2-0.4-1.7-0.7c-0.6-0.2-1.1-0.6-1.7-0.9
				c-0.3-0.2-0.5-0.4-0.7-0.6c-0.3-0.3-0.5-0.6-0.6-1v0.1c-0.3-0.7-0.4-1.5-0.6-2.3l0-0.3v-0.4c0-0.2,0.1-0.5,0.1-0.7
				c0.2-0.4,0.4-0.8,0.8-1c0.3-0.3,0.7-0.5,1-0.7l1.1-0.5C157.9,98.1,158.5,97.8,159.3,97.6z"/>
			<path class="st11" d="M133.2,59l7.1-1.4c1.8-0.4,3.6-0.1,5.1,0.9l3.3,1.9c1.3,0.7,2.1,1.9,2.2,3.3c0.4,2.5,0.3,3.5-2,4.5
				c-2.2,1-4.9,2.2-4.9,2.2s-1.5,0.9-4.2-0.5c-2.7-1.4-7.1-3.8-7.1-3.8s-1.3-0.6-2.3-3.3C129.5,60.3,130.5,59.5,133.2,59z"/>
			<path class="st10" d="M124.9,67.8c0.5-0.2,1-0.4,1.5-0.6c0.5-0.2,1-0.4,1.5-0.5l0,0c1.2-0.4,2.4-0.3,3.6,0.2c1.1,0.5,2,1,3,1.6
				c2,1.1,4,2.2,5.9,3.3l0,0c0.4,0.2,0.8,0.5,1.1,0.8c0.4,0.3,0.6,0.7,0.8,1.1c0.1,0.4,0.2,0.8,0.3,1.3c0.1,0.4,0.1,0.9,0,1.3
				c-0.1-0.4-0.1-0.8-0.2-1.2c-0.1-0.4-0.2-0.8-0.4-1.1c-0.4-0.7-1.1-1.2-1.8-1.4l0,0l0,0c-2-1-4.1-2.1-6.1-3.2
				c-1-0.5-2-1.1-2.9-1.7c-0.9-0.5-2-0.7-3-0.4l0,0c-0.5,0.1-1,0.2-1.6,0.4C126,67.6,125.4,67.7,124.9,67.8z"/>
			<path class="st10" d="M122,67.2c0.8-0.3,1.6-0.6,2.4-0.9l1.2-0.4c0.4-0.1,0.8-0.3,1.1-0.4c0.7-0.4,1.1-1.1,1.1-1.8
				c0-0.8,0-1.7,0-2.5v-0.1c0-0.2-0.1-0.5-0.2-0.7c-0.1-0.3-0.3-0.5-0.5-0.8c-0.4-0.5-0.8-1-1.3-1.4c-1-0.9-1.9-1.8-2.9-2.7
				c1.1,0.7,2.2,1.5,3.3,2.3c0.6,0.4,1.1,0.9,1.5,1.4c0.2,0.3,0.4,0.5,0.6,0.8c0.2,0.4,0.3,0.8,0.3,1.2V61c0.1,0.9,0,1.8,0,2.6
				c0,0.5-0.2,1-0.4,1.4c-0.3,0.4-0.7,0.7-1.1,1c-0.4,0.2-0.9,0.3-1.3,0.4l-1.3,0.3C123.7,66.9,122.9,67.1,122,67.2z"/>
			<path class="st10" d="M123.9,54.2c1.2,0.8,2.4,1.5,3.5,2.3c0.3,0.2,0.6,0.4,0.8,0.6c0.3,0.1,0.6,0.2,0.9,0.3c0.7,0.1,1.3,0.1,2,0
				c1.3-0.3,2.7-0.5,4.2-0.8c1.4-0.2,2.8-0.5,4.2-0.7l0,0l0,0c0.5,0,1-0.1,1.5-0.3c0.4-0.1,0.8-0.4,1-0.8c0-0.2,0.1-0.5,0.1-0.7
				l0.1-0.8c0-0.5,0.1-1.1,0.1-1.6c0,0.5,0.1,1.1,0.1,1.6V54c0,0.3,0,0.6,0,0.8c-0.2,0.6-0.7,1.1-1.2,1.3c-0.5,0.2-1.1,0.4-1.6,0.5
				l0,0c-1.4,0.3-2.8,0.6-4.2,0.8c-1.4,0.3-2.7,0.5-4.2,0.7c-0.7,0.1-1.5,0.1-2.2-0.1c-0.4-0.1-0.7-0.2-1.1-0.4
				c-0.3-0.2-0.6-0.5-0.8-0.7C126,56.1,124.9,55.1,123.9,54.2z"/>
			<path class="st10" d="M143.9,51.2c0.4,0.9,0.7,1.8,1,2.8l0,0c0.2,0.6,0.5,1.3,0.9,1.8c0.4,0.5,1,1,1.5,1.3
				c1.3,0.7,2.5,1.5,3.7,2.3l0,0c0.3,0.2,0.6,0.3,0.9,0.4c0.3,0.1,0.7,0.1,1,0.1c0.7,0,1.4-0.2,2.1-0.5c-0.3,0.2-0.6,0.4-0.9,0.6
				c-0.3,0.2-0.7,0.3-1.1,0.3c-0.4,0.1-0.8,0.1-1.1,0c-0.4-0.1-0.8-0.2-1.1-0.4l0,0c-1.3-0.6-2.6-1.4-3.8-2.1
				c-0.7-0.4-1.3-0.9-1.7-1.5c-0.5-0.6-0.8-1.4-0.9-2.1l0,0C144.1,53.2,144,52.2,143.9,51.2z"/>
			<path class="st10" d="M158.2,70.4c-1.3-0.6-2.7-1-4.2-1.1c-0.7,0-1.4,0-2.1,0.2c-0.7,0.2-1.4,0.4-2,0.7c-1.3,0.6-2.7,1.1-4,1.8
				c-0.3,0.2-0.6,0.3-0.9,0.6c-0.3,0.2-0.5,0.5-0.7,0.7c-0.5,0.5-0.7,1.2-0.8,1.9c-0.2-0.8,0-1.5,0.4-2.2c0.2-0.3,0.4-0.6,0.7-0.9
				c0.3-0.3,0.6-0.5,0.9-0.7c1.3-0.8,2.6-1.5,4-2c0.7-0.3,1.4-0.5,2.2-0.7c0.8-0.1,1.5-0.1,2.3,0C155.6,69,157,69.5,158.2,70.4z"/>
			<path class="st10" d="M157.9,59.2c-0.7,0.4-1.4,0.7-2,1.1c-0.7,0.3-1.3,0.6-1.9,1.1c-0.3,0.2-0.5,0.5-0.6,0.8
				c-0.1,0.1-0.1,0.3-0.1,0.4v0.2V63c0.1,0.7,0.2,1.5,0.4,2.2v0.1c0.1,0.2,0.2,0.4,0.3,0.6c0.2,0.2,0.3,0.4,0.5,0.6
				c0.4,0.4,0.9,0.8,1.4,1.1c1,0.7,2,1.3,3.1,1.9c-0.6-0.1-1.2-0.3-1.7-0.6c-0.6-0.2-1.1-0.5-1.7-0.8c-0.6-0.3-1.1-0.6-1.6-1.1
				c-0.2-0.2-0.5-0.4-0.7-0.7c-0.2-0.3-0.4-0.6-0.5-1v0.1c-0.2-0.8-0.3-1.5-0.4-2.3v-0.3v-0.3c0-0.2,0.1-0.5,0.2-0.7
				c0.2-0.4,0.5-0.7,0.8-1c0.3-0.2,0.7-0.4,1.1-0.6l1.1-0.4C156.4,59.6,157.1,59.4,157.9,59.2z"/>
			<path class="st11" d="M98,97.9l6.9-2c1.7-0.5,3.6-0.4,5.2,0.4c1.5,0.7,3.5,1.6,3.5,1.6c1.3,0.6,2.2,1.7,2.5,3.1
				c0.6,2.4,0.6,3.5-1.6,4.7c-2.1,1.2-4.7,2.6-4.7,2.6s-1.4,1-4.2-0.1c-2.8-1.1-7.4-3.2-7.4-3.2s-1.3-0.5-2.5-3.1
				C94.5,99.4,95.4,98.6,98,97.9z"/>
			<path class="st10" d="M90.5,107.3c0.5-0.2,1-0.5,1.5-0.7c0.5-0.2,1-0.5,1.5-0.7l0,0c1.1-0.5,2.4-0.5,3.6-0.1
				c1.1,0.5,2.1,0.9,3.2,1.3c2.1,0.9,4.2,1.8,6.2,2.8l0,0c0.4,0.2,0.8,0.4,1.2,0.7c0.4,0.3,0.7,0.6,0.9,1c0.3,0.8,0.5,1.6,0.5,2.5
				c-0.1-0.4-0.2-0.8-0.4-1.2c-0.1-0.4-0.3-0.8-0.5-1.1c-0.5-0.6-1.2-1.1-1.9-1.3l0,0l0,0c-2.1-0.8-4.2-1.7-6.3-2.7
				c-1-0.5-2.1-0.9-3.1-1.4c-1-0.5-2.1-0.5-3.1-0.2l0,0c-0.5,0.2-1,0.3-1.5,0.5C91.6,107,91,107.2,90.5,107.3z"/>
			<path class="st10" d="M87.6,107c0.8-0.4,1.5-0.7,2.3-1.1l1.2-0.5c0.4-0.1,0.7-0.3,1.1-0.5c0.6-0.4,1-1.1,0.9-1.9
				c0-0.8-0.1-1.7-0.2-2.5v-0.1c0-0.2-0.1-0.5-0.3-0.7c-0.2-0.3-0.3-0.5-0.5-0.7c-0.4-0.5-0.9-0.9-1.4-1.3c-1-0.8-2.1-1.6-3.1-2.5
				c1.2,0.6,2.3,1.3,3.4,2c0.6,0.3,1.1,0.8,1.6,1.2c0.3,0.3,0.5,0.5,0.7,0.8c0.2,0.3,0.4,0.7,0.4,1.1v-0.1c0.1,0.9,0.2,1.7,0.2,2.6
				c0,0.5-0.1,1-0.3,1.4c-0.2,0.4-0.6,0.8-1,1c-0.4,0.2-0.8,0.4-1.3,0.5l-1.2,0.4C89.2,106.6,88.4,106.8,87.6,107z"/>
			<path class="st10" d="M88.3,93.8c1.2,0.7,2.5,1.3,3.7,2c0.3,0.2,0.6,0.4,0.9,0.5c0.3,0.1,0.6,0.2,0.9,0.2c0.7,0.1,1.3,0,2-0.2
				c1.3-0.4,2.7-0.8,4.1-1.1c1.4-0.3,2.7-0.7,4.1-1l0,0l0,0c0.5-0.1,1-0.2,1.4-0.4c0.4-0.2,0.8-0.5,0.9-0.9c0-0.3,0-0.5,0-0.8v-0.8
				c0-0.5,0-1.1,0-1.6c0.1,0.5,0.2,1.1,0.2,1.6l0.1,0.8c0.1,0.3,0.1,0.6,0.1,0.8c-0.1,0.6-0.6,1.1-1.1,1.4c-0.5,0.3-1,0.5-1.6,0.6
				l0,0c-1.3,0.4-2.7,0.8-4.1,1.2c-1.4,0.4-2.7,0.7-4.1,1.1c-0.7,0.2-1.5,0.2-2.2,0.1c-0.4-0.1-0.8-0.2-1.1-0.3
				c-0.4-0.2-0.6-0.4-0.9-0.6C90.6,95.5,89.5,94.7,88.3,93.8z"/>
			<path class="st10" d="M108,89.2c0.4,0.9,0.8,1.8,1.2,2.7l0,0c0.2,0.6,0.6,1.2,1,1.7c0.5,0.5,1,0.9,1.7,1.2
				c1.3,0.6,2.6,1.2,3.9,1.9l0,0c0.3,0.2,0.6,0.3,0.9,0.3c0.3,0,0.7,0,1,0c0.7-0.1,1.4-0.3,2-0.7c-0.6,0.5-1.2,0.9-1.9,1.1
				c-0.4,0.1-0.8,0.1-1.2,0.1c-0.4,0-0.8-0.1-1.2-0.3l0,0c-1.4-0.5-2.7-1.1-4-1.8c-0.7-0.3-1.3-0.8-1.9-1.4
				c-0.5-0.6-0.9-1.3-1.1-2.1l0,0C108.4,91.1,108.2,90.2,108,89.2z"/>
			<path class="st10" d="M123.9,107.1c-1.4-0.5-2.8-0.7-4.3-0.7c-0.7,0-1.4,0.1-2.1,0.3c-0.7,0.2-1.3,0.5-1.9,0.8
				c-1.3,0.7-2.6,1.4-3.8,2.2c-0.3,0.2-0.6,0.4-0.8,0.6c-0.3,0.3-0.5,0.5-0.7,0.8c-0.4,0.6-0.6,1.3-0.6,2c-0.2-0.7-0.1-1.5,0.2-2.2
				c0.2-0.3,0.4-0.7,0.6-1c0.2-0.3,0.5-0.6,0.8-0.8c1.2-0.9,2.5-1.7,3.8-2.4c0.7-0.4,1.4-0.6,2.1-0.8c0.7-0.2,1.5-0.3,2.3-0.2
				C121.1,105.9,122.6,106.4,123.9,107.1z"/>
			<path class="st10" d="M122.7,96c-0.6,0.4-1.3,0.8-1.9,1.2c-0.7,0.3-1.3,0.7-1.8,1.2c-0.2,0.2-0.4,0.5-0.5,0.8
				c0,0.1-0.1,0.3-0.1,0.4v0.2l0,0.3c0.2,0.7,0.3,1.5,0.6,2.2v0c0.1,0.2,0.2,0.4,0.4,0.6c0.2,0.2,0.4,0.4,0.6,0.6
				c0.5,0.4,0.9,0.7,1.5,1c1,0.6,2.1,1.2,3.2,1.6c-0.6-0.1-1.2-0.2-1.8-0.4c-0.6-0.2-1.2-0.4-1.7-0.7c-0.6-0.2-1.1-0.6-1.7-0.9
				c-0.3-0.2-0.5-0.4-0.7-0.6c-0.3-0.3-0.5-0.6-0.6-1v0.1c-0.3-0.7-0.5-1.5-0.6-2.3l0-0.3v-0.4c0-0.2,0.1-0.5,0.1-0.7
				c0.2-0.4,0.4-0.8,0.8-1c0.3-0.3,0.7-0.5,1-0.7l1.1-0.5C121.2,96.6,121.9,96.2,122.7,96z"/>
		</g>
		<text transform="matrix(1 0 0 1 64.8842 131.3152)" class="st10 st12 st13">Organisationnel</text>
	</g>
</g>
</svg>
