<svg width="224" height="140" viewBox="0 0 224 140" fill="none" xmlns="http://www.w3.org/2000/svg">
<g clip-path="url(#clip0_515_2989)">
<path d="M194.313 113.835L122.158 135.777C122.158 135.777 98.6437 145.32 67.7029 131.535L31.1343 115.37C17.469 109.581 7.50886 97.4586 4.47626 82.931C-1.66734 57.3333 -1.70448 46.3623 20.5305 33.7822C42.7654 21.202 69.8278 5.77083 69.8278 5.77083C69.8278 5.77083 84.8588 -5.20018 114.298 6.53827C143.737 18.2767 191.573 38.8283 191.573 38.8283C191.573 38.8283 205.433 44.0229 218.306 70.5365C230.667 95.9897 221.924 105.9 194.317 113.835H194.313Z" stroke="#E5EBF0" stroke-width="0.412599" stroke-miterlimit="10"/>
<path d="M136.711 90.3578C136.711 90.3578 136.732 90.2876 136.769 90.168C136.749 90.2299 136.732 90.2876 136.711 90.3578Z" fill="#E5EBF0"/>
<path d="M71.0132 83.3065C71.042 74.0725 76.1789 63.9804 82.9414 57.8038C86.5475 54.5112 93.9743 49.5765 98.6325 48.4006C92.5096 48.3841 87.1293 50.0552 81.7077 52.7494C75.758 55.7036 71.5495 58.8765 68.3106 64.7973C66.5736 67.9702 64.7004 72.5212 64.7829 76.1397C65.0965 92.4703 75.4156 97.0419 75.4156 97.0419C70.7903 92.1733 71.009 83.3065 71.009 83.3065H71.0132ZM68.191 80.7195C67.5968 84.3504 67.2791 83.6283 67.4854 79.8984C68.1373 68.2673 75.7457 55.324 87.5831 52.3368C77.8045 56.764 70.9554 65.4534 68.7769 75.9623C68.4509 77.5301 68.4427 79.1681 68.191 80.7236V80.7195Z" fill="#E5EBF0"/>
<path d="M95.2241 66.3199C95.8513 61.0716 101.388 48.1119 99.6884 48.0417C99.7338 48.3141 92.0677 53.1786 90.6979 54.1523C84.0427 58.889 79.3349 63.7577 76.2982 71.4898C74.2352 76.738 74.1403 83.2777 74.6024 88.8849C75.0851 94.781 78.0105 97.4505 81.0266 98.123C82.5491 98.7213 96.8828 100.227 98.4548 100.698C96.1607 94.1497 94.3783 73.3918 95.2241 66.3199ZM81.0596 96.3489C79.7516 94.488 78.7119 91.1749 78.2993 88.9427C76.0548 76.9031 83.3289 63.1924 92.109 55.2127C84.4594 65.6845 76.8758 76.016 79.4752 89.7679C79.9456 92.2517 81.2411 95.6186 81.237 95.9363C81.237 96.1426 81.2453 96.2127 81.0596 96.3489ZM92.2823 95.763C92.1915 95.7299 92.1379 95.6804 92.0471 95.6474C89.6664 88.79 91.1559 79.0403 92.8104 72.022C92.3153 79.9357 91.4117 87.8369 92.2823 95.763Z" fill="#E5EBF0"/>
<path d="M138.407 80.1584C137.537 70.4004 132.8 63.7947 124.078 58.039C121.561 56.3803 118.681 55.2086 116.263 53.455C110.759 50.9547 112.529 51.6602 115.735 54.3957C118.697 56.925 121.482 59.8544 123.669 63.0933C123.669 63.0933 136.451 81.718 128.723 96.65C128.723 96.65 135.205 95.2348 136.715 90.362C136.736 90.296 136.753 90.2382 136.773 90.1722C136.736 90.2877 136.715 90.362 136.715 90.362C136.715 90.362 136.967 89.6688 137.277 88.5589C137.825 86.5908 138.56 83.2983 138.411 80.1625L138.407 80.1584Z" fill="#E5EBF0"/>
<path d="M67.4233 59.7925C68.7065 57.2344 81.8024 46.5605 92.5795 46.6347C93.7141 46.643 95.3645 46.4367 95.8101 46.0489C88.1936 45.3392 82.7555 45.2814 75.828 48.871C69.1274 52.3451 61.1931 60.7209 60.0172 69.2493C59.5303 78.2151 62.6661 79.2548 62.6661 79.2548C62.2452 69.4267 65.5254 63.5802 67.4192 59.7967L67.4233 59.7925Z" fill="#E5EBF0"/>
<path d="M99.4537 46.3996C101.149 46.0407 106.043 42.7564 108.151 41.4649C106.402 41.0193 104.591 41.1225 102.804 41.1142C102.816 41.7538 102.581 44.9555 101.921 44.7575C101.826 44.7286 101.62 44.8152 101.57 44.6997C101.496 44.5347 101.541 41.2917 101.57 41.1142C93.6814 40.9244 98.7275 40.8254 100.394 45.3434C100.221 45.5373 99.6476 45.1123 99.103 44.7575C97.1267 43.8003 95.5299 42.2571 93.4009 41.5846C92.3941 41.4526 86.626 42.8183 85.3511 43.2309C89.0108 43.3959 92.6582 43.7301 96.1653 44.8771C97.2546 45.232 98.5295 45.7312 99.4578 46.4038L99.4537 46.3996Z" fill="#E5EBF0"/>
<path d="M129.293 85.3077C128.901 77.9635 124.045 66.8192 119.304 61.212C116.672 58.0968 110.103 52.9724 106.55 50.93C105.329 50.2286 101.987 48.2976 101.789 49.3415C98.9174 62.0908 96.8998 72.513 97.432 85.9019C97.7869 94.7769 101.612 101.35 101.612 101.35C109.926 101.61 118.31 100.45 126.764 97.9415C127.436 97.8961 129.532 89.8051 129.289 85.3077H129.293ZM103.151 96.712C102.231 93.6546 102.478 90.391 102.152 87.2511C101.36 79.6221 100.333 74.9804 100.741 66.5675C100.824 64.8428 101.034 63.0315 101.389 61.3357C101.925 66.584 101.525 71.8776 101.917 77.1424C102.404 83.6408 104.038 90.1352 103.151 96.712ZM122.601 92.8336C122.526 93.1843 121.924 96.0064 121.718 96.0064C121.66 95.1042 121.601 94.2034 121.54 93.3039C125.039 73.5404 117.872 68.5645 108.081 53.6944C112.521 57.416 119.939 68.0694 121.775 73.264C123.876 79.2137 123.921 86.7106 122.596 92.8336H122.601Z" fill="#E5EBF0"/>
<path d="M108.085 53.6942C117.872 68.5643 125.039 73.5402 121.544 93.3037C121.602 94.2059 121.661 95.1068 121.721 96.0063C121.928 96.0063 122.526 93.1841 122.604 92.8334C123.925 86.7104 123.883 79.2135 121.783 73.2638C119.947 68.0692 112.529 57.42 108.089 53.6942H108.085Z" fill="#E5EBF0"/>
<path d="M101.388 61.3357C101.034 63.0273 100.827 64.8428 100.741 66.5674C100.332 74.9803 101.36 79.6221 102.152 87.251C102.478 90.3909 102.23 93.6546 103.15 96.7119C104.037 90.1351 102.403 83.6408 101.917 77.1424C101.52 71.8776 101.925 66.584 101.388 61.3357Z" fill="#E5EBF0"/>
<path d="M92.1092 55.2168C83.325 63.2006 76.055 76.9113 78.2995 88.9468C78.7162 91.1748 79.7519 94.488 81.0598 96.3529C81.2455 96.2168 81.2331 96.1466 81.2372 95.9403C81.2372 95.6185 79.9458 92.2558 79.4754 89.772C76.8761 76.02 84.4596 65.6927 92.1092 55.2168Z" fill="#E5EBF0"/>
<path d="M92.0515 95.6474C92.1423 95.6804 92.1959 95.7299 92.2867 95.7629C91.4161 87.8369 92.3197 79.9356 92.8148 72.022C91.1603 79.0403 89.6708 88.79 92.0515 95.6474Z" fill="#E5EBF0"/>
<path d="M87.5832 52.3369C75.7416 55.3241 68.1374 68.2673 67.4855 79.8985C67.275 83.6284 67.5969 84.3505 68.191 80.7196C68.4468 79.1641 68.4551 77.5261 68.7769 75.9582C70.9554 65.4493 77.8004 56.76 87.5832 52.3328V52.3369Z" fill="#E5EBF0"/>
<path d="M138.535 90.003C140.119 81.1899 138.155 68.6675 132.247 62.0907C128.397 57.8038 117.744 51.8211 117.261 51.5735C114.62 50.2903 111.947 49.0732 109.149 48.1655C104.442 46.6347 101.537 47.4475 106.327 44.4025C106.917 44.0312 111.15 41.8651 111.497 41.8156C113.318 42.1676 115.14 42.5197 116.964 42.8718C113.82 43.3092 110.383 43.6557 107.619 45.104C111.637 44.2705 115.673 43.4907 119.782 43.3422C121.89 44.547 124.341 45.3391 126.54 46.5151C128.108 47.3526 132.985 50.4595 132.944 50.5709C129.441 49.1887 125.579 48.2232 121.721 48.0458C123.784 48.7183 129.722 50.4801 130.534 50.868C139.315 55.0311 142.199 61.4388 145.165 70.2601C145.743 73.5403 145.759 76.7709 144.402 79.8984C144.385 76.9236 142.772 70.5077 142.698 70.3179C139.657 62.5982 131.211 53.9047 123.834 50.1624C119.213 47.8189 113.919 46.8988 108.79 46.6347C108.819 46.7544 107.284 46.6306 107.969 46.9854C108.51 47.2701 117.967 50.2326 119.724 50.9835C123.751 52.6958 127.44 54.9362 130.654 57.9193C134.64 61.6162 140.478 69.1049 142.112 74.2582C142.112 74.2582 145.079 84.5938 138.526 90.0071" fill="#E5EBF0"/>
</g>
<defs>
<clipPath id="clip0_515_2989">
<rect width="223.245" height="138.295" fill="white" transform="translate(0.754883 0.90625)"/>
</clipPath>
</defs>
</svg>
