<?xml version="1.0" encoding="utf-8"?>
<!-- Generator: Adobe Illustrator 22.0.1, SVG Export Plug-In . SVG Version: 6.00 Build 0)  -->
<svg version="1.1" xmlns="http://www.w3.org/2000/svg" xmlns:xlink="http://www.w3.org/1999/xlink" x="0px" y="0px"
	 viewBox="0 0 267.8 184.3" style="enable-background:new 0 0 267.8 184.3;" xml:space="preserve">
<style type="text/css">
	.st0{fill:#241C28;}
	.st1{display:none;}
	.st2{display:inline;fill:#82AEDD;}
	.st3{display:inline;fill:#B9B5C6;}
	.st4{display:inline;fill:#FBFBFD;}
	.st5{display:inline;fill:#4F4E5C;}
	.st6{display:inline;fill:#D2D5E2;}
	.st7{display:inline;fill:#443C4F;}
	.st8{fill:none;stroke:#F0F2F5;stroke-miterlimit:10;}
	.st9{fill:#43455D;}
	.st10{fill:#82AEDD;}
	.st11{fill:none;stroke:#43455D;stroke-miterlimit:10;}
	.st12{display:inline;fill:#B7B5C8;}
	.st13{fill:none;}
	.st14{font-family:'NotoSans-Regular';}
	.st15{font-size:16px;}
</style>
<g id="Calque_2">
	<rect y="-1.2" class="st0" width="267.8" height="185.4"/>
</g>
<g id="Calque_1">
	<g>
		<path class="st8" d="M221.4,135.8l-77.1,23.4c0,0-25.1,10.2-58.2-4.5l-39.1-17.3c-14.6-6.2-25.2-19.1-28.5-34.6
			C12.1,75.4,12,63.7,35.8,50.3c23.7-13.4,52.6-29.9,52.6-29.9s16.1-11.7,47.5,0.8c31.4,12.5,82.5,34.5,82.5,34.5
			s14.8,5.5,28.6,33.9C260.2,116.7,250.9,127.3,221.4,135.8z"/>
		<g>
			<g id="Background_00000052819443684495909950000013106802017346683521_" class="st1">
				<ellipse class="st12" cx="127.6" cy="80.7" rx="90.9" ry="51.9"/>
			</g>
			<g>
				<path class="st13" d="M163.8,102.3c0,0,0-0.1,0.1-0.2C163.9,102.2,163.9,102.3,163.8,102.3z"/>
				<path class="st10" d="M93.7,94.8c0-9.9,5.5-20.6,12.7-27.2c3.9-3.5,11.8-8.8,16.8-10c-6.5,0-12.3,1.8-18.1,4.6
					c-6.4,3.2-10.8,6.5-14.3,12.9c-1.9,3.4-3.9,8.3-3.8,12.1c0.3,17.4,11.4,22.3,11.4,22.3C93.4,104.3,93.7,94.8,93.7,94.8z
					 M90.7,92c-0.6,3.9-1,3.1-0.8-0.9c0.7-12.4,8.8-26.2,21.5-29.4c-10.4,4.7-17.8,14-20.1,25.2C90.9,88.6,90.9,90.4,90.7,92z"/>
				<path class="st10" d="M119.5,76.7c0.7-5.6,6.6-19.4,4.8-19.5c0,0.3-8.1,5.5-9.6,6.5c-7.1,5.1-12.1,10.3-15.4,18.5
					c-2.2,5.6-2.3,12.6-1.8,18.6c0.5,6.3,3.6,9.1,6.9,9.9c1.6,0.6,16.9,2.2,18.6,2.8C120.5,106.4,118.6,84.2,119.5,76.7z
					 M104.4,108.7c-1.4-2-2.5-5.5-2.9-7.9c-2.4-12.9,5.4-27.5,14.7-36C108,76,99.9,87,102.7,101.7c0.5,2.7,1.9,6.2,1.9,6.6
					C104.6,108.5,104.6,108.6,104.4,108.7z M116.4,108.1c-0.1,0-0.2-0.1-0.3-0.1c-2.5-7.3-1-17.7,0.8-25.2
					C116.4,91.2,115.5,99.6,116.4,108.1z"/>
				<path class="st10" d="M165.7,91.4c-0.9-10.4-6-17.5-15.3-23.6c-2.7-1.8-5.8-3-8.3-4.9c-5.9-2.7-4-1.9-0.6,1
					c3.2,2.7,6.1,5.8,8.5,9.3c0,0,13.7,19.9,5.4,35.8c0,0,6.9-1.5,8.5-6.7c0-0.1,0-0.1,0.1-0.2c0,0.1-0.1,0.2-0.1,0.2
					s0.3-0.7,0.6-1.9c0,0,0,0,0,0c0,0,0-0.1,0-0.1c0,0,0,0.1,0,0.1C165,98.3,165.8,94.8,165.7,91.4z"/>
				<path class="st9" d="M89.8,69.7c1.4-2.7,15.4-14.1,26.9-14.1c1.2,0,3-0.2,3.5-0.6c-8.1-0.8-13.9-0.8-21.3,3
					c-7.2,3.7-15.6,12.7-16.9,21.8c-0.5,9.6,2.8,10.7,2.8,10.7C84.3,80,87.8,73.7,89.8,69.7z"/>
				<path class="st9" d="M124.1,55.4c1.8-0.4,7-3.9,9.3-5.3c-1.9-0.5-3.8-0.4-5.7-0.4c0,0.7-0.2,4.1-0.9,3.9c-0.1,0-0.3,0.1-0.4-0.1
					c-0.1-0.2,0-3.6,0-3.8c-8.4-0.2-3-0.3-1.3,4.5c-0.2,0.2-0.8-0.2-1.4-0.6c-2.1-1-3.8-2.7-6.1-3.4c-1.1-0.1-7.2,1.3-8.6,1.8
					c3.9,0.2,7.8,0.5,11.5,1.8C121.7,54.1,123.1,54.7,124.1,55.4z"/>
				<path class="st10" d="M155.9,96.9c-0.4-7.8-5.6-19.7-10.7-25.7c-2.8-3.3-9.8-8.8-13.6-11c-1.3-0.8-4.9-2.8-5.1-1.7
					c-3.1,13.6-5.2,24.7-4.7,39c0.4,9.5,4.5,16.5,4.5,16.5c8.9,0.3,17.8-1,26.9-3.6C153.9,110.4,156.2,101.7,155.9,96.9z M128,109.1
					c-1-3.3-0.7-6.7-1.1-10.1c-0.8-8.1-1.9-13.1-1.5-22.1c0.1-1.8,0.3-3.8,0.7-5.6c0.6,5.6,0.1,11.3,0.6,16.9
					C127.2,95.2,128.9,102.1,128,109.1z M148.8,105c-0.1,0.4-0.7,3.4-0.9,3.4c-0.1-1.4-0.1-1.4-0.2-2.9c3.7-21.1-3.9-26.4-14.4-42.3
					c4.7,4,12.7,15.4,14.6,20.9C150.1,90.4,150.2,98.4,148.8,105z"/>
				<path class="st0" d="M133.3,63.2c10.5,15.9,18.1,21.2,14.4,42.3c0.1,1.4,0.1,1.4,0.2,2.9c0.2,0,0.9-3,0.9-3.4
					c1.4-6.5,1.4-14.5-0.9-20.9C145.9,78.5,138,67.1,133.3,63.2z"/>
				<path class="st0" d="M126.1,71.3c-0.4,1.8-0.6,3.7-0.7,5.6c-0.4,9,0.7,13.9,1.5,22.1c0.3,3.4,0.1,6.8,1.1,10.1
					c0.9-7-0.8-14-1.3-20.9C126.3,82.6,126.7,76.9,126.1,71.3z"/>
				<path class="st0" d="M116.2,64.8c-9.4,8.5-17.1,23.2-14.7,36c0.4,2.4,1.6,5.9,2.9,7.9c0.2-0.1,0.2-0.2,0.2-0.4
					c0-0.3-1.4-3.9-1.9-6.6C99.9,87,108,76,116.2,64.8z"/>
				<path class="st0" d="M116.1,108c0.1,0,0.2,0.1,0.3,0.1c-0.9-8.5,0-16.9,0.6-25.4C115.2,90.2,113.6,100.7,116.1,108z"/>
				<path class="st0" d="M111.4,61.7c-12.6,3.2-20.8,17-21.5,29.4c-0.2,4,0.1,4.8,0.8,0.9c0.3-1.7,0.3-3.4,0.6-5.1
					C93.6,75.7,100.9,66.4,111.4,61.7z"/>
			</g>
			<path class="st10" d="M165.8,101.9c1.7-9.4-0.4-22.8-6.7-29.8c-4.1-4.6-15.5-11-16-11.2c-2.8-1.4-5.7-2.7-8.7-3.6
				c-5-1.6-8.1-0.8-3-4c0.6-0.4,5.2-2.7,5.5-2.8c2.9,0.6,2.9,0.6,5.8,1.1c-3.4,0.5-7,0.8-10,2.4c4.3-0.9,8.6-1.7,13-1.9
				c2.3,1.3,4.9,2.1,7.2,3.4c1.7,0.9,6.9,4.2,6.8,4.3c-3.7-1.5-7.9-2.5-12-2.7c2.2,0.7,8.5,2.6,9.4,3c9.4,4.4,12.5,11.3,15.6,20.7
				c0.6,3.5,0.6,7-0.8,10.3c0-3.2-1.7-10-1.8-10.2c-3.2-8.2-12.3-17.5-20.1-21.5c-4.9-2.5-10.6-3.5-16.1-3.8c0,0.1-1.6,0-0.9,0.4
				c0.6,0.3,10.7,3.5,12.6,4.3c4.3,1.8,8.2,4.2,11.7,7.4c4.3,3.9,10.5,11.9,12.2,17.4C169.6,85.1,172.8,96.2,165.8,101.9"/>
		</g>
		<text transform="matrix(1 0 0 1 90.9472 131.3384)" class="st10 st14 st15">Protéger</text>
	</g>
</g>
</svg>
