<svg width="224" height="139" viewBox="0 0 224 139" fill="#E5EBF0" stroke="#E5EBF0" xmlns="http://www.w3.org/2000/svg">
    <g stroke="none">
        <path
            d="M136.711 89.7127C136.711 89.7127 136.732 89.6429 136.769 89.5242C136.749 89.5857 136.732 89.643 136.711 89.7127Z"
            fill="inherit" />
        <path
            d="M71.0132 82.7117C71.042 73.5437 76.1789 63.5237 82.9414 57.3912C86.5475 54.1221 93.9743 49.2226 98.6325 48.0551C92.5096 48.0388 87.1293 49.6979 81.7077 52.3729C75.758 55.306 71.5495 58.4562 68.3106 64.3347C66.5736 67.485 64.7004 72.0035 64.7829 75.5961C65.0965 91.8101 75.4156 96.349 75.4156 96.349C70.7903 91.5152 71.009 82.7117 71.009 82.7117H71.0132ZM68.191 80.1432C67.5968 83.7482 67.2791 83.0312 67.4854 79.328C68.1373 67.7799 75.7457 54.9291 87.5831 51.9632C77.8045 56.3588 70.9554 64.9861 68.7769 75.42C68.4509 76.9766 68.4427 78.6029 68.191 80.1473V80.1432Z"
            fill="inherit" />
        <path
            d="M95.2241 65.8464C95.8513 60.6356 101.388 47.7685 99.6884 47.6988C99.7338 47.9693 92.0677 52.799 90.6979 53.7658C84.0427 58.4686 79.3349 63.3025 76.2982 70.9794C74.2352 76.1901 74.1403 82.6831 74.6024 88.2503C75.0851 94.1043 78.0105 96.7547 81.0266 97.4224C82.5491 98.0164 96.8828 99.5113 98.4548 99.979C96.1607 93.4775 94.3783 72.8678 95.2241 65.8464ZM81.0596 95.6609C79.7516 93.8133 78.7119 90.5239 78.2993 88.3077C76.0548 76.3541 83.3289 62.7413 92.109 54.8186C84.4594 65.2156 76.8758 75.4733 79.4752 89.127C79.9456 91.593 81.2411 94.9359 81.237 95.2513C81.237 95.4561 81.2453 95.5257 81.0596 95.6609ZM92.2823 95.0792C92.1915 95.0464 92.1379 94.9972 92.0471 94.9645C89.6664 88.156 91.1559 78.476 92.8104 71.5078C92.3153 79.365 91.4117 87.2098 92.2823 95.0792Z"
            fill="inherit" />
        <path
            d="M138.407 79.5861C137.537 69.8978 132.8 63.3393 124.078 57.6247C121.561 55.9778 118.681 54.8145 116.263 53.0734C110.759 50.591 112.529 51.2915 115.735 54.0074C118.697 56.5187 121.482 59.4271 123.669 62.6429C123.669 62.6429 136.451 81.1346 128.723 95.9599C128.723 95.9599 135.205 94.5548 136.715 89.7168C136.736 89.6513 136.753 89.5939 136.773 89.5284C136.736 89.643 136.715 89.7168 136.715 89.7168C136.715 89.7168 136.967 89.0286 137.277 87.9266C137.825 85.9726 138.56 82.7036 138.411 79.5902L138.407 79.5861Z"
            fill="inherit" />
        <path
            d="M67.4233 59.3657C68.7065 56.8258 81.8024 46.2282 92.5795 46.3019C93.7141 46.3101 95.3645 46.1053 95.8101 45.7202C88.1936 45.0156 82.7555 44.9582 75.828 48.5222C69.1274 51.9715 61.1931 60.2874 60.0172 68.7549C59.5303 77.6567 62.6661 78.6889 62.6661 78.6889C62.2452 68.9311 65.5254 63.1263 67.4192 59.3698L67.4233 59.3657Z"
            fill="inherit" />
        <path
            d="M99.4537 46.0684C101.149 45.7121 106.043 42.4513 108.151 41.169C106.402 40.7266 104.591 40.829 102.804 40.8208C102.816 41.4558 102.581 44.6346 101.921 44.4381C101.826 44.4094 101.62 44.4953 101.57 44.3807C101.496 44.2169 101.541 40.997 101.57 40.8208C93.6814 40.6323 98.7275 40.534 100.394 45.0198C100.221 45.2123 99.6476 44.7903 99.103 44.4381C97.1267 43.4877 95.5299 41.9555 93.4009 41.2878C92.3941 41.1568 86.626 42.5127 85.3511 42.9224C89.0108 43.0862 92.6582 43.418 96.1653 44.5568C97.2546 44.9092 98.5295 45.4048 99.4578 46.0726L99.4537 46.0684Z"
            fill="inherit" />
        <path
            d="M129.293 84.6986C128.901 77.4069 124.045 66.3422 119.304 60.775C116.672 57.6821 110.103 52.5943 106.55 50.5665C105.329 49.8701 101.987 47.9529 101.789 48.9893C98.9174 61.6476 96.8998 71.9953 97.432 85.2886C97.7869 94.1002 101.612 100.626 101.612 100.626C109.926 100.884 118.31 99.7328 126.764 97.2422C127.436 97.1971 129.532 89.1639 129.289 84.6986H129.293ZM103.151 96.0215C102.231 92.9859 102.478 89.7456 102.152 86.6281C101.36 79.0536 100.333 74.4451 100.741 66.0923C100.824 64.3799 101.034 62.5815 101.389 60.8978C101.925 66.1087 101.525 71.3644 101.917 76.5916C102.404 83.0436 104.038 89.4916 103.151 96.0215ZM122.601 92.1708C122.526 92.519 121.924 95.3209 121.718 95.3209C121.66 94.4251 121.601 93.5308 121.54 92.6377C125.039 73.0154 117.872 68.075 108.081 53.3111C112.521 57.0061 119.939 67.5834 121.775 72.7409C123.876 78.6481 123.921 86.0915 122.596 92.1708H122.601Z"
            fill="inherit" />
        <path
            d="M108.085 53.3109C117.872 68.0748 125.039 73.0152 121.544 92.6375C121.602 93.5333 121.661 94.4277 121.721 95.3208C121.928 95.3208 122.526 92.5188 122.604 92.1706C123.925 86.0913 123.883 78.6479 121.783 72.7407C119.947 67.5833 112.529 57.0101 108.089 53.3109H108.085Z"
            fill="inherit" />
        <path
            d="M101.389 60.8978C101.035 62.5774 100.827 64.38 100.741 66.0923C100.332 74.4451 101.36 79.0537 102.152 86.6281C102.478 89.7456 102.231 92.9859 103.151 96.0215C104.038 89.4916 102.404 83.0436 101.917 76.5916C101.52 71.3644 101.926 66.1087 101.389 60.8978Z"
            fill="inherit" />
        <path
            d="M92.1092 54.8227C83.325 62.7494 76.055 76.3622 78.2995 88.3117C78.7162 90.5238 79.7519 93.8133 81.0598 95.6649C81.2455 95.5298 81.2331 95.4601 81.2372 95.2553C81.2372 94.9358 79.9458 91.5971 79.4754 89.131C76.8761 75.4773 84.4596 65.2237 92.1092 54.8227Z"
            fill="inherit" />
        <path
            d="M92.0515 94.9645C92.1423 94.9972 92.1959 95.0464 92.2867 95.0791C91.4161 87.2098 92.3197 79.3649 92.8148 71.5078C91.1603 78.476 89.6708 88.156 92.0515 94.9645Z"
            fill="inherit" />
        <path
            d="M87.5831 51.9632C75.7415 54.9291 68.1373 67.7798 67.4854 79.328C67.2749 83.0312 67.5969 83.7482 68.191 80.1432C68.4468 78.5988 68.4551 76.9726 68.7769 75.4159C70.9554 64.9821 77.8004 56.3548 87.5832 51.9593L87.5831 51.9632Z"
            fill="inherit" />
        <path
            d="M138.535 89.3604C140.119 80.6102 138.155 68.1773 132.247 61.6475C128.397 57.3912 117.744 51.4512 117.261 51.2054C114.62 49.9313 111.947 48.7229 109.149 47.8217C104.442 46.3019 101.537 47.1088 106.327 44.0856C106.917 43.717 111.15 41.5663 111.497 41.5172C113.318 41.8667 115.14 42.2162 116.964 42.5658C113.82 43.0001 110.383 43.3441 107.619 44.7821C111.637 43.9545 115.673 43.1803 119.782 43.0329C121.89 44.2291 124.341 45.0155 126.54 46.1831C128.108 47.0146 132.985 50.0993 132.944 50.2099C129.441 48.8376 125.579 47.879 121.721 47.7029C123.784 48.3706 129.722 50.1198 130.534 50.5049C139.315 54.6383 142.199 61.0002 145.165 69.7585C145.743 73.0153 145.759 76.2228 144.402 79.328C144.385 76.3744 142.772 70.0043 142.698 69.8159C139.657 62.1513 131.211 53.5199 123.834 49.8044C119.213 47.4776 113.919 46.5641 108.79 46.3019C108.819 46.4207 107.284 46.2978 107.969 46.6501C108.51 46.9327 117.967 49.8741 119.724 50.6196C123.751 52.3197 127.44 54.5441 130.654 57.5058C134.64 61.1763 140.478 68.6116 142.112 73.728C142.112 73.728 145.079 83.9898 138.526 89.3645"
            fill="inherit" />

    </g>
    <g fill="none">
        <path
            d="M193.564 113.151L121.406 134.96C121.406 134.96 97.8908 144.447 66.9505 130.742L30.3793 114.676C16.7104 108.921 6.75163 96.8763 3.71898 82.4348C-2.43003 56.9897 -2.46589 46.0813 19.7709 33.5766C42.0078 21.0719 69.0706 5.73113 69.0706 5.73113C69.0706 5.73113 84.1023 -5.17332 113.544 6.49559C142.986 18.1646 190.823 38.5951 190.823 38.5951C190.823 38.5951 204.683 43.7562 217.559 70.1123C229.92 95.4147 221.181 105.265 193.568 113.151H193.564Z"
            stroke="inherit" stroke-width="0.396039" stroke-miterlimit="10" />
    </g>
</svg>