<?xml version="1.0" encoding="utf-8"?>
<!-- Generator: Adobe Illustrator 22.0.1, SVG Export Plug-In . SVG Version: 6.00 Build 0)  -->
<svg version="1.1" xmlns="http://www.w3.org/2000/svg" xmlns:xlink="http://www.w3.org/1999/xlink" x="0px" y="0px"
	 viewBox="0 0 267.8 184.3" style="enable-background:new 0 0 267.8 184.3;" xml:space="preserve">
<style type="text/css">
	.st0{fill:#241C28;}
	.st1{display:none;}
	.st2{display:inline;fill:#82AEDD;}
	.st3{display:inline;fill:#B9B5C6;}
	.st4{display:inline;fill:#FBFBFD;}
	.st5{display:inline;fill:#4F4E5C;}
	.st6{display:inline;fill:#D2D5E2;}
	.st7{display:inline;fill:#443C4F;}
	.st8{fill:none;stroke:#F0F2F5;stroke-miterlimit:10;}
	.st9{fill:#43455D;}
	.st10{fill:#82AEDD;}
	.st11{font-family:'NotoSans-Regular';}
	.st12{font-size:16px;}
	.st13{fill:none;stroke:#43455D;stroke-miterlimit:10;}
	.st14{display:inline;fill:#B7B5C8;}
	.st15{fill:none;}
</style>
<g id="Calque_2">
	<rect y="-1.2" class="st0" width="267.8" height="185.4"/>
</g>
<g id="Calque_1">
	<g>
		<g>
			<path class="st10" d="M149.7,57.5c0.3,0.1,0.7,0.2,1,0.3c0.2,0.1,0.4,0.3,0.4,0.3c1.2-0.8,2.5-0.3,3.7-0.4
				c1.6-0.1,3.2-0.8,4.7-0.1c0.4,0.2,0.6,0,0.9-0.2c0.6-0.4,1.1-0.5,1.7,0c0.5,0.4,0.6,0.9,0.4,1.4c-0.3,0.7-0.8,1-1.6,1
				c-1.7,0-3.4,0.4-5.1,0.5c-1.2,0.1-2.4,0.3-3.6,0.2c-1.4-0.1-2.8,0.6-4.5,0c1.1,1.4,1.1,1.4,2.4,0.7c0.4-0.2,0.8-0.2,1.1-0.1
				c0.2,0.1,0.4,0.3,0.6,0.3c1.4-0.2,2.8-0.3,4.3-0.2c0.1,0,0.1-0.1,0.2-0.2c1.5-0.2,3.1,0.1,4.6-0.1c0.4-0.1,0.8,0.6,0.8,1.2
				c-0.1,0.6-0.5,1.3-1.1,1.2c-1.6-0.3-3.2,0.3-4.8,0.3c-1.4,0-2.9,0-4.4,0.3c0.9,0.6,1.6,1.1,3,0.6c1.1-0.5,2.8,0.1,4.3-0.1
				c0.6,0,1.1,0.6,0.9,1.4c-0.2,0.7-0.7,1-1.5,1.1c-0.7,0-1.6-0.9-2.1-0.1c-0.3,0.4,0.2,1.3,0.4,2c0.1,0.4,0,0.7-0.2,1
				c-0.2,0.3-0.5,0.6-0.2,1c0.3,0.4,0.7,0.1,1.1,0c0.2,0,0.3-0.1,0.5-0.2c0.7-0.2,1.4-0.2,1.7,0.6c0.3,0.8-0.4,1.2-1,1.4
				c-2.3,0.8-4.7,1.7-7,2.5c-0.7,0.2-1.4,0.4-2,0.7c-0.8,0.4-1.5,0.4-2-0.5c-0.5-0.9-1.3-0.7-2-0.2c-0.6,0.5-1,0.6-1.5-0.1
				c-0.6-0.8-1.3-0.4-1.8,0c-0.5,0.4-1,0.6-1.5,0c-0.6-0.8-1.3-0.6-1.9-0.1c-0.5,0.4-1,0.6-1.5,0c-0.6-0.7-1.2-0.6-1.8-0.1
				c-0.6,0.5-1,0.6-1.6,0c-0.6-0.6-1.3-0.5-1.9,0c-0.5,0.4-1,0.6-1.4,0c-0.6-0.9-1.3-0.6-1.9-0.1c-0.7,0.5-1.1,0.6-1.6-0.2
				c-0.6-0.9-1.2-0.3-1.7,0c-0.7,0.5-1.2,0.6-1.8-0.2c-0.5-0.7-1.1-0.3-1.6,0c-0.7,0.5-1.2,0.7-1.8-0.1c-0.6-0.9-1.2-0.3-1.7,0.1
				c-0.7,0.6-1.2,0.6-1.7-0.2c-0.6-0.9-1.2-0.3-1.7,0.1c-0.7,0.5-1.2,0.7-1.7-0.1c-0.5-0.8-1.1-0.4-1.7,0c-0.6,0.5-1.1,0.6-1.7-0.1
				c-0.5-0.7-1.2-0.5-1.7,0c-0.6,0.6-1.2,0.7-1.8-0.1c-0.6-0.7-1.2-0.4-1.7,0.1c-0.5,0.5-1,0.5-1.5,0c-0.6-0.7-1.3-0.6-2,0
				c-0.5,0.4-0.9,0.4-1.4,0c-0.6-0.6-1.3-0.7-2-0.1c-0.5,0.4-0.9,0.5-1.4,0c-0.7-0.7-1.4-0.7-2.1,0c-0.5,0.5-0.9,0.5-1.3-0.1
				c-0.5-0.6-0.1-0.8,0.4-1.1c0.8-0.5,1-1.5,1.7-2.1c1-1,2.2-1.5,3.3-2.1c0.8-0.4,0.6-0.9,0-1.5c-0.8-0.6-1.7-1-2.6-1.3
				c-1.6-0.4-2.9-1.3-4.4-1.8c-0.3-0.1-0.6-0.2-0.6-0.6c0.3-0.4,0.5-0.1,0.8,0c3.2,1.1,6.4,2.2,9.5,3.3c0.7,0.3,1.3,0.3,1.8-0.5
				c0.6-0.9,1.4-0.9,2.3-0.4c0.3,0.2,0.7,0.5,1.1,0.2c0.2-0.1,0.4-0.3,0.3-0.5c0-0.1-0.2-0.3-0.4-0.3c-0.8-0.2-1.5-0.4-2.3-0.5
				c-4.3-0.6-8.4-1.8-12.6-2.5c-0.9-0.2-1.8-0.4-2.5-1c0.4-0.5,0.8-0.2,1.2-0.2c5.6,1.1,11.2,2.2,16.8,3.4c0.8,0.2,1.3,0.2,1.7-0.7
				c0.4-0.9,1.2-1,2.2-0.7c0.3,0.1,0.6,0.6,1,0.3c0.1-0.1,0.2-0.3,0.2-0.5c-0.2-0.5-0.7-0.4-1.2-0.5c-4.7-0.6-9.5-1.3-14.2-1.9
				c-2.3-0.3-4.7-0.6-7-0.9c-0.1,0-0.2,0-0.3,0c-0.5-0.2-1.4-0.2-1.2-0.9c0.1-0.5,0.9-0.1,1.3-0.1c7.6,1,15.2,2,22.8,3
				c1.1,0.1,2,0.4,2.6-1c0.3-0.8,1.2-0.8,2-0.4c0.3,0.1,0.5,0.4,0.8,0.1c0.1-0.1,0.2-0.3,0.1-0.3c-0.1-0.4-0.5-0.3-0.8-0.3
				c-8.2-0.8-16.4-1.5-24.6-2.3c-1.1-0.1-2.2-0.2-3.3-0.3c-0.4,0-0.9-0.1-0.8-0.7c0.1-0.5,0.5-0.3,0.9-0.3c4.6,0.4,9.2,0.8,13.8,1.3
				c5.6,0.5,11.2,1,16.8,1.6c0.7,0.1,1-0.2,1.3-0.8c0.4-0.9,0.9-1.6,2-0.8c0.2,0.2,0.5,0.2,0.7,0c0.6-0.7,1.1-0.7,1.8-0.2
				c0.2,0.2,0.5,0,0.7-0.2c0.2-0.1,0.4-0.4,0.5-0.4c1,0.3,2-0.1,2.9-0.2c0.8,0,1.5,0.2,2.2-0.3c0.1-0.1,0.5,0,0.7,0.1
				c0.5,0.4,0.9,0.3,1.3-0.1c0.1-0.1,0.1-0.2,0.2-0.1c1.1,0.1,2.1-0.1,3.1-0.3c0.6-0.1,1.2,0.3,1.8-0.3c0.2-0.2,0.6-0.1,0.9,0
				c0.2,0.1,0.5,0.3,0.6,0.3c0.9-0.7,1.8-0.3,2.7-0.4c0.7-0.1,1.4-0.7,2.2-0.1c0.2,0.1,0.4-0.1,0.6-0.2c0.1-0.1,0.3-0.4,0.4-0.3
				c1.2,0.6,2.4-0.6,3.6,0c0,0,0.1,0.1,0.1,0.1c1-0.7,2.2-0.2,3.3-0.5c0.1,0,0.1-0.2,0.2-0.2c1.2,0.2,2.4-0.4,3.5-0.2
				c0.6,0.1,0.9,0.2,1.4-0.2c0.3-0.3,0.7-0.3,1.1-0.1c0.4,0.3,0.7,0.3,1.2,0c0.8-0.5,1.4-0.2,1.7,0.6c0.2,0.9,0,1.7-1,1.8
				c-2.8,0.3-5.5,0.8-8.3,0.9C151.9,57,150.8,56.9,149.7,57.5c-0.7,0-1.4,0-2.2-0.1C148.4,58.9,149,58.1,149.7,57.5z M153.4,66.8
				c-0.5-0.1-1,0-0.9,0.5c0,0.5,0.4,1.1,0.9,1.1c0.6,0,1.3-0.4,1.3-0.9C154.7,66.8,153.8,67,153.4,66.8z M149.8,66.8
				c-0.5,0-0.9,0.1-0.7,0.6c0.1,0.5,0.4,1.1,1,1c0.5-0.1,1.1-0.4,1-0.9C151,66.8,150.2,67,149.8,66.8z M146.7,67c-0.5,0-1-0.1-1,0.6
				c0,0.5,0.3,0.9,0.8,0.9c0.5,0,1-0.3,1.1-0.8C147.7,67,147,67.1,146.7,67z M150.8,64.3c-0.2-0.5-0.7-0.5-1.2-0.6
				c-0.4-0.1-1-0.3-1,0.3c0,0.5,0.7,0.7,1.1,0.9C150.2,65.1,150.5,64.7,150.8,64.3z M142.1,67.6c0.1,0.5,0.4,0.9,0.8,0.9
				c0.5,0,1-0.3,1.1-0.8c0.1-0.6-0.6-0.6-1-0.7C142.6,66.9,142.2,67.1,142.1,67.6z M99.8,67.4c0.1,0.6,0.5,1,0.9,1.3
				c0.4,0.4,0.9,0.2,1.1-0.2c0.4-0.6-0.2-0.7-0.5-0.8C100.9,67.5,100.5,67.2,99.8,67.4z M146.1,63.8c-0.4,0-0.9,0-0.8,0.4
				c0.1,0.5,0.6,0.7,1.1,0.8c0.5,0.1,0.9-0.3,0.9-0.7C147.2,63.8,146.5,64,146.1,63.8z M139.6,67.1c-0.4,0.1-0.8,0.2-0.8,0.7
				c0,0.4,0.3,0.8,0.7,0.7c0.5,0,1-0.3,1.1-0.8C140.6,67.1,140,67.2,139.6,67.1z M137.2,67.7c-0.1-0.5-0.5-0.5-0.8-0.5
				c-0.5-0.1-0.9,0.1-1,0.6c-0.1,0.4,0.2,0.7,0.6,0.7C136.5,68.5,136.8,68.1,137.2,67.7z M129.3,67.3c-0.4,0.1-0.8,0.2-0.8,0.7
				c0,0.4,0.3,0.7,0.7,0.6c0.4-0.1,0.9-0.3,0.9-0.9C130,67.4,129.6,67.4,129.3,67.3z M140.6,64.5c-0.3-0.5-0.7-0.4-1.1-0.4
				c-0.3,0-0.7,0.2-0.6,0.5c0.1,0.4,0.4,0.7,0.9,0.6C140.2,65.2,140.5,64.9,140.6,64.5z M126.6,67.9c-0.1-0.4-0.4-0.5-0.7-0.4
				c-0.4,0.1-0.8,0.3-0.8,0.7c0,0.4,0.3,0.6,0.6,0.5C126.1,68.6,126.4,68.3,126.6,67.9z M133.6,67.8c0-0.4-0.3-0.5-0.6-0.5
				c-0.5,0-0.9,0.1-1,0.6c-0.1,0.3,0.2,0.6,0.5,0.6C133,68.6,133.3,68.2,133.6,67.8z M143,64c-0.4,0-0.8-0.1-0.9,0.4
				c-0.1,0.5,0.5,0.7,0.8,0.8c0.4,0.1,0.8-0.2,0.9-0.6C143.9,64,143.4,64.1,143,64z M145.9,60.7c-0.3,0-0.8-0.1-0.7,0.3
				c0,0.4,0.5,0.6,0.8,0.7c0.4,0.1,0.8-0.1,0.8-0.5C146.8,60.7,146.2,60.9,145.9,60.7z M118.7,68.8c0.4-0.1,0.7-0.3,0.8-0.7
				c0.1-0.3-0.2-0.5-0.5-0.4c-0.4,0.1-0.8,0.2-0.9,0.7C118.1,68.6,118.4,68.7,118.7,68.8z M122.1,68.7c0.4-0.1,0.8-0.2,0.9-0.6
				c0.1-0.3-0.1-0.5-0.4-0.5c-0.4,0-0.8,0.2-0.9,0.6C121.5,68.5,121.7,68.7,122.1,68.7z M137.1,64.6c-0.1-0.4-0.4-0.4-0.7-0.4
				c-0.4,0-0.7,0.2-0.6,0.6c0.1,0.3,0.4,0.5,0.7,0.4C136.8,65.3,137,65,137.1,64.6z M133.8,64.8c0-0.3-0.3-0.4-0.6-0.4
				c-0.4,0.1-0.9,0.1-0.9,0.6c0,0.3,0.3,0.5,0.5,0.5C133.3,65.5,133.6,65.2,133.8,64.8z"/>
			<path class="st9" d="M135.7,105.4c-0.4-0.7-0.9-0.5-1.3-0.5c-6.7-0.2-13.4-0.4-20-0.6c-6-0.2-12-0.3-17.9-0.5
				c-0.3,0-0.6,0-0.9-0.1c-0.2,0-0.4-0.2-0.4-0.5c0-0.3,0.2-0.5,0.4-0.6c0.2-0.1,0.5-0.1,0.8,0c10.6,0.2,21.2,0.4,31.7,0.7
				c2.8,0.1,5.7,0.2,8.5,0.2c1.8,0.1,3.7,0.4,4.8-2c-2.4,0-4.8,0-7.1,0c-11-0.1-22.1-0.2-33.1-0.3c-0.4,0-0.7,0-1.1-0.1
				c-0.3,0-0.6-0.2-0.6-0.6c0-0.4,0.2-0.7,0.6-0.7c0.5-0.1,1.1-0.1,1.6-0.1c14.2,0.1,28.4,0.2,42.6,0.3c0.7,0,1.4,0.2,1.9-0.6
				c0.4-0.8,0.4-1.2-0.6-1.2c-2.9,0-5.8,0-8.8,0.1c-10.3,0.1-20.6,0.2-31,0.3c-0.6,0-1.4,0.1-1.5-0.7c0-1,0.9-1,1.6-1
				c10-0.1,20-0.2,30-0.3c4.6,0,9.1-0.1,13.7-0.2c0.8,0,1.5,0.1,1.6,1c0.1,0.8,0.6,0.8,1.1,0.5c0.4-0.1,0.8-0.3,1.1-0.4
				c0.5-0.1,1.1-0.7,1.4,0c0.2,0.6,0.2,1.3-0.4,1.8c-0.7,0.6-1.5,0.8-2.2,1.1c-1.2,0.5-2.5,0.9-3.7,1.4c-0.2,0.1-0.5,0.2-0.4,0.5
				c0.1,0.3,0.4,0.3,0.6,0.2c2.8-0.8,5.7-1.5,8.6-1.8c0.6-0.1,1.1-0.3,1.1,0.5c0,0.7,0.1,1.5-0.9,1.8c-2.4,0.8-4.9,1.1-7.3,1.7
				c0,0-0.1,0-0.1,0c-0.5,0.1-1.1,0-1.3,0.5c-0.2,0.3,0.3,0.7,0.8,0.5c0.2-0.1,0.4-0.4,0.5-0.4c1,0.5,1.9-0.7,3-0.1
				c0.1,0.1,0.4,0.1,0.5,0c1.1-0.6,2.4-0.5,3.6-0.6c0.8,0,1.6-0.2,2.4-0.3c0.8-0.2,1.3-0.3,1.5,0.6c0.2,0.8,0,1.6-1,1.8
				c-2.9,0.6-5.8,1-8.7,1.3c-0.7,0.1-1.3,0.3-2.2,0.2c0.7,0.7,1.4,1.1,2.1,0.3c0,0,0.1-0.1,0.1-0.1c1.2,0.8,2.4-0.7,3.6,0
				c0.4,0.2,0.7,0,0.9-0.2c0.5-0.4,1-0.5,1.4-0.1c0.3,0.3,0.6,0.3,0.9,0c0.5-0.5,1-0.6,1.5-0.2c0.3,0.3,0.6,0.2,0.9-0.1
				c0.5-0.4,1-0.4,1.4,0c0.4,0.4,0.5,0.8,0.3,1.3c-0.2,0.6-0.5,1-1.2,1.1c-2.7,0.2-5.5,0.4-8.2,0.7c-2,0.2-4,0.5-6,0.7
				c-2,0.2-4.1,0.3-6.1,0.5c-2,0.2-4.1,0.5-6.1,0.7c-2,0.2-3.9,0.4-5.9,0.6c-2.1,0.2-4.3,0.3-6.4,0.6c-1.2,0.2-2.4-0.1-3.6-0.2
				c-9-0.8-18.1-1.7-27.1-2.6c-0.9-0.1-1.9-0.1-2.8-0.2c-0.3,0-0.8-0.1-0.8-0.5c0.1-0.5,0.6-0.3,0.9-0.3c3.1,0.3,6.3,0.6,9.4,0.9
				c6.7,0.6,13.5,1.3,20.2,2c1.1,0.1,2,0.1,2.4-1.2c0.1-0.3,0.4-0.5,0.6-0.8c-0.4-0.4-0.9-0.3-1.4-0.3c-9.6-0.6-19.2-1.3-28.8-1.9
				c-0.8-0.1-2.1,0.3-2.1-0.8c0-0.7,1.3-0.3,2-0.3c11.4,0.7,22.8,1.5,34.2,2.2c1.3,0.1,2-0.4,2.2-1.6c0.1-0.8-0.5-0.6-0.9-0.6
				c-2.4-0.1-4.9-0.2-7.3-0.3c-8.9-0.4-17.8-0.8-26.7-1.2c-0.1,0-0.3,0-0.4,0c-0.4,0-0.9-0.1-0.9-0.6c0-0.6,0.5-0.5,0.9-0.5
				c2.3,0.1,4.7,0.2,7,0.3c7.5,0.3,15,0.7,22.4,1c3.4,0.2,6.8,0.3,10.2,0.5c0.8,0,1.5,0,1.7-1C134.3,105.1,135.1,105.7,135.7,105.4z
				 M150.8,98.5c-1-0.2-1.7-0.4-2.4,0.3c-0.1,0.1-0.2,0.3-0.1,0.5c0,0.2,0.2,0.2,0.4,0.2C149.3,99.2,150.1,99.2,150.8,98.5z"/>
			<path class="st10" d="M142.5,86.2c3.4-0.2,6.8-0.5,10.2-0.7c2.3-0.2,4.7-0.4,7-0.4c0.9,0,1.4,0.3,1.4,1.2c0,0.8-0.5,1.1-1.3,1.2
				c-8.1,1-16.2,1.3-24.3,1.9c-2.8,0.2-5.6,0.4-8.5,0.6c0.4,0.5,0.8,0.4,1.1,0.3c9.7-0.5,19.4-0.9,29-1.4c0.8,0,1.5,0,1.5,1
				c0.1,0.9-0.6,1.2-1.4,1.2c-9.2,0.8-18.5,1-27.7,1.4c-3.9,0.2-7.9,0.4-11.8,0.5c-0.5,0-1.3,0.3-1.3-0.7c0-0.8,0.1-1.8,1.3-1.8
				c1.2,0,2.4-0.1,3.6-0.1c1.1,0,1.8-0.4,1.7-1.7c-0.1-1.1,0.3-1.6,1.5-1.5c1.1,0.1,2.3-0.1,3.4-0.1c1.5,0,1.9-0.4,1.6-1.9
				c-0.2-1.7,0-1.8,1.7-1.5c1.3,0.2,2.7,0.1,4.1,0.1c0.4,0,0.8-0.2,0.8-0.7c0-0.7-0.2-1.4-0.7-1.9c-0.4-0.3-0.9-0.4-1.2,0
				c-0.7,0.6-1.1,0.6-1.7-0.1c-0.4-0.5-1-0.3-1.4,0.1c-0.5,0.5-0.9,0.6-1.3,0c0-0.1-0.1-0.1-0.2-0.2c-0.9-0.8-1.7,0.8-2.3,0.3
				c-0.7-0.5-1.2-1.2-2.1-0.4c-0.4,0.4-0.7,0.5-1.1,0c-0.6-0.8-1.2-0.8-1.9-0.1c-0.2,0.2-0.4,0.5-0.8,0.2c-0.1-0.1-0.3-0.4-0.2-0.6
				c0-0.4,0.4-0.4,0.7-0.4c0.7-0.2,1.5-0.4,2.2,0c0.1,0.1,0.3,0.1,0.5,0.1c2.6-0.4,5.1,0.1,7.7,0.2c1.8,0.1,3.6,0.1,5.4,0.3
				c2,0.2,4.1-0.1,6.2-0.5c4.3-0.8,8.6-1.6,12.9-2.5c1.6-0.4,3.1,0.5,4.7,0.2c0.5-0.1,1,0.4,1,1c0,0.6-0.3,1-0.9,1.1
				c-0.7,0.1-1.5,0.2-2.2,0.4c-0.4,0.1-0.9,0.1-0.8,0.6c0.1,0.4,0.5,0.4,0.9,0.4c0.5,0,1.1,0,1.6,0c0.8,0,1.3,0.4,1.3,1.2
				c0.1,0.8-0.5,1-1.2,1.2c-5.5,1-11,1.3-16.6,1.9C144,85.7,143.2,85.7,142.5,86.2z M149.5,82.1c-1.4-0.2-2.7,0-4,0.4
				C146.8,82.7,148.1,82.4,149.5,82.1z"/>
			<path class="st10" d="M133.7,95.4c-9.1,0.2-15.4,0.4-21.7,0.6c-0.6,0-1.7,0.5-1.8-0.7c-0.1-1.2,0.9-1.4,1.9-1.4
				c4.2-0.1,8.5-0.2,12.7-0.3c9.4-0.2,18.8-0.5,28.3-0.8c0.4,0,0.7,0,1.1,0c0.7,0,1,0.4,1,1.1c0,0.7-0.5,0.7-1,0.7
				C146.5,95.3,138.7,95.1,133.7,95.4z"/>
			<path class="st10" d="M124.8,76.5c1.3,1,3-0.4,4.5,0.5c0.1,0.1,0.3,0,0.4,0c2.8-0.6,5.7,0,8.6,0c2.6-0.1,5.3,0,7.9,0.2
				c0.6,0.1,1.2-0.2,1.8-0.4c2.7-0.8,5.4-1.6,8-2.8c0.7-0.3,1.3-0.5,2,0.1c0.5,0.4,1.2,0.1,1.8,0c0.8-0.1,1.6-0.2,1.8,0.8
				c0.2,1-0.6,1.2-1.4,1.4c-5.4,1.1-10.8,2.2-16.2,3.4c-0.9,0.2-1.5,0-1.9-0.9c-0.5-1.1-1.3-1.2-2.1-0.4c-0.5,0.4-0.8,0.5-1.2,0
				c-0.6-0.8-1.3-0.7-2-0.2c-0.4,0.3-0.8,0.5-1.2,0c-0.6-0.8-1.3-0.7-1.9-0.1c-0.4,0.3-0.8,0.7-1.2,0.1c-0.6-0.9-1.3-0.7-2.1-0.2
				c-0.5,0.4-0.8,0.5-1.2-0.1c-0.5-0.8-1.2-0.7-1.8-0.2c-0.6,0.5-1,0.7-1.5-0.1c-0.5-0.8-1.1-0.5-1.7-0.1c-0.3,0.3-0.6,0.7-1.1,0.4
				c-0.2-0.2-0.4-0.4-0.4-0.7c0.1-0.6,0.7-0.5,1.2-0.7C124.1,76.5,124.3,76.5,124.8,76.5z"/>
			<path class="st10" d="M121.1,76.4c0.3,0,0.8,0.1,0.6,0.3c-0.3,0.6-0.9,1.1-1.6,1.2c-0.4,0.1-0.7-0.4-0.6-0.8
				C119.7,76.2,120.6,76.7,121.1,76.4z"/>
			<path class="st10" d="M117.7,76.3c0.3,0,0.8,0.1,0.6,0.4c-0.3,0.5-0.7,1-1.4,1.1c-0.4,0-0.7-0.4-0.6-0.7
				C116.5,76.2,117.3,76.5,117.7,76.3z"/>
			<path class="st10" d="M114.3,76.2c0.4,0,0.7,0,0.6,0.4c-0.1,0.5-0.5,0.9-1.1,1c-0.4,0-0.7-0.3-0.7-0.7
				C113.1,76.1,113.9,76.4,114.3,76.2z"/>
			<path class="st10" d="M111.6,76.6c-0.2,0.4-0.5,0.9-1,0.9c-0.5,0-0.7-0.4-0.7-0.8c0.1-0.6,0.7-0.5,1.2-0.6
				C111.4,76.1,111.7,76.2,111.6,76.6z"/>
			<path class="st10" d="M107.5,76c0.4,0,0.8,0,0.7,0.5c0,0.5-0.3,0.8-0.9,0.8c-0.4,0-0.6-0.3-0.6-0.7C106.7,76,107.2,76.1,107.5,76
				z"/>
			<path class="st10" d="M120.7,79.7c-0.5,0.4-0.9,0.7-1.3,1c-0.4,0.3-0.7,0.1-0.8-0.2c-0.2-0.4,0-0.6,0.3-0.7
				C119.5,79.7,120,79.5,120.7,79.7z"/>
			<path class="st10" d="M101.7,76.5c-0.1,0.4-0.3,0.7-0.7,0.6c-0.4,0-0.6-0.4-0.6-0.8c0-0.4,0.3-0.5,0.6-0.5
				C101.4,75.9,101.7,76,101.7,76.5z"/>
			<path class="st10" d="M125,84.6c-0.5-0.1-0.6-0.5-0.6-0.9c0-0.3,0.2-0.5,0.5-0.5c0.3,0.1,0.9,0.1,0.8,0.7
				C125.6,84.2,125.3,84.5,125,84.6z"/>
			<path class="st10" d="M104.9,76.6c-0.1,0.4-0.3,0.7-0.7,0.6c-0.4-0.1-0.6-0.4-0.6-0.8c0-0.5,0.4-0.5,0.8-0.5
				C104.7,76,104.9,76.2,104.9,76.6z"/>
			<path class="st10" d="M97.9,77c-0.4-0.1-0.6-0.4-0.7-0.8c0-0.3,0.2-0.4,0.5-0.4c0.4,0,0.7,0.2,0.7,0.6
				C98.4,76.8,98.2,76.9,97.9,77z"/>
			<path class="st10" d="M114.4,79.4c-0.4,0.5-0.6,1.1-1.2,1c-0.3,0-0.5-0.3-0.3-0.6C113.1,79.3,113.6,79.2,114.4,79.4z"/>
			<path class="st10" d="M117.3,79.6c-0.4,0.4-0.6,1.1-1.3,1c-0.2,0-0.4-0.3-0.3-0.5C116.1,79.4,116.7,79.5,117.3,79.6z"/>
			<path class="st10" d="M94.7,76.8c-0.4,0-0.6-0.3-0.7-0.6c-0.1-0.3,0.1-0.5,0.4-0.5c0.4,0,0.7,0.1,0.8,0.6
				C95.2,76.6,95,76.7,94.7,76.8z"/>
			<path class="st10" d="M128.6,83.7c-0.6,0.5-0.5,1.2-1.3,1c-0.2,0-0.4-0.5-0.3-0.6C127.2,83.4,127.8,83.6,128.6,83.7z"/>
			<path class="st10" d="M107.7,80.1c-0.4,0-0.6-0.2-0.6-0.5c-0.1-0.4,0.1-0.6,0.5-0.6c0.3,0,0.5,0.1,0.6,0.4
				C108.1,79.8,107.9,80,107.7,80.1z"/>
			<path class="st10" d="M110.6,79.2c0.3,0,0.6,0.1,0.5,0.4c-0.1,0.3-0.3,0.6-0.7,0.7c-0.3,0-0.5-0.2-0.5-0.5
				C109.9,79.4,110.3,79.3,110.6,79.2z"/>
			<path class="st10" d="M121.7,83.1c0.7,0,1.2,0.1,1.2,0.8c0,0.2-0.2,0.5-0.4,0.4C121.9,84.2,121.9,83.6,121.7,83.1z"/>
			<path class="st10" d="M119.1,82.9c0.4,0.3,1.2,0,1.3,0.7c0,0.1-0.2,0.4-0.3,0.4C119.3,84.1,119.5,83.3,119.1,82.9z"/>
		</g>
		<path class="st8" d="M221.3,135.9l-77.1,23.4c0,0-25.1,10.2-58.2-4.5L47,137.6c-14.6-6.2-25.2-19.1-28.5-34.6
			C12,75.6,11.9,63.9,35.7,50.4s52.6-29.9,52.6-29.9s16.1-11.7,47.5,0.8c31.4,12.5,82.5,34.5,82.5,34.5s14.8,5.5,28.6,33.9
			C260.1,116.9,250.8,127.4,221.3,135.9z"/>
		<text transform="matrix(1 0 0 1 76.2214 131.683)" class="st10 st11 st12">Consolidation</text>
	</g>
</g>
</svg>
