<svg width="224" height="139" viewBox="0 0 224 139" fill="#E5EBF0" stroke="#E5EBF0" xmlns="http://www.w3.org/2000/svg">
    <g stroke="none">
        <path
            d="M98.0834 93.7034C97.5386 93.7387 97.0026 93.6372 96.4623 93.8225C95.6832 93.1191 94.9027 92.4157 94.1206 91.7123C93.8439 90.0302 93.5847 88.3612 92.7983 86.8249C92.8466 85.0766 93.5319 85.0148 93.4001 83.5092C92.8817 81.3283 93.0179 77.0811 92.6797 75.4255C92.5215 74.6484 90.6895 72.5294 92.7983 70.962C92.8773 69.7126 92.4424 67.9687 92.438 67.7656C92.3809 65.4213 92.6928 63.0593 92.5566 60.7061C91.924 59.8496 91.9591 58.6532 92.0778 57.6289C92.2184 56.3795 92.7455 55.5406 92.7983 55.1566C93.242 51.9336 91.0849 48.9624 93.9976 46.8343C93.5759 42.8167 96.0976 42.3443 96.638 41.5276C96.928 38.9891 101.075 37.4041 103.359 37.0642C102.525 38.0796 101.211 38.4018 99.7572 40.0796C95.8824 44.5519 97.3014 46.7505 97.1169 47.8013C96.9587 48.6931 95.0344 48.7151 96.8752 54.0749C96.761 55.0594 95.856 55.7349 95.6759 56.3662C94.9729 58.8209 97.0026 59.4435 96.9983 61.1917C96.9851 64.6354 93.4617 64.1365 96.7566 69.3948C93.9449 74.4057 97.319 74.4631 97.1169 76.6352C97.0158 77.7036 95.5485 78.7411 95.6759 80.2554C95.7901 81.58 97.4903 82.4762 97.2355 83.8757C95.5133 87.0324 97.8549 90.5511 98.0746 93.7078L98.0834 93.7034Z"
            fill="inherit" />
        <path
            d="M107.445 37.3644C109.347 37.8368 112.471 39.3511 112.365 41.6468C114.672 43.0508 115.234 44.0839 114.887 46.8344C117.932 48.6931 115.572 52.1589 116.086 54.9182C116.346 56.3089 117.615 55.6113 117.167 58.7195C117.035 59.0858 116.587 59.7702 116.565 59.8673C116.455 60.4236 116.042 70.6398 116.086 71.2093C116.1 71.3991 116.056 71.483 116.267 71.6331C116.469 71.6993 119.777 70.4366 120.229 70.185C121.982 69.2181 124.956 65.6421 121.552 68.9797C120.818 69.3506 120.133 69.9554 119.39 70.3086C115.902 71.9554 116.455 71.2711 116.57 69.0416C122.307 67.4742 121.451 62.1057 124.073 57.8806C126.89 59.2315 126.542 61.6288 125.576 64.216C125.246 65.0946 123.775 67.1785 124.254 66.9886C124.596 66.8561 126.244 62.737 125.936 64.216C125.642 65.6067 123.375 68.8517 121.556 69.9466C118.353 71.8715 115.665 70.9708 115.972 73.2622C116.038 73.7434 116.614 74.1187 116.693 74.4675C117.119 76.335 114.448 78.7809 116.574 80.6219C116.811 82.9133 115.01 82.5822 115.252 87.0148C116.6 89.1736 114.852 90.4363 114.65 90.8734C114.536 91.1207 114.549 91.624 114.531 91.6593C113.437 93.805 112.677 94.0301 110.09 93.5312C110.735 91.3238 112.168 87.8978 111.891 85.6902C111.803 85.006 111.082 83.9817 111.17 83.0368C111.302 81.6374 113.96 81.0766 111.649 77.3681C113.683 74.6882 111.869 73.196 111.891 72.9047C114 70.3484 111.966 68.3086 111.891 67.8362C111.662 66.4102 113.754 65.695 113.45 63.4919C113.319 62.5383 112.308 61.8276 112.009 61.077C110.454 57.1433 114.487 57.4347 111.768 53.1168C112.418 50.8343 113.165 49.9779 111.649 47.8101C112.633 44.3576 109.839 40.468 107.269 38.4592C106.557 37.9029 102.797 36.2165 107.449 37.3732L107.445 37.3644Z"
            fill="inherit" />
        <path
            d="M97.1824 54.2515C96.7782 56.9931 96.1807 57.2404 97.301 60.2822C95.1571 57.2184 95.7985 57.2713 97.1824 54.2515Z"
            fill="inherit" />
        <path
            d="M96.9408 70.057C95.7634 74.4675 98.8871 77.2754 96.4005 74.2203C95.5086 72.344 96.0051 71.7303 96.9408 70.057Z"
            fill="inherit" />
        <path
            d="M111.948 61.7348C113.846 63.7481 113.182 64.8386 111.706 66.8033C112.391 64.79 112.655 63.832 111.948 61.7348Z"
            fill="inherit" />
        <path
            d="M98.6803 93.4606C98.7213 93.5224 98.7609 93.5828 98.7989 93.6416C98.7199 93.6622 98.6393 93.6828 98.5573 93.7034C97.9774 90.6615 96.3255 87.2488 97.3579 84.2335C97.1998 87.3769 97.8851 90.4408 98.6803 93.4606Z"
            fill="inherit" />
        <path
            d="M96.7034 63.6641C95.8775 66.3572 97.2043 68.9135 96.9451 68.9709C95.9434 66.865 94.9154 65.7392 96.7034 63.6641Z"
            fill="inherit" />
        <path
            d="M104.145 73.92C104.207 73.889 105.375 74.4012 105.406 74.463C105.788 75.2577 104.585 77.5048 104.747 78.5027C103.728 77.081 104.976 76.1141 105.046 75.6683C105.235 74.4983 103.552 74.2378 104.145 73.92Z"
            fill="inherit" />
        <path
            d="M97.182 77.4167C97.0034 78.4822 96.8232 79.5476 96.6417 80.6131C98.7416 84.7322 96.1232 81.1915 96.0398 80.3703C95.9299 79.2931 96.7515 78.3438 97.182 77.4167Z"
            fill="inherit" />
        <path
            d="M97.301 48.1015C96.8002 50.2383 97.1429 51.8983 97.1824 54.013C96.8793 51.5849 95.6228 50.4282 97.301 48.1015Z"
            fill="inherit" />
        <path d="M111.706 68.2469C112.615 69.7789 112.883 71.1078 111.706 72.5912V68.2469Z" fill="inherit" />
        <path
            d="M111.469 77.898C112.506 79.5889 112.651 80.4896 111.228 81.9995C112.106 79.9995 111.28 77.9907 111.469 77.898Z"
            fill="inherit" />
        <path
            d="M111.587 53.651C112.76 55.4655 112.769 56.3838 111.469 58.1145C112.431 55.8497 111.372 53.7173 111.587 53.651Z"
            fill="inherit" />
        <path
            d="M111.109 84.6572C112.15 86.6924 111.074 89.3546 110.388 91.4119C110.845 89.1736 111.5 86.9705 111.109 84.6572Z"
            fill="inherit" />
        <path
            d="M111.346 48.1015C112.677 49.8144 112.242 50.6842 111.588 52.565C111.851 50.8211 111.605 49.7836 111.346 48.1015Z"
            fill="inherit" />
        <path
            d="M110.265 42.4327C111.35 43.9515 111.684 45.66 111.227 47.5011C111.038 45.7616 110.863 44.0928 110.265 42.4327Z"
            fill="inherit" />
        <path
            d="M98.3821 42.5519C97.7407 44.2429 97.6616 45.9691 97.42 47.7395C97.13 45.8278 97.2355 44.1721 98.3821 42.5519Z"
            fill="inherit" />
        <path
            d="M111.706 73.3152C113.367 75.5183 110.436 78.6573 111.886 75.4255C111.825 74.7221 111.765 74.0187 111.706 73.3152Z"
            fill="inherit" />
        <path
            d="M104.264 54.013C105.015 53.9291 105.112 54.8298 104.624 54.9798C104.075 55.1432 103.592 54.3927 104.563 54.7988C104.348 54.0527 103.671 54.7635 103.601 54.556C103.588 54.5163 104.154 54.0262 104.26 54.013H104.264Z"
            fill="inherit" />
        <path
            d="M104.264 46.1721C104.443 46.6754 104.623 47.1787 104.805 47.682C104.097 50.1676 104.576 48.4016 104.264 46.1721Z"
            fill="inherit" />
        <path d="M104.146 68.6088C103.776 68.4631 103.306 68.0305 103.544 67.642L104.146 68.6088Z" fill="inherit" />
        <path
            d="M104.146 60.4058C104.528 60.4588 104.527 61.7744 104.264 61.7347C104.223 61.2932 104.184 60.8503 104.146 60.4058Z"
            fill="inherit" />
        <path
            d="M104.507 75.0017C104.801 74.9885 104.712 75.6596 104.624 75.7258C104.378 75.9157 104.269 75.0105 104.507 75.0017Z"
            fill="inherit" />
        <path
            d="M103.426 58.7195C103.575 58.6312 103.676 59.4568 103.606 59.6246C103.5 59.8806 103.202 58.852 103.426 58.7195Z"
            fill="inherit" />
        <path
            d="M104.984 47.3775C105.116 47.5805 105.138 47.6556 105.103 47.8587C104.958 48.7902 104.804 47.4569 104.984 47.3775Z"
            fill="inherit" />
        <path
            d="M122.993 57.7525C124.166 57.7967 122.87 59.1211 122.211 60.9489C120.884 64.6398 121.253 66.9136 116.75 68.6088C116.729 67.6641 116.709 66.7193 116.688 65.7745C119.913 65.5449 117.629 60.609 120.95 58.4766C121.293 58.2559 122.641 57.7392 122.993 57.7525Z"
            fill="inherit" />
        <path
            d="M84.6969 53.651C85.681 53.6467 86.7222 58.843 87.0385 59.7437C88.0007 62.4632 89.3319 63.6068 92.0821 64.45C92.0235 65.4742 91.9634 66.5 91.9019 67.5272C87.0869 67.302 83.48 63.4125 82.72 58.7812C82.2059 55.6731 83.5547 53.6599 84.7013 53.6555L84.6969 53.651Z"
            fill="inherit" />
        <path
            d="M85.5361 53.5319C86.9727 53.4966 88.3346 54.3045 89.0771 55.5231C90.7377 58.2471 89.099 60.8475 92.1963 61.3154C92.1377 62.219 92.0777 63.1241 92.0162 64.0306C86.4411 62.5384 87.8953 57.7305 85.3516 53.7173C85.4101 53.6584 85.4702 53.5982 85.5317 53.5363L85.5361 53.5319Z"
            fill="inherit" />
        <path
            d="M104.444 86.9486C103.93 86.0877 103.826 86.2952 103.843 85.0194C103.878 84.909 104.281 84.2599 104.444 84.3571C103.873 85.2754 104.013 86.0171 104.444 86.9486Z"
            fill="inherit" />
        <path
            d="M94.0019 92.3745C94.0019 92.3745 93.9755 92.242 94.1205 92.2553C94.3489 92.5687 95.5088 93.3811 95.9217 93.7652C95.8514 93.9639 94.3665 93.593 94.0019 92.3789V92.3745Z"
            fill="inherit" />
        <path
            d="M103.904 88.9971C104.278 89.0369 104.071 89.6638 103.786 89.602C103.412 89.5181 103.794 88.9883 103.904 88.9971Z"
            fill="inherit" />
        <path
            d="M104.445 93.5842C104.098 92.9264 104.156 90.8955 104.564 90.2686C104.38 89.836 103.434 91.3414 104.445 89.6064C106.272 86.4629 103.799 86.9353 104.445 84.9618C104.541 84.6616 107.019 81.9376 104.084 81.2224C106.808 78.984 103.236 79.377 103.724 76.3969H103.967C103.549 77.2445 104.344 78.3262 104.866 78.9884C104.691 77.4962 105.5 76.4719 105.649 75.6728C105.72 75.2976 105.903 72.8694 105.046 73.2578C106.672 74.7899 103.368 74.0967 104.686 72.8958C104.124 72.494 105.736 71.6508 104.686 69.1563C105.499 66.8827 104.555 70.004 104.208 67.7083C104.859 67.492 104.352 67.2226 104.449 66.9843C104.849 65.9644 106.871 64.322 105.052 63.1255C104.999 63.2404 106.062 64.0439 105.232 65.4787C105.368 62.9578 103.162 62.7857 103.25 62.5251C105.082 63.183 104.098 62.6135 105.112 61.5009C105.626 61.8143 105.144 62.1896 105.175 62.4059C105.399 63.9821 106.206 61.3287 104.695 61.2007C105.112 59.9601 103.536 59.4568 104.037 58.4855C104.551 60.2514 104.901 59.9424 104.335 58.5473C106.944 55.3994 103.444 55.1699 103.497 54.927C106.168 55.5539 104.638 53.8541 104.695 53.7217C104.735 53.6335 105.604 54.3751 105.297 52.5165C105.165 51.7351 103.734 51.3641 103.857 50.4636C105.693 52.2075 103.703 50.0044 104.397 50.0397C105.43 51.1346 104.485 49.9381 104.577 49.6159C104.595 49.5541 105.416 48.7373 105.597 48.83C105.017 50.1236 105.926 51.139 105.175 50.7019C105.733 51.6732 105.169 52.1765 105.653 52.874C105.095 54.4458 106.093 56.044 105.175 57.4568C105.355 57.8409 105.881 56.4943 105.894 56.3708C105.774 54.1191 105.655 51.8675 105.535 49.6159C106.348 48.4062 105.267 48.6754 105.175 48.5297C105.096 48.4017 105.988 47.841 104.454 45.7572C104.714 43.5188 104.401 45.5453 103.974 45.1523C105.332 43.5365 104.348 40.4549 104.695 38.1547C105.991 37.3335 108.922 40.4593 109.498 41.4129C111.128 44.1236 110.653 47.4172 111.541 50.3399C110.785 53.7835 112.362 55.7261 111.18 58.0616C110.877 61.0417 113.121 63.0063 111.421 66.8694C111.751 69.7965 111.387 72.6442 111.664 75.5537C110.456 78.0525 112.248 79.2533 110.702 82.9134C111.295 86.8559 110.789 89.8668 109.441 93.5887C108.268 93.6991 105.011 93.443 104.458 93.5887L104.445 93.5842Z"
            fill="inherit" />
        <path
            d="M103.363 56.5473C103.372 56.3663 103.126 56.459 103.122 56.3663C103.122 56.3133 103.719 56.278 103.122 55.3995C104.677 55.4303 105.121 56.9535 103.904 57.9954C102.937 58.821 103.007 58.119 102.942 58.1147C102.906 58.1147 102.525 58.6224 102.521 58.6577C102.464 59.1212 103.931 60.0307 104.08 61.0726C104.331 62.821 102.674 61.885 102.88 62.7635C102.928 62.9622 105.412 63.7128 104.744 65.96C104.797 64.737 104.321 64.1852 104.084 64.5737C104.031 64.6576 104.602 65.7436 104.325 66.503C104.299 66.5781 103.609 65.7569 103.904 67.6509L103.302 67.0461C103.091 67.1476 103.697 67.4787 103.003 67.832C102.946 68.1763 105.561 69.7657 103.663 72.8385C103.54 72.8252 104.246 70.7281 103.543 70.4235C102.942 70.163 103.825 70.6221 103.724 71.8098C103.671 72.4367 103.038 73.0107 103.122 73.3771C103.148 73.4831 104.427 74.2601 104.084 75.068C104.057 75.1342 103.505 75.1298 103.606 75.43C103.681 75.6596 104.159 75.0283 104.207 75.43C104.277 76.0261 103.074 76.1276 103.369 77.845C103.487 78.5293 104.33 79.2048 104.33 79.2931C104.33 79.5183 103.095 79.9068 104.572 79.6551C102.173 81.4962 105.152 80.9928 104.634 83.4564C104.854 81.3593 105.087 81.6242 104.814 83.5182C104.37 83.9288 101.641 86.6439 103.851 85.0281C103.447 86.2599 104.255 86.8647 104.572 87.9817C104.501 88.5468 102.71 89.1473 103.733 89.911C103.096 90.3878 104.22 91.1119 103.851 93.5312C103.71 93.73 99.6076 93.5931 99.0496 93.4695C97.2308 89.2135 97.9074 83.6772 97.7273 82.5514C97.6306 81.9376 96.8354 81.2534 97.0068 79.2931C98.584 75.068 96.5323 74.3571 96.9453 71.6332C97.0683 71.6332 96.8618 73.1343 97.4241 74.0481C97.1517 72.3705 97.1957 70.631 97.244 68.9225C96.0534 65.5141 97.4461 63.0991 97.4856 59.7526C96.1676 57.4744 97.3406 56.2559 97.4856 54.8079C97.6262 53.4083 97.143 51.5231 97.244 49.9823C98.1534 46.7727 97.4241 44.6844 99.2869 41.5365C99.7394 40.7772 101.383 38.8611 102.108 38.4593C105.855 36.3799 103.57 40.5432 103.847 44.4328C102.414 44.5607 104.492 45.5409 104.207 48.5342C104.202 48.6048 103.913 49.6115 103.847 49.8631C103.816 49.9823 103.535 49.6688 103.486 49.8631C103.355 50.3797 103.53 51.9514 104.325 52.1545C103.346 53.6203 104.826 51.638 105.046 52.7593C105.222 53.6556 102.147 53.5717 103.246 56.0176C102.27 57.364 104.053 56.8608 103.363 56.5606V56.5473Z"
            fill="inherit" />

    </g>
    <g fill="none">
        <path
            d="M193.564 113.151L121.406 134.96C121.406 134.96 97.8908 144.447 66.9505 130.742L30.3793 114.676C16.7104 108.921 6.75163 96.8763 3.71898 82.4348C-2.43003 56.9897 -2.46589 46.0813 19.7709 33.5766C42.0078 21.0719 69.0706 5.73113 69.0706 5.73113C69.0706 5.73113 84.1023 -5.17332 113.544 6.49559C142.986 18.1646 190.823 38.5951 190.823 38.5951C190.823 38.5951 204.683 43.7562 217.559 70.1123C229.92 95.4147 221.181 105.265 193.568 113.151H193.564Z"
            stroke="inherit" stroke-width="0.396039" stroke-miterlimit="10" />
    </g>
</svg>