<svg width="224" height="137" viewBox="0 0 224 137" fill="none" xmlns="http://www.w3.org/2000/svg">
<g clip-path="url(#clip0_515_2980)">
<path d="M194.306 111.853L122.159 133.584C122.159 133.584 98.6463 143.035 67.7132 129.381L31.1478 113.372C17.4847 107.637 7.52509 95.6353 4.48933 81.2452C-1.65249 55.8982 -1.69203 45.0327 20.5424 32.5703C42.7725 20.1122 69.8351 4.83001 69.8351 4.83001C69.8351 4.83001 84.8646 -6.03547 114.3 5.59151C143.735 17.2185 191.564 37.5701 191.564 37.5701C191.564 37.5701 205.425 42.7134 218.293 68.9699C230.651 94.1776 221.913 103.994 194.306 111.853Z" stroke="#E5EBF0" stroke-width="0.435141" stroke-miterlimit="10"/>
<path d="M98.0839 92.3545C97.5391 92.3893 97.0031 92.2892 96.4628 92.4719C95.6837 91.7786 94.9032 91.0853 94.1211 90.392C93.8444 88.7341 93.5852 87.0892 92.7988 85.575C92.8471 83.8518 93.5324 83.7909 93.4006 82.307C92.8822 80.1574 93.0184 75.9714 92.6802 74.3396C92.522 73.5737 90.69 71.4851 92.7988 69.9403C92.8778 68.7089 92.4429 66.9901 92.4385 66.7899C92.3814 64.4793 92.6933 62.1513 92.5571 59.832C91.9245 58.9878 91.9596 57.8086 92.0783 56.799C92.2189 55.5676 92.746 54.7408 92.7988 54.3623C93.2425 51.1857 91.0854 48.2572 93.9981 46.1598C93.5764 42.2 96.0981 41.7344 96.6385 40.9294C96.9285 38.4274 101.076 36.8652 103.36 36.5302C102.526 37.531 101.212 37.8486 99.7577 39.5022C95.8829 43.9102 97.3019 46.0772 97.1174 47.1128C96.9592 47.9918 95.0349 48.0135 96.8757 53.2962C96.7615 54.2665 95.8565 54.9323 95.6764 55.5545C94.9734 57.9739 97.0031 58.5875 96.9988 60.3106C96.9856 63.7047 93.4622 63.213 96.7571 68.3956C93.9454 73.3344 97.3195 73.391 97.1174 75.5319C97.0163 76.5849 95.549 77.6075 95.6764 79.1C95.7906 80.4055 97.4908 81.2888 97.236 82.6682C95.5138 85.7795 97.8554 89.2475 98.0751 92.3588L98.0839 92.3545Z" fill="#E5EBF0"/>
<path d="M107.446 36.8261C109.348 37.2917 112.472 38.7842 112.366 41.0469C114.673 42.4307 115.235 43.4489 114.888 46.1599C117.933 47.9918 115.573 51.4077 116.087 54.1273C116.347 55.498 117.616 54.8105 117.168 57.8739C117.036 58.235 116.588 58.9095 116.566 59.0052C116.456 59.5535 116.043 69.6227 116.087 70.184C116.101 70.3711 116.057 70.4538 116.268 70.6017C116.47 70.667 119.778 69.4225 120.23 69.1745C121.983 68.2215 124.957 64.6969 121.553 67.9865C120.819 68.3521 120.134 68.9482 119.391 69.2963C115.903 70.9194 116.456 70.2449 116.571 68.0475C122.308 66.5027 121.452 61.2114 124.074 57.0471C126.891 58.3786 126.543 60.7414 125.577 63.2914C125.247 64.1573 123.776 66.2112 124.255 66.0241C124.597 65.8935 126.245 61.8336 125.937 63.2914C125.643 64.6621 123.376 67.8604 121.557 68.9395C118.354 70.8367 115.666 69.949 115.973 72.2074C116.039 72.6817 116.615 73.0516 116.694 73.3954C117.12 75.236 114.449 77.6467 116.575 79.4612C116.812 81.7196 115.011 81.3933 115.253 85.7621C116.601 87.8899 114.853 89.1344 114.651 89.5652C114.537 89.8089 114.55 90.305 114.532 90.3398C113.438 92.4546 112.678 92.6765 110.091 92.1848C110.736 90.0091 112.169 86.6324 111.892 84.4566C111.804 83.7822 111.083 82.7727 111.171 81.8414C111.303 80.4621 113.961 79.9094 111.65 76.2542C113.684 73.6129 111.87 72.1422 111.892 71.855C114.001 69.3355 111.967 67.3251 111.892 66.8595C111.663 65.454 113.755 64.7491 113.451 62.5777C113.32 61.6378 112.309 60.9373 112.01 60.1975C110.455 56.3204 114.488 56.6076 111.769 52.3519C112.419 50.1022 113.166 49.2581 111.65 47.1215C112.634 43.7187 109.84 39.8851 107.27 37.9052C106.558 37.3569 102.798 35.6947 107.45 36.8348L107.446 36.8261Z" fill="#E5EBF0"/>
<path d="M97.1829 53.4702C96.7787 56.1724 96.1812 56.4161 97.3015 59.4142C95.1576 56.3944 95.799 56.4466 97.1829 53.4702Z" fill="#E5EBF0"/>
<path d="M96.9413 69.0483C95.7639 73.3954 98.8876 76.1629 96.401 73.1517C95.5091 71.3024 96.0056 70.6975 96.9413 69.0483Z" fill="#E5EBF0"/>
<path d="M111.949 60.8459C113.847 62.8302 113.183 63.905 111.707 65.8414C112.392 63.8571 112.656 62.9129 111.949 60.8459Z" fill="#E5EBF0"/>
<path d="M98.6808 92.1152C98.7218 92.1761 98.7614 92.2356 98.7994 92.2936C98.7204 92.3139 98.6398 92.3342 98.5578 92.3545C97.9779 89.3564 96.326 85.9928 97.3584 83.0208C97.2003 86.119 97.8856 89.1388 98.6808 92.1152Z" fill="#E5EBF0"/>
<path d="M96.7039 62.7474C95.878 65.4018 97.2048 67.9213 96.9456 67.9778C95.9439 65.9022 94.9159 64.7926 96.7039 62.7474Z" fill="#E5EBF0"/>
<path d="M104.146 72.8557C104.208 72.8252 105.376 73.33 105.407 73.3909C105.789 74.1742 104.586 76.389 104.748 77.3725C103.729 75.9713 104.977 75.0183 105.047 74.5789C105.236 73.4257 103.553 73.169 104.146 72.8557Z" fill="#E5EBF0"/>
<path d="M97.1825 76.3021C97.0039 77.3523 96.8237 78.4024 96.6422 79.4525C98.7421 83.5124 96.1237 80.0226 96.0403 79.2132C95.9304 78.1515 96.752 77.2159 97.1825 76.3021Z" fill="#E5EBF0"/>
<path d="M97.3015 47.4087C96.8007 49.5148 97.1434 51.1509 97.1829 53.2352C96.8798 50.842 95.6233 49.7019 97.3015 47.4087Z" fill="#E5EBF0"/>
<path d="M111.707 67.2643C112.616 68.7742 112.884 70.084 111.707 71.5461V67.2643Z" fill="#E5EBF0"/>
<path d="M111.47 76.7765C112.507 78.4431 112.652 79.3308 111.229 80.819C112.107 78.8478 111.281 76.8679 111.47 76.7765Z" fill="#E5EBF0"/>
<path d="M111.588 52.8784C112.761 54.6668 112.77 55.5719 111.47 57.2777C112.432 55.0454 111.373 52.9437 111.588 52.8784Z" fill="#E5EBF0"/>
<path d="M111.11 83.4384C112.151 85.4444 111.075 88.0683 110.389 90.096C110.846 87.8899 111.501 85.7185 111.11 83.4384Z" fill="#E5EBF0"/>
<path d="M111.347 47.4087C112.678 49.097 112.243 49.9543 111.589 51.808C111.852 50.0892 111.606 49.0666 111.347 47.4087Z" fill="#E5EBF0"/>
<path d="M110.266 41.8215C111.351 43.3184 111.685 45.0024 111.228 46.817C111.039 45.1025 110.864 43.4577 110.266 41.8215Z" fill="#E5EBF0"/>
<path d="M98.3826 41.939C97.7412 43.6056 97.6621 45.307 97.4205 47.0519C97.1305 45.1677 97.236 43.5359 98.3826 41.939Z" fill="#E5EBF0"/>
<path d="M111.707 72.2596C113.368 74.431 110.437 77.5249 111.887 74.3396C111.826 73.6463 111.766 72.953 111.707 72.2596Z" fill="#E5EBF0"/>
<path d="M104.265 53.2352C105.016 53.1525 105.113 54.0402 104.625 54.1881C104.076 54.3491 103.593 53.6094 104.564 54.0097C104.349 53.2743 103.672 53.9749 103.602 53.7704C103.589 53.7312 104.155 53.2482 104.261 53.2352H104.265Z" fill="#E5EBF0"/>
<path d="M104.265 45.5071C104.444 46.0031 104.624 46.4992 104.806 46.9953C104.098 49.4451 104.577 47.7045 104.265 45.5071Z" fill="#E5EBF0"/>
<path d="M104.147 67.621C103.777 67.4774 103.307 67.051 103.545 66.6681L104.147 67.621Z" fill="#E5EBF0"/>
<path d="M104.146 59.536C104.528 59.5882 104.528 60.8849 104.265 60.8458C104.224 60.4106 104.184 59.9741 104.146 59.536Z" fill="#E5EBF0"/>
<path d="M104.507 73.9219C104.801 73.9089 104.713 74.5703 104.625 74.6356C104.379 74.8227 104.269 73.9306 104.507 73.9219Z" fill="#E5EBF0"/>
<path d="M103.426 57.8739C103.575 57.7869 103.676 58.6006 103.606 58.766C103.5 59.0183 103.202 58.0045 103.426 57.8739Z" fill="#E5EBF0"/>
<path d="M104.985 46.6951C105.117 46.8952 105.139 46.9692 105.104 47.1694C104.959 48.0875 104.805 46.7734 104.985 46.6951Z" fill="#E5EBF0"/>
<path d="M122.994 56.9209C124.167 56.9644 122.871 58.2698 122.212 60.0713C120.885 63.7091 121.254 65.9501 116.751 67.621C116.73 66.6898 116.71 65.7586 116.689 64.8274C119.914 64.6011 117.63 59.7363 120.951 57.6345C121.294 57.417 122.642 56.9078 122.994 56.9209Z" fill="#E5EBF0"/>
<path d="M84.6974 52.8784C85.6815 52.8741 86.7227 57.9957 87.039 58.8834C88.0012 61.5638 89.3324 62.6909 92.0826 63.522C92.024 64.5315 91.9639 65.5425 91.9024 66.5549C87.0874 66.333 83.4805 62.4994 82.7205 57.9348C82.2064 54.8714 83.5552 52.8871 84.7018 52.8828L84.6974 52.8784Z" fill="#E5EBF0"/>
<path d="M85.5366 52.761C86.9732 52.7262 88.3351 53.5225 89.0776 54.7235C90.7382 57.4083 89.0995 59.9713 92.1968 60.4325C92.1382 61.3231 92.0782 62.2152 92.0167 63.1086C86.4416 61.6379 87.8958 56.8992 85.3521 52.9437C85.4106 52.8857 85.4707 52.8263 85.5322 52.7653L85.5366 52.761Z" fill="#E5EBF0"/>
<path d="M104.445 85.6969C103.931 84.8484 103.826 85.0529 103.843 83.7954C103.878 83.6866 104.282 83.0469 104.445 83.1427C103.874 84.0478 104.014 84.7788 104.445 85.6969Z" fill="#E5EBF0"/>
<path d="M94.0024 91.0447C94.0024 91.0447 93.976 90.9141 94.121 90.9272C94.3494 91.2361 95.5093 92.0368 95.9222 92.4154C95.8519 92.6112 94.367 92.2457 94.0024 91.049V91.0447Z" fill="#E5EBF0"/>
<path d="M103.905 87.7159C104.279 87.7551 104.072 88.373 103.787 88.3121C103.413 88.2294 103.795 87.7072 103.905 87.7159Z" fill="#E5EBF0"/>
<path d="M104.446 92.237C104.099 91.5887 104.156 89.587 104.564 88.9691C104.38 88.5427 103.435 90.0265 104.446 88.3164C106.273 85.2182 103.8 85.6838 104.446 83.7387C104.542 83.4428 107.02 80.758 104.085 80.0531C106.809 77.8469 103.237 78.2342 103.725 75.297H103.967C103.549 76.1324 104.345 77.1985 104.867 77.8512C104.692 76.3805 105.5 75.3709 105.649 74.5833C105.72 74.2135 105.904 71.8202 105.047 72.2031C106.673 73.7131 103.369 73.0299 104.687 71.8463C104.125 71.4503 105.737 70.6192 104.687 68.1606C105.5 65.9197 104.555 68.9961 104.208 66.7334C104.859 66.5202 104.353 66.2547 104.45 66.0198C104.85 65.0146 106.871 63.3958 105.052 62.2166C104.999 62.3298 106.062 63.1217 105.232 64.5359C105.368 62.0513 103.163 61.8816 103.251 61.6248C105.083 62.2732 104.099 61.7119 105.113 60.6153C105.627 60.9242 105.144 61.2941 105.175 61.5073C105.399 63.0608 106.207 60.4456 104.696 60.3194C105.113 59.0967 103.536 58.6006 104.037 57.6433C104.551 59.3838 104.902 59.0792 104.336 57.7042C106.945 54.6016 103.444 54.3754 103.497 54.136C106.168 54.7539 104.639 53.0786 104.696 52.9481C104.736 52.8611 105.605 53.5921 105.298 51.7602C105.166 50.99 103.734 50.6244 103.857 49.7368C105.693 51.4556 103.703 49.2842 104.397 49.319C105.43 50.3982 104.485 49.2189 104.577 48.9013C104.595 48.8404 105.416 48.0354 105.597 48.1267C105.017 49.4017 105.926 50.4025 105.175 49.9717C105.733 50.929 105.17 51.4251 105.654 52.1126C105.096 53.6617 106.093 55.2369 105.175 56.6294C105.355 57.008 105.882 55.6808 105.895 55.559C105.775 53.3397 105.655 51.1205 105.535 48.9013C106.348 47.709 105.267 47.9744 105.175 47.8308C105.096 47.7046 105.988 47.152 104.454 45.0982C104.714 42.892 104.402 44.8893 103.975 44.502C105.333 42.9094 104.349 39.8721 104.696 37.605C105.992 36.7957 108.922 39.8765 109.498 40.8164C111.128 43.4881 110.653 46.7343 111.541 49.6149C110.785 53.009 112.362 54.9236 111.18 57.2255C110.877 60.1627 113.122 62.0991 111.422 65.9066C111.752 68.7916 111.387 71.5983 111.664 74.4659C110.456 76.9288 112.248 78.1123 110.702 81.7197C111.295 85.6055 110.789 88.5731 109.441 92.2414C108.268 92.3502 105.012 92.0978 104.459 92.2414L104.446 92.237Z" fill="#E5EBF0"/>
<path d="M103.364 55.733C103.373 55.5546 103.127 55.646 103.123 55.5546C103.123 55.5024 103.72 55.4676 103.123 54.6017C104.678 54.6321 105.122 56.1334 103.905 57.1603C102.938 57.974 103.008 57.2821 102.943 57.2778C102.907 57.2778 102.525 57.7782 102.521 57.813C102.464 58.2699 103.931 59.1663 104.08 60.1932C104.331 61.9164 102.675 60.9939 102.881 61.8598C102.929 62.0556 105.412 62.7954 104.744 65.0103C104.797 63.8049 104.322 63.261 104.085 63.6439C104.032 63.7266 104.603 64.797 104.326 65.5455C104.3 65.6195 103.61 64.8101 103.905 66.6768L103.303 66.0807C103.092 66.1808 103.698 66.5071 103.004 66.8553C102.947 67.1947 105.561 68.7612 103.663 71.7898C103.54 71.7767 104.247 69.7098 103.544 69.4095C102.943 69.1528 103.826 69.6053 103.725 70.7759C103.672 71.3938 103.039 71.9595 103.123 72.3206C103.149 72.4251 104.428 73.1909 104.085 73.9872C104.058 74.0525 103.505 74.0481 103.606 74.344C103.681 74.5703 104.16 73.9481 104.208 74.344C104.278 74.9315 103.074 75.0316 103.369 76.7243C103.487 77.3987 104.331 78.0645 104.331 78.1515C104.331 78.3735 103.096 78.7564 104.573 78.5083C102.174 80.3229 105.152 79.8268 104.634 82.2549C104.854 80.188 105.087 80.4491 104.814 82.3158C104.37 82.7205 101.642 85.3966 103.852 83.804C103.448 85.0181 104.256 85.6142 104.573 86.7151C104.502 87.2721 102.71 87.8639 103.733 88.6167C103.096 89.0866 104.221 89.8003 103.852 92.1848C103.711 92.3807 99.6081 92.2458 99.0501 92.1239C97.2313 87.9292 97.9079 82.4725 97.7278 81.3629C97.6311 80.758 96.8359 80.0836 97.0073 78.1515C98.5845 73.9872 96.5328 73.2866 96.9458 70.6018C97.0688 70.6018 96.8623 72.0813 97.4246 72.982C97.1522 71.3285 97.1962 69.6141 97.2445 67.9301C96.0539 64.5708 97.4466 62.1905 97.4861 58.8922C96.1681 56.6468 97.3411 55.4458 97.4861 54.0186C97.6267 52.6392 97.1435 50.7811 97.2445 49.2625C98.1539 46.099 97.4246 44.0408 99.2874 40.9382C99.7399 40.1898 101.383 38.3013 102.108 37.9053C105.855 35.8558 103.571 39.9592 103.848 43.7928C102.415 43.9189 104.493 44.885 104.208 47.8352C104.203 47.9048 103.914 48.897 103.848 49.145C103.817 49.2625 103.536 48.9535 103.487 49.145C103.356 49.6541 103.531 51.2032 104.326 51.4034C103.347 52.8481 104.827 50.8943 105.047 51.9995C105.223 52.8829 102.147 52.8002 103.246 55.2109C102.27 56.538 104.054 56.042 103.364 55.7461V55.733Z" fill="#E5EBF0"/>
</g>
<defs>
<clipPath id="clip0_515_2980">
<rect width="223.245" height="136.991" fill="white" transform="translate(0.754883)"/>
</clipPath>
</defs>
</svg>
