<?xml version="1.0" encoding="utf-8"?>
<!-- Generator: Adobe Illustrator 22.0.1, SVG Export Plug-In . SVG Version: 6.00 Build 0)  -->
<svg version="1.1" xmlns="http://www.w3.org/2000/svg" xmlns:xlink="http://www.w3.org/1999/xlink" x="0px" y="0px"
	 viewBox="0 0 267.8 184.3" style="enable-background:new 0 0 267.8 184.3;" xml:space="preserve">
<style type="text/css">
	.st0{fill:#241C28;}
	.st1{display:none;}
	.st2{display:inline;fill:#82AEDD;}
	.st3{display:inline;fill:#B9B5C6;}
	.st4{display:inline;fill:#FBFBFD;}
	.st5{display:inline;fill:#4F4E5C;}
	.st6{display:inline;fill:#D2D5E2;}
	.st7{display:inline;fill:#443C4F;}
	.st8{fill:none;stroke:#F0F2F5;stroke-miterlimit:10;}
	.st9{fill:#43455D;}
	.st10{fill:#82AEDD;}
	.st11{fill:none;stroke:#43455D;stroke-miterlimit:10;}
	.st12{font-family:'NotoSans-Regular';}
	.st13{font-size:16px;}
	.st14{display:inline;fill:#B7B5C8;}
	.st15{fill:none;}
</style>
<g id="Calque_2">
	<rect y="-1.2" class="st0" width="267.8" height="185.4"/>
</g>
<g id="Calque_1">
	<g>
		<path class="st8" d="M222.1,136.6L145,160c0,0-25.1,10.2-58.2-4.5l-39.1-17.3c-14.6-6.2-25.2-19.1-28.5-34.6
			c-6.6-27.3-6.6-39.1,17.1-52.5s52.6-29.9,52.6-29.9s16.1-11.7,47.5,0.8c31.4,12.5,82.5,34.5,82.5,34.5s14.8,5.5,28.6,33.9
			C260.9,117.5,251.6,128.1,222.1,136.6z"/>
		<g>
			<g id="Background_00000036248468175088554920000003032666646884042652_" class="st1">
				<path class="st2" d="M77.2,48c0.1,0.6,0.6,0.6,0.3,0c3.7,0,7.4,0,11.2,0c0,0.3,0,0.3,0.1,0.5c0-0.3,0-0.3,0.1-0.5
					c3.8,0,7.7,0,11.5,0c0,0,0,0.3,0.1,0.3c0.2-0.1,0.2-0.3,0.2-0.3c3.8,0,7.6,0,11.4,0c0,0.2,0,0.2,0.1,0.4c0-0.2,0-0.2,0.1-0.4
					c8.5,0,17.1,0,25.6,0c0.2,0.5,0.4,0.6,0.4,0c0.4,0,0.9,0,1.3,0c0.1,0.3,0.1,0.3,0.2,0.5c0.1-0.3,0.1-0.3,0.2-0.5
					c0.5,0,1,0,1.5,0c0.6,3.9,2.2,3.6,2.2,3.9c0.1,1-2.1-0.2-2.2-0.2c-1.4,0.2,3,1.8,2.6,0.1c-0.1-0.5-1.8,0.1-2.3-3.8
					c1.3,0,2.6,0,3.8,0c-2.1,10.6,4,6.8,4.6,7.1c0.1,0.1,0.2,0.9,0.4,0.9c0.3,0-0.5-5.3-0.6-1.2c-5,2.1-5-3.4-4-6.8
					c2.6,0,5.1,0,7.7,0c0.3,0.7,1.4,1,1,0c0.5,0,1,0,1.5,0c0,0.4,0,0.4-0.1,0.8c0.1-0.4,0.1-0.4,0.2-0.8c0.2,0,0.4,0,0.6,0
					c-1.2,1.3,4.6,1.3,3.6,0c0.3,0,0.5,0,0.8,0c0.1,1.4,2.4,1.1,1.8,0c0.6,0,1.3,0,1.9,0c0,0.2-0.3,0.7-0.1,0.9
					c0.2,0.1,3.9,0.1,4.1,0c0.1-0.1,0-0.7,0.1-0.9c1.7,0,3.3,0,5,0c-2.3,1.9,4.2,0.6,7.1,1c0.1,0,0.3,0.3,0.4,0.4
					c0.1-0.1,0.1-0.1,0.2-0.2c-0.2-0.1-0.5-0.9-0.4-1c0.1-0.1,1.7,0.7,1.5-0.2c1.2,0,2.4,0,3.6,0c1.9,3.4,0.4,2.2-1.9,0.8
					c-0.3,0.9,1.2,1.2,0.8,2.1c2.2,0.5,1.9,2.4,5.4,3.5c0.4-0.2-0.2-0.5-0.2-0.8c0,0,0.4,0,0.3-0.5c-0.1-0.3-2.6-2.3-3.3-5.1
					c1.5,0,2.9,0,4.4,0c0,5.8,0,11.6,0,17.4c-0.2,0-0.6,0.2-0.6,0.3c-0.1,0.3-0.1,6.7,0,7.1c0.1,0.2,0.4,0.4,0.6,0.3
					c0,1.5,0,3.1,0,4.6c-0.1,0-0.4,0.1-0.4,0.2c-0.3,1.3-0.1,22.6-0.1,26.2c0,2-0.3,6.1,0.5,5.7c0,2.8,0.2,11.3,0,12.6
					c-2,0-2,0-4-0.1c0.6-0.6,3.4-4.3,3.3-4.7c0-0.7-2-0.1-2.5,0.2c-0.2,0.1-2.9,2.3-2.9,2.5c-0.1,0.9,1.9-0.5,1.9,0.4
					c0,0.1-0.6,0.5-0.6,0.6c0,0.1,0.1,0.7-0.4,1.1c-0.5,0.4-1.6,0.2-1.9,0.6c-3.5,0-7.1,0-10.6,0c0-0.2-0.2-0.6-0.3-0.6
					c-0.5-0.1-9.4-0.1-9.9,0c-0.5,0.1-0.7,0.1-0.6,0.6c-6.1,0-12.2,0-18.3,0c-0.1-0.3-0.4-0.4-0.4,0c-4.6,0-9.2,0-13.8,0
					c0-0.5-0.4-0.5-0.4,0c-0.2,0-0.4,0-0.6,0c0.1-0.4-0.4-0.4-0.4,0c-5.6,0-11.2,0-16.8,0c0-0.4-0.3-0.3-0.4,0c-1.1,0-2.1,0-3.2,0
					c-0.1-0.3-0.3-0.3-0.4,0c-0.3,0-0.5,0-0.8,0c-0.1-0.3-0.6-0.4-0.5,0c-5.9,0-11.9,0-17.8,0c0,0,0.1-0.3-0.2-0.3
					c-0.1,0-0.1,0.3-0.1,0.3c-3.9,0-7.8,0-11.7,0c0-0.2-0.2-0.6-0.3-0.6c-0.3-0.1-5.9,0-6.2,0.1c-0.1,0.1,0,0.4-0.1,0.5
					c-3.5,0-7,0-10.5,0c0-2.6,0-5.1,0-7.7c0,0,0.1,0,0.3-0.2c0-0.1-0.3-0.1-0.3-0.1c0-9.7,0-19.3,0-29c1.4-0.6,1.9,0.8,2.1,0.8
					c0.6,0,0.1-1.8-2.1-1.2c0-12.6,0-25.1,0-37.7C66.1,48,71.7,48,77.2,48z"/>
				<path class="st2" d="M191.9,122.3c0,0.2,0,0.4,0,0.6c-2.4,0-4.7,0-7.1,0c0.3-0.5,1.3-0.2,1.9-0.6c0.5-0.4,0.4-1,0.4-1.1
					c0.1-0.1,0.6-0.6,0.6-0.6c0-0.9-2,0.5-1.9-0.4c0-0.2,2.7-2.4,2.9-2.5c0.5-0.3,2.5-0.9,2.5-0.2c0,0.5-2.8,4.1-3.3,4.7
					C189.9,122.3,189.9,122.3,191.9,122.3z"/>
				<path class="st2" d="M187.5,48c0.7,2.7,3.3,4.8,3.3,5.1c0.1,0.5-0.3,0.5-0.3,0.5c0,0.3,0.6,0.6,0.2,0.8c-3.6-1.1-3.2-3-5.4-3.5
					c0.4-0.9-1.1-1.2-0.8-2.1c2.2,1.4,3.8,2.6,1.9-0.8C186.7,48,187.1,48,187.5,48z"/>
				<path class="st2" d="M191.9,77.7c0,10.7,0,21.4,0,32.1c-0.8,0.4-0.5-3.7-0.5-5.7c0-3.6-0.2-24.9,0.1-26.2
					C191.5,77.8,191.7,77.7,191.9,77.7z"/>
				<path class="st2" d="M182.8,48c0.2,0.8-1.5,0.1-1.5,0.2c-0.1,0.1,0.2,0.9,0.4,1c-0.1,0.1-0.1,0.1-0.2,0.2
					c-0.1-0.1-0.3-0.4-0.4-0.4c-2.9-0.4-9.4,0.9-7.1-1C176.9,48,179.8,48,182.8,48z"/>
				<path class="st2" d="M174.2,123c-3.6,0-7.2,0-10.8,0c-0.1-0.5,0.1-0.5,0.6-0.6c0.5-0.1,9.4-0.1,9.9,0
					C174,122.4,174.2,122.8,174.2,123z"/>
				<path class="st2" d="M191.9,65.4c0,2.6,0,5.1,0,7.7c-0.2,0.1-0.6-0.2-0.6-0.3c-0.1-0.3-0.1-6.7,0-7.1
					C191.3,65.6,191.7,65.4,191.9,65.4z"/>
				<path class="st2" d="M145.7,48c-1,3.4-1,8.9,4,6.8c0.1-4.1,0.9,1.2,0.6,1.2c-0.2,0-0.3-0.8-0.4-0.9c-0.5-0.3-6.6,3.5-4.6-7.1
					C145.5,48,145.6,48,145.7,48z"/>
				<path class="st2" d="M168.9,48c0,0.2,0.1,0.8-0.1,0.9c-0.2,0.1-3.9,0.1-4.1,0c-0.2-0.1,0-0.7,0.1-0.9
					C166.2,48,167.5,48,168.9,48z"/>
				<path class="st2" d="M77.6,123c-2.2,0-4.4,0-6.5,0c0-0.1-0.1-0.4,0.1-0.5c0.3-0.1,5.9-0.2,6.2-0.1
					C77.4,122.4,77.6,122.8,77.6,123z"/>
				<path class="st2" d="M160.3,48c1,1.3-4.8,1.3-3.6,0C157.9,48,159.1,48,160.3,48z"/>
				<path class="st2" d="M141.6,48c0.6,3.9,2.2,3.3,2.3,3.8c0.4,1.7-4,0.1-2.6-0.1c0.1,0,2.3,1.2,2.2,0.2c0-0.3-1.6-0.1-2.2-3.9
					C141.4,48,141.5,48,141.6,48z"/>
				<path class="st2" d="M162.9,48c0.7,1.1-1.7,1.4-1.8,0C161.7,48,162.3,48,162.9,48z"/>
				<path class="st2" d="M60.6,86.1c0-0.1,0-0.3,0-0.4c2.2-0.6,2.7,1.2,2.1,1.2C62.5,86.8,62,85.5,60.6,86.1z"/>
				<path class="st2" d="M154.4,48c0.4,1-0.7,0.7-1,0C153.7,48,154.1,48,154.4,48z"/>
				<path class="st2" d="M156,48c0,0,0.1,0,0.1,0c-0.1,0.4-0.1,0.4-0.2,0.8C155.9,48.4,155.9,48.4,156,48z"/>
				<path class="st2" d="M139.8,48c-0.1,0.3-0.1,0.3-0.2,0.5c-0.1-0.3-0.1-0.3-0.2-0.5C139.5,48,139.7,48,139.8,48z"/>
				<path class="st2" d="M77.5,48c0.4,0.6-0.1,0.6-0.3,0C77.3,48,77.4,48,77.5,48z"/>
				<path class="st2" d="M130.8,123c-0.1,0-0.3,0-0.4,0C130.5,122.5,130.8,122.5,130.8,123z"/>
				<path class="st2" d="M107.9,123c-0.2,0-0.3,0-0.5,0C107.3,122.6,107.8,122.6,107.9,123z"/>
				<path class="st2" d="M138.1,48c0,0.6-0.2,0.5-0.4,0C137.9,48,138,48,138.1,48z"/>
				<path class="st2" d="M88.6,48c0,0,0.1,0,0.1,0c0,0.3,0,0.3-0.1,0.5C88.7,48.2,88.7,48.2,88.6,48z"/>
				<path class="st2" d="M129.8,123c-0.1,0-0.3,0-0.4,0C129.4,122.6,129.9,122.6,129.8,123z"/>
				<path class="st2" d="M145.1,123c-0.1,0-0.3,0-0.4,0C144.6,122.6,144.9,122.6,145.1,123z"/>
				<path class="st2" d="M112.6,123c-0.1,0-0.3,0-0.4,0C112.4,122.6,112.7,122.6,112.6,123z"/>
				<path class="st2" d="M112,48c0,0,0.1,0,0.1,0c0,0.2,0,0.2-0.1,0.4C112,48.2,112,48.2,112,48z"/>
				<path class="st2" d="M89.5,123c-0.1,0-0.1,0-0.3,0c0,0,0-0.3,0.1-0.3C89.6,122.7,89.5,123,89.5,123z"/>
				<path class="st2" d="M109,123c-0.1,0-0.3,0-0.4,0C108.8,122.7,108.9,122.7,109,123z"/>
				<path class="st2" d="M60.6,115.3c0-0.1,0-0.1,0-0.3c0,0,0.3,0,0.3,0.1C60.7,115.3,60.6,115.3,60.6,115.3z"/>
				<path class="st2" d="M100.6,48c0,0,0,0.1-0.2,0.3c-0.1,0-0.1-0.3-0.1-0.3C100.4,48,100.4,48,100.6,48z"/>
				<path class="st2" d="M95.9,110.2c0.3,0.5,1.5,0.4,2.8,0.9c0.5,0.2,1.8,1,2.1,1.3c0.1,0.7,3.3,6.5,2.2,6.9
					c-0.6,0.2,0-0.5-0.1-0.7c-0.1-0.9-1.8-4.8-2.4-5.5C98.4,110.7,94.4,111.8,95.9,110.2z"/>
				<path class="st2" d="M101.3,108.1c1.5,3.9,3.6,7.7,7.4,9.7c0,0.1,0,0.1,0,0.3c-3.1-1.3-5.8-5.1-7-8.1
					C101.5,109.3,100.9,108.1,101.3,108.1z"/>
				<path class="st2" d="M69.3,50.7c6.1,0.9,4.7,2.2-0.2,0.2C69.2,50.8,69.2,50.8,69.3,50.7z"/>
				<path class="st2" d="M181.9,73.5c0.1,0.1,0.2,0.2,0.2,0.2C182.2,74.7,177.3,84.1,181.9,73.5z"/>
				<path class="st2" d="M150.9,58.1c0.6-0.1,3,3.9,2.7,4.1c-1-1.1-1.9-4.7-3.4-3.3C150.1,58.8,150.8,58.1,150.9,58.1z"/>
				<path class="st2" d="M172.6,49.1c0.2,0,3.8,3.3,3.3,3.5C175.6,52.1,172,49.2,172.6,49.1z"/>
				<path class="st2" d="M65.5,80.8c0.4,0,0.2,0.3,0,0.4c-0.2,0.2-5.3,2.8-3.7,1.5C61.9,82.6,65.3,80.8,65.5,80.8z"/>
				<path class="st2" d="M73.3,49.4c1.4,0-2.6,1.4-2.8,0.1C71.7,49.9,73.2,49.4,73.3,49.4z"/>
				<path class="st2" d="M106,57.2c0.5,0.3-2.8,3.1-3.5,2.9C103.8,59.3,105,58.3,106,57.2z"/>
				<path class="st2" d="M171.8,60c0.1,1.7,1.2,1.5,1.8,1.9C174.7,62.6,170.9,62.2,171.8,60z"/>
				<path class="st2" d="M177.6,71c0.6,0-0.6,2.9-0.9,3.1C176.4,73.8,177.4,72.5,177.6,71z"/>
				<path class="st2" d="M64.2,82.5c0.1,0,0.3,0,0.3,0.1C58.6,85.7,63.1,82.5,64.2,82.5z"/>
				<path class="st2" d="M91.7,75.5c0.3-0.1-0.9,2.6-1.1,2.8C89.8,78.9,91,76.8,91.7,75.5z"/>
				<path class="st2" d="M94.3,80c0.1,0,0.1,0,0.2,0.1C92.7,83.9,92.2,83.7,94.3,80z"/>
				<path class="st2" d="M65.2,57.3c0.1,0.1,0.1,0.1,0.2,0.2C62.7,60.2,62.6,59.6,65.2,57.3z"/>
				<path class="st2" d="M132.7,48.6c1.1,0.9,1.1,0.9,2.1,1.7C134.6,50.7,132.2,48.9,132.7,48.6z"/>
				<path class="st2" d="M153.7,62.7c0.2,0.3,1.7,2,1.4,2.2c-0.6-0.7-0.6-0.7-1.2-1.5C153.8,63.1,153.8,63.1,153.7,62.7z"/>
				<path class="st2" d="M135.6,51c0.7,0.3,2,2.2,1.7,2.3C136.5,52.2,136.5,52.2,135.6,51z"/>
				<path class="st2" d="M179.7,68.1c2.3,1.8,1.6,2.2-0.2,0.2C179.6,68.2,179.6,68.2,179.7,68.1z"/>
				<path class="st2" d="M140.3,49.3c0.5,0.8,0.5,0.8,1,1.7C140.8,51.1,139.6,49.3,140.3,49.3z"/>
				<path class="st2" d="M185,62.1c0.7,0.8,0.7,0.8,1.4,1.5C186.1,63.7,185,62.4,185,62.1z"/>
				<path class="st2" d="M66.8,117c0.8,0.8,0.8,0.8,1.5,1.7C67.8,118.6,66.7,117.4,66.8,117z"/>
				<path class="st2" d="M147.7,112.7c0.2,0,0.3,1.9,0.3,1.9C147.5,114.9,147.6,113.7,147.7,112.7z"/>
				<path class="st2" d="M174.9,49.9c0.2,0.2,1.8,1.6,1.4,1.8C175.6,50.8,175.6,50.8,174.9,49.9z"/>
				<path class="st2" d="M105.6,49.1c1.4,0.2-1.5,0.7-1.5,0.3C104.4,49.3,105.6,49.1,105.6,49.1z"/>
				<path class="st2" d="M174.4,108.2c3.4,2.2,0.2,0.7,0,0.4C174.3,108.5,174.2,108.3,174.4,108.2z"/>
				<path class="st2" d="M94.7,102.2c0.2,0.3,0.9,1.1,1,1.2C96.4,105,94.2,102.2,94.7,102.2z"/>
				<path class="st2" d="M147.8,115.3c0.2,1,0.2,1,0.4,2.1C147.9,117.4,147.6,115.5,147.8,115.3z"/>
				<path class="st2" d="M88.3,49.3c0.4,0.7,0.4,0.7,0.9,1.4C88.9,50.7,87.9,49.4,88.3,49.3z"/>
				<path class="st2" d="M95.1,64.3c0.1,0,0.5,0.9,0.6,1.1C96.1,66.9,95.4,66,95.1,64.3z"/>
				<path class="st2" d="M105.8,66.2c2.5,0.1,1,0.4-0.6,0.3C105.5,66.3,105.5,66.3,105.8,66.2z"/>
				<path class="st2" d="M87.2,52.1c2.1,2.6-0.1,0.7-0.2,0.3C87,52.2,87.1,52.2,87.2,52.1z"/>
				<path class="st2" d="M85.9,50.1c0.1,0.2,0.8,1,0.8,1.1C86.9,52.2,85.4,50.1,85.9,50.1z"/>
				<path class="st2" d="M187.1,117.5c0.7,0-1.2,1.4-1.3,1.1C186.4,118,186.4,118,187.1,117.5z"/>
				<path class="st2" d="M98.2,113.5C99.8,116.1,99.3,116.3,98.2,113.5C98.2,113.5,98.2,113.5,98.2,113.5z"/>
				<path class="st2" d="M176.8,63.4c0.1-0.1,1,0.8,1,0.9C178.1,65,176.5,63.5,176.8,63.4z"/>
				<path class="st2" d="M175.1,110.3c0.6,0.1,1.3,1,0.6,0.9C175.7,111.2,174.9,110.4,175.1,110.3z"/>
				<path class="st2" d="M136.4,53.4c0.5,0,1.3,2,0.9,1.8C136.9,54.3,136.9,54.3,136.4,53.4z"/>
				<path class="st2" d="M95.6,48.6c0.2-0.1,0.9,0.3,0.8,0.4C95.3,49.3,95,48.9,95.6,48.6z"/>
				<path class="st2" d="M138.8,56.4c0,0,0.8,0.5,0.8,0.6C139.9,57.8,138.5,56.7,138.8,56.4z"/>
				<path class="st2" d="M178.1,64.9C179,66.3,178.3,67.1,178.1,64.9C178,64.9,178,64.9,178.1,64.9z"/>
				<path class="st2" d="M102.6,63.5c1.3-0.2,1.3,0.5,0.4,0.4C102.9,63.9,102.3,63.7,102.6,63.5z"/>
				<path class="st2" d="M63.1,114.5c0.6,0,1.3,1.4,0.6,1C63.6,115.4,63,114.7,63.1,114.5z"/>
				<path class="st2" d="M88.1,119.6c0.5-0.2,0.6,0.7,0.3,0.8C88.3,120.4,87.6,119.8,88.1,119.6z"/>
				<path class="st2" d="M138.1,51.6c0.2-0.1,0.9,1.3,0.5,1.3C138.3,52.2,138.3,52.2,138.1,51.6z"/>
				<path class="st2" d="M135.9,54.4c0.2,0.6,0.2,0.6,0.4,1.3C136,55.3,135.5,54.6,135.9,54.4z"/>
				<path class="st2" d="M187.3,118.2c0.3,0.1-0.9,1.2-1,1.2C185.6,119.7,186.7,118.9,187.3,118.2z"/>
				<path class="st2" d="M94.9,74.4c0.5-0.1,0.1,1-0.3,0.8C94.4,75,94.7,74.4,94.9,74.4z"/>
				<path class="st2" d="M101.1,62.3c1.7,1.4,0.2,0.8-0.1,0.4C101,62.6,100.9,62.4,101.1,62.3z"/>
				<path class="st2" d="M186.9,64c0,0,0.7,0.7,0.7,0.7C187.8,65.5,186.5,64.2,186.9,64z"/>
				<path class="st2" d="M169.7,118.2c0.7,0-0.8,0.9-1,0.6C168.9,118.7,169.7,118.2,169.7,118.2z"/>
				<path class="st2" d="M185.5,60.9c0.3-0.1,0.7,0.9,0.5,1C186,62,185.3,61.1,185.5,60.9z"/>
				<path class="st2" d="M63.4,61.8c0.1,0,0.3,0.4,0.3,0.4C64,63.8,62.9,61.7,63.4,61.8z"/>
				<path class="st2" d="M62.8,67.8c0.2,0,0.6,0.4,0.6,0.4C63.5,69,62.3,67.9,62.8,67.8z"/>
				<path class="st2" d="M83.1,116.6c0.1,0.1,0.1,0.1,0.2,0.2C82.3,117.9,81.9,117.6,83.1,116.6z"/>
				<path class="st2" d="M184.5,70.7c1-0.1-0.4,1.1-0.3,0.3C184.2,71,184.5,70.7,184.5,70.7z"/>
				<path class="st2" d="M63.3,63.9c0.2-0.1,0.7,0.7,0.5,0.8C63.5,64.8,63.2,63.9,63.3,63.9z"/>
				<path class="st2" d="M158.3,62.6c0.9,1.1,0.7,1.5-0.2,0.2C158.2,62.7,158.2,62.7,158.3,62.6z"/>
				<path class="st2" d="M139.1,49.9c0.2-0.1,0.7,0.7,0.5,0.8C139.3,50.8,139,50,139.1,49.9z"/>
				<path class="st2" d="M153.2,58c0.3-0.2,0.7,0.5,0.3,0.6C153.2,58.7,153,58.1,153.2,58z"/>
				<path class="st2" d="M138.1,54c0.1-0.1,0.3,0.4,0.3,0.4C138.6,55.9,137.7,54.2,138.1,54z"/>
				<path class="st2" d="M153.7,60.3C154.1,60.2,154.9,62.6,153.7,60.3C153.7,60.3,153.7,60.3,153.7,60.3z"/>
				<path class="st2" d="M84,115.3c0.8-0.2-0.4,1.2-0.4,0.6C83.7,115.7,83.8,115.3,84,115.3z"/>
				<path class="st2" d="M155.3,57.2c0.4-0.1,0.6,0.4,0.3,0.5C155.1,57.8,154.9,57.3,155.3,57.2z"/>
				<path class="st2" d="M175.9,74.3c0.4,0.1,0.1,0.9-0.3,0.6C175.4,74.7,175.8,74.2,175.9,74.3z"/>
				<path class="st2" d="M69.3,54c0.7,0-0.6,1-0.6,0.4C68.8,54.4,69.3,54,69.3,54z"/>
				<path class="st2" d="M96,51.3c0.1-0.1,0.4,0.3,0.4,0.3C96.7,52.7,95.7,51.5,96,51.3z"/>
				<path class="st2" d="M95.4,49.6c0.5,0,0,0.7-0.3,0.6C94.7,50.2,95.3,49.6,95.4,49.6z"/>
				<path class="st2" d="M64.3,84.9c0.5,0,0.2,0.6-0.3,0.5C63.7,85.3,64.2,84.9,64.3,84.9z"/>
				<path class="st2" d="M92.4,69.8c0.2-0.1,0.3,0.8,0.4,0.8C92.6,71.1,92.3,69.9,92.4,69.8z"/>
				<path class="st2" d="M171.3,117.2c0.1,0.1,0.2,0.2,0.2,0.3C171.4,117.8,169.9,118.1,171.3,117.2z"/>
				<path class="st2" d="M94.3,62.8c0.3-0.1,0.6,0.8,0.3,0.8C94.5,63.6,94.1,63,94.3,62.8z"/>
				<path class="st2" d="M87.4,116.8c0.4,0,0.2,1-0.1,0.8C87.1,117.5,87.2,116.8,87.4,116.8z"/>
				<path class="st2" d="M92.9,61.7c0.3-0.2,0.7,0.4,0.3,0.5C92.8,62.3,92.8,61.8,92.9,61.7z"/>
				<path class="st2" d="M184.4,62.7c0.4,0.3,0.4,0.3,0.7,0.6C184.8,63.7,184.5,63,184.4,62.7z"/>
				<path class="st2" d="M74.6,52.1c0.4-0.3,0.6,0.4,0.3,0.5C74.6,52.6,74.4,52.2,74.6,52.1z"/>
				<path class="st2" d="M178.7,66.9c0.3,0,0.8,0.6,0.5,0.8C179.2,67.7,178.5,67.1,178.7,66.9z"/>
				<path class="st2" d="M142.3,58.2c0.3,0,0.4,0.4,0.1,0.5C141.9,58.9,142,58.2,142.3,58.2z"/>
				<path class="st2" d="M184.4,68.1c0.1-0.1,0.6,0.4,0.6,0.4C184.9,69,183.9,68.4,184.4,68.1z"/>
				<path class="st2" d="M175.9,59.5c0.3-0.2,0.7,0.4,0.3,0.5C175.7,60.1,175.8,59.6,175.9,59.5z"/>
				<path class="st2" d="M156.7,59.4c0,0,0.4,0.5,0.4,0.6C157.2,60.8,156.3,59.6,156.7,59.4z"/>
				<path class="st2" d="M118.2,53.5c0.5-0.1,0.2,0.7,0,0.6C118,54.1,117.9,53.6,118.2,53.5z"/>
				<path class="st2" d="M89.6,60.7c0.1,0,0.5,0.6,0.1,0.6C89.4,61.4,89.3,60.7,89.6,60.7z"/>
				<path class="st2" d="M99.2,61c0.2-0.1,0.7,0.5,0.4,0.6C99.4,61.8,98.9,61.2,99.2,61z"/>
				<path class="st2" d="M186.4,70.2c0.5-0.1,0.4,0.5,0.1,0.5C186.2,70.7,186.1,70.2,186.4,70.2z"/>
				<path class="st2" d="M147,51.9c0.3-0.1,0.5,0.4,0.3,0.5C147,52.7,146.6,52,147,51.9z"/>
				<path class="st2" d="M92,50.9c0.3-0.1,0.5,0.4,0.3,0.5C92,51.6,91.6,51,92,50.9z"/>
				<path class="st2" d="M91.7,63.5c0.3,0,0.5,0.6,0.3,0.6C91.8,64.1,91.2,63.5,91.7,63.5z"/>
				<path class="st2" d="M147.7,107c0.3-0.1,0.4,0.4,0.1,0.5C147.3,107.6,147.5,107,147.7,107z"/>
				<path class="st2" d="M66.1,88.1c0.3-0.2,0.7,0.4,0.3,0.5C66.1,88.7,65.9,88.2,66.1,88.1z"/>
				<path class="st2" d="M157.7,50.7c0.3-0.1,0.5,0.4,0.3,0.5C157.7,51.4,157.3,50.7,157.7,50.7z"/>
				<path class="st2" d="M140.8,54.4c0.4,0,0.1,0.8-0.1,0.6C140.5,54.9,140.6,54.4,140.8,54.4z"/>
				<path class="st2" d="M182.6,105.4c0.3-0.1,0.5,0.4,0.3,0.5C182.5,106.1,182.2,105.5,182.6,105.4z"/>
				<path class="st2" d="M179.2,58.5c0.3-0.1,0.4,0.4,0.1,0.5C179,59.1,178.9,58.6,179.2,58.5z"/>
				<path class="st2" d="M98.6,59.8c0.3-0.2,0.5,0.5,0.3,0.5C98.5,60.3,98.4,59.9,98.6,59.8z"/>
				<path class="st2" d="M92.8,65.5c0.2,0.4,0.2,0.4,0.4,0.8C92.9,66.2,92.6,65.7,92.8,65.5z"/>
				<path class="st2" d="M92.7,68.5c0,0,0.5,0.7,0.3,0.8C92.7,69.4,92.4,68.4,92.7,68.5z"/>
				<path class="st2" d="M182.8,69.8c0.1-0.1,0.4,0.1,0.4,0.2C183.4,70.5,182.4,70.1,182.8,69.8z"/>
				<path class="st2" d="M180.4,72.5c0.5-0.3,0.6,0.5,0.3,0.5C180.6,73,180.2,72.6,180.4,72.5z"/>
				<path class="st2" d="M69.5,90.4c0.3-0.1,0.4,0.4,0.1,0.5C69.3,91,69.2,90.5,69.5,90.4z"/>
				<path class="st2" d="M82.9,104.1c0.3-0.1,0.4,0.4,0.1,0.5C82.7,104.7,82.6,104.2,82.9,104.1z"/>
				<path class="st2" d="M183.2,112.2c0.3-0.1,0.4,0.4,0.1,0.5C183,112.8,182.9,112.3,183.2,112.2z"/>
				<path class="st2" d="M180.8,113.2c0.3-0.1,0.4,0.4,0.1,0.5C180.6,113.8,180.5,113.3,180.8,113.2z"/>
				<path class="st2" d="M83.4,113.9c0.2,0,0.2,0,0.2,0.2C83.6,115,82.4,113.9,83.4,113.9z"/>
				<path class="st2" d="M180.5,114.6c0.3-0.1,0.4,0.4,0.1,0.5C180.3,115.2,180.2,114.7,180.5,114.6z"/>
				<path class="st2" d="M188,117.5c0.2-0.3,0.4-0.8,0.7-0.9C188.4,117.4,188.1,117.4,188,117.5z"/>
				<path class="st2" d="M95.1,117.1c0.5-0.1,0.3,0.5,0.1,0.5C95,117.6,94.9,117.1,95.1,117.1z"/>
				<path class="st2" d="M97,53.6c0.3-0.1,0.4,0.4,0.1,0.5C96.9,54.2,96.7,53.7,97,53.6z"/>
				<path class="st2" d="M166.2,120.8c0.3-0.1,0.4,0.4,0.1,0.5C166,121.4,165.9,120.9,166.2,120.8z"/>
				<path class="st2" d="M142.8,55.8c0.3-0.1,0.4,0.4,0.1,0.5C142.6,56.4,142.5,55.9,142.8,55.8z"/>
				<path class="st2" d="M181.9,55.4c0.4,0,0.4,0.5,0.1,0.5C181.8,56,181.7,55.4,181.9,55.4z"/>
				<path class="st2" d="M88.2,116.1c0.2-0.1,0.5,0.4,0.3,0.5C88.1,116.7,88,116.2,88.2,116.1z"/>
				<path class="st2" d="M160.9,49.3c0.7-0.1,0.1,0.8-0.2,0.3C160.6,49.5,160.8,49.3,160.9,49.3z"/>
				<path class="st2" d="M63.3,60c0,0,0.2,0.5,0.1,0.6C63.2,61.1,63,59.9,63.3,60z"/>
				<path class="st2" d="M66.5,50.4c0.1,0,0.5,0.5,0.1,0.5C66.1,51,66.3,50.4,66.5,50.4z"/>
				<path class="st2" d="M106.9,56.2c0.6-0.1,0.1,0.5,0,0.5C106.7,56.7,106.6,56.2,106.9,56.2z"/>
				<path class="st2" d="M96,56.4c0.3-0.2,0.4,0.4,0.3,0.5C96.1,57.1,95.8,56.6,96,56.4z"/>
				<path class="st2" d="M102.2,50.3c0.4,0,0,0.6-0.1,0.6C101.7,50.9,102.1,50.3,102.2,50.3z"/>
				<path class="st2" d="M96.8,67.5c0.3-0.2,0.4,0.4,0.3,0.5C96.9,68.1,96.6,67.6,96.8,67.5z"/>
				<path class="st2" d="M88.3,108.2c0.4-0.2,0.4,0.5,0.1,0.5C88.3,108.7,88.1,108.3,88.3,108.2z"/>
				<path class="st2" d="M127.6,120.2c0.7,0.1-0.5,0.8-0.3,0.2C127.2,120.3,127.5,120.2,127.6,120.2z"/>
				<path class="st2" d="M183.1,68.9c0.1,0,0.5,0.5,0.1,0.5C182.8,69.4,182.8,68.9,183.1,68.9z"/>
				<path class="st2" d="M182.8,53.2c0.4-0.2,0.4,0.5,0.1,0.5C182.8,53.7,182.6,53.3,182.8,53.2z"/>
				<path class="st2" d="M159.5,49.8c0.4,0,0.4,0.3,0.3,0.4C159.5,50.3,159.1,49.8,159.5,49.8z"/>
				<path class="st2" d="M86.5,48.4c0.1,0,0.4,0.5,0.3,0.5C86.4,49.1,86.2,48.4,86.5,48.4z"/>
				<path class="st2" d="M94.3,112.9c0.1,0,0.3,0.4,0.1,0.5C94,113.6,94.1,112.8,94.3,112.9z"/>
				<path class="st2" d="M103.2,50.1c0.3,0,0.1,0.7-0.3,0.5C102.8,50.6,103.1,50.1,103.2,50.1z"/>
				<path class="st2" d="M95.4,54.3c0.1-0.1,0.5,0.3,0.4,0.4C95.7,54.9,95.1,54.4,95.4,54.3z"/>
				<path class="st2" d="M178.6,55.8c0.5,0,0.7,0.5,0.4,0.5C178.9,56.3,178.5,55.9,178.6,55.8z"/>
				<path class="st2" d="M178.8,110.2c0.3,0,0.3,0.5,0.1,0.5C178.7,110.7,178.6,110.2,178.8,110.2z"/>
				<path class="st2" d="M113.5,50.1c0.1,0,0.3,0.4,0.1,0.5C113.1,50.9,113.2,50.1,113.5,50.1z"/>
				<path class="st2" d="M141.4,63.5c0.4,0,0.4,0.3,0.3,0.4C141.4,64.1,141,63.5,141.4,63.5z"/>
				<path class="st2" d="M96.4,52.5c0.3,0,0.2,0.4,0.1,0.5C96.3,53.1,96.1,52.4,96.4,52.5z"/>
				<path class="st2" d="M185,58.6c0.1,0,0.3,0.3,0.1,0.6C184.9,59.6,184.9,58.7,185,58.6z"/>
				<path class="st2" d="M180.5,101.1c0.1-0.1,0.4-0.1,0.4,0.2C181,101.6,180.2,101.3,180.5,101.1z"/>
				<path class="st2" d="M140.8,48.7c0.1-0.1,0.5,0.7,0.1,0.6C140.7,49.4,140.6,48.9,140.8,48.7z"/>
				<path class="st2" d="M72.8,52.6c0.1-0.1,0.4-0.1,0.4,0.2C73.3,53.2,72.4,52.8,72.8,52.6z"/>
				<path class="st2" d="M178.5,67.7c0,0,0.5,0.5,0.3,0.6C178.5,68.4,178.3,67.8,178.5,67.7z"/>
				<path class="st2" d="M96.7,49.1c0.8-0.1,0.6,0.3,0.4,0.4C97,49.5,96.5,49.2,96.7,49.1z"/>
				<path class="st2" d="M101.9,67.8c0.1-0.1,0.4,0.1,0.4,0.2C102.4,68.4,101.5,68.1,101.9,67.8z"/>
				<path class="st2" d="M94.6,71.8c0.5-0.1,0.2,0.5,0,0.5C94.4,72.3,94.3,71.9,94.6,71.8z"/>
				<path class="st2" d="M99,68.4c0.3,0,0.2,0.4,0.1,0.5C98.8,69,98.6,68.3,99,68.4z"/>
				<path class="st2" d="M186.7,68.4c0.1,0,0.3,0.4,0.1,0.5C186.5,69,186.4,68.3,186.7,68.4z"/>
				<path class="st2" d="M89.5,76.6c0.3-0.2,0.5,0.3,0.3,0.4C89.4,77.1,89.3,76.7,89.5,76.6z"/>
				<path class="st2" d="M180.3,59c0.2,0.1-0.1,0.6-0.3,0.5C179.7,59.3,180.2,59,180.3,59z"/>
				<path class="st2" d="M175.3,113.2c0.1,0.3,0.1,0.3,0.3,0.5C175.2,113.8,174.9,113.4,175.3,113.2z"/>
				<path class="st2" d="M86.1,106.3c0.4-0.1,0.2,0.5,0,0.5C85.9,106.8,85.9,106.4,86.1,106.3z"/>
				<path class="st2" d="M96.1,73.4c0.3-0.2,0.2,0.7,0,0.6C96,73.9,96,73.4,96.1,73.4z"/>
				<path class="st2" d="M83.6,108.4c0.1,0,0.3,0.4,0.1,0.5C83.2,109.1,83.5,108.4,83.6,108.4z"/>
				<path class="st2" d="M97,69.1c0.3-0.2,0.4,0.5,0.1,0.5C97,69.6,96.9,69.2,97,69.1z"/>
				<path class="st2" d="M155.6,51.9c0.4,0,0.2,0.6-0.1,0.4C155.3,52.2,155.6,51.9,155.6,51.9z"/>
				<path class="st2" d="M116,49.3c0.8-0.1-0.1,0.9-0.2,0.2C115.8,49.4,116,49.3,116,49.3z"/>
				<path class="st2" d="M183.1,50.3c0.4-0.2,0.6,0.5,0.1,0.4C183.1,50.6,182.9,50.4,183.1,50.3z"/>
				<path class="st2" d="M188.5,68.7c0.4-0.1,0.4,0.3,0.3,0.4C188.6,69.2,188,68.8,188.5,68.7z"/>
				<path class="st2" d="M96.8,64.9c0.3-0.2,0.4,0.5,0.1,0.5C96.8,65.4,96.6,65,96.8,64.9z"/>
				<path class="st2" d="M140.8,56c0.3-0.2,0.5,0.3,0.3,0.4C140.7,56.6,140.6,56.2,140.8,56z"/>
				<path class="st2" d="M176.7,58c0.5-0.1,0.3,0.3,0.1,0.4C176.5,58.4,176.4,58,176.7,58z"/>
				<path class="st2" d="M178.6,114.6c0.4,0,0.2,0.6-0.1,0.4C178.3,114.9,178.5,114.6,178.6,114.6z"/>
				<path class="st2" d="M91.7,52.3c0.5-0.1,0.3,0.3,0.1,0.4C91.5,52.8,91.4,52.4,91.7,52.3z"/>
				<path class="st2" d="M96.1,105.2c0.2-0.1,0.3,0.8,0,0.6C96,105.7,96,105.2,96.1,105.2z"/>
				<path class="st2" d="M148.3,120.7c0.4-0.2,0.6,0.5,0.1,0.4C148.4,121,148.2,120.8,148.3,120.7z"/>
				<path class="st2" d="M97.2,60.2c0.3-0.2,0.4,0.5,0.1,0.5C97.2,60.7,97,60.3,97.2,60.2z"/>
				<path class="st2" d="M104.2,121.1c0.4,0,0.2,0.6-0.1,0.4C103.9,121.3,104.1,121.1,104.2,121.1z"/>
				<path class="st2" d="M182.9,114.8c0.1,0,0.3,0.4,0.1,0.5C182.8,115.4,182.7,114.8,182.9,114.8z"/>
				<path class="st2" d="M96.8,71.4c0.3,0,0.1,0.7-0.1,0.5C96.5,71.8,96.7,71.4,96.8,71.4z"/>
				<path class="st2" d="M150.3,109.6c0.4-0.2,0.6,0.5,0.1,0.4C150.3,110,150.1,109.7,150.3,109.6z"/>
				<path class="st2" d="M85.6,108.5c0.3-0.1,0.4,0.3,0.1,0.4C85.3,109,85.4,108.5,85.6,108.5z"/>
				<path class="st2" d="M96.7,61.8c0.3,0,0.3,0.5,0.1,0.5C96.6,62.3,96.3,61.8,96.7,61.8z"/>
				<path class="st2" d="M106.1,121.1c0.3-0.1,0.4,0.3,0.3,0.4C106.3,121.5,105.9,121.2,106.1,121.1z"/>
				<path class="st2" d="M183.3,60.7c0.4-0.3,0.2,0.9-0.1,0.3C183.2,60.9,183.2,60.7,183.3,60.7z"/>
				<path class="st2" d="M147,49.8c0.4-0.3,0.2,0.9-0.1,0.3C147,50,147,49.8,147,49.8z"/>
				<path class="st2" d="M148.6,49.9c0.4-0.2,0.4,0.4,0.1,0.4C148.4,50.3,148.5,50,148.6,49.9z"/>
				<path class="st2" d="M154.1,50c0.1,0,0.3,0.3,0.1,0.4C153.9,50.6,153.8,50,154.1,50z"/>
				<path class="st2" d="M119.6,120.9c0.4-0.2,0.4,0.4,0.1,0.4C119.5,121.3,119.5,121,119.6,120.9z"/>
				<path class="st2" d="M92.8,120.9c0.8-0.1-0.1,0.8-0.2,0.2C92.6,121.1,92.8,120.9,92.8,120.9z"/>
				<path class="st2" d="M140,51.2c0.3-0.1,0.4,0.5,0.1,0.5C140.1,51.7,139.8,51.2,140,51.2z"/>
				<path class="st2" d="M90.6,51.3c0.5,0,0,0.7-0.2,0.3C90.4,51.5,90.6,51.3,90.6,51.3z"/>
				<path class="st2" d="M96.9,118.4c0.1,0,0.3,0.3,0.1,0.4C96.7,119,96.7,118.4,96.9,118.4z"/>
				<path class="st2" d="M101,117.7c0.1,0,0.3,0.4,0.1,0.5C100.9,118.4,100.8,117.7,101,117.7z"/>
				<path class="st2" d="M111.4,55.8c0.3-0.1,0.4,0.3,0.1,0.4C111.2,56.2,111.1,55.8,111.4,55.8z"/>
				<path class="st2" d="M97.3,52.6c0.1,0,0.3,0.3,0.1,0.4C97.1,53.2,97,52.6,97.3,52.6z"/>
				<path class="st2" d="M135.6,52.6c0.2-0.1,0.4,0.6,0.1,0.5C135.6,53.1,135.5,52.7,135.6,52.6z"/>
				<path class="st2" d="M140.6,57.8c0.1,0,0.3-0.1,0.3,0.1C141.2,58.3,140.7,58.6,140.6,57.8z"/>
				<path class="st2" d="M96.7,70.3c0.2-0.1,0.4,0.6,0.1,0.5C96.6,70.8,96.5,70.4,96.7,70.3z"/>
				<path class="st2" d="M176,53.1c0.1,0.3,0.1,0.3,0.3,0.5C176,53.6,175.9,53.3,176,53.1z"/>
				<path class="st2" d="M109.9,53.2c0.1,0,0.3,0.3,0.1,0.4C109.6,53.8,109.6,53.2,109.9,53.2z"/>
				<path class="st2" d="M180.9,55.9c0.1,0,0.3,0.3,0.1,0.4C180.7,56.5,180.6,55.9,180.9,55.9z"/>
				<path class="st2" d="M115.4,54c0.3-0.1,0.4,0.3,0.1,0.4C115.2,54.4,115.1,54,115.4,54z"/>
				<path class="st2" d="M172.9,116.1c0.1,0,0.3,0.3,0.1,0.4C172.7,116.7,172.7,116.1,172.9,116.1z"/>
				<path class="st2" d="M184.2,115.5c0.4-0.3,0.2,0.9-0.1,0.3C184.1,115.8,184.1,115.6,184.2,115.5z"/>
				<path class="st2" d="M182.3,71.4c0.3-0.1,0.4,0.3,0.3,0.4C182.5,71.9,182.1,71.6,182.3,71.4z"/>
				<path class="st2" d="M96,59.9c0.3-0.1,0.4,0.3,0.3,0.4C96.2,60.4,95.8,60.1,96,59.9z"/>
				<path class="st2" d="M95.6,67.7c0.1,0,0.3,0.3,0.1,0.4C95.4,68.3,95.4,67.7,95.6,67.7z"/>
				<path class="st2" d="M87.7,113.7c0.1,0,0.3,0.3,0.1,0.4C87.5,114.4,87.4,113.7,87.7,113.7z"/>
				<path class="st2" d="M177.8,69.8c0.3-0.1,0.3,0.7,0,0.5C177.7,70.2,177.7,69.8,177.8,69.8z"/>
				<path class="st2" d="M87.7,112.6c0.1,0,0.3,0.3,0.1,0.4C87.5,113.2,87.4,112.6,87.7,112.6z"/>
				<path class="st2" d="M89.6,54.5c0.3-0.1,0.4,0.3,0.3,0.4C89.7,55,89.4,54.7,89.6,54.5z"/>
				<path class="st2" d="M179.1,111.8c0.1,0,0.3,0.3,0.1,0.4C178.9,112.4,178.9,111.8,179.1,111.8z"/>
				<path class="st2" d="M90.1,57.1c0.3-0.1,0.4,0.3,0.1,0.4C89.9,57.5,89.9,57.1,90.1,57.1z"/>
				<path class="st2" d="M86.3,110.7c0.1,0,0.3,0.3,0.1,0.4C86.1,111.3,86,110.7,86.3,110.7z"/>
				<path class="st2" d="M89.3,79.3c0.4,0.2-0.6,0.8-0.3,0.2C89,79.4,89.3,79.2,89.3,79.3z"/>
				<path class="st2" d="M109.1,57.1c0.1,0,0.3,0.3,0.1,0.4C108.9,57.7,108.8,57.1,109.1,57.1z"/>
				<path class="st2" d="M184.6,61c0.2-0.1,0.4,0.6,0.1,0.5C184.6,61.5,184.4,61.1,184.6,61z"/>
				<path class="st2" d="M118.2,48.2c0.1,0,0.3,0.3,0.1,0.4C118,48.8,117.9,48.2,118.2,48.2z"/>
				<path class="st2" d="M83.6,107.3c0.1,0,0.3,0.3,0.1,0.4C83.4,108,83.3,107.3,83.6,107.3z"/>
				<path class="st2" d="M93.8,55.3c0.1,0,0.3,0.3,0.1,0.4C93.6,55.9,93.6,55.3,93.8,55.3z"/>
				<path class="st2" d="M91,109.3c0.3-0.1,0.4,0.3,0.1,0.4C90.8,109.7,90.8,109.3,91,109.3z"/>
				<path class="st2" d="M138.8,48.7c0.1,0,0.3,0.6,0.1,0.6C138.8,49.4,138.5,48.7,138.8,48.7z"/>
				<path class="st2" d="M100.2,121.4c0.4-0.3,0.2,0.9-0.1,0.3C100.1,121.7,100.2,121.5,100.2,121.4z"/>
				<path class="st2" d="M143.5,114c0.4-0.2,0.4,0.4,0.1,0.4C143.3,114.4,143.3,114.1,143.5,114z"/>
				<path class="st2" d="M108.7,49.4c0.2-0.1,0.4,0.4,0.1,0.4C108.6,49.7,108.6,49.4,108.7,49.4z"/>
				<path class="st2" d="M115.6,121.3c0.3,0,0.2,0.3,0.1,0.4C115.5,121.8,115.4,121.3,115.6,121.3z"/>
				<path class="st2" d="M92.6,49.1c0.4-0.2,0.3,0.4,0.1,0.4C92.6,49.5,92.4,49.2,92.6,49.1z"/>
				<path class="st2" d="M150.5,121.3c0.3,0,0.2,0.3,0.1,0.4C150.4,121.8,150.2,121.3,150.5,121.3z"/>
				<path class="st2" d="M181.5,53.5c0.3,0,0.2,0.3,0.1,0.4C181.4,54,181.3,53.5,181.5,53.5z"/>
				<path class="st2" d="M91.5,121.8c0.4-0.2,0.3,0.4,0.1,0.4C91.6,122.2,91.3,121.9,91.5,121.8z"/>
				<path class="st2" d="M175,114.5c0.4-0.2,0.3,0.4,0.1,0.4C175.1,114.9,174.8,114.6,175,114.5z"/>
				<path class="st2" d="M90.2,116.7c0.3,0,0.2,0.3,0.1,0.4C90.1,117.2,90,116.7,90.2,116.7z"/>
				<path class="st2" d="M94.9,121.8c0.1,0,0.3,0.3,0.1,0.4C94.6,122.4,94.6,121.8,94.9,121.8z"/>
				<path class="st2" d="M143.6,48.7c0.3-0.1,0.3,0.6,0.1,0.5C143.7,49.2,143.4,48.8,143.6,48.7z"/>
				<path class="st2" d="M145.6,122c0.2-0.1,0.4,0.4,0.1,0.4C145.5,122.3,145.5,122,145.6,122z"/>
				<path class="st2" d="M176.7,51.7c0.3,0,0.2,0.3,0.1,0.4C176.5,52.2,176.4,51.7,176.7,51.7z"/>
				<path class="st2" d="M190.1,68.6c0.2-0.1,0.4,0.4,0.1,0.4C190,69,190,68.7,190.1,68.6z"/>
				<path class="st2" d="M95,73.1c0.4-0.2,0.3,0.4,0.1,0.4C95,73.5,94.8,73.2,95,73.1z"/>
				<path class="st2" d="M101.7,48.7c0.3,0,0.2,0.3,0.1,0.4C101.5,49.3,101.4,48.7,101.7,48.7z"/>
				<path class="st2" d="M84.5,106.3c0.3,0,0.2,0.3,0.1,0.4C84.4,106.8,84.2,106.3,84.5,106.3z"/>
				<path class="st2" d="M103.4,48.6c0.2-0.1,0.4,0.4,0.1,0.4C103.3,49,103.3,48.7,103.4,48.6z"/>
				<path class="st2" d="M98.7,54c0.3,0,0.2,0.3,0.1,0.4C98.6,54.5,98.4,54,98.7,54z"/>
				<path class="st2" d="M93.4,59.6c0.1,0,0.3,0.3,0.1,0.4C93.2,60.2,93.2,59.6,93.4,59.6z"/>
				<path class="st2" d="M92,61c0.4-0.2,0.3,0.4,0.1,0.4C92.1,61.4,91.9,61.1,92,61z"/>
				<path class="st2" d="M182.4,113.1c0.1,0,0.3,0.3,0.1,0.4C182.1,113.7,182.2,113.1,182.4,113.1z"/>
				<path class="st2" d="M175.4,61c0.1,0,0.3,0.3,0.1,0.4C175.1,61.6,175.2,61.1,175.4,61z"/>
				<path class="st2" d="M92.6,57.8c0.3,0,0.2,0.3,0.1,0.4C92.4,58.4,92.3,57.8,92.6,57.8z"/>
				<path class="st2" d="M99,56.8c0.3,0,0.2,0.3,0.1,0.4C98.8,57.3,98.7,56.8,99,56.8z"/>
				<path class="st2" d="M70.6,53.1c0.1,0,0.3,0.3,0.1,0.4C70.3,53.7,70.4,53.1,70.6,53.1z"/>
				<path class="st2" d="M96.5,119.1c0.2-0.1,0.4,0.4,0.1,0.4C96.4,119.5,96.4,119.2,96.5,119.1z"/>
				<path class="st2" d="M179,61c0.4-0.2,0.3,0.4,0.1,0.4C179,61.4,178.8,61.1,179,61z"/>
				<path class="st2" d="M181.4,112.2c0.4-0.2,0.3,0.4,0.1,0.4C181.5,112.6,181.2,112.3,181.4,112.2z"/>
				<path class="st2" d="M182.3,111.6c0.4-0.2,0.3,0.4,0.1,0.4C182.4,112,182.1,111.6,182.3,111.6z"/>
				<path class="st2" d="M95.8,52.7c0.1,0,0.3,0.3,0.1,0.4C95.5,53.3,95.5,52.7,95.8,52.7z"/>
				<path class="st2" d="M113.3,120.4c0.4-0.2,0.3,0.4,0.1,0.4C113.4,120.8,113.1,120.5,113.3,120.4z"/>
				<path class="st2" d="M121.4,120.9c0.3,0,0.2,0.3,0.1,0.4C121.3,121.4,121.1,120.9,121.4,120.9z"/>
				<path class="st2" d="M86.3,64.3c0.1,0,0.3,0.3,0.1,0.4C86,64.8,86,64.3,86.3,64.3z"/>
				<path class="st2" d="M71,91.7c0.4-0.2,0.3,0.4,0.1,0.4C71.1,92.1,70.8,91.8,71,91.7z"/>
				<path class="st2" d="M91.7,53c0.2-0.1,0.4,0.4,0.1,0.4C91.5,53.3,91.5,53,91.7,53z"/>
				<path class="st2" d="M139.4,51.9c0.2,0,0.2,0.6-0.1,0.4C139,52.2,139.3,51.9,139.4,51.9z"/>
				<path class="st2" d="M135.1,120.9c0.2-0.1,0.4,0.4,0.1,0.4C135,121.3,135,121,135.1,120.9z"/>
				<path class="st2" d="M179.9,57.8c0.4-0.2,0.3,0.4,0.1,0.4C179.9,58.2,179.7,57.9,179.9,57.8z"/>
				<path class="st2" d="M101.3,49.5c0.2-0.1,0.4,0.4,0.1,0.4C101.1,49.9,101.1,49.6,101.3,49.5z"/>
				<path class="st2" d="M94.9,59.6c0.4-0.2,0.3,0.4,0.1,0.4C94.9,60,94.7,59.7,94.9,59.6z"/>
				<path class="st2" d="M178.6,54.9c0.3-0.1,0.4,0.3,0.3,0.4C178.7,55.4,178.5,55,178.6,54.9z"/>
				<path class="st2" d="M87.8,62.1c0.3,0,0.2,0.3,0.1,0.4C87.7,62.6,87.5,62.1,87.8,62.1z"/>
				<path class="st2" d="M87.9,114.8c0.3,0,0.2,0.3,0.1,0.4C87.8,115.3,87.7,114.8,87.9,114.8z"/>
				<path class="st2" d="M96.1,55c0.1,0,0.3,0.3,0.1,0.4C95.8,55.6,95.9,55,96.1,55z"/>
				<path class="st2" d="M181.2,70.2c0.1,0,0.3,0.3,0.1,0.4C180.9,70.7,180.9,70.2,181.2,70.2z"/>
				<path class="st2" d="M114.6,121.2c0.3-0.1,0.3,0.5,0,0.4C114.5,121.5,114.5,121.2,114.6,121.2z"/>
				<path class="st2" d="M137.9,121.7c0.1-0.1,0.4,0,0.3,0.2C138.2,122.1,137.7,121.9,137.9,121.7z"/>
				<path class="st2" d="M87.5,48.4c0.3-0.1,0.3,0.5,0,0.4C87.4,48.7,87.4,48.4,87.5,48.4z"/>
				<path class="st2" d="M157,55.1c0.1-0.1,0.4,0,0.3,0.2C157.3,55.5,156.8,55.4,157,55.1z"/>
				<path class="st2" d="M77.9,48.6c0.1,0,0.3,0.3,0.1,0.4C77.8,49.1,77.7,48.6,77.9,48.6z"/>
				<path class="st2" d="M114,48.7c0.4,0,0.1,0.4-0.1,0.3C113.7,49,113.9,48.7,114,48.7z"/>
				<path class="st2" d="M87,49.6c0.3-0.1,0.4,0.4,0.1,0.4C87.1,50,86.9,49.7,87,49.6z"/>
				<path class="st2" d="M110.2,49.6c0.3-0.1,0.3,0.5,0,0.4C110.1,50,110.1,49.7,110.2,49.6z"/>
				<path class="st2" d="M76.9,49.9c0.1-0.1,0.4,0,0.3,0.2C77.1,50.3,76.6,50.1,76.9,49.9z"/>
				<path class="st2" d="M64.9,50.3c0.3-0.1,0.3,0.5,0,0.4C64.8,50.6,64.8,50.3,64.9,50.3z"/>
				<path class="st2" d="M94.5,50.5c0.1-0.1,0.4,0,0.3,0.2C94.7,50.9,94.2,50.7,94.5,50.5z"/>
				<path class="st2" d="M109.2,50.8c0,0,0.3,0.2,0.1,0.4C109.1,51.5,109.1,50.9,109.2,50.8z"/>
				<path class="st2" d="M153.8,51.9c0.3-0.1,0.3,0.5,0,0.4C153.7,52.3,153.7,52,153.8,51.9z"/>
				<path class="st2" d="M153.5,52.8c0.3-0.1,0.3,0.5,0,0.4C153.4,53.2,153.4,52.9,153.5,52.8z"/>
				<path class="st2" d="M64.6,54c0.1-0.1,0.4,0,0.3,0.2C64.8,54.4,64.3,54.2,64.6,54z"/>
				<path class="st2" d="M180.8,54.1c0.4,0,0.1,0.4-0.1,0.3C180.5,54.3,180.7,54.1,180.8,54.1z"/>
				<path class="st2" d="M143.6,54.9c0.1-0.1,0.4,0,0.3,0.2C143.8,55.3,143.3,55.1,143.6,54.9z"/>
				<path class="st2" d="M96.7,72.5c0.2,0,0.1,0.5-0.1,0.4C96.3,72.8,96.6,72.5,96.7,72.5z"/>
				<path class="st2" d="M92.3,72.8c0,0,0.3,0.2,0.1,0.4C92.2,73.6,92.2,72.9,92.3,72.8z"/>
				<path class="st2" d="M92.2,73.9c0,0,0.3,0.2,0.1,0.4C92.1,74.6,92,74,92.2,73.9z"/>
				<path class="st2" d="M185.3,65.5c0.1,0,0.3,0.3,0.1,0.4C185.1,66,185,65.5,185.3,65.5z"/>
				<path class="st2" d="M97.2,62.8c0.1-0.1,0.4,0,0.3,0.2C97.4,63.2,96.9,63,97.2,62.8z"/>
				<path class="st2" d="M175.8,62.5c0.3-0.1,0.3,0.5,0,0.4C175.7,62.8,175.7,62.5,175.8,62.5z"/>
				<path class="st2" d="M70.6,92.7c0.3-0.1,0.3,0.5,0,0.4C70.5,93.1,70.5,92.8,70.6,92.7z"/>
				<path class="st2" d="M141.4,59.6c0.3-0.1,0.3,0.5,0,0.4C141.3,60,141.3,59.7,141.4,59.6z"/>
				<path class="st2" d="M179.6,103.6c0,0,0.3,0.2,0.1,0.4C179.5,104.3,179.5,103.7,179.6,103.6z"/>
				<path class="st2" d="M187.8,69.4c0.1-0.1,0.4,0,0.3,0.2C188,69.8,187.5,69.6,187.8,69.4z"/>
				<path class="st2" d="M156.4,57.7c0.1-0.1,0.4,0,0.3,0.2C156.6,58.1,156.1,57.9,156.4,57.7z"/>
				<path class="st2" d="M87.3,108.7c0.3-0.1,0.3,0.5,0,0.4C87.2,109.1,87.2,108.8,87.3,108.7z"/>
				<path class="st2" d="M182.8,109c0.1,0,0.3,0.3,0.1,0.4C182.7,109.5,182.6,109,182.8,109z"/>
				<path class="st2" d="M85.4,109.8c0.3-0.1,0.3,0.5,0,0.4C85.3,110.1,85.3,109.8,85.4,109.8z"/>
				<path class="st2" d="M191.2,57.2c0,0,0.3,0.2,0.1,0.4C191,57.9,191,57.3,191.2,57.2z"/>
				<path class="st2" d="M179.6,111.8c0.3-0.1,0.3,0.5,0,0.4C179.5,112.2,179.5,111.9,179.6,111.8z"/>
				<path class="st2" d="M109.1,56c0.4,0,0.1,0.4-0.1,0.3C108.8,56.3,109,56,109.1,56z"/>
				<path class="st2" d="M188,117.5c-0.1,0.1,0,0.6-0.3,0.5C187.6,117.7,187.9,117.6,188,117.5z"/>
				<path class="st2" d="M88.6,118.7c0.3-0.1,0.3,0.5,0,0.4C88.5,119.1,88.5,118.8,88.6,118.7z"/>
				<path class="st2" d="M113.1,119c0,0,0.3,0.2,0.1,0.4C113,119.7,112.9,119.1,113.1,119z"/>
				<path class="st2" d="M168.5,120c0.3-0.1,0.3,0.5,0,0.4C168.4,120.4,168.4,120.1,168.5,120z"/>
				<path class="st2" d="M175.9,120.4c0.1-0.1,0.4,0,0.3,0.2C176.1,120.8,175.6,120.6,175.9,120.4z"/>
				<path class="st2" d="M96.8,120.8c0.1-0.1,0.4,0,0.3,0.2C97,121.2,96.5,121,96.8,120.8z"/>
				<path class="st2" d="M184.4,63.9c0,0,0.3,0.2,0.1,0.3C184.2,64.3,184.1,63.9,184.4,63.9z"/>
				<path class="st2" d="M144.2,110.2c0,0,0.3,0.2,0.1,0.3C144,110.6,144,110.2,144.2,110.2z"/>
				<path class="st2" d="M89.9,66.3c0,0,0.3,0.2,0.1,0.3C89.7,66.8,89.6,66.3,89.9,66.3z"/>
				<path class="st2" d="M64.3,53.1c0.1-0.1,0.3,0,0.1,0.3C64.3,53.7,64.2,53.2,64.3,53.1z"/>
				<path class="st2" d="M96.4,76.8c0,0,0.3,0.2,0.1,0.3C96.2,77.3,96.2,76.8,96.4,76.8z"/>
				<path class="st2" d="M67.9,55c0,0,0.3,0.2,0.1,0.3C67.8,55.5,67.7,55,67.9,55z"/>
				<path class="st2" d="M181,110.9c0,0,0.3,0.2,0.1,0.3C180.8,111.4,180.8,110.9,181,110.9z"/>
				<path class="st2" d="M96.7,57.7c0,0,0.3,0.2,0.1,0.3C96.5,58.2,96.4,57.7,96.7,57.7z"/>
				<path class="st2" d="M85.2,111.4c0,0,0.3,0.2,0.1,0.3C85.1,111.9,85,111.4,85.2,111.4z"/>
				<path class="st2" d="M86.4,114c0,0,0.3,0.2,0.1,0.3C86.2,114.5,86.2,114,86.4,114z"/>
				<path class="st2" d="M94,76.3c0,0,0.3,0.2,0.1,0.3C93.8,76.8,93.7,76.3,94,76.3z"/>
				<path class="st2" d="M94.2,56.4c0,0,0.3,0.2,0.1,0.3C94,56.9,94,56.4,94.2,56.4z"/>
				<path class="st2" d="M81.5,117.9c0,0,0.3,0.2,0.1,0.3C81.3,118.3,81.3,117.9,81.5,117.9z"/>
				<path class="st2" d="M94,114.9c0,0,0.3,0.2,0.1,0.3C93.8,115.4,93.7,114.9,94,114.9z"/>
				<path class="st2" d="M93.7,72.7c0,0,0.3,0.2,0.1,0.3C93.5,73.2,93.5,72.7,93.7,72.7z"/>
				<path class="st2" d="M178.3,56.3c0,0,0.3,0.2,0.1,0.3C178.2,56.8,178.1,56.3,178.3,56.3z"/>
				<path class="st2" d="M156.3,112.7c0,0,0.3,0.2,0.1,0.3C156.1,113.2,156.1,112.7,156.3,112.7z"/>
				<path class="st2" d="M144.9,54.6c0,0,0.3,0.2,0.1,0.3C144.7,55.1,144.6,54.6,144.9,54.6z"/>
				<path class="st2" d="M83.6,109.8c0.3-0.1,0.3,0.3,0.1,0.4C83.7,110.2,83.4,109.8,83.6,109.8z"/>
				<path class="st2" d="M182.4,115.8c0,0,0.3,0.2,0.1,0.3C182.3,116.3,182.2,115.8,182.4,115.8z"/>
				<path class="st2" d="M153.2,56.7c0,0,0.3,0,0.3,0.1C153.6,57,152.8,57,153.2,56.7z"/>
				<path class="st2" d="M183.5,116.1c0,0,0.3,0.2,0.1,0.3C183.3,116.5,183.2,116.1,183.5,116.1z"/>
				<path class="st2" d="M143.8,57.3c0,0,0.3,0.2,0.1,0.3C143.7,57.8,143.6,57.3,143.8,57.3z"/>
				<path class="st2" d="M88.7,117.9c0,0,0.3,0.2,0.1,0.3C88.5,118.3,88.5,117.9,88.7,117.9z"/>
				<path class="st2" d="M96.1,118c0,0,0.3,0.2,0.2,0.3C96.2,118.6,95.9,118.1,96.1,118z"/>
				<path class="st2" d="M112.8,118c0,0,0.3,0.2,0.1,0.3C112.6,118.5,112.6,118,112.8,118z"/>
				<path class="st2" d="M174.2,118c0,0,0.3,0.2,0.1,0.3C174.1,118.5,174,118,174.2,118z"/>
				<path class="st2" d="M63.6,118.6c0.2,0.1,0,0.6-0.2,0.3C63.3,118.8,63.6,118.6,63.6,118.6z"/>
				<path class="st2" d="M185.1,51.3c0,0,0.3,0.2,0.1,0.3C184.9,51.8,184.9,51.3,185.1,51.3z"/>
				<path class="st2" d="M99.3,119.5c0,0,0.3,0.2,0.1,0.3C99.2,120,99.1,119.5,99.3,119.5z"/>
				<path class="st2" d="M176.7,119.6c0,0,0.3,0.2,0.1,0.3C176.5,120.1,176.4,119.6,176.7,119.6z"/>
				<path class="st2" d="M181.8,119.8c0,0,0.3,0.2,0.1,0.3C181.6,120.2,181.6,119.8,181.8,119.8z"/>
				<path class="st2" d="M107.9,51c0,0,0.3,0.2,0.1,0.3C107.8,51.5,107.7,51,107.9,51z"/>
				<path class="st2" d="M99.1,55.3c0,0,0.3,0.2,0.1,0.3C98.9,55.8,98.9,55.3,99.1,55.3z"/>
				<path class="st2" d="M128.7,120.3c0,0,0.3,0.2,0.1,0.3C128.5,120.8,128.5,120.3,128.7,120.3z"/>
				<path class="st2" d="M75.6,51c0.3-0.1,0.5,0.1,0.3,0.3C75.8,51.4,75.5,51.1,75.6,51z"/>
				<path class="st2" d="M138.1,50.8c0,0,0.3,0.2,0.1,0.3C137.9,51.3,137.8,50.8,138.1,50.8z"/>
				<path class="st2" d="M98.2,70.4c0,0,0.3,0.2,0.1,0.3C98,70.9,98,70.4,98.2,70.4z"/>
				<path class="st2" d="M184.1,120.8c0,0,0.3,0.2,0.1,0.3C183.9,121.3,183.9,120.8,184.1,120.8z"/>
				<path class="st2" d="M67.5,50.8c0,0,0.3,0.2,0.1,0.3C67.4,51.3,67.3,50.8,67.5,50.8z"/>
				<path class="st2" d="M92.9,49.9c0,0,0.3,0.2,0.1,0.3C92.8,50.4,92.7,49.9,92.9,49.9z"/>
				<path class="st2" d="M139.4,120.9c0,0,0.3,0.2,0.1,0.3C139.2,121.4,139.1,120.9,139.4,120.9z"/>
				<path class="st2" d="M91.5,121.1c0,0,0.3,0.2,0.1,0.3C91.3,121.5,91.3,121.1,91.5,121.1z"/>
				<path class="st2" d="M137.7,49.5c0,0,0.3,0.2,0.1,0.3C137.5,50,137.5,49.5,137.7,49.5z"/>
				<path class="st2" d="M186.7,60.3c0.3-0.1,0.5,0.1,0.3,0.3C186.8,60.6,186.5,60.3,186.7,60.3z"/>
				<path class="st2" d="M147,121.3c0,0,0.3,0.2,0.1,0.3C146.9,121.8,146.8,121.3,147,121.3z"/>
				<path class="st2" d="M150,48.9c0,0,0.3,0.2,0.1,0.3C149.8,49.3,149.8,48.9,150,48.9z"/>
				<path class="st2" d="M92.7,121.7c0,0,0.3,0.2,0.1,0.3C92.5,122.2,92.5,121.7,92.7,121.7z"/>
				<path class="st2" d="M148.2,48.7c0,0,0.3,0.2,0.1,0.3C148,49.2,148,48.7,148.2,48.7z"/>
				<path class="st2" d="M93.6,122c0,0,0.3,0.2,0.1,0.3C93.4,122.4,93.4,122,93.6,122z"/>
				<path class="st2" d="M113.1,48.7c0,0,0.3,0.2,0.1,0.3C112.9,49.2,112.8,48.7,113.1,48.7z"/>
				<path class="st2" d="M111.1,48.7c0.2,0.1,0,0.6-0.2,0.3C110.9,49,111.1,48.7,111.1,48.7z"/>
				<path class="st2" d="M110.2,48.7c0,0,0.3,0.2,0.1,0.3C110.1,49.2,110,48.7,110.2,48.7z"/>
				<path class="st2" d="M99.3,115.7c0,0,0.2,0.2,0.2,0.3C99.5,116.2,99.1,115.7,99.3,115.7z"/>
				<path class="st2" d="M98.7,104.9c0,0,0.3,0.2,0.1,0.3C98.5,105.3,98.5,104.9,98.7,104.9z"/>
				<path class="st2" d="M78.6,52.2c0,0,0.2,0.1,0.1,0.3C78.5,52.8,78.4,52.3,78.6,52.2z"/>
				<path class="st2" d="M179.7,118.2c0.2,0.1,0.1,0.6-0.1,0.3C179.5,118.4,179.7,118.2,179.7,118.2z"/>
				<path class="st2" d="M191.3,55.5c0,0,0.2,0.1,0.1,0.3C191.2,56.1,191.1,55.6,191.3,55.5z"/>
				<path class="st2" d="M156.9,51.7c0,0,0.3,0.2,0.1,0.3C156.7,52.1,156.7,51.7,156.9,51.7z"/>
				<path class="st2" d="M88.7,53.6c0.2-0.1,0.3,0.2,0.1,0.3C88.6,53.9,88.6,53.7,88.7,53.6z"/>
				<path class="st2" d="M102.9,67.2c0.2-0.1,0.3,0.2,0.1,0.3C102.9,67.5,102.8,67.3,102.9,67.2z"/>
				<path class="st2" d="M158.1,115.8c0.3-0.2,0.4,0.2,0.1,0.3C158.2,116.1,157.9,115.9,158.1,115.8z"/>
				<path class="st2" d="M98.6,51.2c0.3-0.2,0.4,0.2,0.1,0.3C98.7,51.4,98.4,51.2,98.6,51.2z"/>
				<path class="st2" d="M108.2,55.3c0.3-0.2,0.4,0.2,0.1,0.3C108.3,55.5,108.1,55.3,108.2,55.3z"/>
				<path class="st2" d="M151.7,108.6c0.2-0.1,0.3,0.2,0.1,0.3C151.6,109,151.5,108.7,151.7,108.6z"/>
				<path class="st2" d="M90.2,109.3c0,0,0.2,0.1,0.1,0.3C90.2,109.8,90.1,109.4,90.2,109.3z"/>
				<path class="st2" d="M89.5,109.6c0.2,0.1,0.1,0.6-0.1,0.3C89.3,109.8,89.5,109.6,89.5,109.6z"/>
				<path class="st2" d="M66.5,72.3c0,0,0.2,0.2,0.2,0.3C66.6,72.9,66.3,72.4,66.5,72.3z"/>
				<path class="st2" d="M94.2,109.8c0.2-0.1,0.3,0.2,0.1,0.3C94.2,110.1,94.1,109.8,94.2,109.8z"/>
				<path class="st2" d="M181.7,54.1c0.2,0.1,0.1,0.6-0.1,0.3C181.5,54.3,181.7,54.1,181.7,54.1z"/>
				<path class="st2" d="M96.9,59.1c0.2-0.1,0.3,0.2,0.1,0.3C96.8,59.5,96.8,59.2,96.9,59.1z"/>
				<path class="st2" d="M148.8,59.6c0,0,0.2,0.1,0.1,0.3C148.8,60.2,148.7,59.8,148.8,59.6z"/>
				<path class="st2" d="M95.1,79.3c0,0,0.1,0.2-0.2,0.4C94.6,79.4,95,79.3,95.1,79.3z"/>
				<path class="st2" d="M179.6,54c0.2,0.1,0.1,0.6-0.1,0.3C179.4,54.1,179.6,54,179.6,54z"/>
				<path class="st2" d="M159.1,64.3c0.2,0.1,0.1,0.6-0.1,0.3C158.9,64.4,159.1,64.2,159.1,64.3z"/>
				<path class="st2" d="M118.1,120.9c0.2-0.1,0.3,0.2,0.1,0.3C118,121.3,117.9,121,118.1,120.9z"/>
				<path class="st2" d="M80.8,50.3c0.2-0.1,0.3,0.2,0.1,0.3C80.7,50.6,80.6,50.3,80.8,50.3z"/>
				<path class="st2" d="M141.9,117c0,0,0.2,0.1,0.1,0.3C141.8,117.5,141.8,117.1,141.9,117z"/>
				<path class="st2" d="M66.6,56.3c0.2,0.1,0.1,0.6-0.1,0.3C66.4,56.4,66.6,56.3,66.6,56.3z"/>
				<path class="st2" d="M86.1,112.1c0.2-0.1,0.3,0.2,0.1,0.3C86.1,112.4,86,112.1,86.1,112.1z"/>
				<path class="st2" d="M150.9,49.5c0.2,0.1,0.1,0.6-0.1,0.3C150.7,49.6,150.9,49.5,150.9,49.5z"/>
				<path class="st2" d="M101.9,64.6c0.2,0.1,0.1,0.6-0.1,0.3C101.7,64.8,101.9,64.6,101.9,64.6z"/>
				<path class="st2" d="M153.7,64.8c0.2,0.1,0.1,0.6-0.1,0.3C153.5,64.9,153.7,64.8,153.7,64.8z"/>
				<path class="st2" d="M111.5,115.5c0.2,0.1,0.1,0.6-0.1,0.3C111.3,115.7,111.5,115.5,111.5,115.5z"/>
				<path class="st2" d="M75.2,49.1c0,0,0.2,0.1,0.1,0.3C75.2,49.7,75.1,49.2,75.2,49.1z"/>
				<path class="st2" d="M99,66.7c0.2-0.1,0.3,0.2,0.1,0.3C98.9,67,98.8,66.8,99,66.7z"/>
				<path class="st2" d="M142.6,113.4c0.2-0.1,0.3,0.2,0.1,0.3C142.5,113.7,142.4,113.4,142.6,113.4z"/>
				<path class="st2" d="M136.7,121.7c0,0,0.3,0.2,0.1,0.3C136.5,122.1,136.4,121.7,136.7,121.7z"/>
				<path class="st2" d="M151.7,52.3c0.2,0.1,0.1,0.6-0.1,0.3C151.5,52.5,151.6,52.3,151.7,52.3z"/>
				<path class="st2" d="M148.1,121.8c0.2-0.1,0.3,0.2,0.1,0.3C148,122.2,147.9,121.9,148.1,121.8z"/>
				<path class="st2" d="M145.8,55.7c0.3-0.2,0.4,0.2,0.1,0.3C145.9,55.9,145.6,55.7,145.8,55.7z"/>
				<path class="st2" d="M97.9,54.6c0,0,0.2,0.1,0.1,0.3C97.9,55.2,97.8,54.8,97.9,54.6z"/>
				<path class="st2" d="M61.6,87.8c0.3-0.2,0.4,0.2,0.1,0.3C61.8,88.1,61.5,87.9,61.6,87.8z"/>
				<path class="st2" d="M99.3,117.9c0.2,0.1,0.1,0.6-0.1,0.3C99.1,118,99.3,117.8,99.3,117.9z"/>
				<path class="st2" d="M115,48.5c0.2-0.1,0.3,0.2,0.1,0.3C114.9,48.8,114.8,48.5,115,48.5z"/>
				<path class="st2" d="M97.6,48.4c0.3-0.2,0.4,0.2,0.1,0.3C97.7,48.6,97.4,48.4,97.6,48.4z"/>
				<path class="st2" d="M157.7,61.7c0,0,0.2,0.2,0.2,0.3C157.8,62.2,157.5,61.7,157.7,61.7z"/>
				<path class="st2" d="M90.2,110.2c0.1,0,0.1,0,0.1,0c0,0,0,0,0.1,0.1c0,0.1,0,0.1,0,0.1c0,0,0,0-0.1,0.1c0,0,0,0-0.1-0.1
					c0,0,0,0-0.1-0.1C90.2,110.3,90.2,110.3,90.2,110.2C90.2,110.2,90.2,110.2,90.2,110.2z"/>
				<path class="st2" d="M95.1,79.3c0,0-0.1-0.3,0.2-0.3C95.4,79.1,95.1,79.2,95.1,79.3z"/>
				<path class="st2" d="M91,111.6C91,111.6,91,111.6,91,111.6c0.1,0.1,0.1,0.1,0.1,0.1c0,0,0,0,0.1,0.1c0,0,0,0-0.1,0.1
					c-0.1,0-0.1,0-0.1,0c0,0,0,0-0.1-0.1C90.9,111.7,90.9,111.7,91,111.6C91,111.6,91,111.6,91,111.6z"/>
				<path class="st2" d="M176.4,118.6c0.1,0,0.1,0,0.1,0c0,0,0,0,0.1,0.1c0,0.1,0,0.1,0,0.1c0,0,0,0-0.1,0.1c0,0,0,0-0.1-0.1
					c0,0,0,0-0.1-0.1C176.4,118.7,176.4,118.7,176.4,118.6C176.4,118.7,176.4,118.7,176.4,118.6z"/>
				<path class="st2" d="M67.3,93C67.3,93,67.3,93,67.3,93c0.1,0.1,0.1,0.1,0.1,0.1c0,0,0,0,0.1,0.1c0,0,0,0-0.1,0.1
					c-0.1,0-0.1,0-0.1,0c0,0,0,0-0.1-0.1C67.2,93.1,67.2,93.1,67.3,93C67.3,93,67.3,93,67.3,93z"/>
				<path class="st2" d="M69.7,91.8C69.8,91.9,69.8,91.9,69.7,91.8c0.1,0.1,0.1,0.1,0.1,0.1c0,0,0,0,0.1,0.1c0,0,0,0-0.1,0.1
					c-0.1,0-0.1,0-0.1,0c0,0,0,0-0.1-0.1C69.7,92,69.7,92,69.7,91.8C69.7,91.9,69.7,91.9,69.7,91.8z"/>
				<path class="st2" d="M67.8,119.1C67.8,119.2,67.8,119.2,67.8,119.1c0.1,0.1,0.1,0.1,0.1,0.1c0,0,0,0,0.1,0.1c0,0,0,0-0.1,0.1
					c-0.1,0-0.1,0-0.1,0c0,0,0,0-0.1-0.1C67.7,119.3,67.7,119.3,67.8,119.1C67.8,119.2,67.8,119.2,67.8,119.1z"/>
				<path class="st2" d="M95.6,77.8c0.1,0,0.1,0,0.1,0c0,0,0,0,0.1,0.1c0,0.1,0,0.1,0,0.1c0,0,0,0-0.1,0.1c0,0,0,0-0.1-0.1
					c0,0,0,0-0.1-0.1C95.6,77.9,95.6,77.9,95.6,77.8C95.6,77.9,95.6,77.9,95.6,77.8z"/>
				<path class="st2" d="M182.7,119.3C182.7,119.3,182.7,119.3,182.7,119.3c0.1,0.1,0.1,0.1,0.1,0.2c0,0,0,0-0.1,0.1
					c-0.1,0-0.1,0-0.1,0c0,0,0,0-0.1-0.1c0,0,0,0,0.1-0.1C182.6,119.4,182.6,119.4,182.7,119.3C182.7,119.3,182.7,119.3,182.7,119.3
					z"/>
				<path class="st2" d="M100.1,119.4c0.1,0,0.1,0,0.1,0c0,0,0,0,0.1,0.1c0,0,0,0-0.1,0.1c0,0,0,0-0.1,0.1c0,0,0,0-0.1,0.1
					c0,0,0,0-0.1-0.1C100.1,119.5,100.1,119.5,100.1,119.4C100.1,119.4,100.1,119.4,100.1,119.4z"/>
				<path class="st2" d="M89.2,78c0.1,0,0.1,0,0.1,0c0,0,0,0,0.1,0.1c0,0.1,0,0.1,0,0.1c0,0,0,0-0.1,0.1c0,0,0,0-0.1-0.1
					c0,0,0,0-0.1-0.1S89.2,78.1,89.2,78C89.2,78,89.2,78,89.2,78z"/>
				<path class="st2" d="M97.2,105.9c0.1,0,0.1,0,0.1,0c0,0,0,0,0.1,0.1c0,0,0,0-0.1,0.1c0,0,0,0-0.1,0.1c0,0,0,0-0.1,0.1
					c0,0,0,0-0.1-0.1C97.1,106.1,97.1,106.1,97.2,105.9C97.1,106,97.1,106,97.2,105.9z"/>
				<path class="st2" d="M90.6,113.1c0.1,0,0.1,0,0.1,0c0,0,0,0,0.1,0.1c0,0.1,0,0.1,0,0.1c0,0,0,0-0.1,0.1c0,0,0,0-0.1-0.1
					c0,0,0,0-0.1-0.1C90.6,113.2,90.6,113.2,90.6,113.1C90.6,113.1,90.6,113.1,90.6,113.1z"/>
				<path class="st2" d="M93.3,119.8C93.4,119.8,93.4,119.8,93.3,119.8c0.1,0.1,0.1,0.1,0.1,0.2c0,0,0,0-0.1,0.1c-0.1,0-0.1,0-0.1,0
					c0,0,0,0-0.1-0.1c0,0,0,0,0.1-0.1C93.2,119.9,93.2,119.9,93.3,119.8C93.3,119.8,93.3,119.8,93.3,119.8z"/>
				<path class="st2" d="M125,119.8c0.1,0,0.1,0,0.1,0c0,0,0,0,0.1,0.1c0,0,0,0-0.1,0.1c0,0,0,0-0.1,0.1c0,0,0,0-0.1,0.1
					c0,0,0,0-0.1-0.1C124.9,119.9,124.9,119.9,125,119.8C125,119.8,125,119.8,125,119.8z"/>
				<path class="st2" d="M97,66.2c0.1,0,0.1,0,0.1,0c0,0,0,0,0.1,0.1c0,0,0,0-0.1,0.1c0,0,0,0-0.1,0.1c0,0,0,0-0.1,0.1
					c0,0,0,0-0.1-0.1C97,66.3,97,66.3,97,66.2C97,66.2,97,66.2,97,66.2z"/>
				<path class="st2" d="M170.1,120c0.1,0,0.1,0,0.1,0c0,0,0,0,0.1,0.1c0,0,0,0-0.1,0.1c0,0,0,0-0.1,0.1c0,0,0,0-0.1,0.1
					c0,0,0,0-0.1-0.1C170.1,120.2,170.1,120.2,170.1,120C170.1,120.1,170.1,120.1,170.1,120z"/>
				<path class="st2" d="M104.2,66.8c0.1,0,0.1,0,0.1,0c0,0,0,0,0.1,0.1c0,0.1,0,0.1,0,0.1c0,0,0,0-0.1,0.1c0,0,0,0-0.1-0.1
					c0,0,0,0-0.1-0.1C104.2,66.9,104.2,66.9,104.2,66.8C104.2,66.9,104.2,66.9,104.2,66.8z"/>
				<path class="st2" d="M158.2,66.9c0.1,0,0.1,0,0.1,0c0,0,0,0,0.1,0.1c0,0,0,0-0.1,0.1c0,0,0,0-0.1,0.1c0,0,0,0-0.1,0.1
					c0,0,0,0-0.1-0.1C158.1,67.1,158.1,67.1,158.2,66.9C158.2,67,158.2,67,158.2,66.9z"/>
				<path class="st2" d="M189.4,113.7C189.4,113.8,189.4,113.8,189.4,113.7c0.1,0.1,0.1,0.1,0.1,0.1c0,0,0,0,0.1,0.1
					c0,0,0,0-0.1,0.1c-0.1,0-0.1,0-0.1,0c0,0,0,0-0.1-0.1C189.3,113.9,189.3,113.9,189.4,113.7C189.3,113.8,189.3,113.8,189.4,113.7
					z"/>
				<path class="st2" d="M187.7,113.9c0.1,0,0.1,0,0.1,0c0,0,0,0,0.1,0.1c0,0.1,0,0.1,0,0.1c0,0,0,0-0.1,0.1c0,0,0,0-0.1-0.1
					c0,0,0,0-0.1-0.1C187.7,114,187.7,114,187.7,113.9C187.7,113.9,187.7,113.9,187.7,113.9z"/>
				<path class="st2" d="M95.8,60.8C95.8,60.8,95.8,60.8,95.8,60.8c0.1,0.1,0.1,0.1,0.1,0.2c0,0,0,0-0.1,0.1c-0.1,0-0.1,0-0.1,0
					c0,0,0,0-0.1-0.1c0,0,0,0,0.1-0.1C95.7,60.9,95.7,60.9,95.8,60.8C95.7,60.8,95.7,60.8,95.8,60.8z"/>
				<path class="st2" d="M157.8,67.8C157.8,67.9,157.8,67.9,157.8,67.8c0.1,0.1,0.1,0.1,0.1,0.2c0,0,0,0-0.1,0.1c-0.1,0-0.1,0-0.1,0
					c0,0,0,0-0.1-0.1c0,0,0,0,0.1-0.1C157.7,67.9,157.7,67.9,157.8,67.8C157.8,67.9,157.8,67.9,157.8,67.8z"/>
				<path class="st2" d="M102.9,120.7c0.1,0,0.1,0,0.1,0c0,0,0,0,0.1,0.1c0,0.1,0,0.1,0,0.1c0,0,0,0-0.1,0.1c0,0,0,0-0.1-0.1
					c0,0,0,0-0.1-0.1C102.9,120.8,102.9,120.8,102.9,120.7C102.9,120.7,102.9,120.7,102.9,120.7z"/>
				<path class="st2" d="M142,55C142.1,55.1,142.1,55.1,142,55c0.1,0.1,0.1,0.1,0.1,0.1c0,0,0,0,0.1,0.1c0,0,0,0-0.1,0.1
					c-0.1,0-0.1,0-0.1,0c0,0,0,0-0.1-0.1C142,55.1,142,55.1,142,55C142,55.1,142,55.1,142,55z"/>
				<path class="st2" d="M179.9,107.1C179.9,107.1,179.9,107.1,179.9,107.1c0.1,0.1,0.1,0.1,0.1,0.1c0,0,0,0,0.1,0.1
					c0,0,0,0-0.1,0.1c-0.1,0-0.1,0-0.1,0c0,0,0,0-0.1-0.1C179.8,107.2,179.8,107.2,179.9,107.1C179.8,107.1,179.8,107.1,179.9,107.1
					z"/>
				<path class="st2" d="M107.4,54.9C107.5,54.9,107.5,54.9,107.4,54.9c0.1,0.1,0.1,0.1,0.1,0.1c0,0,0,0,0.1,0.1c0,0,0,0-0.1,0.1
					c-0.1,0-0.1,0-0.1,0c0,0,0,0-0.1-0.1C107.4,55,107.4,55,107.4,54.9C107.4,54.9,107.4,54.9,107.4,54.9z"/>
				<path class="st2" d="M175.6,115.5c0.1,0,0.1,0,0.1,0c0,0,0,0,0.1,0.1c0,0,0,0-0.1,0.1c0,0,0,0-0.1,0.1c0,0,0,0-0.1,0.1
					c0,0,0,0-0.1-0.1C175.6,115.7,175.6,115.7,175.6,115.5C175.6,115.6,175.6,115.6,175.6,115.5z"/>
				<path class="st2" d="M87.7,120.9C87.7,121,87.7,121,87.7,120.9c0.1,0.1,0.1,0.1,0.1,0.2c0,0,0,0-0.1,0.1c-0.1,0-0.1,0-0.1,0
					c0,0,0,0-0.1-0.1c0,0,0,0,0.1-0.1C87.6,121,87.6,121,87.7,120.9C87.6,121,87.6,121,87.7,120.9z"/>
				<path class="st2" d="M89.5,115.8c0.1,0,0.1,0,0.1,0c0,0,0,0,0.1,0.1c0,0.1,0,0.1,0,0.1c0,0,0,0-0.1,0.1c0,0,0,0-0.1-0.1
					c0,0,0,0-0.1-0.1S89.4,115.9,89.5,115.8C89.4,115.8,89.4,115.8,89.5,115.8z"/>
				<path class="st2" d="M95.2,116.2c0.1,0,0.1,0,0.1,0c0,0,0,0,0.1,0.1c0,0,0,0-0.1,0.1c0,0,0,0-0.1,0.1c0,0,0,0-0.1,0.1
					c0,0,0,0-0.1-0.1C95.2,116.3,95.2,116.3,95.2,116.2C95.2,116.2,95.2,116.2,95.2,116.2z"/>
				<path class="st2" d="M120,50.5c0.1,0,0.1,0,0.1,0c0,0,0,0,0.1,0.1c0,0.1,0,0.1,0,0.1c0,0,0,0-0.1,0.1c0,0,0,0-0.1-0.1
					c0,0,0,0-0.1-0.1C120,50.6,120,50.6,120,50.5C120,50.6,120,50.6,120,50.5z"/>
				<path class="st2" d="M175.1,54C175.2,54,175.2,54,175.1,54c0.1,0.1,0.1,0.1,0.1,0.1c0,0,0,0,0.1,0.1c0,0,0,0-0.1,0.1
					c-0.1,0-0.1,0-0.1,0c0,0,0,0-0.1-0.1C175.1,54.1,175.1,54.1,175.1,54C175.1,54,175.1,54,175.1,54z"/>
				<path class="st2" d="M142.9,53.6c0.1,0,0.1,0,0.1,0c0,0,0,0,0.1,0.1c0,0.1,0,0.1,0,0.1c0,0,0,0-0.1,0.1c0,0,0,0-0.1-0.1
					c0,0,0,0-0.1-0.1C142.9,53.7,142.9,53.7,142.9,53.6C142.9,53.6,142.9,53.6,142.9,53.6z"/>
				<path class="st2" d="M185.9,116.7C185.9,116.7,185.9,116.7,185.9,116.7c0.1,0.1,0.1,0.1,0.1,0.1s0,0,0.1,0.1c0,0,0,0-0.1,0.1
					c-0.1,0-0.1,0-0.1,0c0,0,0,0-0.1-0.1C185.8,116.8,185.8,116.8,185.9,116.7C185.9,116.7,185.9,116.7,185.9,116.7z"/>
				<path class="st2" d="M182.2,58.5C182.2,58.5,182.2,58.5,182.2,58.5c0.1,0.1,0.1,0.1,0.1,0.1c0,0,0,0,0.1,0.1c0,0,0,0-0.1,0.1
					c-0.1,0-0.1,0-0.1,0c0,0,0,0-0.1-0.1C182.1,58.6,182.1,58.6,182.2,58.5C182.1,58.5,182.1,58.5,182.2,58.5z"/>
				<path class="st2" d="M184.1,116.8C184.1,116.9,184.1,116.9,184.1,116.8c0.1,0.1,0.1,0.1,0.1,0.1c0,0,0,0,0.1,0.1
					c0,0,0,0-0.1,0.1c-0.1,0-0.1,0-0.1,0c0,0,0,0-0.1-0.1C184,117,184,117,184.1,116.8C184.1,116.9,184.1,116.9,184.1,116.8z"/>
				<path class="st2" d="M158.1,53.2C158.1,53.3,158.1,53.3,158.1,53.2c0.1,0.1,0.1,0.1,0.1,0.2c0,0,0,0-0.1,0.1c-0.1,0-0.1,0-0.1,0
					c0,0,0,0-0.1-0.1c0,0,0,0,0.1-0.1C158,53.3,158,53.3,158.1,53.2C158,53.3,158,53.3,158.1,53.2z"/>
				<path class="st2" d="M95.5,121.3C95.5,121.3,95.5,121.3,95.5,121.3c0.1,0.1,0.1,0.1,0.1,0.2c0,0,0,0-0.1,0.1c-0.1,0-0.1,0-0.1,0
					c0,0,0,0-0.1-0.1c0,0,0,0,0.1-0.1C95.4,121.4,95.4,121.4,95.5,121.3C95.5,121.3,95.5,121.3,95.5,121.3z"/>
				<path class="st2" d="M102.6,49.1C102.6,49.2,102.6,49.2,102.6,49.1c0.1,0.1,0.1,0.1,0.1,0.2c0,0,0,0-0.1,0.1c-0.1,0-0.1,0-0.1,0
					c0,0,0,0-0.1-0.1c0,0,0,0,0.1-0.1C102.5,49.2,102.5,49.2,102.6,49.1C102.5,49.2,102.5,49.2,102.6,49.1z"/>
				<path class="st2" d="M154.7,53c0.1,0,0.1,0,0.1,0c0,0,0,0,0.1,0.1c0,0.1,0,0.1,0,0.1c0,0,0,0-0.1,0.1c0,0,0,0-0.1-0.1
					c0,0,0,0-0.1-0.1C154.7,53.1,154.7,53.1,154.7,53C154.7,53,154.7,53,154.7,53z"/>
				<path class="st2" d="M67.3,120.7C67.3,120.7,67.3,120.7,67.3,120.7c0.1,0.1,0.1,0.1,0.1,0.1s0,0,0.1,0.1c0,0,0,0-0.1,0.1
					c-0.1,0-0.1,0-0.1,0c0,0,0,0-0.1-0.1C67.2,120.8,67.2,120.8,67.3,120.7C67.3,120.7,67.3,120.7,67.3,120.7z"/>
				<path class="st2" d="M65.9,48.5c0.1,0,0.1,0,0.1,0c0,0,0,0,0.1,0.1c0,0.1,0,0.1,0,0.1c0,0,0,0-0.1,0.1c0,0,0,0-0.1-0.1
					c0,0,0,0-0.1-0.1C65.8,48.6,65.8,48.6,65.9,48.5C65.8,48.5,65.8,48.5,65.9,48.5z"/>
				<path class="st2" d="M132.7,121.4C132.7,121.5,132.7,121.5,132.7,121.4c0.1,0.1,0.1,0.1,0.1,0.2c0,0,0,0-0.1,0.1
					c-0.1,0-0.1,0-0.1,0c0,0,0,0-0.1-0.1c0,0,0,0,0.1-0.1C132.6,121.5,132.6,121.5,132.7,121.4C132.7,121.5,132.7,121.5,132.7,121.4
					z"/>
				<path class="st2" d="M181.7,61.7c0.1,0,0.1,0,0.1,0c0,0,0,0,0.1,0.1c0,0,0,0-0.1,0.1c0,0,0,0-0.1,0.1c0,0,0,0-0.1,0.1
					c0,0,0,0-0.1-0.1C181.6,61.8,181.6,61.8,181.7,61.7C181.6,61.7,181.6,61.7,181.7,61.7z"/>
				<path class="st2" d="M180.5,60.3C180.5,60.3,180.5,60.3,180.5,60.3c0.1,0.1,0.1,0.1,0.1,0.1c0,0,0,0,0.1,0.1c0,0,0,0-0.1,0.1
					c-0.1,0-0.1,0-0.1,0c0,0,0,0-0.1-0.1C180.4,60.4,180.4,60.4,180.5,60.3C180.5,60.3,180.5,60.3,180.5,60.3z"/>
				<path class="st2" d="M87.4,107.3c0.1,0,0.1,0,0.1,0c0,0,0,0,0.1,0.1c0,0.1,0,0.1,0,0.1c0,0,0,0-0.1,0.1c0,0,0,0-0.1-0.1
					c0,0,0,0-0.1-0.1C87.4,107.4,87.4,107.4,87.4,107.3C87.4,107.4,87.4,107.4,87.4,107.3z"/>
				<path class="st2" d="M139.1,121.7C139.1,121.7,139.1,121.7,139.1,121.7c0.1,0.1,0.1,0.1,0.1,0.2c0,0,0,0-0.1,0.1
					c-0.1,0-0.1,0-0.1,0c0,0,0,0-0.1-0.1c0,0,0,0,0.1-0.1C139,121.8,139,121.8,139.1,121.7C139.1,121.7,139.1,121.7,139.1,121.7z"/>
				<path class="st2" d="M79.7,117.7C79.8,117.8,79.8,117.8,79.7,117.7c0.1,0.1,0.1,0.1,0.1,0.1c0,0,0,0,0.1,0.1c0,0,0,0-0.1,0.1
					c-0.1,0-0.1,0-0.1,0c0,0,0,0-0.1-0.1C79.7,117.9,79.7,117.9,79.7,117.7C79.7,117.8,79.7,117.8,79.7,117.7z"/>
				<path class="st2" d="M146.5,48.7c0.1,0,0.1,0.4,0,0.4C146.4,49.1,146.4,48.7,146.5,48.7z"/>
				<path class="st2" d="M181.3,52.2c0.1,0,0.1,0,0.1,0c0,0,0,0,0.1,0.1c0,0.1,0,0.1,0,0.1c0,0,0,0-0.1,0.1c0,0,0,0-0.1-0.1
					c0,0,0,0-0.1-0.1C181.3,52.3,181.3,52.3,181.3,52.2C181.3,52.2,181.3,52.2,181.3,52.2z"/>
				<path class="st2" d="M182.9,61.9C183,62,183,62,182.9,61.9c0.1,0.1,0.1,0.1,0.1,0.1c0,0,0,0,0.1,0.1c0,0,0,0-0.1,0.1
					c-0.1,0-0.1,0-0.1,0c0,0,0,0-0.1-0.1C182.9,62.1,182.9,62.1,182.9,61.9C182.9,62,182.9,62,182.9,61.9z"/>
				<path class="st2" d="M89.3,108.6C89.4,108.7,89.4,108.7,89.3,108.6c0.1,0.1,0.1,0.1,0.1,0.1s0,0,0.1,0.1c0,0,0,0-0.1,0.1
					c-0.1,0-0.1,0-0.1,0c0,0,0,0-0.1-0.1C89.3,108.7,89.3,108.7,89.3,108.6C89.3,108.7,89.3,108.7,89.3,108.6z"/>
				<path class="st2" d="M133.8,122.2c0.1,0,0.1,0,0.1,0c0,0,0,0,0.1,0.1c0,0.1,0,0.1,0,0.1c0,0,0,0-0.1,0.1c0,0,0,0-0.1-0.1
					c0,0,0,0-0.1-0.1C133.8,122.3,133.8,122.3,133.8,122.2C133.8,122.2,133.8,122.2,133.8,122.2z"/>
				<path class="st2" d="M154.1,57.3c0.1,0,0.1,0,0.1,0c0,0,0,0,0.1,0.1c0,0,0,0-0.1,0.1c0,0,0,0-0.1,0.1c0,0,0,0-0.1,0.1
					c0,0,0,0-0.1-0.1C154,57.5,154,57.5,154.1,57.3C154.1,57.4,154.1,57.4,154.1,57.3z"/>
				<path class="st2" d="M178.7,117.9C178.8,117.9,178.8,117.9,178.7,117.9c0.1,0.1,0.1,0.1,0.1,0.2c0,0,0,0-0.1,0.1
					c-0.1,0-0.1,0-0.1,0c0,0,0,0-0.1-0.1c0,0,0,0,0.1-0.1C178.6,117.9,178.6,117.9,178.7,117.9C178.7,117.9,178.7,117.9,178.7,117.9
					z"/>
				<path class="st2" d="M179.7,102.8C179.8,102.9,179.8,102.9,179.7,102.8c0.1,0.1,0.1,0.1,0.1,0.1c0,0,0,0,0.1,0.1
					c0,0,0,0-0.1,0.1c-0.1,0-0.1,0-0.1,0c0,0,0,0-0.1-0.1C179.7,103,179.7,103,179.7,102.8C179.7,102.9,179.7,102.9,179.7,102.8z"/>
				<path class="st2" d="M106.4,62.3C106.4,62.4,106.4,62.4,106.4,62.3c0.1,0.1,0.1,0.1,0.1,0.1c0,0,0,0,0.1,0.1c0,0,0,0-0.1,0.1
					c-0.1,0-0.1,0-0.1,0c0,0,0,0-0.1-0.1C106.3,62.5,106.3,62.5,106.4,62.3C106.4,62.4,106.4,62.4,106.4,62.3z"/>
				<path class="st2" d="M88.2,109.5C88.2,109.5,88.2,109.5,88.2,109.5c0.1,0.1,0.1,0.1,0.1,0.2c0,0,0,0-0.1,0.1c-0.1,0-0.1,0-0.1,0
					c0,0,0,0-0.1-0.1c0,0,0,0,0.1-0.1C88.1,109.6,88.1,109.6,88.2,109.5C88.2,109.5,88.2,109.5,88.2,109.5z"/>
				<path class="st2" d="M88.4,62.8C88.5,62.9,88.5,62.9,88.4,62.8c0.1,0.1,0.1,0.1,0.1,0.1c0,0,0,0,0.1,0.1c0,0,0,0-0.1,0.1
					c-0.1,0-0.1,0-0.1,0c0,0,0,0-0.1-0.1C88.4,63,88.4,63,88.4,62.8C88.4,62.9,88.4,62.9,88.4,62.8z"/>
				<path class="st2" d="M112.9,51.9C113,52,113,52,112.9,51.9c0.1,0.1,0.1,0.1,0.1,0.1c0,0,0,0,0.1,0.1c0,0,0,0-0.1,0.1
					c-0.1,0-0.1,0-0.1,0c0,0,0,0-0.1-0.1C112.9,52.1,112.9,52.1,112.9,51.9C112.9,52,112.9,52,112.9,51.9z"/>
				<path class="st2" d="M85.6,99.3C85.7,99.3,85.7,99.3,85.6,99.3c0.1,0.1,0.1,0.1,0.1,0.1c0,0,0,0,0.1,0.1c0,0,0,0-0.1,0.1
					c-0.1,0-0.1,0-0.1,0c0,0,0,0-0.1-0.1C85.6,99.4,85.6,99.4,85.6,99.3C85.6,99.3,85.6,99.3,85.6,99.3z"/>
				<path class="st2" d="M90.5,121.4c0.1,0,0.1,0,0.1,0c0,0,0,0,0.1,0.1c0,0.1,0,0.1,0,0.1c0,0,0,0-0.1,0.1c0,0,0,0-0.1-0.1
					c0,0,0,0-0.1-0.1C90.5,121.5,90.5,121.5,90.5,121.4C90.5,121.5,90.5,121.5,90.5,121.4z"/>
				<path class="st2" d="M189.5,118.1c0.9-0.2,0.4,0.9-0.1,0.8C188.9,118.8,189.2,118.2,189.5,118.1z"/>
				<path class="st2" d="M188.1,119.5c0.9-0.2,0.5,0.8,0.1,0.8C188.1,120.3,187.5,119.6,188.1,119.5z"/>
				<path class="st2" d="M187.6,50.7c0.4-0.1,0.6,0.5,0.3,0.6C187.4,51.4,187.2,50.8,187.6,50.7z"/>
				<path class="st2" d="M188.5,51.9c0.3-0.2,0.6,0.4,0.4,0.5C188.6,52.6,188.2,52.1,188.5,51.9z"/>
			</g>
			<g>
				<path class="st9" d="M119.3,115.5c-0.6,0-1.2-0.1-1.7,0.1c-1.3-1.1-1.3-1.1-2.5-2.2c-0.3-1.8-0.6-3.6-1.4-5.2
					c0.1-1.9,0.8-1.9,0.6-3.5c-0.6-2.3-0.4-6.8-0.8-8.6c-0.2-0.8-2.1-3.1,0.1-4.7c0.1-1.3-0.4-3.2-0.4-3.4c-0.1-2.5,0.3-5,0.1-7.5
					c-0.7-0.9-0.6-2.2-0.5-3.3c0.2-1.3,0.7-2.2,0.8-2.6c0.5-3.4-1.8-6.6,1.3-8.8c-0.4-4.3,2.2-4.8,2.8-5.6c0.3-2.7,4.7-4.4,7.2-4.7
					c-0.9,1.1-2.3,1.4-3.8,3.2c-4.1,4.8-2.6,7.1-2.8,8.2c-0.2,0.9-2.2,1-0.3,6.7c-0.1,1-1.1,1.8-1.3,2.4c-0.7,2.6,1.4,3.3,1.4,5.1
					c0,3.7-3.8,3.1-0.3,8.7c-3,5.3,0.6,5.4,0.4,7.7c-0.1,1.1-1.7,2.2-1.5,3.8c0.1,1.4,1.9,2.4,1.7,3.8
					C116.5,108.5,119,112.2,119.3,115.5z"/>
				<path class="st10" d="M129.3,55.7c2,0.5,5.4,2.1,5.3,4.6c2.5,1.5,3.1,2.6,2.7,5.5c3.3,2,0.7,5.7,1.3,8.6c0.3,1.5,1.6,0.7,1.2,4
					c-0.1,0.4-0.6,1.1-0.6,1.2c-0.1,0.6-0.6,11.5-0.5,12.1c0,0.2,0,0.3,0.2,0.4c0.2,0.1,3.7-1.3,4.2-1.5c1.9-1,5-4.8,1.4-1.3
					c-0.8,0.4-1.5,1-2.3,1.4c-3.7,1.8-3.1,1-3-1.3c6.1-1.7,5.2-7.4,8-11.9c3,1.4,2.6,4,1.6,6.7c-0.4,0.9-1.9,3.1-1.4,2.9
					c0.4-0.1,2.1-4.5,1.8-2.9c-0.3,1.5-2.7,4.9-4.7,6.1c-3.4,2-6.3,1.1-6,3.5c0.1,0.5,0.7,0.9,0.8,1.3c0.5,2-2.4,4.6-0.1,6.5
					c0.3,2.4-1.7,2.1-1.4,6.8c1.4,2.3-0.4,3.6-0.6,4.1c-0.1,0.3-0.1,0.8-0.1,0.8c-1.2,2.3-2,2.5-4.7,2c0.7-2.3,2.2-6,1.9-8.3
					c-0.1-0.7-0.9-1.8-0.8-2.8c0.1-1.5,3-2.1,0.5-6c2.2-2.8,0.2-4.4,0.3-4.7c2.3-2.7,0.1-4.9,0-5.4c-0.2-1.5,2-2.3,1.7-4.6
					c-0.1-1-1.2-1.8-1.5-2.6c-1.7-4.2,2.6-3.9-0.3-8.5c0.7-2.4,1.5-3.3-0.1-5.6c1-3.7-1.9-7.8-4.7-9.9
					C128.3,56.2,124.3,54.4,129.3,55.7z"/>
				<g>
					<g>
						<path class="st10" d="M118.3,73.6c-0.4,2.9-1.1,3.2,0.1,6.4C116.2,76.8,116.8,76.8,118.3,73.6z"/>
						<path class="st10" d="M118.1,90.4c-1.3,4.7,2.1,7.7-0.6,4.4C116.5,92.8,117.1,92.2,118.1,90.4z"/>
						<path class="st10" d="M134.1,81.6c2,2.1,1.3,3.3-0.3,5.4C134.6,84.8,134.9,83.8,134.1,81.6z"/>
						<path class="st10" d="M119.9,115.3c0.1,0.1,0.1,0.1,0.1,0.2c-0.1,0-0.1,0-0.3,0.1c-0.6-3.2-2.4-6.9-1.3-10.1
							C118.3,108.8,119.1,112.1,119.9,115.3z"/>
						<path class="st10" d="M117.8,83.6c-0.9,2.9,0.5,5.6,0.3,5.6C117,87,115.9,85.8,117.8,83.6z"/>
						<path class="st10" d="M125.8,94.5c0.1,0,1.3,0.5,1.3,0.6c0.4,0.8-0.9,3.2-0.7,4.3c-1.1-1.5,0.2-2.5,0.3-3
							C126.9,95.1,125.1,94.9,125.8,94.5z"/>
						<path class="st10" d="M118.3,98.2c-0.3,1.7-0.3,1.7-0.6,3.4c2.2,4.4-0.6,0.6-0.6-0.3C117,100.2,117.9,99.2,118.3,98.2z"/>
						<path class="st10" d="M118.5,67.1c-0.5,2.3-0.2,4-0.1,6.3C118,70.8,116.7,69.5,118.5,67.1z"/>
						<path class="st10" d="M133.8,88.5c1,1.6,1.3,3,0,4.6C133.8,90.8,133.8,90.8,133.8,88.5z"/>
						<path class="st10" d="M133.6,98.7c1.1,1.8,1.3,2.8-0.3,4.4C134.3,101,133.4,98.8,133.6,98.7z"/>
						<path class="st10" d="M133.7,73c1.3,1.9,1.3,2.9-0.1,4.7C134.6,75.3,133.5,73,133.7,73z"/>
						<path class="st10" d="M133.2,105.9c1.1,2.2,0,5-0.8,7.2C132.9,110.7,133.6,108.4,133.2,105.9z"/>
						<path class="st10" d="M133.5,67.1c1.4,1.8,1,2.7,0.3,4.7C134,70,133.7,68.9,133.5,67.1z"/>
						<path class="st10" d="M132.3,61c1.2,1.6,1.5,3.4,1,5.4C133.1,64.6,132.9,62.8,132.3,61z"/>
						<path class="st10" d="M119.6,61.2c-0.7,1.8-0.8,3.6-1,5.5C118.3,64.7,118.4,62.9,119.6,61.2z"/>
						<path class="st10" d="M133.8,93.9c1.8,2.3-1.4,5.7,0.2,2.2C133.9,95,133.9,95,133.8,93.9z"/>
						<path class="st10" d="M125.9,73.4c0.8-0.1,0.9,0.9,0.4,1c-0.6,0.2-1.1-0.6-0.1-0.2c-0.2-0.8-1,0-1-0.3
							C125.2,73.9,125.8,73.4,125.9,73.4z"/>
						<path class="st10" d="M125.9,65c0.3,0.8,0.3,0.8,0.6,1.6C125.7,69.3,126.2,67.4,125.9,65z"/>
						<path class="st10" d="M125.8,88.9c-0.4-0.2-0.9-0.6-0.6-1"/>
						<path class="st10" d="M125.8,80.2c0.4,0.1,0.4,1.5,0.1,1.4C125.8,80.9,125.8,80.9,125.8,80.2z"/>
						<path class="st10" d="M126.1,95.7c0.3,0,0.2,0.7,0.1,0.8C126,96.6,125.9,95.7,126.1,95.7z"/>
						<path class="st10" d="M125,78.4c0.2-0.1,0.3,0.8,0.2,1C125.1,79.6,124.8,78.5,125,78.4z"/>
						<path class="st10" d="M126.7,66.3c0.1,0.2,0.2,0.3,0.1,0.5C126.6,67.8,126.5,66.4,126.7,66.3z"/>
					</g>
				</g>
				<g>
					<path class="st10" d="M145.9,77.3c1.3,0-0.1,1.5-0.8,3.4c-1.4,3.9-1,6.3-5.8,8.1c0-1.5,0-1.5-0.1-3c3.4-0.2,1-5.5,4.6-7.8
						C144.1,77.9,145.5,77.3,145.9,77.3z"/>
				</g>
				<g>
					<g>
						<path class="st9" d="M105,73c1.1,0,2.2,5.5,2.5,6.5c1,2.9,2.4,4.1,5.4,5c-0.1,1.6-0.1,1.6-0.2,3.3c-5.1-0.2-9-4.4-9.8-9.3
							C102.3,75.1,103.8,73,105,73z"/>
						<path class="st9" d="M105.9,72.8c1.5,0,3,0.8,3.8,2.1c1.8,2.9,0,5.7,3.3,6.2c-0.1,1.4-0.1,1.4-0.2,2.9c-6-1.6-4.4-6.7-7.1-11
							C105.8,72.9,105.8,72.9,105.9,72.8z"/>
					</g>
				</g>
				<g>
					<path class="st10" d="M126.1,108.4c-0.5-0.9-0.7-0.7-0.6-2.1c0-0.1,0.5-0.8,0.6-0.7C125.5,106.6,125.6,107.4,126.1,108.4z"/>
					<path class="st10" d="M114.9,114.1c0,0,0-0.1,0.1-0.1c0.2,0.3,1.5,1.2,1.9,1.6C116.9,115.8,115.3,115.4,114.9,114.1z"/>
					<path class="st10" d="M125.5,110.5c0.4,0,0.2,0.7-0.1,0.6C125,111.1,125.4,110.5,125.5,110.5z"/>
				</g>
				<g>
					<path class="st10" d="M126.1,115.4c-0.4-0.7-0.3-2.9,0.1-3.5c-0.2-0.5-1.2,1.1-0.1-0.7c2-3.3-0.7-2.8,0-4.9
						c0.1-0.3,2.7-3.2-0.4-4c2.9-2.4-0.9-2-0.4-5.1c0.1,0,0.1,0,0.3,0c-0.4,0.9,0.4,2,1,2.8c-0.2-1.6,0.7-2.7,0.8-3.5
						c0.1-0.4,0.3-3-0.6-2.6c1.7,1.6-1.8,0.9-0.4-0.4c-0.6-0.4,1.1-1.3,0-4c0.9-2.4-0.1,0.9-0.5-1.5c0.7-0.2,0.2-0.5,0.3-0.8
						c0.4-1.1,2.6-2.8,0.6-4.1c-0.1,0.1,1.1,1,0.2,2.5c0.1-2.7-2.2-2.9-2.1-3.1c2,0.7,0.9,0.1,2-1.1c0.6,0.3,0,0.7,0.1,1
						c0.2,1.7,1.1-1.1-0.5-1.3c0.4-1.3-1.2-1.9-0.7-2.9c0.5,1.9,0.9,1.5,0.3,0.1c2.8-3.3-1-3.6-0.9-3.8c2.9,0.7,1.2-1.1,1.3-1.3
						c0-0.1,1,0.7,0.6-1.3c-0.1-0.8-1.7-1.2-1.5-2.2c2,1.9-0.2-0.5,0.6-0.4c1.1,1.2,0.1-0.1,0.2-0.4c0-0.1,0.9-0.9,1.1-0.8
						c-0.6,1.4,0.4,2.5-0.4,2c0.6,1,0,1.6,0.5,2.3c-0.6,1.7,0.5,3.4-0.5,4.9c0.2,0.4,0.8-1,0.8-1.2c-0.2-3.6-0.2-3.6-0.4-7.2
						c0.9-1.3-0.3-1-0.4-1.2c-0.1-0.1,0.9-0.7-0.8-2.9c0.3-2.4-0.1-0.2-0.5-0.6c1.5-1.7,0.4-5,0.8-7.4c1.4-0.9,4.5,2.4,5.1,3.5
						c1.7,2.9,1.2,6.4,2.2,9.5c-0.8,3.7,0.9,5.7-0.4,8.2c-0.3,3.2,2.1,5.3,0.3,9.4c0.4,3.1,0,6.1,0.3,9.2c-1.3,2.7,0.6,3.9-1,7.8
						c0.6,4.2,0.1,7.4-1.3,11.3C130.2,115.5,126.7,115.3,126.1,115.4z"/>
				</g>
				<g>
					<path class="st10" d="M124.9,76.1c0-0.2-0.3-0.1-0.3-0.2c0-0.1,0.6-0.1,0-1c1.7,0,2.1,1.7,0.8,2.8c-1,0.9-1,0.1-1,0.1
						c0,0-0.4,0.5-0.4,0.6c-0.1,0.5,1.5,1.5,1.7,2.6c0.3,1.9-1.5,0.9-1.3,1.8c0,0.2,2.7,1,2,3.4c0.1-1.3-0.5-1.9-0.7-1.5
						c-0.1,0.1,0.6,1.2,0.3,2.1c0,0.1-0.8-0.8-0.4,1.2c-0.3-0.3-0.3-0.3-0.6-0.6c-0.2,0.1,0.4,0.5-0.3,0.8c-0.1,0.4,2.7,2.1,0.7,5.3
						c-0.1,0,0.6-2.2-0.1-2.6c-0.6-0.3,0.3,0.2,0.2,1.5c-0.1,0.7-0.7,1.3-0.6,1.7c0,0.1,1.4,0.9,1,1.8c0,0.1-0.6,0.1-0.5,0.4
						c0.1,0.2,0.6-0.4,0.6,0c0.1,0.6-1.2,0.7-0.9,2.6c0.1,0.7,1,1.4,1,1.5c0,0.2-1.3,0.7,0.3,0.4c-2.6,2,0.6,1.4,0.1,4
						c0.2-2.2,0.5-1.9,0.2,0.1c-0.5,0.4-3.4,3.3-1,1.6c-0.4,1.3,0.4,2,0.8,3.1c-0.1,0.6-2,1.2-0.9,2.1c-0.7,0.5,0.5,1.3,0.1,3.8
						c-0.1,0.2-4.5,0.1-5.1-0.1c-1.9-4.5-1.2-10.4-1.4-11.6c-0.1-0.7-1-1.4-0.8-3.5c1.7-4.5-0.5-5.2-0.1-8.1c0.1,0-0.1,1.6,0.5,2.6
						c-0.3-1.8-0.2-3.6-0.2-5.4c-1.3-3.6,0.2-6.2,0.3-9.7c-1.4-2.4-0.2-3.7,0-5.3c0.2-1.5-0.4-3.5-0.3-5.1c1-3.4,0.2-5.6,2.2-9
						c0.5-0.8,2.2-2.8,3-3.3c4-2.2,1.6,2.2,1.9,6.3c-1.5,0.1,0.7,1.2,0.4,4.4c0,0.1-0.3,1.1-0.4,1.4c0,0.1-0.3-0.2-0.4,0
						c-0.1,0.5,0,2.2,0.9,2.4c-1,1.6,0.5-0.5,0.8,0.6c0.2,1-3.1,0.9-1.9,3.5C123.8,76.9,125.7,76.4,124.9,76.1z"/>
				</g>
			</g>
		</g>
		<text transform="matrix(1 0 0 1 63.7851 132.3398)" class="st10 st12 st13">Thermorgulation</text>
	</g>
</g>
</svg>
